<?xml version="1.0" encoding="utf-8" standalone="no"?>
<!DOCTYPE svg PUBLIC "-//W3C//DTD SVG 1.1//EN"
  "http://www.w3.org/Graphics/SVG/1.1/DTD/svg11.dtd">
<svg xmlns:xlink="http://www.w3.org/1999/xlink" width="758.8875pt" height="293.470938pt" viewBox="0 0 758.8875 293.470938" xmlns="http://www.w3.org/2000/svg" version="1.1">
 <metadata>
  <rdf:RDF xmlns:dc="http://purl.org/dc/elements/1.1/" xmlns:cc="http://creativecommons.org/ns#" xmlns:rdf="http://www.w3.org/1999/02/22-rdf-syntax-ns#">
   <cc:Work>
    <dc:type rdf:resource="http://purl.org/dc/dcmitype/StillImage"/>
    <dc:date>2025-08-01T14:24:11.192363</dc:date>
    <dc:format>image/svg+xml</dc:format>
    <dc:creator>
     <cc:Agent>
      <dc:title>Matplotlib v3.10.1, https://matplotlib.org/</dc:title>
     </cc:Agent>
    </dc:creator>
   </cc:Work>
  </rdf:RDF>
 </metadata>
 <defs>
  <style type="text/css">*{stroke-linejoin: round; stroke-linecap: butt}</style>
 </defs>
 <g id="figure_1">
  <g id="patch_1">
   <path d="M 0 293.470938 
L 758.8875 293.470938 
L 758.8875 0 
L 0 0 
z
" style="fill: #ffffff"/>
  </g>
  <g id="axes_1">
   <g id="patch_2">
    <path d="M 82.0875 236.558438 
L 751.6875 236.558438 
L 751.6875 14.798438 
L 82.0875 14.798438 
z
" style="fill: #ffffff"/>
   </g>
   <g id="matplotlib.axis_1">
    <g id="xtick_1">
     <g id="line2d_1">
      <defs>
       <path id="mcb4b17e8fe" d="M 0 0 
L 0 3.5 
" style="stroke: #000000; stroke-width: 0.8"/>
      </defs>
      <g>
       <use xlink:href="#mcb4b17e8fe" x="112.523864" y="236.558438" style="stroke: #000000; stroke-width: 0.8"/>
      </g>
     </g>
     <g id="text_1">
      <!-- 0.0 -->
      <g transform="translate(96.620739 258.755313) scale(0.2 -0.2)">
       <defs>
        <path id="DejaVuSans-30" d="M 2034 4250 
Q 1547 4250 1301 3770 
Q 1056 3291 1056 2328 
Q 1056 1369 1301 889 
Q 1547 409 2034 409 
Q 2525 409 2770 889 
Q 3016 1369 3016 2328 
Q 3016 3291 2770 3770 
Q 2525 4250 2034 4250 
z
M 2034 4750 
Q 2819 4750 3233 4129 
Q 3647 3509 3647 2328 
Q 3647 1150 3233 529 
Q 2819 -91 2034 -91 
Q 1250 -91 836 529 
Q 422 1150 422 2328 
Q 422 3509 836 4129 
Q 1250 4750 2034 4750 
z
" transform="scale(0.015625)"/>
        <path id="DejaVuSans-2e" d="M 684 794 
L 1344 794 
L 1344 0 
L 684 0 
L 684 794 
z
" transform="scale(0.015625)"/>
       </defs>
       <use xlink:href="#DejaVuSans-30"/>
       <use xlink:href="#DejaVuSans-2e" transform="translate(63.623047 0)"/>
       <use xlink:href="#DejaVuSans-30" transform="translate(95.410156 0)"/>
      </g>
     </g>
    </g>
    <g id="xtick_2">
     <g id="line2d_2">
      <g>
       <use xlink:href="#mcb4b17e8fe" x="188.614773" y="236.558438" style="stroke: #000000; stroke-width: 0.8"/>
      </g>
     </g>
     <g id="text_2">
      <!-- 2.5 -->
      <g transform="translate(172.711648 258.755313) scale(0.2 -0.2)">
       <defs>
        <path id="DejaVuSans-32" d="M 1228 531 
L 3431 531 
L 3431 0 
L 469 0 
L 469 531 
Q 828 903 1448 1529 
Q 2069 2156 2228 2338 
Q 2531 2678 2651 2914 
Q 2772 3150 2772 3378 
Q 2772 3750 2511 3984 
Q 2250 4219 1831 4219 
Q 1534 4219 1204 4116 
Q 875 4013 500 3803 
L 500 4441 
Q 881 4594 1212 4672 
Q 1544 4750 1819 4750 
Q 2544 4750 2975 4387 
Q 3406 4025 3406 3419 
Q 3406 3131 3298 2873 
Q 3191 2616 2906 2266 
Q 2828 2175 2409 1742 
Q 1991 1309 1228 531 
z
" transform="scale(0.015625)"/>
        <path id="DejaVuSans-35" d="M 691 4666 
L 3169 4666 
L 3169 4134 
L 1269 4134 
L 1269 2991 
Q 1406 3038 1543 3061 
Q 1681 3084 1819 3084 
Q 2600 3084 3056 2656 
Q 3513 2228 3513 1497 
Q 3513 744 3044 326 
Q 2575 -91 1722 -91 
Q 1428 -91 1123 -41 
Q 819 9 494 109 
L 494 744 
Q 775 591 1075 516 
Q 1375 441 1709 441 
Q 2250 441 2565 725 
Q 2881 1009 2881 1497 
Q 2881 1984 2565 2268 
Q 2250 2553 1709 2553 
Q 1456 2553 1204 2497 
Q 953 2441 691 2322 
L 691 4666 
z
" transform="scale(0.015625)"/>
       </defs>
       <use xlink:href="#DejaVuSans-32"/>
       <use xlink:href="#DejaVuSans-2e" transform="translate(63.623047 0)"/>
       <use xlink:href="#DejaVuSans-35" transform="translate(95.410156 0)"/>
      </g>
     </g>
    </g>
    <g id="xtick_3">
     <g id="line2d_3">
      <g>
       <use xlink:href="#mcb4b17e8fe" x="264.705682" y="236.558438" style="stroke: #000000; stroke-width: 0.8"/>
      </g>
     </g>
     <g id="text_3">
      <!-- 5.0 -->
      <g transform="translate(248.802557 258.755313) scale(0.2 -0.2)">
       <use xlink:href="#DejaVuSans-35"/>
       <use xlink:href="#DejaVuSans-2e" transform="translate(63.623047 0)"/>
       <use xlink:href="#DejaVuSans-30" transform="translate(95.410156 0)"/>
      </g>
     </g>
    </g>
    <g id="xtick_4">
     <g id="line2d_4">
      <g>
       <use xlink:href="#mcb4b17e8fe" x="340.796591" y="236.558438" style="stroke: #000000; stroke-width: 0.8"/>
      </g>
     </g>
     <g id="text_4">
      <!-- 7.5 -->
      <g transform="translate(324.893466 258.755313) scale(0.2 -0.2)">
       <defs>
        <path id="DejaVuSans-37" d="M 525 4666 
L 3525 4666 
L 3525 4397 
L 1831 0 
L 1172 0 
L 2766 4134 
L 525 4134 
L 525 4666 
z
" transform="scale(0.015625)"/>
       </defs>
       <use xlink:href="#DejaVuSans-37"/>
       <use xlink:href="#DejaVuSans-2e" transform="translate(63.623047 0)"/>
       <use xlink:href="#DejaVuSans-35" transform="translate(95.410156 0)"/>
      </g>
     </g>
    </g>
    <g id="xtick_5">
     <g id="line2d_5">
      <g>
       <use xlink:href="#mcb4b17e8fe" x="416.8875" y="236.558438" style="stroke: #000000; stroke-width: 0.8"/>
      </g>
     </g>
     <g id="text_5">
      <!-- 10.0 -->
      <g transform="translate(394.621875 258.755313) scale(0.2 -0.2)">
       <defs>
        <path id="DejaVuSans-31" d="M 794 531 
L 1825 531 
L 1825 4091 
L 703 3866 
L 703 4441 
L 1819 4666 
L 2450 4666 
L 2450 531 
L 3481 531 
L 3481 0 
L 794 0 
L 794 531 
z
" transform="scale(0.015625)"/>
       </defs>
       <use xlink:href="#DejaVuSans-31"/>
       <use xlink:href="#DejaVuSans-30" transform="translate(63.623047 0)"/>
       <use xlink:href="#DejaVuSans-2e" transform="translate(127.246094 0)"/>
       <use xlink:href="#DejaVuSans-30" transform="translate(159.033203 0)"/>
      </g>
     </g>
    </g>
    <g id="xtick_6">
     <g id="line2d_6">
      <g>
       <use xlink:href="#mcb4b17e8fe" x="492.978409" y="236.558438" style="stroke: #000000; stroke-width: 0.8"/>
      </g>
     </g>
     <g id="text_6">
      <!-- 12.5 -->
      <g transform="translate(470.712784 258.755313) scale(0.2 -0.2)">
       <use xlink:href="#DejaVuSans-31"/>
       <use xlink:href="#DejaVuSans-32" transform="translate(63.623047 0)"/>
       <use xlink:href="#DejaVuSans-2e" transform="translate(127.246094 0)"/>
       <use xlink:href="#DejaVuSans-35" transform="translate(159.033203 0)"/>
      </g>
     </g>
    </g>
    <g id="xtick_7">
     <g id="line2d_7">
      <g>
       <use xlink:href="#mcb4b17e8fe" x="569.069318" y="236.558438" style="stroke: #000000; stroke-width: 0.8"/>
      </g>
     </g>
     <g id="text_7">
      <!-- 15.0 -->
      <g transform="translate(546.803693 258.755313) scale(0.2 -0.2)">
       <use xlink:href="#DejaVuSans-31"/>
       <use xlink:href="#DejaVuSans-35" transform="translate(63.623047 0)"/>
       <use xlink:href="#DejaVuSans-2e" transform="translate(127.246094 0)"/>
       <use xlink:href="#DejaVuSans-30" transform="translate(159.033203 0)"/>
      </g>
     </g>
    </g>
    <g id="xtick_8">
     <g id="line2d_8">
      <g>
       <use xlink:href="#mcb4b17e8fe" x="645.160227" y="236.558438" style="stroke: #000000; stroke-width: 0.8"/>
      </g>
     </g>
     <g id="text_8">
      <!-- 17.5 -->
      <g transform="translate(622.894602 258.755313) scale(0.2 -0.2)">
       <use xlink:href="#DejaVuSans-31"/>
       <use xlink:href="#DejaVuSans-37" transform="translate(63.623047 0)"/>
       <use xlink:href="#DejaVuSans-2e" transform="translate(127.246094 0)"/>
       <use xlink:href="#DejaVuSans-35" transform="translate(159.033203 0)"/>
      </g>
     </g>
    </g>
    <g id="xtick_9">
     <g id="line2d_9">
      <g>
       <use xlink:href="#mcb4b17e8fe" x="721.251136" y="236.558438" style="stroke: #000000; stroke-width: 0.8"/>
      </g>
     </g>
     <g id="text_9">
      <!-- 20.0 -->
      <g transform="translate(698.985511 258.755313) scale(0.2 -0.2)">
       <use xlink:href="#DejaVuSans-32"/>
       <use xlink:href="#DejaVuSans-30" transform="translate(63.623047 0)"/>
       <use xlink:href="#DejaVuSans-2e" transform="translate(127.246094 0)"/>
       <use xlink:href="#DejaVuSans-30" transform="translate(159.033203 0)"/>
      </g>
     </g>
    </g>
    <g id="text_10">
     <!-- Time -->
     <g transform="translate(392.420313 282.111563) scale(0.2 -0.2)">
      <defs>
       <path id="DejaVuSans-54" d="M -19 4666 
L 3928 4666 
L 3928 4134 
L 2272 4134 
L 2272 0 
L 1638 0 
L 1638 4134 
L -19 4134 
L -19 4666 
z
" transform="scale(0.015625)"/>
       <path id="DejaVuSans-69" d="M 603 3500 
L 1178 3500 
L 1178 0 
L 603 0 
L 603 3500 
z
M 603 4863 
L 1178 4863 
L 1178 4134 
L 603 4134 
L 603 4863 
z
" transform="scale(0.015625)"/>
       <path id="DejaVuSans-6d" d="M 3328 2828 
Q 3544 3216 3844 3400 
Q 4144 3584 4550 3584 
Q 5097 3584 5394 3201 
Q 5691 2819 5691 2113 
L 5691 0 
L 5113 0 
L 5113 2094 
Q 5113 2597 4934 2840 
Q 4756 3084 4391 3084 
Q 3944 3084 3684 2787 
Q 3425 2491 3425 1978 
L 3425 0 
L 2847 0 
L 2847 2094 
Q 2847 2600 2669 2842 
Q 2491 3084 2119 3084 
Q 1678 3084 1418 2786 
Q 1159 2488 1159 1978 
L 1159 0 
L 581 0 
L 581 3500 
L 1159 3500 
L 1159 2956 
Q 1356 3278 1631 3431 
Q 1906 3584 2284 3584 
Q 2666 3584 2933 3390 
Q 3200 3197 3328 2828 
z
" transform="scale(0.015625)"/>
       <path id="DejaVuSans-65" d="M 3597 1894 
L 3597 1613 
L 953 1613 
Q 991 1019 1311 708 
Q 1631 397 2203 397 
Q 2534 397 2845 478 
Q 3156 559 3463 722 
L 3463 178 
Q 3153 47 2828 -22 
Q 2503 -91 2169 -91 
Q 1331 -91 842 396 
Q 353 884 353 1716 
Q 353 2575 817 3079 
Q 1281 3584 2069 3584 
Q 2775 3584 3186 3129 
Q 3597 2675 3597 1894 
z
M 3022 2063 
Q 3016 2534 2758 2815 
Q 2500 3097 2075 3097 
Q 1594 3097 1305 2825 
Q 1016 2553 972 2059 
L 3022 2063 
z
" transform="scale(0.015625)"/>
      </defs>
      <use xlink:href="#DejaVuSans-54"/>
      <use xlink:href="#DejaVuSans-69" transform="translate(57.958984 0)"/>
      <use xlink:href="#DejaVuSans-6d" transform="translate(85.742188 0)"/>
      <use xlink:href="#DejaVuSans-65" transform="translate(183.154297 0)"/>
     </g>
    </g>
   </g>
   <g id="matplotlib.axis_2">
    <g id="ytick_1">
     <g id="line2d_10">
      <defs>
       <path id="m2f695d6919" d="M 0 0 
L -3.5 0 
" style="stroke: #000000; stroke-width: 0.8"/>
      </defs>
      <g>
       <use xlink:href="#m2f695d6919" x="82.0875" y="236.558438" style="stroke: #000000; stroke-width: 0.8"/>
      </g>
     </g>
     <g id="text_11">
      <!-- 0.00 -->
      <g transform="translate(30.55625 244.156875) scale(0.2 -0.2)">
       <use xlink:href="#DejaVuSans-30"/>
       <use xlink:href="#DejaVuSans-2e" transform="translate(63.623047 0)"/>
       <use xlink:href="#DejaVuSans-30" transform="translate(95.410156 0)"/>
       <use xlink:href="#DejaVuSans-30" transform="translate(159.033203 0)"/>
      </g>
     </g>
    </g>
    <g id="ytick_2">
     <g id="line2d_11">
      <g>
       <use xlink:href="#m2f695d6919" x="82.0875" y="204.878438" style="stroke: #000000; stroke-width: 0.8"/>
      </g>
     </g>
     <g id="text_12">
      <!-- 0.05 -->
      <g transform="translate(30.55625 212.476875) scale(0.2 -0.2)">
       <use xlink:href="#DejaVuSans-30"/>
       <use xlink:href="#DejaVuSans-2e" transform="translate(63.623047 0)"/>
       <use xlink:href="#DejaVuSans-30" transform="translate(95.410156 0)"/>
       <use xlink:href="#DejaVuSans-35" transform="translate(159.033203 0)"/>
      </g>
     </g>
    </g>
    <g id="ytick_3">
     <g id="line2d_12">
      <g>
       <use xlink:href="#m2f695d6919" x="82.0875" y="173.198438" style="stroke: #000000; stroke-width: 0.8"/>
      </g>
     </g>
     <g id="text_13">
      <!-- 0.10 -->
      <g transform="translate(30.55625 180.796875) scale(0.2 -0.2)">
       <use xlink:href="#DejaVuSans-30"/>
       <use xlink:href="#DejaVuSans-2e" transform="translate(63.623047 0)"/>
       <use xlink:href="#DejaVuSans-31" transform="translate(95.410156 0)"/>
       <use xlink:href="#DejaVuSans-30" transform="translate(159.033203 0)"/>
      </g>
     </g>
    </g>
    <g id="ytick_4">
     <g id="line2d_13">
      <g>
       <use xlink:href="#m2f695d6919" x="82.0875" y="141.518438" style="stroke: #000000; stroke-width: 0.8"/>
      </g>
     </g>
     <g id="text_14">
      <!-- 0.15 -->
      <g transform="translate(30.55625 149.116875) scale(0.2 -0.2)">
       <use xlink:href="#DejaVuSans-30"/>
       <use xlink:href="#DejaVuSans-2e" transform="translate(63.623047 0)"/>
       <use xlink:href="#DejaVuSans-31" transform="translate(95.410156 0)"/>
       <use xlink:href="#DejaVuSans-35" transform="translate(159.033203 0)"/>
      </g>
     </g>
    </g>
    <g id="ytick_5">
     <g id="line2d_14">
      <g>
       <use xlink:href="#m2f695d6919" x="82.0875" y="109.838438" style="stroke: #000000; stroke-width: 0.8"/>
      </g>
     </g>
     <g id="text_15">
      <!-- 0.20 -->
      <g transform="translate(30.55625 117.436875) scale(0.2 -0.2)">
       <use xlink:href="#DejaVuSans-30"/>
       <use xlink:href="#DejaVuSans-2e" transform="translate(63.623047 0)"/>
       <use xlink:href="#DejaVuSans-32" transform="translate(95.410156 0)"/>
       <use xlink:href="#DejaVuSans-30" transform="translate(159.033203 0)"/>
      </g>
     </g>
    </g>
    <g id="ytick_6">
     <g id="line2d_15">
      <g>
       <use xlink:href="#m2f695d6919" x="82.0875" y="78.158438" style="stroke: #000000; stroke-width: 0.8"/>
      </g>
     </g>
     <g id="text_16">
      <!-- 0.25 -->
      <g transform="translate(30.55625 85.756875) scale(0.2 -0.2)">
       <use xlink:href="#DejaVuSans-30"/>
       <use xlink:href="#DejaVuSans-2e" transform="translate(63.623047 0)"/>
       <use xlink:href="#DejaVuSans-32" transform="translate(95.410156 0)"/>
       <use xlink:href="#DejaVuSans-35" transform="translate(159.033203 0)"/>
      </g>
     </g>
    </g>
    <g id="ytick_7">
     <g id="line2d_16">
      <g>
       <use xlink:href="#m2f695d6919" x="82.0875" y="46.478437" style="stroke: #000000; stroke-width: 0.8"/>
      </g>
     </g>
     <g id="text_17">
      <!-- 0.30 -->
      <g transform="translate(30.55625 54.076875) scale(0.2 -0.2)">
       <defs>
        <path id="DejaVuSans-33" d="M 2597 2516 
Q 3050 2419 3304 2112 
Q 3559 1806 3559 1356 
Q 3559 666 3084 287 
Q 2609 -91 1734 -91 
Q 1441 -91 1130 -33 
Q 819 25 488 141 
L 488 750 
Q 750 597 1062 519 
Q 1375 441 1716 441 
Q 2309 441 2620 675 
Q 2931 909 2931 1356 
Q 2931 1769 2642 2001 
Q 2353 2234 1838 2234 
L 1294 2234 
L 1294 2753 
L 1863 2753 
Q 2328 2753 2575 2939 
Q 2822 3125 2822 3475 
Q 2822 3834 2567 4026 
Q 2313 4219 1838 4219 
Q 1578 4219 1281 4162 
Q 984 4106 628 3988 
L 628 4550 
Q 988 4650 1302 4700 
Q 1616 4750 1894 4750 
Q 2613 4750 3031 4423 
Q 3450 4097 3450 3541 
Q 3450 3153 3228 2886 
Q 3006 2619 2597 2516 
z
" transform="scale(0.015625)"/>
       </defs>
       <use xlink:href="#DejaVuSans-30"/>
       <use xlink:href="#DejaVuSans-2e" transform="translate(63.623047 0)"/>
       <use xlink:href="#DejaVuSans-33" transform="translate(95.410156 0)"/>
       <use xlink:href="#DejaVuSans-30" transform="translate(159.033203 0)"/>
      </g>
     </g>
    </g>
    <g id="ytick_8">
     <g id="line2d_17">
      <g>
       <use xlink:href="#m2f695d6919" x="82.0875" y="14.798438" style="stroke: #000000; stroke-width: 0.8"/>
      </g>
     </g>
     <g id="text_18">
      <!-- 0.35 -->
      <g transform="translate(30.55625 22.396875) scale(0.2 -0.2)">
       <use xlink:href="#DejaVuSans-30"/>
       <use xlink:href="#DejaVuSans-2e" transform="translate(63.623047 0)"/>
       <use xlink:href="#DejaVuSans-33" transform="translate(95.410156 0)"/>
       <use xlink:href="#DejaVuSans-35" transform="translate(159.033203 0)"/>
      </g>
     </g>
    </g>
    <g id="text_19">
     <!-- Midia attention $m$ -->
     <g transform="translate(22.396875 214.078438) rotate(-90) scale(0.2 -0.2)">
      <defs>
       <path id="DejaVuSans-4d" d="M 628 4666 
L 1569 4666 
L 2759 1491 
L 3956 4666 
L 4897 4666 
L 4897 0 
L 4281 0 
L 4281 4097 
L 3078 897 
L 2444 897 
L 1241 4097 
L 1241 0 
L 628 0 
L 628 4666 
z
" transform="scale(0.015625)"/>
       <path id="DejaVuSans-64" d="M 2906 2969 
L 2906 4863 
L 3481 4863 
L 3481 0 
L 2906 0 
L 2906 525 
Q 2725 213 2448 61 
Q 2172 -91 1784 -91 
Q 1150 -91 751 415 
Q 353 922 353 1747 
Q 353 2572 751 3078 
Q 1150 3584 1784 3584 
Q 2172 3584 2448 3432 
Q 2725 3281 2906 2969 
z
M 947 1747 
Q 947 1113 1208 752 
Q 1469 391 1925 391 
Q 2381 391 2643 752 
Q 2906 1113 2906 1747 
Q 2906 2381 2643 2742 
Q 2381 3103 1925 3103 
Q 1469 3103 1208 2742 
Q 947 2381 947 1747 
z
" transform="scale(0.015625)"/>
       <path id="DejaVuSans-61" d="M 2194 1759 
Q 1497 1759 1228 1600 
Q 959 1441 959 1056 
Q 959 750 1161 570 
Q 1363 391 1709 391 
Q 2188 391 2477 730 
Q 2766 1069 2766 1631 
L 2766 1759 
L 2194 1759 
z
M 3341 1997 
L 3341 0 
L 2766 0 
L 2766 531 
Q 2569 213 2275 61 
Q 1981 -91 1556 -91 
Q 1019 -91 701 211 
Q 384 513 384 1019 
Q 384 1609 779 1909 
Q 1175 2209 1959 2209 
L 2766 2209 
L 2766 2266 
Q 2766 2663 2505 2880 
Q 2244 3097 1772 3097 
Q 1472 3097 1187 3025 
Q 903 2953 641 2809 
L 641 3341 
Q 956 3463 1253 3523 
Q 1550 3584 1831 3584 
Q 2591 3584 2966 3190 
Q 3341 2797 3341 1997 
z
" transform="scale(0.015625)"/>
       <path id="DejaVuSans-20" transform="scale(0.015625)"/>
       <path id="DejaVuSans-74" d="M 1172 4494 
L 1172 3500 
L 2356 3500 
L 2356 3053 
L 1172 3053 
L 1172 1153 
Q 1172 725 1289 603 
Q 1406 481 1766 481 
L 2356 481 
L 2356 0 
L 1766 0 
Q 1100 0 847 248 
Q 594 497 594 1153 
L 594 3053 
L 172 3053 
L 172 3500 
L 594 3500 
L 594 4494 
L 1172 4494 
z
" transform="scale(0.015625)"/>
       <path id="DejaVuSans-6e" d="M 3513 2113 
L 3513 0 
L 2938 0 
L 2938 2094 
Q 2938 2591 2744 2837 
Q 2550 3084 2163 3084 
Q 1697 3084 1428 2787 
Q 1159 2491 1159 1978 
L 1159 0 
L 581 0 
L 581 3500 
L 1159 3500 
L 1159 2956 
Q 1366 3272 1645 3428 
Q 1925 3584 2291 3584 
Q 2894 3584 3203 3211 
Q 3513 2838 3513 2113 
z
" transform="scale(0.015625)"/>
       <path id="DejaVuSans-6f" d="M 1959 3097 
Q 1497 3097 1228 2736 
Q 959 2375 959 1747 
Q 959 1119 1226 758 
Q 1494 397 1959 397 
Q 2419 397 2687 759 
Q 2956 1122 2956 1747 
Q 2956 2369 2687 2733 
Q 2419 3097 1959 3097 
z
M 1959 3584 
Q 2709 3584 3137 3096 
Q 3566 2609 3566 1747 
Q 3566 888 3137 398 
Q 2709 -91 1959 -91 
Q 1206 -91 779 398 
Q 353 888 353 1747 
Q 353 2609 779 3096 
Q 1206 3584 1959 3584 
z
" transform="scale(0.015625)"/>
       <path id="DejaVuSans-Oblique-6d" d="M 5747 2113 
L 5338 0 
L 4763 0 
L 5166 2094 
Q 5191 2228 5203 2325 
Q 5216 2422 5216 2491 
Q 5216 2772 5059 2928 
Q 4903 3084 4622 3084 
Q 4203 3084 3875 2770 
Q 3547 2456 3450 1953 
L 3066 0 
L 2491 0 
L 2900 2094 
Q 2925 2209 2937 2307 
Q 2950 2406 2950 2484 
Q 2950 2769 2794 2926 
Q 2638 3084 2363 3084 
Q 1938 3084 1609 2770 
Q 1281 2456 1184 1953 
L 800 0 
L 225 0 
L 909 3500 
L 1484 3500 
L 1375 2956 
Q 1609 3263 1923 3423 
Q 2238 3584 2597 3584 
Q 2978 3584 3223 3384 
Q 3469 3184 3519 2828 
Q 3781 3197 4126 3390 
Q 4472 3584 4856 3584 
Q 5306 3584 5551 3325 
Q 5797 3066 5797 2591 
Q 5797 2488 5784 2364 
Q 5772 2241 5747 2113 
z
" transform="scale(0.015625)"/>
      </defs>
      <use xlink:href="#DejaVuSans-4d" transform="translate(0 0.015625)"/>
      <use xlink:href="#DejaVuSans-69" transform="translate(86.279297 0.015625)"/>
      <use xlink:href="#DejaVuSans-64" transform="translate(114.0625 0.015625)"/>
      <use xlink:href="#DejaVuSans-69" transform="translate(177.539062 0.015625)"/>
      <use xlink:href="#DejaVuSans-61" transform="translate(205.322266 0.015625)"/>
      <use xlink:href="#DejaVuSans-20" transform="translate(266.601562 0.015625)"/>
      <use xlink:href="#DejaVuSans-61" transform="translate(298.388672 0.015625)"/>
      <use xlink:href="#DejaVuSans-74" transform="translate(359.667969 0.015625)"/>
      <use xlink:href="#DejaVuSans-74" transform="translate(398.876953 0.015625)"/>
      <use xlink:href="#DejaVuSans-65" transform="translate(438.085938 0.015625)"/>
      <use xlink:href="#DejaVuSans-6e" transform="translate(499.609375 0.015625)"/>
      <use xlink:href="#DejaVuSans-74" transform="translate(562.988281 0.015625)"/>
      <use xlink:href="#DejaVuSans-69" transform="translate(602.197266 0.015625)"/>
      <use xlink:href="#DejaVuSans-6f" transform="translate(629.980469 0.015625)"/>
      <use xlink:href="#DejaVuSans-6e" transform="translate(691.162109 0.015625)"/>
      <use xlink:href="#DejaVuSans-20" transform="translate(754.541016 0.015625)"/>
      <use xlink:href="#DejaVuSans-Oblique-6d" transform="translate(786.328125 0.015625)"/>
     </g>
    </g>
   </g>
   <g id="line2d_18">
    <path d="M 112.523864 173.198437 
L 142.960227 173.198437 
L 173.396591 171.804512 
L 203.832955 163.06083 
L 234.269318 159.259237 
L 264.705682 147.094123 
L 295.142045 120.482907 
L 325.578409 90.703713 
L 356.014773 69.92163 
L 386.451136 57.249623 
L 416.8875 50.913611 
L 447.323864 49.26626 
L 477.760227 49.139538 
L 508.196591 50.280038 
L 538.632955 49.012797 
L 569.069318 50.280019 
L 599.505682 49.519705 
L 629.942045 49.392964 
L 660.378409 49.392964 
L 690.814773 49.899852 
L 721.251136 49.519686 
" clip-path="url(#p41b13e208b)" style="fill: none; stroke: #1f77b4; stroke-width: 4; stroke-linecap: square"/>
    <defs>
     <path id="m1c49e3048d" d="M 0 5 
C 1.326016 5 2.597899 4.473168 3.535534 3.535534 
C 4.473168 2.597899 5 1.326016 5 0 
C 5 -1.326016 4.473168 -2.597899 3.535534 -3.535534 
C 2.597899 -4.473168 1.326016 -5 0 -5 
C -1.326016 -5 -2.597899 -4.473168 -3.535534 -3.535534 
C -4.473168 -2.597899 -5 -1.326016 -5 0 
C -5 1.326016 -4.473168 2.597899 -3.535534 3.535534 
C -2.597899 4.473168 -1.326016 5 0 5 
z
" style="stroke: #1f77b4"/>
    </defs>
    <g clip-path="url(#p41b13e208b)">
     <use xlink:href="#m1c49e3048d" x="112.523864" y="173.198437" style="fill: #1f77b4; stroke: #1f77b4"/>
     <use xlink:href="#m1c49e3048d" x="142.960227" y="173.198437" style="fill: #1f77b4; stroke: #1f77b4"/>
     <use xlink:href="#m1c49e3048d" x="173.396591" y="171.804512" style="fill: #1f77b4; stroke: #1f77b4"/>
     <use xlink:href="#m1c49e3048d" x="203.832955" y="163.06083" style="fill: #1f77b4; stroke: #1f77b4"/>
     <use xlink:href="#m1c49e3048d" x="234.269318" y="159.259237" style="fill: #1f77b4; stroke: #1f77b4"/>
     <use xlink:href="#m1c49e3048d" x="264.705682" y="147.094123" style="fill: #1f77b4; stroke: #1f77b4"/>
     <use xlink:href="#m1c49e3048d" x="295.142045" y="120.482907" style="fill: #1f77b4; stroke: #1f77b4"/>
     <use xlink:href="#m1c49e3048d" x="325.578409" y="90.703713" style="fill: #1f77b4; stroke: #1f77b4"/>
     <use xlink:href="#m1c49e3048d" x="356.014773" y="69.92163" style="fill: #1f77b4; stroke: #1f77b4"/>
     <use xlink:href="#m1c49e3048d" x="386.451136" y="57.249623" style="fill: #1f77b4; stroke: #1f77b4"/>
     <use xlink:href="#m1c49e3048d" x="416.8875" y="50.913611" style="fill: #1f77b4; stroke: #1f77b4"/>
     <use xlink:href="#m1c49e3048d" x="447.323864" y="49.26626" style="fill: #1f77b4; stroke: #1f77b4"/>
     <use xlink:href="#m1c49e3048d" x="477.760227" y="49.139538" style="fill: #1f77b4; stroke: #1f77b4"/>
     <use xlink:href="#m1c49e3048d" x="508.196591" y="50.280038" style="fill: #1f77b4; stroke: #1f77b4"/>
     <use xlink:href="#m1c49e3048d" x="538.632955" y="49.012797" style="fill: #1f77b4; stroke: #1f77b4"/>
     <use xlink:href="#m1c49e3048d" x="569.069318" y="50.280019" style="fill: #1f77b4; stroke: #1f77b4"/>
     <use xlink:href="#m1c49e3048d" x="599.505682" y="49.519705" style="fill: #1f77b4; stroke: #1f77b4"/>
     <use xlink:href="#m1c49e3048d" x="629.942045" y="49.392964" style="fill: #1f77b4; stroke: #1f77b4"/>
     <use xlink:href="#m1c49e3048d" x="660.378409" y="49.392964" style="fill: #1f77b4; stroke: #1f77b4"/>
     <use xlink:href="#m1c49e3048d" x="690.814773" y="49.899852" style="fill: #1f77b4; stroke: #1f77b4"/>
     <use xlink:href="#m1c49e3048d" x="721.251136" y="49.519686" style="fill: #1f77b4; stroke: #1f77b4"/>
    </g>
   </g>
   <g id="line2d_19">
    <path d="M 112.523864 201.015099 
L 142.960227 199.873424 
L 173.396591 196.357588 
L 203.832955 191.350364 
L 234.269318 184.266821 
L 264.705682 174.096146 
L 295.142045 160.983987 
L 325.578409 146.237838 
L 356.014773 131.863957 
L 386.451136 119.359308 
L 416.8875 109.779644 
L 447.323864 103.060982 
L 477.760227 98.7639 
L 508.196591 96.341998 
L 538.632955 94.925849 
L 569.069318 93.877573 
L 599.505682 93.82405 
L 629.942045 93.504355 
L 660.378409 93.353038 
L 690.814773 93.325687 
L 721.251136 93.185916 
" clip-path="url(#p41b13e208b)" style="fill: none; stroke: #ff7f0e; stroke-width: 4; stroke-linecap: square"/>
    <defs>
     <path id="m9efe6f178c" d="M -5 5 
L 5 5 
L 5 -5 
L -5 -5 
z
" style="stroke: #ff7f0e; stroke-linejoin: miter"/>
    </defs>
    <g clip-path="url(#p41b13e208b)">
     <use xlink:href="#m9efe6f178c" x="112.523864" y="201.015099" style="fill: #ff7f0e; stroke: #ff7f0e; stroke-linejoin: miter"/>
     <use xlink:href="#m9efe6f178c" x="142.960227" y="199.873424" style="fill: #ff7f0e; stroke: #ff7f0e; stroke-linejoin: miter"/>
     <use xlink:href="#m9efe6f178c" x="173.396591" y="196.357588" style="fill: #ff7f0e; stroke: #ff7f0e; stroke-linejoin: miter"/>
     <use xlink:href="#m9efe6f178c" x="203.832955" y="191.350364" style="fill: #ff7f0e; stroke: #ff7f0e; stroke-linejoin: miter"/>
     <use xlink:href="#m9efe6f178c" x="234.269318" y="184.266821" style="fill: #ff7f0e; stroke: #ff7f0e; stroke-linejoin: miter"/>
     <use xlink:href="#m9efe6f178c" x="264.705682" y="174.096146" style="fill: #ff7f0e; stroke: #ff7f0e; stroke-linejoin: miter"/>
     <use xlink:href="#m9efe6f178c" x="295.142045" y="160.983987" style="fill: #ff7f0e; stroke: #ff7f0e; stroke-linejoin: miter"/>
     <use xlink:href="#m9efe6f178c" x="325.578409" y="146.237838" style="fill: #ff7f0e; stroke: #ff7f0e; stroke-linejoin: miter"/>
     <use xlink:href="#m9efe6f178c" x="356.014773" y="131.863957" style="fill: #ff7f0e; stroke: #ff7f0e; stroke-linejoin: miter"/>
     <use xlink:href="#m9efe6f178c" x="386.451136" y="119.359308" style="fill: #ff7f0e; stroke: #ff7f0e; stroke-linejoin: miter"/>
     <use xlink:href="#m9efe6f178c" x="416.8875" y="109.779644" style="fill: #ff7f0e; stroke: #ff7f0e; stroke-linejoin: miter"/>
     <use xlink:href="#m9efe6f178c" x="447.323864" y="103.060982" style="fill: #ff7f0e; stroke: #ff7f0e; stroke-linejoin: miter"/>
     <use xlink:href="#m9efe6f178c" x="477.760227" y="98.7639" style="fill: #ff7f0e; stroke: #ff7f0e; stroke-linejoin: miter"/>
     <use xlink:href="#m9efe6f178c" x="508.196591" y="96.341998" style="fill: #ff7f0e; stroke: #ff7f0e; stroke-linejoin: miter"/>
     <use xlink:href="#m9efe6f178c" x="538.632955" y="94.925849" style="fill: #ff7f0e; stroke: #ff7f0e; stroke-linejoin: miter"/>
     <use xlink:href="#m9efe6f178c" x="569.069318" y="93.877573" style="fill: #ff7f0e; stroke: #ff7f0e; stroke-linejoin: miter"/>
     <use xlink:href="#m9efe6f178c" x="599.505682" y="93.82405" style="fill: #ff7f0e; stroke: #ff7f0e; stroke-linejoin: miter"/>
     <use xlink:href="#m9efe6f178c" x="629.942045" y="93.504355" style="fill: #ff7f0e; stroke: #ff7f0e; stroke-linejoin: miter"/>
     <use xlink:href="#m9efe6f178c" x="660.378409" y="93.353038" style="fill: #ff7f0e; stroke: #ff7f0e; stroke-linejoin: miter"/>
     <use xlink:href="#m9efe6f178c" x="690.814773" y="93.325687" style="fill: #ff7f0e; stroke: #ff7f0e; stroke-linejoin: miter"/>
     <use xlink:href="#m9efe6f178c" x="721.251136" y="93.185916" style="fill: #ff7f0e; stroke: #ff7f0e; stroke-linejoin: miter"/>
    </g>
   </g>
   <g id="line2d_20">
    <path d="M 112.523864 201.150186 
L 142.960227 200.559591 
L 173.396591 198.185037 
L 203.832955 194.273603 
L 234.269318 188.465217 
L 264.705682 180.185697 
L 295.142045 168.625837 
L 325.578409 153.745742 
L 356.014773 138.427752 
L 386.451136 125.301171 
L 416.8875 115.606748 
L 447.323864 109.358559 
L 477.760227 105.06955 
L 508.196591 103.057866 
L 538.632955 102.264942 
L 569.069318 100.785591 
L 599.505682 100.744644 
L 629.942045 101.196999 
L 660.378409 101.174774 
L 690.814773 101.618689 
L 721.251136 101.762207 
" clip-path="url(#p41b13e208b)" style="fill: none; stroke: #2ca02c; stroke-width: 4; stroke-linecap: square"/>
    <defs>
     <path id="md7cd19f1fd" d="M 0 7.071068 
L 4.242641 0 
L 0 -7.071068 
L -4.242641 0 
z
" style="stroke: #2ca02c; stroke-linejoin: miter"/>
    </defs>
    <g clip-path="url(#p41b13e208b)">
     <use xlink:href="#md7cd19f1fd" x="112.523864" y="201.150186" style="fill: #2ca02c; stroke: #2ca02c; stroke-linejoin: miter"/>
     <use xlink:href="#md7cd19f1fd" x="142.960227" y="200.559591" style="fill: #2ca02c; stroke: #2ca02c; stroke-linejoin: miter"/>
     <use xlink:href="#md7cd19f1fd" x="173.396591" y="198.185037" style="fill: #2ca02c; stroke: #2ca02c; stroke-linejoin: miter"/>
     <use xlink:href="#md7cd19f1fd" x="203.832955" y="194.273603" style="fill: #2ca02c; stroke: #2ca02c; stroke-linejoin: miter"/>
     <use xlink:href="#md7cd19f1fd" x="234.269318" y="188.465217" style="fill: #2ca02c; stroke: #2ca02c; stroke-linejoin: miter"/>
     <use xlink:href="#md7cd19f1fd" x="264.705682" y="180.185697" style="fill: #2ca02c; stroke: #2ca02c; stroke-linejoin: miter"/>
     <use xlink:href="#md7cd19f1fd" x="295.142045" y="168.625837" style="fill: #2ca02c; stroke: #2ca02c; stroke-linejoin: miter"/>
     <use xlink:href="#md7cd19f1fd" x="325.578409" y="153.745742" style="fill: #2ca02c; stroke: #2ca02c; stroke-linejoin: miter"/>
     <use xlink:href="#md7cd19f1fd" x="356.014773" y="138.427752" style="fill: #2ca02c; stroke: #2ca02c; stroke-linejoin: miter"/>
     <use xlink:href="#md7cd19f1fd" x="386.451136" y="125.301171" style="fill: #2ca02c; stroke: #2ca02c; stroke-linejoin: miter"/>
     <use xlink:href="#md7cd19f1fd" x="416.8875" y="115.606748" style="fill: #2ca02c; stroke: #2ca02c; stroke-linejoin: miter"/>
     <use xlink:href="#md7cd19f1fd" x="447.323864" y="109.358559" style="fill: #2ca02c; stroke: #2ca02c; stroke-linejoin: miter"/>
     <use xlink:href="#md7cd19f1fd" x="477.760227" y="105.06955" style="fill: #2ca02c; stroke: #2ca02c; stroke-linejoin: miter"/>
     <use xlink:href="#md7cd19f1fd" x="508.196591" y="103.057866" style="fill: #2ca02c; stroke: #2ca02c; stroke-linejoin: miter"/>
     <use xlink:href="#md7cd19f1fd" x="538.632955" y="102.264942" style="fill: #2ca02c; stroke: #2ca02c; stroke-linejoin: miter"/>
     <use xlink:href="#md7cd19f1fd" x="569.069318" y="100.785591" style="fill: #2ca02c; stroke: #2ca02c; stroke-linejoin: miter"/>
     <use xlink:href="#md7cd19f1fd" x="599.505682" y="100.744644" style="fill: #2ca02c; stroke: #2ca02c; stroke-linejoin: miter"/>
     <use xlink:href="#md7cd19f1fd" x="629.942045" y="101.196999" style="fill: #2ca02c; stroke: #2ca02c; stroke-linejoin: miter"/>
     <use xlink:href="#md7cd19f1fd" x="660.378409" y="101.174774" style="fill: #2ca02c; stroke: #2ca02c; stroke-linejoin: miter"/>
     <use xlink:href="#md7cd19f1fd" x="690.814773" y="101.618689" style="fill: #2ca02c; stroke: #2ca02c; stroke-linejoin: miter"/>
     <use xlink:href="#md7cd19f1fd" x="721.251136" y="101.762207" style="fill: #2ca02c; stroke: #2ca02c; stroke-linejoin: miter"/>
    </g>
   </g>
   <g id="line2d_21">
    <path d="M 112.523864 201.23433 
L 142.960227 201.109636 
L 173.396591 200.214322 
L 203.832955 197.73593 
L 234.269318 193.654999 
L 264.705682 187.541302 
L 295.142045 177.108238 
L 325.578409 162.116466 
L 356.014773 146.340003 
L 386.451136 132.910486 
L 416.8875 122.465124 
L 447.323864 116.658914 
L 477.760227 112.828491 
L 508.196591 111.189912 
L 538.632955 110.001148 
L 569.069318 110.973506 
L 599.505682 110.170357 
L 629.942045 110.243716 
L 660.378409 111.834494 
L 690.814773 111.239564 
L 721.251136 109.744173 
" clip-path="url(#p41b13e208b)" style="fill: none; stroke: #d62728; stroke-width: 4; stroke-linecap: square"/>
    <defs>
     <path id="me664d52109" d="M -0 5 
L 5 -5 
L -5 -5 
z
" style="stroke: #d62728; stroke-linejoin: miter"/>
    </defs>
    <g clip-path="url(#p41b13e208b)">
     <use xlink:href="#me664d52109" x="112.523864" y="201.23433" style="fill: #d62728; stroke: #d62728; stroke-linejoin: miter"/>
     <use xlink:href="#me664d52109" x="142.960227" y="201.109636" style="fill: #d62728; stroke: #d62728; stroke-linejoin: miter"/>
     <use xlink:href="#me664d52109" x="173.396591" y="200.214322" style="fill: #d62728; stroke: #d62728; stroke-linejoin: miter"/>
     <use xlink:href="#me664d52109" x="203.832955" y="197.73593" style="fill: #d62728; stroke: #d62728; stroke-linejoin: miter"/>
     <use xlink:href="#me664d52109" x="234.269318" y="193.654999" style="fill: #d62728; stroke: #d62728; stroke-linejoin: miter"/>
     <use xlink:href="#me664d52109" x="264.705682" y="187.541302" style="fill: #d62728; stroke: #d62728; stroke-linejoin: miter"/>
     <use xlink:href="#me664d52109" x="295.142045" y="177.108238" style="fill: #d62728; stroke: #d62728; stroke-linejoin: miter"/>
     <use xlink:href="#me664d52109" x="325.578409" y="162.116466" style="fill: #d62728; stroke: #d62728; stroke-linejoin: miter"/>
     <use xlink:href="#me664d52109" x="356.014773" y="146.340003" style="fill: #d62728; stroke: #d62728; stroke-linejoin: miter"/>
     <use xlink:href="#me664d52109" x="386.451136" y="132.910486" style="fill: #d62728; stroke: #d62728; stroke-linejoin: miter"/>
     <use xlink:href="#me664d52109" x="416.8875" y="122.465124" style="fill: #d62728; stroke: #d62728; stroke-linejoin: miter"/>
     <use xlink:href="#me664d52109" x="447.323864" y="116.658914" style="fill: #d62728; stroke: #d62728; stroke-linejoin: miter"/>
     <use xlink:href="#me664d52109" x="477.760227" y="112.828491" style="fill: #d62728; stroke: #d62728; stroke-linejoin: miter"/>
     <use xlink:href="#me664d52109" x="508.196591" y="111.189912" style="fill: #d62728; stroke: #d62728; stroke-linejoin: miter"/>
     <use xlink:href="#me664d52109" x="538.632955" y="110.001148" style="fill: #d62728; stroke: #d62728; stroke-linejoin: miter"/>
     <use xlink:href="#me664d52109" x="569.069318" y="110.973506" style="fill: #d62728; stroke: #d62728; stroke-linejoin: miter"/>
     <use xlink:href="#me664d52109" x="599.505682" y="110.170357" style="fill: #d62728; stroke: #d62728; stroke-linejoin: miter"/>
     <use xlink:href="#me664d52109" x="629.942045" y="110.243716" style="fill: #d62728; stroke: #d62728; stroke-linejoin: miter"/>
     <use xlink:href="#me664d52109" x="660.378409" y="111.834494" style="fill: #d62728; stroke: #d62728; stroke-linejoin: miter"/>
     <use xlink:href="#me664d52109" x="690.814773" y="111.239564" style="fill: #d62728; stroke: #d62728; stroke-linejoin: miter"/>
     <use xlink:href="#me664d52109" x="721.251136" y="109.744173" style="fill: #d62728; stroke: #d62728; stroke-linejoin: miter"/>
    </g>
   </g>
   <g id="line2d_22">
    <path d="M 112.523864 201.251858 
L 142.960227 201.246363 
L 173.396591 201.081562 
L 203.832955 199.706041 
L 234.269318 195.717883 
L 264.705682 190.848739 
L 295.142045 181.905698 
L 325.578409 165.975949 
L 356.014773 149.28692 
L 386.451136 136.41605 
L 416.8875 127.455023 
L 447.323864 121.396766 
L 477.760227 121.370632 
L 508.196591 119.397932 
L 538.632955 118.203674 
L 569.069318 119.93695 
L 599.505682 119.502278 
L 629.942045 119.543292 
L 660.378409 120.299083 
L 690.814773 119.585684 
L 721.251136 120.000849 
" clip-path="url(#p41b13e208b)" style="fill: none; stroke: #9467bd; stroke-width: 4; stroke-linecap: square"/>
    <defs>
     <path id="m5c6955e84c" d="M 0 -5 
L -1.12257 -1.545085 
L -4.755283 -1.545085 
L -1.816356 0.59017 
L -2.938926 4.045085 
L -0 1.90983 
L 2.938926 4.045085 
L 1.816356 0.59017 
L 4.755283 -1.545085 
L 1.12257 -1.545085 
z
" style="stroke: #9467bd; stroke-linejoin: bevel"/>
    </defs>
    <g clip-path="url(#p41b13e208b)">
     <use xlink:href="#m5c6955e84c" x="112.523864" y="201.251858" style="fill: #9467bd; stroke: #9467bd; stroke-linejoin: bevel"/>
     <use xlink:href="#m5c6955e84c" x="142.960227" y="201.246363" style="fill: #9467bd; stroke: #9467bd; stroke-linejoin: bevel"/>
     <use xlink:href="#m5c6955e84c" x="173.396591" y="201.081562" style="fill: #9467bd; stroke: #9467bd; stroke-linejoin: bevel"/>
     <use xlink:href="#m5c6955e84c" x="203.832955" y="199.706041" style="fill: #9467bd; stroke: #9467bd; stroke-linejoin: bevel"/>
     <use xlink:href="#m5c6955e84c" x="234.269318" y="195.717883" style="fill: #9467bd; stroke: #9467bd; stroke-linejoin: bevel"/>
     <use xlink:href="#m5c6955e84c" x="264.705682" y="190.848739" style="fill: #9467bd; stroke: #9467bd; stroke-linejoin: bevel"/>
     <use xlink:href="#m5c6955e84c" x="295.142045" y="181.905698" style="fill: #9467bd; stroke: #9467bd; stroke-linejoin: bevel"/>
     <use xlink:href="#m5c6955e84c" x="325.578409" y="165.975949" style="fill: #9467bd; stroke: #9467bd; stroke-linejoin: bevel"/>
     <use xlink:href="#m5c6955e84c" x="356.014773" y="149.28692" style="fill: #9467bd; stroke: #9467bd; stroke-linejoin: bevel"/>
     <use xlink:href="#m5c6955e84c" x="386.451136" y="136.41605" style="fill: #9467bd; stroke: #9467bd; stroke-linejoin: bevel"/>
     <use xlink:href="#m5c6955e84c" x="416.8875" y="127.455023" style="fill: #9467bd; stroke: #9467bd; stroke-linejoin: bevel"/>
     <use xlink:href="#m5c6955e84c" x="447.323864" y="121.396766" style="fill: #9467bd; stroke: #9467bd; stroke-linejoin: bevel"/>
     <use xlink:href="#m5c6955e84c" x="477.760227" y="121.370632" style="fill: #9467bd; stroke: #9467bd; stroke-linejoin: bevel"/>
     <use xlink:href="#m5c6955e84c" x="508.196591" y="119.397932" style="fill: #9467bd; stroke: #9467bd; stroke-linejoin: bevel"/>
     <use xlink:href="#m5c6955e84c" x="538.632955" y="118.203674" style="fill: #9467bd; stroke: #9467bd; stroke-linejoin: bevel"/>
     <use xlink:href="#m5c6955e84c" x="569.069318" y="119.93695" style="fill: #9467bd; stroke: #9467bd; stroke-linejoin: bevel"/>
     <use xlink:href="#m5c6955e84c" x="599.505682" y="119.502278" style="fill: #9467bd; stroke: #9467bd; stroke-linejoin: bevel"/>
     <use xlink:href="#m5c6955e84c" x="629.942045" y="119.543292" style="fill: #9467bd; stroke: #9467bd; stroke-linejoin: bevel"/>
     <use xlink:href="#m5c6955e84c" x="660.378409" y="120.299083" style="fill: #9467bd; stroke: #9467bd; stroke-linejoin: bevel"/>
     <use xlink:href="#m5c6955e84c" x="690.814773" y="119.585684" style="fill: #9467bd; stroke: #9467bd; stroke-linejoin: bevel"/>
     <use xlink:href="#m5c6955e84c" x="721.251136" y="120.000849" style="fill: #9467bd; stroke: #9467bd; stroke-linejoin: bevel"/>
    </g>
   </g>
   <g id="patch_3">
    <path d="M 82.0875 236.558438 
L 82.0875 14.798438 
" style="fill: none; stroke: #000000; stroke-width: 0.8; stroke-linejoin: miter; stroke-linecap: square"/>
   </g>
   <g id="patch_4">
    <path d="M 751.6875 236.558438 
L 751.6875 14.798438 
" style="fill: none; stroke: #000000; stroke-width: 0.8; stroke-linejoin: miter; stroke-linecap: square"/>
   </g>
   <g id="patch_5">
    <path d="M 82.0875 236.558438 
L 751.6875 236.558438 
" style="fill: none; stroke: #000000; stroke-width: 0.8; stroke-linejoin: miter; stroke-linecap: square"/>
   </g>
   <g id="patch_6">
    <path d="M 82.0875 14.798438 
L 751.6875 14.798438 
" style="fill: none; stroke: #000000; stroke-width: 0.8; stroke-linejoin: miter; stroke-linecap: square"/>
   </g>
  </g>
 </g>
 <defs>
  <clipPath id="p41b13e208b">
   <rect x="82.0875" y="14.798438" width="669.6" height="221.76"/>
  </clipPath>
 </defs>
</svg>
