<?xml version="1.0" encoding="utf-8" standalone="no"?>
<!DOCTYPE svg PUBLIC "-//W3C//DTD SVG 1.1//EN"
  "http://www.w3.org/Graphics/SVG/1.1/DTD/svg11.dtd">
<svg xmlns:xlink="http://www.w3.org/1999/xlink" width="639.60625pt" height="396.7525pt" viewBox="0 0 639.60625 396.7525" xmlns="http://www.w3.org/2000/svg" version="1.1">
 <metadata>
  <rdf:RDF xmlns:dc="http://purl.org/dc/elements/1.1/" xmlns:cc="http://creativecommons.org/ns#" xmlns:rdf="http://www.w3.org/1999/02/22-rdf-syntax-ns#">
   <cc:Work>
    <dc:type rdf:resource="http://purl.org/dc/dcmitype/StillImage"/>
    <dc:date>2025-05-19T12:39:13.219868</dc:date>
    <dc:format>image/svg+xml</dc:format>
    <dc:creator>
     <cc:Agent>
      <dc:title>Matplotlib v3.10.1, https://matplotlib.org/</dc:title>
     </cc:Agent>
    </dc:creator>
   </cc:Work>
  </rdf:RDF>
 </metadata>
 <defs>
  <style type="text/css">*{stroke-linejoin: round; stroke-linecap: butt}</style>
 </defs>
 <g id="figure_1">
  <g id="patch_1">
   <path d="M 0 396.7525 
L 639.60625 396.7525 
L 639.60625 0 
L 0 0 
z
" style="fill: #ffffff"/>
  </g>
  <g id="axes_1">
   <g id="patch_2">
    <path d="M 74.40625 339.84 
L 632.40625 339.84 
L 632.40625 7.2 
L 74.40625 7.2 
z
" style="fill: #ffffff"/>
   </g>
   <g id="PathCollection_1">
    <defs>
     <path id="m1adcc110d0" d="M 0 5 
C 1.326016 5 2.597899 4.473168 3.535534 3.535534 
C 4.473168 2.597899 5 1.326016 5 0 
C 5 -1.326016 4.473168 -2.597899 3.535534 -3.535534 
C 2.597899 -4.473168 1.326016 -5 0 -5 
C -1.326016 -5 -2.597899 -4.473168 -3.535534 -3.535534 
C -4.473168 -2.597899 -5 -1.326016 -5 0 
C -5 1.326016 -4.473168 2.597899 -3.535534 3.535534 
C -2.597899 4.473168 -1.326016 5 0 5 
z
" style="stroke: #2e8b57; stroke-opacity: 0.8"/>
    </defs>
    <g clip-path="url(#p128afbe0f6)">
     <use xlink:href="#m1adcc110d0" x="120.90625" y="284.4" style="fill: #2e8b57; fill-opacity: 0.8; stroke: #2e8b57; stroke-opacity: 0.8"/>
     <use xlink:href="#m1adcc110d0" x="130.396046" y="284.4" style="fill: #2e8b57; fill-opacity: 0.8; stroke: #2e8b57; stroke-opacity: 0.8"/>
     <use xlink:href="#m1adcc110d0" x="139.885841" y="284.4" style="fill: #2e8b57; fill-opacity: 0.8; stroke: #2e8b57; stroke-opacity: 0.8"/>
     <use xlink:href="#m1adcc110d0" x="149.375638" y="284.4" style="fill: #2e8b57; fill-opacity: 0.8; stroke: #2e8b57; stroke-opacity: 0.8"/>
     <use xlink:href="#m1adcc110d0" x="158.865433" y="284.4" style="fill: #2e8b57; fill-opacity: 0.8; stroke: #2e8b57; stroke-opacity: 0.8"/>
     <use xlink:href="#m1adcc110d0" x="168.355228" y="284.4" style="fill: #2e8b57; fill-opacity: 0.8; stroke: #2e8b57; stroke-opacity: 0.8"/>
     <use xlink:href="#m1adcc110d0" x="177.845026" y="284.4" style="fill: #2e8b57; fill-opacity: 0.8; stroke: #2e8b57; stroke-opacity: 0.8"/>
     <use xlink:href="#m1adcc110d0" x="187.334817" y="284.4" style="fill: #2e8b57; fill-opacity: 0.8; stroke: #2e8b57; stroke-opacity: 0.8"/>
     <use xlink:href="#m1adcc110d0" x="196.824616" y="284.4" style="fill: #2e8b57; fill-opacity: 0.8; stroke: #2e8b57; stroke-opacity: 0.8"/>
     <use xlink:href="#m1adcc110d0" x="206.314414" y="284.4" style="fill: #2e8b57; fill-opacity: 0.8; stroke: #2e8b57; stroke-opacity: 0.8"/>
     <use xlink:href="#m1adcc110d0" x="215.804206" y="284.4" style="fill: #2e8b57; fill-opacity: 0.8; stroke: #2e8b57; stroke-opacity: 0.8"/>
     <use xlink:href="#m1adcc110d0" x="225.294004" y="284.4" style="fill: #2e8b57; fill-opacity: 0.8; stroke: #2e8b57; stroke-opacity: 0.8"/>
     <use xlink:href="#m1adcc110d0" x="234.783802" y="284.4" style="fill: #2e8b57; fill-opacity: 0.8; stroke: #2e8b57; stroke-opacity: 0.8"/>
     <use xlink:href="#m1adcc110d0" x="244.273594" y="284.4" style="fill: #2e8b57; fill-opacity: 0.8; stroke: #2e8b57; stroke-opacity: 0.8"/>
     <use xlink:href="#m1adcc110d0" x="253.763385" y="284.4" style="fill: #2e8b57; fill-opacity: 0.8; stroke: #2e8b57; stroke-opacity: 0.8"/>
     <use xlink:href="#m1adcc110d0" x="263.25319" y="284.4" style="fill: #2e8b57; fill-opacity: 0.8; stroke: #2e8b57; stroke-opacity: 0.8"/>
     <use xlink:href="#m1adcc110d0" x="272.742982" y="284.4" style="fill: #2e8b57; fill-opacity: 0.8; stroke: #2e8b57; stroke-opacity: 0.8"/>
     <use xlink:href="#m1adcc110d0" x="282.232773" y="284.4" style="fill: #2e8b57; fill-opacity: 0.8; stroke: #2e8b57; stroke-opacity: 0.8"/>
     <use xlink:href="#m1adcc110d0" x="291.722578" y="284.4" style="fill: #2e8b57; fill-opacity: 0.8; stroke: #2e8b57; stroke-opacity: 0.8"/>
     <use xlink:href="#m1adcc110d0" x="301.21237" y="284.4" style="fill: #2e8b57; fill-opacity: 0.8; stroke: #2e8b57; stroke-opacity: 0.8"/>
     <use xlink:href="#m1adcc110d0" x="310.702161" y="284.4" style="fill: #2e8b57; fill-opacity: 0.8; stroke: #2e8b57; stroke-opacity: 0.8"/>
     <use xlink:href="#m1adcc110d0" x="320.191966" y="284.4" style="fill: #2e8b57; fill-opacity: 0.8; stroke: #2e8b57; stroke-opacity: 0.8"/>
     <use xlink:href="#m1adcc110d0" x="329.681758" y="284.4" style="fill: #2e8b57; fill-opacity: 0.8; stroke: #2e8b57; stroke-opacity: 0.8"/>
     <use xlink:href="#m1adcc110d0" x="339.171549" y="284.4" style="fill: #2e8b57; fill-opacity: 0.8; stroke: #2e8b57; stroke-opacity: 0.8"/>
     <use xlink:href="#m1adcc110d0" x="348.661354" y="284.4" style="fill: #2e8b57; fill-opacity: 0.8; stroke: #2e8b57; stroke-opacity: 0.8"/>
     <use xlink:href="#m1adcc110d0" x="358.151146" y="284.4" style="fill: #2e8b57; fill-opacity: 0.8; stroke: #2e8b57; stroke-opacity: 0.8"/>
     <use xlink:href="#m1adcc110d0" x="367.640937" y="284.4" style="fill: #2e8b57; fill-opacity: 0.8; stroke: #2e8b57; stroke-opacity: 0.8"/>
     <use xlink:href="#m1adcc110d0" x="377.130728" y="284.4" style="fill: #2e8b57; fill-opacity: 0.8; stroke: #2e8b57; stroke-opacity: 0.8"/>
     <use xlink:href="#m1adcc110d0" x="386.62052" y="284.4" style="fill: #2e8b57; fill-opacity: 0.8; stroke: #2e8b57; stroke-opacity: 0.8"/>
     <use xlink:href="#m1adcc110d0" x="396.110339" y="284.4" style="fill: #2e8b57; fill-opacity: 0.8; stroke: #2e8b57; stroke-opacity: 0.8"/>
     <use xlink:href="#m1adcc110d0" x="405.60013" y="284.4" style="fill: #2e8b57; fill-opacity: 0.8; stroke: #2e8b57; stroke-opacity: 0.8"/>
     <use xlink:href="#m1adcc110d0" x="415.089922" y="284.4" style="fill: #2e8b57; fill-opacity: 0.8; stroke: #2e8b57; stroke-opacity: 0.8"/>
     <use xlink:href="#m1adcc110d0" x="424.579741" y="284.4" style="fill: #2e8b57; fill-opacity: 0.8; stroke: #2e8b57; stroke-opacity: 0.8"/>
     <use xlink:href="#m1adcc110d0" x="434.069532" y="284.4" style="fill: #2e8b57; fill-opacity: 0.8; stroke: #2e8b57; stroke-opacity: 0.8"/>
     <use xlink:href="#m1adcc110d0" x="443.559324" y="284.4" style="fill: #2e8b57; fill-opacity: 0.8; stroke: #2e8b57; stroke-opacity: 0.8"/>
     <use xlink:href="#m1adcc110d0" x="453.049115" y="284.4" style="fill: #2e8b57; fill-opacity: 0.8; stroke: #2e8b57; stroke-opacity: 0.8"/>
     <use xlink:href="#m1adcc110d0" x="462.538906" y="284.4" style="fill: #2e8b57; fill-opacity: 0.8; stroke: #2e8b57; stroke-opacity: 0.8"/>
     <use xlink:href="#m1adcc110d0" x="472.028698" y="284.4" style="fill: #2e8b57; fill-opacity: 0.8; stroke: #2e8b57; stroke-opacity: 0.8"/>
     <use xlink:href="#m1adcc110d0" x="481.518489" y="284.4" style="fill: #2e8b57; fill-opacity: 0.8; stroke: #2e8b57; stroke-opacity: 0.8"/>
     <use xlink:href="#m1adcc110d0" x="491.008281" y="284.4" style="fill: #2e8b57; fill-opacity: 0.8; stroke: #2e8b57; stroke-opacity: 0.8"/>
     <use xlink:href="#m1adcc110d0" x="500.498072" y="284.4" style="fill: #2e8b57; fill-opacity: 0.8; stroke: #2e8b57; stroke-opacity: 0.8"/>
     <use xlink:href="#m1adcc110d0" x="509.987891" y="284.4" style="fill: #2e8b57; fill-opacity: 0.8; stroke: #2e8b57; stroke-opacity: 0.8"/>
     <use xlink:href="#m1adcc110d0" x="519.477683" y="284.4" style="fill: #2e8b57; fill-opacity: 0.8; stroke: #2e8b57; stroke-opacity: 0.8"/>
     <use xlink:href="#m1adcc110d0" x="528.967474" y="284.4" style="fill: #2e8b57; fill-opacity: 0.8; stroke: #2e8b57; stroke-opacity: 0.8"/>
     <use xlink:href="#m1adcc110d0" x="538.457265" y="284.4" style="fill: #2e8b57; fill-opacity: 0.8; stroke: #2e8b57; stroke-opacity: 0.8"/>
     <use xlink:href="#m1adcc110d0" x="547.947057" y="284.4" style="fill: #2e8b57; fill-opacity: 0.8; stroke: #2e8b57; stroke-opacity: 0.8"/>
     <use xlink:href="#m1adcc110d0" x="557.436876" y="284.4" style="fill: #2e8b57; fill-opacity: 0.8; stroke: #2e8b57; stroke-opacity: 0.8"/>
     <use xlink:href="#m1adcc110d0" x="566.926667" y="284.4" style="fill: #2e8b57; fill-opacity: 0.8; stroke: #2e8b57; stroke-opacity: 0.8"/>
     <use xlink:href="#m1adcc110d0" x="576.416459" y="284.4" style="fill: #2e8b57; fill-opacity: 0.8; stroke: #2e8b57; stroke-opacity: 0.8"/>
    </g>
   </g>
   <g id="PathCollection_2"/>
   <g id="PathCollection_3"/>
   <g id="matplotlib.axis_1">
    <g id="xtick_1">
     <g id="line2d_1">
      <defs>
       <path id="mb52df35e21" d="M 0 0 
L 0 3.5 
" style="stroke: #000000; stroke-width: 0.8"/>
      </defs>
      <g>
       <use xlink:href="#mb52df35e21" x="120.90625" y="339.84" style="stroke: #000000; stroke-width: 0.8"/>
      </g>
     </g>
     <g id="text_1">
      <!-- 0.0 -->
      <g transform="translate(105.003125 362.036875) scale(0.2 -0.2)">
       <defs>
        <path id="DejaVuSans-30" d="M 2034 4250 
Q 1547 4250 1301 3770 
Q 1056 3291 1056 2328 
Q 1056 1369 1301 889 
Q 1547 409 2034 409 
Q 2525 409 2770 889 
Q 3016 1369 3016 2328 
Q 3016 3291 2770 3770 
Q 2525 4250 2034 4250 
z
M 2034 4750 
Q 2819 4750 3233 4129 
Q 3647 3509 3647 2328 
Q 3647 1150 3233 529 
Q 2819 -91 2034 -91 
Q 1250 -91 836 529 
Q 422 1150 422 2328 
Q 422 3509 836 4129 
Q 1250 4750 2034 4750 
z
" transform="scale(0.015625)"/>
        <path id="DejaVuSans-2e" d="M 684 794 
L 1344 794 
L 1344 0 
L 684 0 
L 684 794 
z
" transform="scale(0.015625)"/>
       </defs>
       <use xlink:href="#DejaVuSans-30"/>
       <use xlink:href="#DejaVuSans-2e" transform="translate(63.623047 0)"/>
       <use xlink:href="#DejaVuSans-30" transform="translate(95.410156 0)"/>
      </g>
     </g>
    </g>
    <g id="xtick_2">
     <g id="line2d_2">
      <g>
       <use xlink:href="#mb52df35e21" x="213.90625" y="339.84" style="stroke: #000000; stroke-width: 0.8"/>
      </g>
     </g>
     <g id="text_2">
      <!-- 0.2 -->
      <g transform="translate(198.003125 362.036875) scale(0.2 -0.2)">
       <defs>
        <path id="DejaVuSans-32" d="M 1228 531 
L 3431 531 
L 3431 0 
L 469 0 
L 469 531 
Q 828 903 1448 1529 
Q 2069 2156 2228 2338 
Q 2531 2678 2651 2914 
Q 2772 3150 2772 3378 
Q 2772 3750 2511 3984 
Q 2250 4219 1831 4219 
Q 1534 4219 1204 4116 
Q 875 4013 500 3803 
L 500 4441 
Q 881 4594 1212 4672 
Q 1544 4750 1819 4750 
Q 2544 4750 2975 4387 
Q 3406 4025 3406 3419 
Q 3406 3131 3298 2873 
Q 3191 2616 2906 2266 
Q 2828 2175 2409 1742 
Q 1991 1309 1228 531 
z
" transform="scale(0.015625)"/>
       </defs>
       <use xlink:href="#DejaVuSans-30"/>
       <use xlink:href="#DejaVuSans-2e" transform="translate(63.623047 0)"/>
       <use xlink:href="#DejaVuSans-32" transform="translate(95.410156 0)"/>
      </g>
     </g>
    </g>
    <g id="xtick_3">
     <g id="line2d_3">
      <g>
       <use xlink:href="#mb52df35e21" x="306.90625" y="339.84" style="stroke: #000000; stroke-width: 0.8"/>
      </g>
     </g>
     <g id="text_3">
      <!-- 0.4 -->
      <g transform="translate(291.003125 362.036875) scale(0.2 -0.2)">
       <defs>
        <path id="DejaVuSans-34" d="M 2419 4116 
L 825 1625 
L 2419 1625 
L 2419 4116 
z
M 2253 4666 
L 3047 4666 
L 3047 1625 
L 3713 1625 
L 3713 1100 
L 3047 1100 
L 3047 0 
L 2419 0 
L 2419 1100 
L 313 1100 
L 313 1709 
L 2253 4666 
z
" transform="scale(0.015625)"/>
       </defs>
       <use xlink:href="#DejaVuSans-30"/>
       <use xlink:href="#DejaVuSans-2e" transform="translate(63.623047 0)"/>
       <use xlink:href="#DejaVuSans-34" transform="translate(95.410156 0)"/>
      </g>
     </g>
    </g>
    <g id="xtick_4">
     <g id="line2d_4">
      <g>
       <use xlink:href="#mb52df35e21" x="399.90625" y="339.84" style="stroke: #000000; stroke-width: 0.8"/>
      </g>
     </g>
     <g id="text_4">
      <!-- 0.6 -->
      <g transform="translate(384.003125 362.036875) scale(0.2 -0.2)">
       <defs>
        <path id="DejaVuSans-36" d="M 2113 2584 
Q 1688 2584 1439 2293 
Q 1191 2003 1191 1497 
Q 1191 994 1439 701 
Q 1688 409 2113 409 
Q 2538 409 2786 701 
Q 3034 994 3034 1497 
Q 3034 2003 2786 2293 
Q 2538 2584 2113 2584 
z
M 3366 4563 
L 3366 3988 
Q 3128 4100 2886 4159 
Q 2644 4219 2406 4219 
Q 1781 4219 1451 3797 
Q 1122 3375 1075 2522 
Q 1259 2794 1537 2939 
Q 1816 3084 2150 3084 
Q 2853 3084 3261 2657 
Q 3669 2231 3669 1497 
Q 3669 778 3244 343 
Q 2819 -91 2113 -91 
Q 1303 -91 875 529 
Q 447 1150 447 2328 
Q 447 3434 972 4092 
Q 1497 4750 2381 4750 
Q 2619 4750 2861 4703 
Q 3103 4656 3366 4563 
z
" transform="scale(0.015625)"/>
       </defs>
       <use xlink:href="#DejaVuSans-30"/>
       <use xlink:href="#DejaVuSans-2e" transform="translate(63.623047 0)"/>
       <use xlink:href="#DejaVuSans-36" transform="translate(95.410156 0)"/>
      </g>
     </g>
    </g>
    <g id="xtick_5">
     <g id="line2d_5">
      <g>
       <use xlink:href="#mb52df35e21" x="492.90625" y="339.84" style="stroke: #000000; stroke-width: 0.8"/>
      </g>
     </g>
     <g id="text_5">
      <!-- 0.8 -->
      <g transform="translate(477.003125 362.036875) scale(0.2 -0.2)">
       <defs>
        <path id="DejaVuSans-38" d="M 2034 2216 
Q 1584 2216 1326 1975 
Q 1069 1734 1069 1313 
Q 1069 891 1326 650 
Q 1584 409 2034 409 
Q 2484 409 2743 651 
Q 3003 894 3003 1313 
Q 3003 1734 2745 1975 
Q 2488 2216 2034 2216 
z
M 1403 2484 
Q 997 2584 770 2862 
Q 544 3141 544 3541 
Q 544 4100 942 4425 
Q 1341 4750 2034 4750 
Q 2731 4750 3128 4425 
Q 3525 4100 3525 3541 
Q 3525 3141 3298 2862 
Q 3072 2584 2669 2484 
Q 3125 2378 3379 2068 
Q 3634 1759 3634 1313 
Q 3634 634 3220 271 
Q 2806 -91 2034 -91 
Q 1263 -91 848 271 
Q 434 634 434 1313 
Q 434 1759 690 2068 
Q 947 2378 1403 2484 
z
M 1172 3481 
Q 1172 3119 1398 2916 
Q 1625 2713 2034 2713 
Q 2441 2713 2670 2916 
Q 2900 3119 2900 3481 
Q 2900 3844 2670 4047 
Q 2441 4250 2034 4250 
Q 1625 4250 1398 4047 
Q 1172 3844 1172 3481 
z
" transform="scale(0.015625)"/>
       </defs>
       <use xlink:href="#DejaVuSans-30"/>
       <use xlink:href="#DejaVuSans-2e" transform="translate(63.623047 0)"/>
       <use xlink:href="#DejaVuSans-38" transform="translate(95.410156 0)"/>
      </g>
     </g>
    </g>
    <g id="xtick_6">
     <g id="line2d_6">
      <g>
       <use xlink:href="#mb52df35e21" x="585.90625" y="339.84" style="stroke: #000000; stroke-width: 0.8"/>
      </g>
     </g>
     <g id="text_6">
      <!-- 1.0 -->
      <g transform="translate(570.003125 362.036875) scale(0.2 -0.2)">
       <defs>
        <path id="DejaVuSans-31" d="M 794 531 
L 1825 531 
L 1825 4091 
L 703 3866 
L 703 4441 
L 1819 4666 
L 2450 4666 
L 2450 531 
L 3481 531 
L 3481 0 
L 794 0 
L 794 531 
z
" transform="scale(0.015625)"/>
       </defs>
       <use xlink:href="#DejaVuSans-31"/>
       <use xlink:href="#DejaVuSans-2e" transform="translate(63.623047 0)"/>
       <use xlink:href="#DejaVuSans-30" transform="translate(95.410156 0)"/>
      </g>
     </g>
    </g>
    <g id="text_7">
     <!-- $obs$ -->
     <g transform="translate(335.70625 385.393125) scale(0.2 -0.2)">
      <defs>
       <path id="DejaVuSans-Oblique-6f" d="M 1625 -91 
Q 1009 -91 651 289 
Q 294 669 294 1325 
Q 294 1706 417 2101 
Q 541 2497 738 2766 
Q 1047 3184 1428 3384 
Q 1809 3584 2291 3584 
Q 2888 3584 3255 3212 
Q 3622 2841 3622 2241 
Q 3622 1825 3500 1412 
Q 3378 1000 3181 728 
Q 2875 309 2494 109 
Q 2113 -91 1625 -91 
z
M 891 1344 
Q 891 869 1089 633 
Q 1288 397 1691 397 
Q 2269 397 2648 901 
Q 3028 1406 3028 2181 
Q 3028 2634 2825 2865 
Q 2622 3097 2228 3097 
Q 1903 3097 1650 2945 
Q 1397 2794 1197 2484 
Q 1050 2253 970 1956 
Q 891 1659 891 1344 
z
" transform="scale(0.015625)"/>
       <path id="DejaVuSans-Oblique-62" d="M 3169 2138 
Q 3169 2591 2961 2847 
Q 2753 3103 2388 3103 
Q 2122 3103 1889 2973 
Q 1656 2844 1484 2597 
Q 1303 2338 1198 1995 
Q 1094 1653 1094 1313 
Q 1094 881 1298 636 
Q 1503 391 1863 391 
Q 2134 391 2365 517 
Q 2597 644 2772 891 
Q 2950 1147 3059 1487 
Q 3169 1828 3169 2138 
z
M 1381 2969 
Q 1594 3256 1914 3420 
Q 2234 3584 2584 3584 
Q 3122 3584 3439 3221 
Q 3756 2859 3756 2241 
Q 3756 1734 3570 1259 
Q 3384 784 3041 416 
Q 2816 172 2522 40 
Q 2228 -91 1906 -91 
Q 1566 -91 1316 65 
Q 1066 222 909 531 
L 806 0 
L 231 0 
L 1178 4863 
L 1753 4863 
L 1381 2969 
z
" transform="scale(0.015625)"/>
       <path id="DejaVuSans-Oblique-73" d="M 3200 3397 
L 3091 2853 
Q 2863 2978 2609 3040 
Q 2356 3103 2088 3103 
Q 1634 3103 1373 2948 
Q 1113 2794 1113 2528 
Q 1113 2219 1719 2053 
Q 1766 2041 1788 2034 
L 1972 1978 
Q 2547 1819 2739 1644 
Q 2931 1469 2931 1166 
Q 2931 609 2489 259 
Q 2047 -91 1331 -91 
Q 1053 -91 747 -37 
Q 441 16 72 128 
L 184 722 
Q 500 559 806 475 
Q 1113 391 1394 391 
Q 1816 391 2080 572 
Q 2344 753 2344 1031 
Q 2344 1331 1650 1516 
L 1591 1531 
L 1394 1581 
Q 956 1697 753 1886 
Q 550 2075 550 2369 
Q 550 2928 970 3256 
Q 1391 3584 2113 3584 
Q 2397 3584 2667 3537 
Q 2938 3491 3200 3397 
z
" transform="scale(0.015625)"/>
      </defs>
      <use xlink:href="#DejaVuSans-Oblique-6f" transform="translate(0 0.015625)"/>
      <use xlink:href="#DejaVuSans-Oblique-62" transform="translate(61.181641 0.015625)"/>
      <use xlink:href="#DejaVuSans-Oblique-73" transform="translate(124.658203 0.015625)"/>
     </g>
    </g>
   </g>
   <g id="matplotlib.axis_2">
    <g id="ytick_1">
     <g id="line2d_7">
      <defs>
       <path id="mc96ca09110" d="M 0 0 
L -3.5 0 
" style="stroke: #000000; stroke-width: 0.8"/>
      </defs>
      <g>
       <use xlink:href="#mc96ca09110" x="74.40625" y="312.12" style="stroke: #000000; stroke-width: 0.8"/>
      </g>
     </g>
     <g id="text_8">
      <!-- 0.0 -->
      <g transform="translate(35.6 319.718437) scale(0.2 -0.2)">
       <use xlink:href="#DejaVuSans-30"/>
       <use xlink:href="#DejaVuSans-2e" transform="translate(63.623047 0)"/>
       <use xlink:href="#DejaVuSans-30" transform="translate(95.410156 0)"/>
      </g>
     </g>
    </g>
    <g id="ytick_2">
     <g id="line2d_8">
      <g>
       <use xlink:href="#mc96ca09110" x="74.40625" y="256.68" style="stroke: #000000; stroke-width: 0.8"/>
      </g>
     </g>
     <g id="text_9">
      <!-- 0.2 -->
      <g transform="translate(35.6 264.278437) scale(0.2 -0.2)">
       <use xlink:href="#DejaVuSans-30"/>
       <use xlink:href="#DejaVuSans-2e" transform="translate(63.623047 0)"/>
       <use xlink:href="#DejaVuSans-32" transform="translate(95.410156 0)"/>
      </g>
     </g>
    </g>
    <g id="ytick_3">
     <g id="line2d_9">
      <g>
       <use xlink:href="#mc96ca09110" x="74.40625" y="201.24" style="stroke: #000000; stroke-width: 0.8"/>
      </g>
     </g>
     <g id="text_10">
      <!-- 0.4 -->
      <g transform="translate(35.6 208.838437) scale(0.2 -0.2)">
       <use xlink:href="#DejaVuSans-30"/>
       <use xlink:href="#DejaVuSans-2e" transform="translate(63.623047 0)"/>
       <use xlink:href="#DejaVuSans-34" transform="translate(95.410156 0)"/>
      </g>
     </g>
    </g>
    <g id="ytick_4">
     <g id="line2d_10">
      <g>
       <use xlink:href="#mc96ca09110" x="74.40625" y="145.8" style="stroke: #000000; stroke-width: 0.8"/>
      </g>
     </g>
     <g id="text_11">
      <!-- 0.6 -->
      <g transform="translate(35.6 153.398437) scale(0.2 -0.2)">
       <use xlink:href="#DejaVuSans-30"/>
       <use xlink:href="#DejaVuSans-2e" transform="translate(63.623047 0)"/>
       <use xlink:href="#DejaVuSans-36" transform="translate(95.410156 0)"/>
      </g>
     </g>
    </g>
    <g id="ytick_5">
     <g id="line2d_11">
      <g>
       <use xlink:href="#mc96ca09110" x="74.40625" y="90.36" style="stroke: #000000; stroke-width: 0.8"/>
      </g>
     </g>
     <g id="text_12">
      <!-- 0.8 -->
      <g transform="translate(35.6 97.958438) scale(0.2 -0.2)">
       <use xlink:href="#DejaVuSans-30"/>
       <use xlink:href="#DejaVuSans-2e" transform="translate(63.623047 0)"/>
       <use xlink:href="#DejaVuSans-38" transform="translate(95.410156 0)"/>
      </g>
     </g>
    </g>
    <g id="ytick_6">
     <g id="line2d_12">
      <g>
       <use xlink:href="#mc96ca09110" x="74.40625" y="34.92" style="stroke: #000000; stroke-width: 0.8"/>
      </g>
     </g>
     <g id="text_13">
      <!-- 1.0 -->
      <g transform="translate(35.6 42.518437) scale(0.2 -0.2)">
       <use xlink:href="#DejaVuSans-31"/>
       <use xlink:href="#DejaVuSans-2e" transform="translate(63.623047 0)"/>
       <use xlink:href="#DejaVuSans-30" transform="translate(95.410156 0)"/>
      </g>
     </g>
    </g>
    <g id="text_14">
     <!-- $f_{obs}^{g}$ -->
     <g transform="translate(25.8 189.72) rotate(-90) scale(0.2 -0.2)">
      <defs>
       <path id="DejaVuSans-Oblique-66" d="M 3059 4863 
L 2969 4384 
L 2419 4384 
Q 2106 4384 1964 4261 
Q 1822 4138 1753 3809 
L 1691 3500 
L 2638 3500 
L 2553 3053 
L 1606 3053 
L 1013 0 
L 434 0 
L 1031 3053 
L 481 3053 
L 563 3500 
L 1113 3500 
L 1159 3744 
Q 1278 4363 1576 4613 
Q 1875 4863 2516 4863 
L 3059 4863 
z
" transform="scale(0.015625)"/>
       <path id="DejaVuSans-Oblique-67" d="M 3816 3500 
L 3219 434 
Q 3047 -456 2561 -893 
Q 2075 -1331 1253 -1331 
Q 950 -1331 690 -1286 
Q 431 -1241 206 -1147 
L 313 -588 
Q 525 -725 762 -790 
Q 1000 -856 1269 -856 
Q 1816 -856 2167 -557 
Q 2519 -259 2631 300 
L 2681 563 
Q 2441 288 2122 144 
Q 1803 0 1434 0 
Q 903 0 598 351 
Q 294 703 294 1319 
Q 294 1803 478 2267 
Q 663 2731 997 3091 
Q 1219 3328 1514 3456 
Q 1809 3584 2131 3584 
Q 2484 3584 2746 3420 
Q 3009 3256 3138 2956 
L 3238 3500 
L 3816 3500 
z
M 2950 2216 
Q 2950 2641 2750 2872 
Q 2550 3103 2181 3103 
Q 1953 3103 1747 3012 
Q 1541 2922 1394 2759 
Q 1156 2491 1023 2127 
Q 891 1763 891 1375 
Q 891 944 1092 712 
Q 1294 481 1672 481 
Q 2219 481 2584 976 
Q 2950 1472 2950 2216 
z
" transform="scale(0.015625)"/>
      </defs>
      <use xlink:href="#DejaVuSans-Oblique-66" transform="translate(0 0.896875)"/>
      <use xlink:href="#DejaVuSans-Oblique-67" transform="translate(42.652786 53.8) scale(0.7)"/>
      <use xlink:href="#DejaVuSans-Oblique-6f" transform="translate(35.205078 -26.446875) scale(0.7)"/>
      <use xlink:href="#DejaVuSans-Oblique-62" transform="translate(78.032227 -26.446875) scale(0.7)"/>
      <use xlink:href="#DejaVuSans-Oblique-73" transform="translate(122.46582 -26.446875) scale(0.7)"/>
     </g>
    </g>
   </g>
   <g id="patch_3">
    <path d="M 74.40625 339.84 
L 74.40625 7.2 
" style="fill: none; stroke: #000000; stroke-width: 0.8; stroke-linejoin: miter; stroke-linecap: square"/>
   </g>
   <g id="patch_4">
    <path d="M 632.40625 339.84 
L 632.40625 7.2 
" style="fill: none; stroke: #000000; stroke-width: 0.8; stroke-linejoin: miter; stroke-linecap: square"/>
   </g>
   <g id="patch_5">
    <path d="M 74.40625 339.84 
L 632.40625 339.84 
" style="fill: none; stroke: #000000; stroke-width: 0.8; stroke-linejoin: miter; stroke-linecap: square"/>
   </g>
   <g id="patch_6">
    <path d="M 74.40625 7.2 
L 632.40625 7.2 
" style="fill: none; stroke: #000000; stroke-width: 0.8; stroke-linejoin: miter; stroke-linecap: square"/>
   </g>
   <g id="text_15">
    <!-- $g_{l}$ -->
    <g style="fill: #2e8b57" transform="translate(595.20625 289.944) scale(0.2 -0.2)">
     <defs>
      <path id="DejaVuSans-Oblique-6c" d="M 1172 4863 
L 1747 4863 
L 800 0 
L 225 0 
L 1172 4863 
z
" transform="scale(0.015625)"/>
     </defs>
     <use xlink:href="#DejaVuSans-Oblique-67"/>
     <use xlink:href="#DejaVuSans-Oblique-6c" transform="translate(63.476562 -16.40625) scale(0.7)"/>
    </g>
   </g>
   <g id="text_16">
    <!-- $Low\ intensity$ -->
    <g style="fill: #2e8b57" transform="translate(446.40625 270.54) scale(0.2 -0.2)">
     <defs>
      <path id="DejaVuSans-Oblique-4c" d="M 1075 4666 
L 1709 4666 
L 909 525 
L 3181 525 
L 3078 0 
L 172 0 
L 1075 4666 
z
" transform="scale(0.015625)"/>
      <path id="DejaVuSans-Oblique-77" d="M 544 3500 
L 1113 3500 
L 1259 684 
L 2566 3500 
L 3231 3500 
L 3425 684 
L 4666 3500 
L 5241 3500 
L 3641 0 
L 2969 0 
L 2797 2900 
L 1459 0 
L 781 0 
L 544 3500 
z
" transform="scale(0.015625)"/>
      <path id="DejaVuSans-Oblique-69" d="M 1172 4863 
L 1747 4863 
L 1606 4134 
L 1031 4134 
L 1172 4863 
z
M 909 3500 
L 1484 3500 
L 800 0 
L 225 0 
L 909 3500 
z
" transform="scale(0.015625)"/>
      <path id="DejaVuSans-Oblique-6e" d="M 3566 2113 
L 3156 0 
L 2578 0 
L 2988 2091 
Q 3016 2238 3031 2350 
Q 3047 2463 3047 2528 
Q 3047 2791 2881 2937 
Q 2716 3084 2419 3084 
Q 1956 3084 1622 2776 
Q 1288 2469 1184 1941 
L 800 0 
L 225 0 
L 903 3500 
L 1478 3500 
L 1363 2950 
Q 1603 3253 1940 3418 
Q 2278 3584 2650 3584 
Q 3113 3584 3367 3334 
Q 3622 3084 3622 2631 
Q 3622 2519 3608 2391 
Q 3594 2263 3566 2113 
z
" transform="scale(0.015625)"/>
      <path id="DejaVuSans-Oblique-74" d="M 2706 3500 
L 2619 3053 
L 1472 3053 
L 1100 1153 
Q 1081 1047 1072 975 
Q 1063 903 1063 863 
Q 1063 663 1183 572 
Q 1303 481 1569 481 
L 2150 481 
L 2053 0 
L 1503 0 
Q 991 0 739 200 
Q 488 400 488 806 
Q 488 878 497 964 
Q 506 1050 525 1153 
L 897 3053 
L 409 3053 
L 500 3500 
L 978 3500 
L 1172 4494 
L 1747 4494 
L 1556 3500 
L 2706 3500 
z
" transform="scale(0.015625)"/>
      <path id="DejaVuSans-Oblique-65" d="M 3078 2063 
Q 3088 2113 3092 2166 
Q 3097 2219 3097 2272 
Q 3097 2653 2873 2875 
Q 2650 3097 2266 3097 
Q 1838 3097 1509 2826 
Q 1181 2556 1013 2059 
L 3078 2063 
z
M 3578 1613 
L 903 1613 
Q 884 1494 878 1425 
Q 872 1356 872 1306 
Q 872 872 1139 634 
Q 1406 397 1894 397 
Q 2269 397 2603 481 
Q 2938 566 3225 728 
L 3116 159 
Q 2806 34 2476 -28 
Q 2147 -91 1806 -91 
Q 1078 -91 686 257 
Q 294 606 294 1247 
Q 294 1794 489 2264 
Q 684 2734 1063 3103 
Q 1306 3334 1642 3459 
Q 1978 3584 2356 3584 
Q 2950 3584 3301 3228 
Q 3653 2872 3653 2272 
Q 3653 2128 3634 1964 
Q 3616 1800 3578 1613 
z
" transform="scale(0.015625)"/>
      <path id="DejaVuSans-Oblique-79" d="M 1588 -325 
Q 1188 -997 936 -1164 
Q 684 -1331 294 -1331 
L -159 -1331 
L -63 -850 
L 269 -850 
Q 509 -850 678 -719 
Q 847 -588 1056 -206 
L 1234 128 
L 459 3500 
L 1069 3500 
L 1650 819 
L 3256 3500 
L 3859 3500 
L 1588 -325 
z
" transform="scale(0.015625)"/>
     </defs>
     <use xlink:href="#DejaVuSans-Oblique-4c" transform="translate(0 0.015625)"/>
     <use xlink:href="#DejaVuSans-Oblique-6f" transform="translate(55.712891 0.015625)"/>
     <use xlink:href="#DejaVuSans-Oblique-77" transform="translate(116.894531 0.015625)"/>
     <use xlink:href="#DejaVuSans-Oblique-69" transform="translate(231.152019 0.015625)"/>
     <use xlink:href="#DejaVuSans-Oblique-6e" transform="translate(258.935222 0.015625)"/>
     <use xlink:href="#DejaVuSans-Oblique-74" transform="translate(322.314128 0.015625)"/>
     <use xlink:href="#DejaVuSans-Oblique-65" transform="translate(361.523113 0.015625)"/>
     <use xlink:href="#DejaVuSans-Oblique-6e" transform="translate(423.04655 0.015625)"/>
     <use xlink:href="#DejaVuSans-Oblique-73" transform="translate(486.425457 0.015625)"/>
     <use xlink:href="#DejaVuSans-Oblique-69" transform="translate(538.525066 0.015625)"/>
     <use xlink:href="#DejaVuSans-Oblique-74" transform="translate(566.308269 0.015625)"/>
     <use xlink:href="#DejaVuSans-Oblique-79" transform="translate(605.517253 0.015625)"/>
    </g>
   </g>
  </g>
 </g>
 <defs>
  <clipPath id="p128afbe0f6">
   <rect x="74.40625" y="7.2" width="558" height="332.64"/>
  </clipPath>
 </defs>
</svg>
