<?xml version="1.0" encoding="utf-8" standalone="no"?>
<!DOCTYPE svg PUBLIC "-//W3C//DTD SVG 1.1//EN"
  "http://www.w3.org/Graphics/SVG/1.1/DTD/svg11.dtd">
<svg xmlns:xlink="http://www.w3.org/1999/xlink" width="447.8pt" height="402.894688pt" viewBox="0 0 447.8 402.894688" xmlns="http://www.w3.org/2000/svg" version="1.1">
 <metadata>
  <rdf:RDF xmlns:dc="http://purl.org/dc/elements/1.1/" xmlns:cc="http://creativecommons.org/ns#" xmlns:rdf="http://www.w3.org/1999/02/22-rdf-syntax-ns#">
   <cc:Work>
    <dc:type rdf:resource="http://purl.org/dc/dcmitype/StillImage"/>
    <dc:date>2025-05-19T13:29:20.377013</dc:date>
    <dc:format>image/svg+xml</dc:format>
    <dc:creator>
     <cc:Agent>
      <dc:title>Matplotlib v3.10.1, https://matplotlib.org/</dc:title>
     </cc:Agent>
    </dc:creator>
   </cc:Work>
  </rdf:RDF>
 </metadata>
 <defs>
  <style type="text/css">*{stroke-linejoin: round; stroke-linecap: butt}</style>
 </defs>
 <g id="figure_1">
  <g id="patch_1">
   <path d="M 0 402.894688 
L 447.8 402.894688 
L 447.8 0 
L 0 0 
z
" style="fill: #ffffff"/>
  </g>
  <g id="axes_1">
   <g id="patch_2">
    <path d="M 88.2 347.438438 
L 423 347.438438 
L 423 14.798437 
L 88.2 14.798437 
z
" style="fill: #ffffff"/>
   </g>
   <g id="QuadContourSet_1">
    <path d="M 93.514287 347.438438 
L 98.82857 347.438438 
L 104.142859 347.438438 
L 109.457144 347.438438 
L 114.771427 347.438438 
L 120.085714 347.438438 
L 125.399997 347.438438 
L 130.714283 347.438438 
L 136.028569 347.438438 
L 141.342855 347.438438 
L 146.657141 347.438438 
L 151.971429 347.438438 
L 157.28573 347.438438 
L 162.599996 347.438438 
L 167.914302 347.438438 
L 173.228567 347.438438 
L 178.542872 347.438438 
L 183.857135 347.438438 
L 189.171443 347.438438 
L 194.485707 347.438438 
L 199.800012 347.438438 
L 205.114279 347.438438 
L 210.428586 347.438438 
L 215.742872 347.438438 
L 221.057154 347.438438 
L 226.371443 347.438438 
L 231.685726 347.438438 
L 237.000013 347.438438 
L 242.314298 347.438438 
L 247.628582 347.438438 
L 252.942868 347.438438 
L 258.257135 347.438438 
L 263.571418 347.438438 
L 268.885704 347.438438 
L 274.199992 347.438438 
L 279.514275 347.438438 
L 284.828558 347.438438 
L 290.142845 347.438438 
L 295.457131 347.438438 
L 300.771424 347.438438 
L 306.085713 347.438438 
L 311.399998 347.438438 
L 316.714284 347.438438 
L 322.028569 347.438438 
L 327.342855 347.438438 
L 332.657141 347.438438 
L 337.971426 347.438438 
L 343.285711 347.438438 
L 348.599997 347.438438 
L 353.914278 347.438438 
L 359.228564 347.438438 
L 364.542855 347.438438 
L 369.857142 347.438438 
L 375.171424 347.438438 
L 380.485714 347.438438 
L 385.799995 347.438438 
L 391.114281 347.438438 
L 396.42857 347.438438 
L 401.742859 347.438438 
L 407.05714 347.438438 
L 412.371429 347.438438 
L 417.685712 347.438438 
L 423 347.438438 
L 423 342.158436 
L 423 336.878439 
L 423 331.598435 
L 423 326.318437 
L 423 321.038439 
L 423 315.758438 
L 423 310.478441 
L 423 305.19844 
L 423 299.91844 
L 423 294.638439 
L 423 289.358439 
L 423 284.078437 
L 423 278.798422 
L 423 273.518441 
L 423 268.238422 
L 423 262.958442 
L 423 257.678423 
L 423 252.398445 
L 423 247.118424 
L 423 241.838445 
L 423 238.096636 
L 417.685712 238.066492 
L 412.371429 239.492351 
L 407.05714 240.828238 
L 401.742859 241.041327 
L 396.42857 241.32593 
L 394.598856 241.838445 
L 391.114281 242.924069 
L 385.799995 243.234736 
L 380.485714 244.579718 
L 375.171424 245.716723 
L 369.857142 246.331093 
L 366.756389 247.118424 
L 364.542855 247.61876 
L 359.228564 247.63529 
L 353.914278 249.437354 
L 348.599997 250.870947 
L 343.285711 251.491666 
L 338.223466 252.398445 
L 337.971426 252.459623 
L 332.657141 253.867698 
L 327.342855 255.765674 
L 322.028569 256.98476 
L 317.830416 257.678423 
L 316.714284 257.891803 
L 311.399998 259.763504 
L 306.085713 260.686793 
L 300.771424 262.702641 
L 298.419513 262.958442 
L 295.457131 263.374371 
L 290.142845 265.920551 
L 284.828558 267.097329 
L 280.690449 268.238422 
L 279.514275 268.506669 
L 274.199992 270.150878 
L 268.885704 271.511439 
L 263.571418 272.940519 
L 261.683784 273.518441 
L 258.257135 274.550035 
L 252.942868 276.514277 
L 247.628582 277.962573 
L 243.803167 278.798422 
L 242.314298 279.191195 
L 237.000013 280.699748 
L 231.685726 282.014145 
L 226.371443 283.707121 
L 221.057154 283.958373 
L 220.75336 284.078437 
L 215.742872 286.171829 
L 210.428586 287.605945 
L 205.114279 288.885444 
L 203.531362 289.358439 
L 199.800012 290.15992 
L 194.485707 290.578485 
L 189.171443 291.522019 
L 183.857135 292.694712 
L 178.542872 293.357603 
L 173.228567 293.853797 
L 170.058481 294.638439 
L 167.914302 295.279382 
L 162.599996 295.749778 
L 157.28573 295.989362 
L 151.971429 296.869403 
L 146.657141 297.236408 
L 141.342855 297.106991 
L 136.028569 298.434396 
L 130.714283 298.198411 
L 125.399997 299.301229 
L 120.085714 299.364744 
L 114.771427 299.596597 
L 111.808115 299.91844 
L 109.457144 300.104768 
L 104.142859 300.331766 
L 98.82857 300.363215 
L 93.514287 300.593055 
L 88.2 300.309781 
L 88.2 305.19844 
L 88.2 310.478441 
L 88.2 315.758438 
L 88.2 321.038439 
L 88.2 326.318437 
L 88.2 331.598435 
L 88.2 336.878439 
L 88.2 342.158436 
L 88.2 347.438438 
z
" clip-path="url(#pddd29f85b6)" style="fill: #470e61"/>
    <path d="M 93.514287 300.593055 
L 98.82857 300.363215 
L 104.142859 300.331766 
L 109.457144 300.104768 
L 111.808115 299.91844 
L 114.771427 299.596597 
L 120.085714 299.364744 
L 125.399997 299.301229 
L 130.714283 298.198411 
L 136.028569 298.434396 
L 141.342855 297.106991 
L 146.657141 297.236408 
L 151.971429 296.869403 
L 157.28573 295.989362 
L 162.599996 295.749778 
L 167.914302 295.279382 
L 170.058481 294.638439 
L 173.228567 293.853797 
L 178.542872 293.357603 
L 183.857135 292.694712 
L 189.171443 291.522019 
L 194.485707 290.578485 
L 199.800012 290.15992 
L 203.531362 289.358439 
L 205.114279 288.885444 
L 210.428586 287.605945 
L 215.742872 286.171829 
L 220.75336 284.078437 
L 221.057154 283.958373 
L 226.371443 283.707121 
L 231.685726 282.014145 
L 237.000013 280.699748 
L 242.314298 279.191195 
L 243.803167 278.798422 
L 247.628582 277.962573 
L 252.942868 276.514277 
L 258.257135 274.550035 
L 261.683784 273.518441 
L 263.571418 272.940519 
L 268.885704 271.511439 
L 274.199992 270.150878 
L 279.514275 268.506669 
L 280.690449 268.238422 
L 284.828558 267.097329 
L 290.142845 265.920551 
L 295.457131 263.374371 
L 298.419513 262.958442 
L 300.771424 262.702641 
L 306.085713 260.686793 
L 311.399998 259.763504 
L 316.714284 257.891803 
L 317.830416 257.678423 
L 322.028569 256.98476 
L 327.342855 255.765674 
L 332.657141 253.867698 
L 337.971426 252.459623 
L 338.223466 252.398445 
L 343.285711 251.491666 
L 348.599997 250.870947 
L 353.914278 249.437354 
L 359.228564 247.63529 
L 364.542855 247.61876 
L 366.756389 247.118424 
L 369.857142 246.331093 
L 375.171424 245.716723 
L 380.485714 244.579718 
L 385.799995 243.234736 
L 391.114281 242.924069 
L 394.598856 241.838445 
L 396.42857 241.32593 
L 401.742859 241.041327 
L 407.05714 240.828238 
L 412.371429 239.492351 
L 417.685712 238.066492 
L 423 238.096636 
L 423 236.558426 
L 423 231.278444 
L 423 225.998423 
L 423 220.718422 
L 423 218.489092 
L 417.685712 218.627262 
L 412.371429 220.015372 
L 407.05714 219.776086 
L 401.742859 220.629587 
L 401.241516 220.718422 
L 396.42857 221.68977 
L 391.114281 222.648915 
L 385.799995 223.576494 
L 380.485714 224.366273 
L 375.171424 224.814854 
L 369.857142 225.945345 
L 369.563162 225.998423 
L 364.542855 226.69586 
L 359.228564 227.47311 
L 353.914278 228.809165 
L 348.599997 229.531008 
L 343.310992 231.278444 
L 343.285711 231.287306 
L 337.971426 232.310684 
L 332.657141 233.308847 
L 327.342855 234.350592 
L 322.028569 235.917371 
L 320.18722 236.558426 
L 316.714284 237.711418 
L 311.399998 238.838155 
L 306.085713 239.903115 
L 300.771424 241.081547 
L 298.75341 241.838445 
L 295.457131 243.027301 
L 290.142845 244.310919 
L 284.828558 245.615699 
L 280.662133 247.118424 
L 279.514275 247.547001 
L 274.199992 249.009087 
L 268.885704 249.868791 
L 263.571418 251.551941 
L 260.532231 252.398445 
L 258.257135 252.968188 
L 252.942868 254.40981 
L 247.628582 256.025018 
L 242.314298 257.624714 
L 242.125347 257.678423 
L 237.000013 259.021494 
L 231.685726 260.527712 
L 226.371443 261.443154 
L 221.057154 262.587487 
L 220.180287 262.958442 
L 215.742872 264.411818 
L 210.428586 265.7461 
L 205.114279 266.274712 
L 199.800012 267.753392 
L 194.485707 267.939598 
L 193.185079 268.238422 
L 189.171443 269.258276 
L 183.857135 270.291311 
L 178.542872 271.446315 
L 173.228567 272.149427 
L 167.914302 272.82954 
L 163.594618 273.518441 
L 162.599996 273.678993 
L 157.28573 274.228689 
L 151.971429 274.806667 
L 146.657141 275.02402 
L 141.342855 275.835034 
L 136.028569 276.581763 
L 130.714283 276.997261 
L 125.399997 277.456992 
L 120.085714 277.698362 
L 114.771427 277.725962 
L 109.457144 278.009494 
L 104.25653 278.798422 
L 104.142859 278.814748 
L 98.82857 278.910156 
L 93.514287 279.172884 
L 88.2 279.338586 
L 88.2 284.078437 
L 88.2 289.358439 
L 88.2 294.638439 
L 88.2 299.91844 
L 88.2 300.309781 
z
" clip-path="url(#pddd29f85b6)" style="fill: #482677"/>
    <path d="M 93.514287 279.172884 
L 98.82857 278.910156 
L 104.142859 278.814748 
L 104.25653 278.798422 
L 109.457144 278.009494 
L 114.771427 277.725962 
L 120.085714 277.698362 
L 125.399997 277.456992 
L 130.714283 276.997261 
L 136.028569 276.581763 
L 141.342855 275.835034 
L 146.657141 275.02402 
L 151.971429 274.806667 
L 157.28573 274.228689 
L 162.599996 273.678993 
L 163.594618 273.518441 
L 167.914302 272.82954 
L 173.228567 272.149427 
L 178.542872 271.446315 
L 183.857135 270.291311 
L 189.171443 269.258276 
L 193.185079 268.238422 
L 194.485707 267.939598 
L 199.800012 267.753392 
L 205.114279 266.274712 
L 210.428586 265.7461 
L 215.742872 264.411818 
L 220.180287 262.958442 
L 221.057154 262.587487 
L 226.371443 261.443154 
L 231.685726 260.527712 
L 237.000013 259.021494 
L 242.125347 257.678423 
L 242.314298 257.624714 
L 247.628582 256.025018 
L 252.942868 254.40981 
L 258.257135 252.968188 
L 260.532231 252.398445 
L 263.571418 251.551941 
L 268.885704 249.868791 
L 274.199992 249.009087 
L 279.514275 247.547001 
L 280.662133 247.118424 
L 284.828558 245.615699 
L 290.142845 244.310919 
L 295.457131 243.027301 
L 298.75341 241.838445 
L 300.771424 241.081547 
L 306.085713 239.903115 
L 311.399998 238.838155 
L 316.714284 237.711418 
L 320.18722 236.558426 
L 322.028569 235.917371 
L 327.342855 234.350592 
L 332.657141 233.308847 
L 337.971426 232.310684 
L 343.285711 231.287306 
L 343.310992 231.278444 
L 348.599997 229.531008 
L 353.914278 228.809165 
L 359.228564 227.47311 
L 364.542855 226.69586 
L 369.563162 225.998423 
L 369.857142 225.945345 
L 375.171424 224.814854 
L 380.485714 224.366273 
L 385.799995 223.576494 
L 391.114281 222.648915 
L 396.42857 221.68977 
L 401.241516 220.718422 
L 401.742859 220.629587 
L 407.05714 219.776086 
L 412.371429 220.015372 
L 417.685712 218.627262 
L 423 218.489092 
L 423 215.438426 
L 423 210.158424 
L 423 204.878426 
L 423 204.465985 
L 417.685712 204.861087 
L 417.536971 204.878426 
L 412.371429 205.474365 
L 407.05714 205.833897 
L 401.742859 206.71994 
L 396.42857 207.483282 
L 391.114281 208.026881 
L 385.799995 208.570092 
L 380.485714 209.494272 
L 377.585279 210.158424 
L 375.171424 210.707629 
L 369.857142 211.149412 
L 364.542855 212.173474 
L 359.228564 213.45614 
L 353.914278 214.621486 
L 348.599997 215.189539 
L 347.32311 215.438426 
L 343.285711 216.231879 
L 337.971426 217.674845 
L 332.657141 218.417816 
L 327.342855 219.778476 
L 324.129988 220.718422 
L 322.028569 221.296329 
L 316.714284 222.004601 
L 311.399998 223.538246 
L 306.085713 225.173614 
L 301.865916 225.998423 
L 300.771424 226.182011 
L 295.457131 227.42001 
L 290.142845 229.338849 
L 284.828558 230.062212 
L 279.514275 231.237995 
L 279.38976 231.278444 
L 274.199992 233.064308 
L 268.885704 234.655478 
L 263.571418 236.251832 
L 262.469027 236.558426 
L 258.257135 237.600045 
L 252.942868 238.570903 
L 247.628582 240.304138 
L 242.314298 241.681642 
L 241.670297 241.838445 
L 237.000013 242.942254 
L 231.685726 244.128003 
L 226.371443 245.872972 
L 221.057154 247.025271 
L 220.690509 247.118424 
L 215.742872 248.067159 
L 210.428586 249.374562 
L 205.114279 250.150129 
L 199.800012 251.65608 
L 195.711607 252.398445 
L 194.485707 252.599904 
L 189.171443 253.425093 
L 183.857135 254.581913 
L 178.542872 255.10335 
L 173.228567 256.151261 
L 167.914302 256.855655 
L 162.599996 257.193109 
L 159.686529 257.678423 
L 157.28573 258.07834 
L 151.971429 258.535848 
L 146.657141 259.333481 
L 141.342855 259.917137 
L 136.028569 260.135377 
L 130.714283 260.924281 
L 125.399997 261.474495 
L 120.085714 261.883187 
L 114.771427 261.922408 
L 109.457144 262.586303 
L 104.142859 262.952353 
L 103.700477 262.958442 
L 98.82857 263.020163 
L 93.514287 263.084268 
L 88.2 263.341744 
L 88.2 268.238422 
L 88.2 273.518441 
L 88.2 278.798422 
L 88.2 279.338586 
z
" clip-path="url(#pddd29f85b6)" style="fill: #433d84"/>
    <path d="M 93.514287 263.084268 
L 98.82857 263.020163 
L 103.700477 262.958442 
L 104.142859 262.952353 
L 109.457144 262.586303 
L 114.771427 261.922408 
L 120.085714 261.883187 
L 125.399997 261.474495 
L 130.714283 260.924281 
L 136.028569 260.135377 
L 141.342855 259.917137 
L 146.657141 259.333481 
L 151.971429 258.535848 
L 157.28573 258.07834 
L 159.686529 257.678423 
L 162.599996 257.193109 
L 167.914302 256.855655 
L 173.228567 256.151261 
L 178.542872 255.10335 
L 183.857135 254.581913 
L 189.171443 253.425093 
L 194.485707 252.599904 
L 195.711607 252.398445 
L 199.800012 251.65608 
L 205.114279 250.150129 
L 210.428586 249.374562 
L 215.742872 248.067159 
L 220.690509 247.118424 
L 221.057154 247.025271 
L 226.371443 245.872972 
L 231.685726 244.128003 
L 237.000013 242.942254 
L 241.670297 241.838445 
L 242.314298 241.681642 
L 247.628582 240.304138 
L 252.942868 238.570903 
L 258.257135 237.600045 
L 262.469027 236.558426 
L 263.571418 236.251832 
L 268.885704 234.655478 
L 274.199992 233.064308 
L 279.38976 231.278444 
L 279.514275 231.237995 
L 284.828558 230.062212 
L 290.142845 229.338849 
L 295.457131 227.42001 
L 300.771424 226.182011 
L 301.865916 225.998423 
L 306.085713 225.173614 
L 311.399998 223.538246 
L 316.714284 222.004601 
L 322.028569 221.296329 
L 324.129988 220.718422 
L 327.342855 219.778476 
L 332.657141 218.417816 
L 337.971426 217.674845 
L 343.285711 216.231879 
L 347.32311 215.438426 
L 348.599997 215.189539 
L 353.914278 214.621486 
L 359.228564 213.45614 
L 364.542855 212.173474 
L 369.857142 211.149412 
L 375.171424 210.707629 
L 377.585279 210.158424 
L 380.485714 209.494272 
L 385.799995 208.570092 
L 391.114281 208.026881 
L 396.42857 207.483282 
L 401.742859 206.71994 
L 407.05714 205.833897 
L 412.371429 205.474365 
L 417.536971 204.878426 
L 417.685712 204.861087 
L 423 204.465985 
L 423 199.598424 
L 423 194.318425 
L 423 192.041237 
L 417.685712 192.509236 
L 412.371429 193.265913 
L 407.05714 193.925613 
L 404.50594 194.318425 
L 401.742859 194.674717 
L 396.42857 195.008924 
L 391.114281 195.813087 
L 385.799995 196.406237 
L 380.485714 197.147863 
L 375.171424 198.106265 
L 369.857142 198.763477 
L 364.542855 199.442652 
L 363.898454 199.598424 
L 359.228564 200.626625 
L 353.914278 201.831686 
L 348.599997 202.578515 
L 343.285711 203.57117 
L 337.971426 204.850643 
L 337.853658 204.878426 
L 332.657141 205.884717 
L 327.342855 206.911224 
L 322.028569 208.430681 
L 316.714284 209.131429 
L 313.075749 210.158424 
L 311.399998 210.560676 
L 306.085713 211.526834 
L 300.771424 213.232286 
L 295.457131 214.644442 
L 291.266126 215.438426 
L 290.142845 215.627811 
L 284.828558 217.157076 
L 279.514275 218.250445 
L 274.199992 219.760179 
L 271.026952 220.718422 
L 268.885704 221.249851 
L 263.571418 222.143945 
L 258.257135 223.893216 
L 252.942868 224.982305 
L 248.648644 225.998423 
L 247.628582 226.20877 
L 242.314298 227.81721 
L 237.000013 229.08214 
L 231.685726 230.178454 
L 227.909196 231.278444 
L 226.371443 231.669481 
L 221.057154 232.699946 
L 215.742872 233.84198 
L 210.428586 235.123295 
L 205.114279 235.712455 
L 201.648974 236.558426 
L 199.800012 236.988116 
L 194.485707 238.01799 
L 189.171443 239.002985 
L 183.857135 239.695637 
L 178.542872 240.58513 
L 173.279034 241.838445 
L 173.228567 241.849813 
L 167.914302 242.163868 
L 162.599996 243.115291 
L 157.28573 244.126714 
L 151.971429 244.503081 
L 146.657141 245.196424 
L 141.342855 245.559861 
L 136.028569 246.587507 
L 130.714283 246.916477 
L 125.399997 247.102172 
L 125.233102 247.118424 
L 120.085714 247.535436 
L 114.771427 247.933806 
L 109.457144 248.017196 
L 104.142859 248.494076 
L 98.82857 248.600173 
L 93.514287 249.118567 
L 88.2 249.434874 
L 88.2 252.398445 
L 88.2 257.678423 
L 88.2 262.958442 
L 88.2 263.341744 
z
" clip-path="url(#pddd29f85b6)" style="fill: #3b528b"/>
    <path d="M 93.514287 249.118567 
L 98.82857 248.600173 
L 104.142859 248.494076 
L 109.457144 248.017196 
L 114.771427 247.933806 
L 120.085714 247.535436 
L 125.233102 247.118424 
L 125.399997 247.102172 
L 130.714283 246.916477 
L 136.028569 246.587507 
L 141.342855 245.559861 
L 146.657141 245.196424 
L 151.971429 244.503081 
L 157.28573 244.126714 
L 162.599996 243.115291 
L 167.914302 242.163868 
L 173.228567 241.849813 
L 173.279034 241.838445 
L 178.542872 240.58513 
L 183.857135 239.695637 
L 189.171443 239.002985 
L 194.485707 238.01799 
L 199.800012 236.988116 
L 201.648974 236.558426 
L 205.114279 235.712455 
L 210.428586 235.123295 
L 215.742872 233.84198 
L 221.057154 232.699946 
L 226.371443 231.669481 
L 227.909196 231.278444 
L 231.685726 230.178454 
L 237.000013 229.08214 
L 242.314298 227.81721 
L 247.628582 226.20877 
L 248.648644 225.998423 
L 252.942868 224.982305 
L 258.257135 223.893216 
L 263.571418 222.143945 
L 268.885704 221.249851 
L 271.026952 220.718422 
L 274.199992 219.760179 
L 279.514275 218.250445 
L 284.828558 217.157076 
L 290.142845 215.627811 
L 291.266126 215.438426 
L 295.457131 214.644442 
L 300.771424 213.232286 
L 306.085713 211.526834 
L 311.399998 210.560676 
L 313.075749 210.158424 
L 316.714284 209.131429 
L 322.028569 208.430681 
L 327.342855 206.911224 
L 332.657141 205.884717 
L 337.853658 204.878426 
L 337.971426 204.850643 
L 343.285711 203.57117 
L 348.599997 202.578515 
L 353.914278 201.831686 
L 359.228564 200.626625 
L 363.898454 199.598424 
L 364.542855 199.442652 
L 369.857142 198.763477 
L 375.171424 198.106265 
L 380.485714 197.147863 
L 385.799995 196.406237 
L 391.114281 195.813087 
L 396.42857 195.008924 
L 401.742859 194.674717 
L 404.50594 194.318425 
L 407.05714 193.925613 
L 412.371429 193.265913 
L 417.685712 192.509236 
L 423 192.041237 
L 423 189.038427 
L 423 183.758427 
L 423 178.478445 
L 423 173.198448 
L 423 167.918447 
L 423 162.638446 
L 423 157.358448 
L 423 152.078451 
L 423 146.798449 
L 423 141.51845 
L 423 136.238442 
L 423 130.958438 
L 423 125.678439 
L 423 120.398439 
L 423 115.11844 
L 423 109.83844 
L 423 104.558439 
L 423 101.888921 
L 417.685712 102.268858 
L 412.371429 102.544861 
L 407.05714 103.074663 
L 401.742859 103.471701 
L 396.42857 103.94927 
L 391.114281 104.320788 
L 389.323448 104.558439 
L 385.799995 105.207716 
L 380.485714 105.866286 
L 375.171424 106.435045 
L 369.857142 106.925037 
L 364.542855 107.581211 
L 359.228564 107.790358 
L 353.914278 108.60773 
L 348.599997 109.151477 
L 343.285711 109.821176 
L 343.133253 109.83844 
L 337.971426 110.651725 
L 332.657141 111.240651 
L 327.342855 112.054061 
L 322.028569 112.966378 
L 316.714284 113.693607 
L 311.399998 114.189096 
L 306.085713 115.07644 
L 305.565943 115.11844 
L 300.771424 115.682489 
L 295.457131 116.81841 
L 290.142845 117.629181 
L 284.828558 118.055282 
L 279.514275 118.955513 
L 274.199992 119.696526 
L 270.52559 120.398439 
L 268.885704 120.836616 
L 263.571418 121.36823 
L 258.257135 122.127023 
L 252.942868 123.00427 
L 247.628582 123.340251 
L 242.314298 124.002718 
L 237.000013 124.548315 
L 231.685726 124.981399 
L 226.719341 125.678439 
L 226.371443 125.75528 
L 221.057154 126.42893 
L 215.742872 127.324784 
L 210.428586 127.780006 
L 205.114279 128.259274 
L 199.800012 128.843451 
L 194.485707 129.347549 
L 189.171443 129.78443 
L 183.857135 129.887415 
L 178.542872 130.85981 
L 175.059734 130.958438 
L 173.228567 131.0234 
L 167.914302 131.188291 
L 162.599996 131.996387 
L 157.28573 132.416019 
L 151.971429 133.052957 
L 146.657141 133.06224 
L 141.342855 133.384052 
L 136.028569 133.623476 
L 130.714283 133.755499 
L 125.399997 134.190941 
L 120.085714 134.1898 
L 114.771427 134.188959 
L 109.457144 134.539663 
L 104.142859 134.786092 
L 98.82857 134.852101 
L 93.514287 135.234516 
L 88.2 135.16893 
L 88.2 136.238442 
L 88.2 141.51845 
L 88.2 146.798449 
L 88.2 152.078451 
L 88.2 157.358448 
L 88.2 162.638446 
L 88.2 167.918447 
L 88.2 173.198448 
L 88.2 178.478445 
L 88.2 183.758427 
L 88.2 189.038427 
L 88.2 194.318425 
L 88.2 199.598424 
L 88.2 204.878426 
L 88.2 210.158424 
L 88.2 215.438426 
L 88.2 220.718422 
L 88.2 225.998423 
L 88.2 231.278444 
L 88.2 236.558426 
L 88.2 241.838445 
L 88.2 247.118424 
L 88.2 249.434874 
z
" clip-path="url(#pddd29f85b6)" style="fill: #32658e"/>
    <path d="M 93.514287 135.234516 
L 98.82857 134.852101 
L 104.142859 134.786092 
L 109.457144 134.539663 
L 114.771427 134.188959 
L 120.085714 134.1898 
L 125.399997 134.190941 
L 130.714283 133.755499 
L 136.028569 133.623476 
L 141.342855 133.384052 
L 146.657141 133.06224 
L 151.971429 133.052957 
L 157.28573 132.416019 
L 162.599996 131.996387 
L 167.914302 131.188291 
L 173.228567 131.0234 
L 175.059734 130.958438 
L 178.542872 130.85981 
L 183.857135 129.887415 
L 189.171443 129.78443 
L 194.485707 129.347549 
L 199.800012 128.843451 
L 205.114279 128.259274 
L 210.428586 127.780006 
L 215.742872 127.324784 
L 221.057154 126.42893 
L 226.371443 125.75528 
L 226.719341 125.678439 
L 231.685726 124.981399 
L 237.000013 124.548315 
L 242.314298 124.002718 
L 247.628582 123.340251 
L 252.942868 123.00427 
L 258.257135 122.127023 
L 263.571418 121.36823 
L 268.885704 120.836616 
L 270.52559 120.398439 
L 274.199992 119.696526 
L 279.514275 118.955513 
L 284.828558 118.055282 
L 290.142845 117.629181 
L 295.457131 116.81841 
L 300.771424 115.682489 
L 305.565943 115.11844 
L 306.085713 115.07644 
L 311.399998 114.189096 
L 316.714284 113.693607 
L 322.028569 112.966378 
L 327.342855 112.054061 
L 332.657141 111.240651 
L 337.971426 110.651725 
L 343.133253 109.83844 
L 343.285711 109.821176 
L 348.599997 109.151477 
L 353.914278 108.60773 
L 359.228564 107.790358 
L 364.542855 107.581211 
L 369.857142 106.925037 
L 375.171424 106.435045 
L 380.485714 105.866286 
L 385.799995 105.207716 
L 389.323448 104.558439 
L 391.114281 104.320788 
L 396.42857 103.94927 
L 401.742859 103.471701 
L 407.05714 103.074663 
L 412.371429 102.544861 
L 417.685712 102.268858 
L 423 101.888921 
L 423 99.27844 
L 423 93.998441 
L 423 88.718441 
L 423 88.486243 
L 417.685712 88.615741 
L 416.983214 88.718441 
L 412.371429 89.382842 
L 407.05714 89.724169 
L 401.742859 89.943165 
L 396.42857 90.495206 
L 391.114281 90.82284 
L 385.799995 91.433718 
L 380.485714 92.029423 
L 375.171424 92.570483 
L 369.857142 93.07923 
L 364.542855 93.669887 
L 362.809238 93.998441 
L 359.228564 94.603998 
L 353.914278 94.876776 
L 348.599997 95.729443 
L 343.285711 96.253435 
L 337.971426 97.00319 
L 332.657141 97.501975 
L 327.342855 98.247339 
L 322.028569 99.065026 
L 320.862752 99.27844 
L 316.714284 99.900626 
L 311.399998 100.311599 
L 306.085713 101.109835 
L 300.771424 101.852587 
L 295.457131 102.289013 
L 290.142845 103.224508 
L 284.828558 103.981968 
L 281.286521 104.558439 
L 279.514275 104.804448 
L 274.199992 105.494981 
L 268.885704 106.097263 
L 263.571418 106.452795 
L 258.257135 107.340335 
L 252.942868 108.164154 
L 247.628582 108.754258 
L 242.314298 109.320321 
L 237.417994 109.83844 
L 237.000013 109.881219 
L 231.685726 110.55358 
L 226.371443 110.848029 
L 221.057154 111.837815 
L 215.742872 112.130027 
L 210.428586 112.838083 
L 205.114279 113.282809 
L 199.800012 113.923396 
L 194.485707 114.158533 
L 189.171443 114.504865 
L 185.361243 115.11844 
L 183.857135 115.324494 
L 178.542872 115.483377 
L 173.228567 115.892761 
L 167.914302 116.32244 
L 162.599996 116.644429 
L 157.28573 116.864858 
L 151.971429 116.889642 
L 146.657141 117.429444 
L 141.342855 117.720017 
L 136.028569 118.107777 
L 130.714283 118.477291 
L 125.399997 118.535315 
L 120.085714 118.934101 
L 114.771427 118.951237 
L 109.457144 119.339825 
L 104.142859 119.419089 
L 98.82857 119.707344 
L 93.514287 119.59257 
L 88.2 120.031175 
L 88.2 120.398439 
L 88.2 125.678439 
L 88.2 130.958438 
L 88.2 135.16893 
z
" clip-path="url(#pddd29f85b6)" style="fill: #2a768e"/>
    <path d="M 93.514287 119.59257 
L 98.82857 119.707344 
L 104.142859 119.419089 
L 109.457144 119.339825 
L 114.771427 118.951237 
L 120.085714 118.934101 
L 125.399997 118.535315 
L 130.714283 118.477291 
L 136.028569 118.107777 
L 141.342855 117.720017 
L 146.657141 117.429444 
L 151.971429 116.889642 
L 157.28573 116.864858 
L 162.599996 116.644429 
L 167.914302 116.32244 
L 173.228567 115.892761 
L 178.542872 115.483377 
L 183.857135 115.324494 
L 185.361243 115.11844 
L 189.171443 114.504865 
L 194.485707 114.158533 
L 199.800012 113.923396 
L 205.114279 113.282809 
L 210.428586 112.838083 
L 215.742872 112.130027 
L 221.057154 111.837815 
L 226.371443 110.848029 
L 231.685726 110.55358 
L 237.000013 109.881219 
L 237.417994 109.83844 
L 242.314298 109.320321 
L 247.628582 108.754258 
L 252.942868 108.164154 
L 258.257135 107.340335 
L 263.571418 106.452795 
L 268.885704 106.097263 
L 274.199992 105.494981 
L 279.514275 104.804448 
L 281.286521 104.558439 
L 284.828558 103.981968 
L 290.142845 103.224508 
L 295.457131 102.289013 
L 300.771424 101.852587 
L 306.085713 101.109835 
L 311.399998 100.311599 
L 316.714284 99.900626 
L 320.862752 99.27844 
L 322.028569 99.065026 
L 327.342855 98.247339 
L 332.657141 97.501975 
L 337.971426 97.00319 
L 343.285711 96.253435 
L 348.599997 95.729443 
L 353.914278 94.876776 
L 359.228564 94.603998 
L 362.809238 93.998441 
L 364.542855 93.669887 
L 369.857142 93.07923 
L 375.171424 92.570483 
L 380.485714 92.029423 
L 385.799995 91.433718 
L 391.114281 90.82284 
L 396.42857 90.495206 
L 401.742859 89.943165 
L 407.05714 89.724169 
L 412.371429 89.382842 
L 416.983214 88.718441 
L 417.685712 88.615741 
L 423 88.486243 
L 423 83.438445 
L 423 78.158445 
L 423 75.01192 
L 417.685712 75.186534 
L 412.371429 75.661711 
L 407.05714 75.920748 
L 401.742859 76.656181 
L 396.42857 76.991951 
L 391.114281 77.402413 
L 385.799995 77.828596 
L 383.716644 78.158445 
L 380.485714 78.612748 
L 375.171424 78.889135 
L 369.857142 79.323041 
L 364.542855 80.247316 
L 359.228564 80.580779 
L 353.914278 81.222749 
L 348.599997 81.855678 
L 343.285711 82.090971 
L 337.971426 83.063441 
L 334.712896 83.438445 
L 332.657141 83.649341 
L 327.342855 84.233345 
L 322.028569 84.793709 
L 316.714284 85.452636 
L 311.399998 86.173797 
L 306.085713 86.762792 
L 300.771424 87.263573 
L 295.457131 88.054873 
L 290.142845 88.551754 
L 289.253823 88.718441 
L 284.828558 89.459373 
L 279.514275 89.976092 
L 274.199992 90.660416 
L 268.885704 91.16151 
L 263.571418 91.903876 
L 258.257135 92.497663 
L 252.942868 92.744292 
L 247.628582 93.514807 
L 244.882643 93.998441 
L 242.314298 94.370584 
L 237.000013 94.989709 
L 231.685726 95.094942 
L 226.371443 95.727478 
L 221.057154 96.309181 
L 215.742872 96.714672 
L 210.428586 97.494756 
L 205.114279 97.780796 
L 199.800012 98.195475 
L 194.485707 98.576475 
L 189.171443 98.945925 
L 185.700678 99.27844 
L 183.857135 99.439558 
L 178.542872 99.693212 
L 173.228567 100.233657 
L 167.914302 100.404661 
L 162.599996 100.936235 
L 157.28573 100.987242 
L 151.971429 101.267424 
L 146.657141 101.534793 
L 141.342855 101.901793 
L 136.028569 102.104798 
L 130.714283 102.279747 
L 125.399997 102.671696 
L 120.085714 102.671543 
L 114.771427 102.840206 
L 109.457144 103.268758 
L 104.142859 103.055661 
L 98.82857 103.343873 
L 93.514287 103.592684 
L 88.2 104.018893 
L 88.2 104.558439 
L 88.2 109.83844 
L 88.2 115.11844 
L 88.2 120.031175 
z
" clip-path="url(#pddd29f85b6)" style="fill: #24878e"/>
    <path d="M 93.514287 103.592684 
L 98.82857 103.343873 
L 104.142859 103.055661 
L 109.457144 103.268758 
L 114.771427 102.840206 
L 120.085714 102.671543 
L 125.399997 102.671696 
L 130.714283 102.279747 
L 136.028569 102.104798 
L 141.342855 101.901793 
L 146.657141 101.534793 
L 151.971429 101.267424 
L 157.28573 100.987242 
L 162.599996 100.936235 
L 167.914302 100.404661 
L 173.228567 100.233657 
L 178.542872 99.693212 
L 183.857135 99.439558 
L 185.700678 99.27844 
L 189.171443 98.945925 
L 194.485707 98.576475 
L 199.800012 98.195475 
L 205.114279 97.780796 
L 210.428586 97.494756 
L 215.742872 96.714672 
L 221.057154 96.309181 
L 226.371443 95.727478 
L 231.685726 95.094942 
L 237.000013 94.989709 
L 242.314298 94.370584 
L 244.882643 93.998441 
L 247.628582 93.514807 
L 252.942868 92.744292 
L 258.257135 92.497663 
L 263.571418 91.903876 
L 268.885704 91.16151 
L 274.199992 90.660416 
L 279.514275 89.976092 
L 284.828558 89.459373 
L 289.253823 88.718441 
L 290.142845 88.551754 
L 295.457131 88.054873 
L 300.771424 87.263573 
L 306.085713 86.762792 
L 311.399998 86.173797 
L 316.714284 85.452636 
L 322.028569 84.793709 
L 327.342855 84.233345 
L 332.657141 83.649341 
L 334.712896 83.438445 
L 337.971426 83.063441 
L 343.285711 82.090971 
L 348.599997 81.855678 
L 353.914278 81.222749 
L 359.228564 80.580779 
L 364.542855 80.247316 
L 369.857142 79.323041 
L 375.171424 78.889135 
L 380.485714 78.612748 
L 383.716644 78.158445 
L 385.799995 77.828596 
L 391.114281 77.402413 
L 396.42857 76.991951 
L 401.742859 76.656181 
L 407.05714 75.920748 
L 412.371429 75.661711 
L 417.685712 75.186534 
L 423 75.01192 
L 423 72.878439 
L 423 67.598438 
L 423 62.318442 
L 423 60.340423 
L 417.685712 60.754256 
L 412.371429 61.052256 
L 407.05714 61.490467 
L 401.742859 61.77396 
L 398.10838 62.318442 
L 396.42857 62.557012 
L 391.114281 62.803567 
L 385.799995 63.357231 
L 380.485714 63.768421 
L 375.171424 64.010523 
L 369.857142 64.684244 
L 364.542855 65.240899 
L 359.228564 65.694375 
L 353.914278 66.393892 
L 348.599997 66.695656 
L 343.285711 67.181599 
L 340.87222 67.598438 
L 337.971426 68.025075 
L 332.657141 68.64917 
L 327.342855 69.201567 
L 322.028569 69.485556 
L 316.714284 70.039757 
L 311.399998 70.498125 
L 306.085713 71.293932 
L 300.771424 72.066992 
L 295.457131 72.673941 
L 292.359062 72.878439 
L 290.142845 73.002879 
L 284.828558 73.744519 
L 279.514275 74.24319 
L 274.199992 74.584906 
L 268.885704 75.250616 
L 263.571418 75.98502 
L 258.257135 76.217269 
L 252.942868 77.021524 
L 247.628582 77.484243 
L 242.314298 77.936222 
L 240.966867 78.158445 
L 237.000013 78.694623 
L 231.685726 78.810719 
L 226.371443 79.389712 
L 221.057154 79.672944 
L 215.742872 80.061149 
L 210.428586 80.586253 
L 205.114279 80.91972 
L 199.800012 81.463752 
L 194.485707 81.704699 
L 189.171443 82.038747 
L 183.857135 82.616473 
L 178.542872 82.846122 
L 173.228567 83.093193 
L 167.914302 83.418206 
L 167.563346 83.438445 
L 162.599996 83.680173 
L 157.28573 83.632981 
L 151.971429 83.958094 
L 146.657141 84.460412 
L 141.342855 84.63851 
L 136.028569 84.745347 
L 130.714283 84.837951 
L 125.399997 84.940052 
L 120.085714 85.311469 
L 114.771427 85.292337 
L 109.457144 85.563365 
L 104.142859 85.913795 
L 98.82857 85.763877 
L 93.514287 86.086056 
L 88.2 86.222364 
L 88.2 88.718441 
L 88.2 93.998441 
L 88.2 99.27844 
L 88.2 104.018893 
z
" clip-path="url(#pddd29f85b6)" style="fill: #1f998a"/>
    <path d="M 93.514287 86.086056 
L 98.82857 85.763877 
L 104.142859 85.913795 
L 109.457144 85.563365 
L 114.771427 85.292337 
L 120.085714 85.311469 
L 125.399997 84.940052 
L 130.714283 84.837951 
L 136.028569 84.745347 
L 141.342855 84.63851 
L 146.657141 84.460412 
L 151.971429 83.958094 
L 157.28573 83.632981 
L 162.599996 83.680173 
L 167.563346 83.438445 
L 167.914302 83.418206 
L 173.228567 83.093193 
L 178.542872 82.846122 
L 183.857135 82.616473 
L 189.171443 82.038747 
L 194.485707 81.704699 
L 199.800012 81.463752 
L 205.114279 80.91972 
L 210.428586 80.586253 
L 215.742872 80.061149 
L 221.057154 79.672944 
L 226.371443 79.389712 
L 231.685726 78.810719 
L 237.000013 78.694623 
L 240.966867 78.158445 
L 242.314298 77.936222 
L 247.628582 77.484243 
L 252.942868 77.021524 
L 258.257135 76.217269 
L 263.571418 75.98502 
L 268.885704 75.250616 
L 274.199992 74.584906 
L 279.514275 74.24319 
L 284.828558 73.744519 
L 290.142845 73.002879 
L 292.359062 72.878439 
L 295.457131 72.673941 
L 300.771424 72.066992 
L 306.085713 71.293932 
L 311.399998 70.498125 
L 316.714284 70.039757 
L 322.028569 69.485556 
L 327.342855 69.201567 
L 332.657141 68.64917 
L 337.971426 68.025075 
L 340.87222 67.598438 
L 343.285711 67.181599 
L 348.599997 66.695656 
L 353.914278 66.393892 
L 359.228564 65.694375 
L 364.542855 65.240899 
L 369.857142 64.684244 
L 375.171424 64.010523 
L 380.485714 63.768421 
L 385.799995 63.357231 
L 391.114281 62.803567 
L 396.42857 62.557012 
L 398.10838 62.318442 
L 401.742859 61.77396 
L 407.05714 61.490467 
L 412.371429 61.052256 
L 417.685712 60.754256 
L 423 60.340423 
L 423 57.038437 
L 423 51.758443 
L 423 46.478442 
L 423 43.958868 
L 417.685712 44.301111 
L 412.371429 44.600834 
L 407.05714 44.965181 
L 401.742859 45.444329 
L 396.42857 45.703306 
L 391.617021 46.478442 
L 391.114281 46.530017 
L 385.799995 47.119839 
L 380.485714 47.381952 
L 375.171424 47.496473 
L 369.857142 48.236155 
L 364.542855 48.430399 
L 359.228564 48.988959 
L 353.914278 49.267768 
L 348.599997 49.733855 
L 343.285711 50.350429 
L 337.971426 50.65329 
L 332.736035 51.758443 
L 332.657141 51.768713 
L 327.342855 51.93718 
L 322.028569 52.534171 
L 316.714284 52.638623 
L 311.399998 53.492792 
L 306.085713 53.901272 
L 300.771424 54.433995 
L 295.457131 54.627983 
L 290.142845 55.347998 
L 284.828558 55.645916 
L 279.514275 56.102218 
L 274.365286 57.038437 
L 274.199992 57.058136 
L 268.885704 57.490161 
L 263.571418 57.770463 
L 258.257135 58.309459 
L 252.942868 58.710464 
L 247.628582 59.078122 
L 242.314298 59.269911 
L 237.000013 59.758935 
L 231.685726 60.003369 
L 226.371443 60.614369 
L 221.057154 60.975802 
L 215.742872 61.329654 
L 210.428586 61.758251 
L 205.114279 62.214608 
L 203.398571 62.318442 
L 199.800012 62.443333 
L 194.485707 62.531322 
L 189.171443 63.090958 
L 183.857135 63.10532 
L 178.542872 63.467904 
L 173.228567 63.7574 
L 167.914302 64.096508 
L 162.599996 64.059664 
L 157.28573 64.412052 
L 151.971429 64.564077 
L 146.657141 64.608587 
L 141.342855 64.76 
L 136.028569 64.862653 
L 130.714283 65.134673 
L 125.399997 65.169597 
L 120.085714 65.147217 
L 114.771427 65.653431 
L 109.457144 65.9016 
L 104.142859 66.008724 
L 98.82857 66.035035 
L 93.514287 66.259203 
L 88.2 66.303244 
L 88.2 67.598438 
L 88.2 72.878439 
L 88.2 78.158445 
L 88.2 83.438445 
L 88.2 86.222364 
z
" clip-path="url(#pddd29f85b6)" style="fill: #24aa83"/>
    <path d="M 93.514287 66.259203 
L 98.82857 66.035035 
L 104.142859 66.008724 
L 109.457144 65.9016 
L 114.771427 65.653431 
L 120.085714 65.147217 
L 125.399997 65.169597 
L 130.714283 65.134673 
L 136.028569 64.862653 
L 141.342855 64.76 
L 146.657141 64.608587 
L 151.971429 64.564077 
L 157.28573 64.412052 
L 162.599996 64.059664 
L 167.914302 64.096508 
L 173.228567 63.7574 
L 178.542872 63.467904 
L 183.857135 63.10532 
L 189.171443 63.090958 
L 194.485707 62.531322 
L 199.800012 62.443333 
L 203.398571 62.318442 
L 205.114279 62.214608 
L 210.428586 61.758251 
L 215.742872 61.329654 
L 221.057154 60.975802 
L 226.371443 60.614369 
L 231.685726 60.003369 
L 237.000013 59.758935 
L 242.314298 59.269911 
L 247.628582 59.078122 
L 252.942868 58.710464 
L 258.257135 58.309459 
L 263.571418 57.770463 
L 268.885704 57.490161 
L 274.199992 57.058136 
L 274.365286 57.038437 
L 279.514275 56.102218 
L 284.828558 55.645916 
L 290.142845 55.347998 
L 295.457131 54.627983 
L 300.771424 54.433995 
L 306.085713 53.901272 
L 311.399998 53.492792 
L 316.714284 52.638623 
L 322.028569 52.534171 
L 327.342855 51.93718 
L 332.657141 51.768713 
L 332.736035 51.758443 
L 337.971426 50.65329 
L 343.285711 50.350429 
L 348.599997 49.733855 
L 353.914278 49.267768 
L 359.228564 48.988959 
L 364.542855 48.430399 
L 369.857142 48.236155 
L 375.171424 47.496473 
L 380.485714 47.381952 
L 385.799995 47.119839 
L 391.114281 46.530017 
L 391.617021 46.478442 
L 396.42857 45.703306 
L 401.742859 45.444329 
L 407.05714 44.965181 
L 412.371429 44.600834 
L 417.685712 44.301111 
L 423 43.958868 
L 423 41.198439 
L 423 35.918436 
L 423 30.638441 
L 423 25.358437 
L 423 20.07844 
L 423 14.798437 
L 417.685712 14.798437 
L 412.371429 14.798437 
L 407.05714 14.798437 
L 401.742859 14.798437 
L 396.42857 14.798437 
L 391.114281 14.798437 
L 385.799995 14.798437 
L 380.485714 14.798437 
L 375.171424 14.798437 
L 369.857142 14.798437 
L 364.542855 14.798437 
L 359.228564 14.798437 
L 353.914278 14.798437 
L 348.599997 14.798437 
L 343.285711 14.798437 
L 337.971426 14.798437 
L 332.657141 14.798437 
L 327.342855 14.798437 
L 322.028569 14.798437 
L 316.714284 14.798437 
L 311.399998 14.798437 
L 306.085713 14.798437 
L 300.771424 14.798437 
L 295.457131 14.798437 
L 290.142845 14.798437 
L 284.828558 14.798437 
L 279.514275 14.798437 
L 274.199992 14.798437 
L 268.885704 14.798437 
L 263.571418 14.798437 
L 258.257135 14.798437 
L 252.942868 14.798437 
L 247.628582 14.798437 
L 242.314298 14.798437 
L 237.000013 14.798437 
L 231.685726 14.798437 
L 226.371443 14.798437 
L 221.057154 14.798437 
L 215.742872 14.798437 
L 210.428586 14.798437 
L 205.114279 14.798437 
L 199.800012 14.798437 
L 194.485707 14.798437 
L 189.171443 14.798437 
L 183.857135 14.798437 
L 178.542872 14.798437 
L 173.228567 14.798437 
L 167.914302 14.798437 
L 162.599996 14.798437 
L 157.28573 14.798437 
L 151.971429 14.798437 
L 146.657141 14.798437 
L 141.342855 14.798437 
L 136.028569 14.798437 
L 130.714283 14.798437 
L 125.399997 14.798437 
L 120.085714 14.798437 
L 114.771427 14.798437 
L 109.457144 14.798437 
L 104.142859 14.798437 
L 98.82857 14.798437 
L 93.514287 14.798437 
L 88.2 14.798437 
L 88.2 20.07844 
L 88.2 25.358437 
L 88.2 30.638441 
L 88.2 35.918436 
L 88.2 41.198439 
L 88.2 46.478442 
L 88.2 51.758443 
L 88.2 57.038437 
L 88.2 62.318442 
L 88.2 66.303244 
z
" clip-path="url(#pddd29f85b6)" style="fill: #3aba76"/>
    <path clip-path="url(#pddd29f85b6)" style="fill: #5ec962"/>
    <path clip-path="url(#pddd29f85b6)" style="fill: #89d548"/>
    <path clip-path="url(#pddd29f85b6)" style="fill: #b8de29"/>
    <path clip-path="url(#pddd29f85b6)" style="fill: #e7e419"/>
   </g>
   <g id="matplotlib.axis_1">
    <g id="xtick_1">
     <g id="line2d_1">
      <defs>
       <path id="m65c704afac" d="M 0 0 
L 0 2 
" style="stroke: #000000; stroke-width: 1.5"/>
      </defs>
      <g>
       <use xlink:href="#m65c704afac" x="88.200002" y="347.438438" style="stroke: #000000; stroke-width: 1.5"/>
      </g>
     </g>
     <g id="text_1">
      <!-- $\mathdefault{10^{-2}}$ -->
      <g transform="translate(64.700002 368.135313) scale(0.2 -0.2)">
       <defs>
        <path id="DejaVuSans-31" d="M 794 531 
L 1825 531 
L 1825 4091 
L 703 3866 
L 703 4441 
L 1819 4666 
L 2450 4666 
L 2450 531 
L 3481 531 
L 3481 0 
L 794 0 
L 794 531 
z
" transform="scale(0.015625)"/>
        <path id="DejaVuSans-30" d="M 2034 4250 
Q 1547 4250 1301 3770 
Q 1056 3291 1056 2328 
Q 1056 1369 1301 889 
Q 1547 409 2034 409 
Q 2525 409 2770 889 
Q 3016 1369 3016 2328 
Q 3016 3291 2770 3770 
Q 2525 4250 2034 4250 
z
M 2034 4750 
Q 2819 4750 3233 4129 
Q 3647 3509 3647 2328 
Q 3647 1150 3233 529 
Q 2819 -91 2034 -91 
Q 1250 -91 836 529 
Q 422 1150 422 2328 
Q 422 3509 836 4129 
Q 1250 4750 2034 4750 
z
" transform="scale(0.015625)"/>
        <path id="DejaVuSans-2212" d="M 678 2272 
L 4684 2272 
L 4684 1741 
L 678 1741 
L 678 2272 
z
" transform="scale(0.015625)"/>
        <path id="DejaVuSans-32" d="M 1228 531 
L 3431 531 
L 3431 0 
L 469 0 
L 469 531 
Q 828 903 1448 1529 
Q 2069 2156 2228 2338 
Q 2531 2678 2651 2914 
Q 2772 3150 2772 3378 
Q 2772 3750 2511 3984 
Q 2250 4219 1831 4219 
Q 1534 4219 1204 4116 
Q 875 4013 500 3803 
L 500 4441 
Q 881 4594 1212 4672 
Q 1544 4750 1819 4750 
Q 2544 4750 2975 4387 
Q 3406 4025 3406 3419 
Q 3406 3131 3298 2873 
Q 3191 2616 2906 2266 
Q 2828 2175 2409 1742 
Q 1991 1309 1228 531 
z
" transform="scale(0.015625)"/>
       </defs>
       <use xlink:href="#DejaVuSans-31" transform="translate(0 0.765625)"/>
       <use xlink:href="#DejaVuSans-30" transform="translate(63.623047 0.765625)"/>
       <use xlink:href="#DejaVuSans-2212" transform="translate(128.203125 39.046875) scale(0.7)"/>
       <use xlink:href="#DejaVuSans-32" transform="translate(186.855469 39.046875) scale(0.7)"/>
      </g>
     </g>
    </g>
    <g id="xtick_2">
     <g id="line2d_2">
      <g>
       <use xlink:href="#m65c704afac" x="255.600001" y="347.438438" style="stroke: #000000; stroke-width: 1.5"/>
      </g>
     </g>
     <g id="text_2">
      <!-- $\mathdefault{10^{-1}}$ -->
      <g transform="translate(232.100001 368.135313) scale(0.2 -0.2)">
       <use xlink:href="#DejaVuSans-31" transform="translate(0 0.684375)"/>
       <use xlink:href="#DejaVuSans-30" transform="translate(63.623047 0.684375)"/>
       <use xlink:href="#DejaVuSans-2212" transform="translate(128.203125 38.965625) scale(0.7)"/>
       <use xlink:href="#DejaVuSans-31" transform="translate(186.855469 38.965625) scale(0.7)"/>
      </g>
     </g>
    </g>
    <g id="xtick_3">
     <g id="line2d_3">
      <g>
       <use xlink:href="#m65c704afac" x="423" y="347.438438" style="stroke: #000000; stroke-width: 1.5"/>
      </g>
     </g>
     <g id="text_3">
      <!-- $\mathdefault{10^{0}}$ -->
      <g transform="translate(405.4 368.135313) scale(0.2 -0.2)">
       <use xlink:href="#DejaVuSans-31" transform="translate(0 0.765625)"/>
       <use xlink:href="#DejaVuSans-30" transform="translate(63.623047 0.765625)"/>
       <use xlink:href="#DejaVuSans-30" transform="translate(128.203125 39.046875) scale(0.7)"/>
      </g>
     </g>
    </g>
    <g id="xtick_4">
     <g id="line2d_4">
      <defs>
       <path id="ma8fb5c8aad" d="M 0 0 
L 0 2 
" style="stroke: #000000; stroke-width: 0.6"/>
      </defs>
      <g>
       <use xlink:href="#ma8fb5c8aad" x="138.592423" y="347.438438" style="stroke: #000000; stroke-width: 0.6"/>
      </g>
     </g>
    </g>
    <g id="xtick_5">
     <g id="line2d_5">
      <g>
       <use xlink:href="#ma8fb5c8aad" x="168.070099" y="347.438438" style="stroke: #000000; stroke-width: 0.6"/>
      </g>
     </g>
    </g>
    <g id="xtick_6">
     <g id="line2d_6">
      <g>
       <use xlink:href="#ma8fb5c8aad" x="188.984844" y="347.438438" style="stroke: #000000; stroke-width: 0.6"/>
      </g>
     </g>
    </g>
    <g id="xtick_7">
     <g id="line2d_7">
      <g>
       <use xlink:href="#ma8fb5c8aad" x="205.20758" y="347.438438" style="stroke: #000000; stroke-width: 0.6"/>
      </g>
     </g>
    </g>
    <g id="xtick_8">
     <g id="line2d_8">
      <g>
       <use xlink:href="#ma8fb5c8aad" x="218.46252" y="347.438438" style="stroke: #000000; stroke-width: 0.6"/>
      </g>
     </g>
    </g>
    <g id="xtick_9">
     <g id="line2d_9">
      <g>
       <use xlink:href="#ma8fb5c8aad" x="229.669413" y="347.438438" style="stroke: #000000; stroke-width: 0.6"/>
      </g>
     </g>
    </g>
    <g id="xtick_10">
     <g id="line2d_10">
      <g>
       <use xlink:href="#ma8fb5c8aad" x="239.377265" y="347.438438" style="stroke: #000000; stroke-width: 0.6"/>
      </g>
     </g>
    </g>
    <g id="xtick_11">
     <g id="line2d_11">
      <g>
       <use xlink:href="#ma8fb5c8aad" x="247.940197" y="347.438438" style="stroke: #000000; stroke-width: 0.6"/>
      </g>
     </g>
    </g>
    <g id="xtick_12">
     <g id="line2d_12">
      <g>
       <use xlink:href="#ma8fb5c8aad" x="305.992422" y="347.438438" style="stroke: #000000; stroke-width: 0.6"/>
      </g>
     </g>
    </g>
    <g id="xtick_13">
     <g id="line2d_13">
      <g>
       <use xlink:href="#ma8fb5c8aad" x="335.470098" y="347.438438" style="stroke: #000000; stroke-width: 0.6"/>
      </g>
     </g>
    </g>
    <g id="xtick_14">
     <g id="line2d_14">
      <g>
       <use xlink:href="#ma8fb5c8aad" x="356.384843" y="347.438438" style="stroke: #000000; stroke-width: 0.6"/>
      </g>
     </g>
    </g>
    <g id="xtick_15">
     <g id="line2d_15">
      <g>
       <use xlink:href="#ma8fb5c8aad" x="372.607579" y="347.438438" style="stroke: #000000; stroke-width: 0.6"/>
      </g>
     </g>
    </g>
    <g id="xtick_16">
     <g id="line2d_16">
      <g>
       <use xlink:href="#ma8fb5c8aad" x="385.862519" y="347.438438" style="stroke: #000000; stroke-width: 0.6"/>
      </g>
     </g>
    </g>
    <g id="xtick_17">
     <g id="line2d_17">
      <g>
       <use xlink:href="#ma8fb5c8aad" x="397.069412" y="347.438438" style="stroke: #000000; stroke-width: 0.6"/>
      </g>
     </g>
    </g>
    <g id="xtick_18">
     <g id="line2d_18">
      <g>
       <use xlink:href="#ma8fb5c8aad" x="406.777264" y="347.438438" style="stroke: #000000; stroke-width: 0.6"/>
      </g>
     </g>
    </g>
    <g id="xtick_19">
     <g id="line2d_19">
      <g>
       <use xlink:href="#ma8fb5c8aad" x="415.340196" y="347.438438" style="stroke: #000000; stroke-width: 0.6"/>
      </g>
     </g>
    </g>
    <g id="text_4">
     <!-- Awareness probability $\lambda$ -->
     <g transform="translate(135.4 391.494688) scale(0.2 -0.2)">
      <defs>
       <path id="DejaVuSans-41" d="M 2188 4044 
L 1331 1722 
L 3047 1722 
L 2188 4044 
z
M 1831 4666 
L 2547 4666 
L 4325 0 
L 3669 0 
L 3244 1197 
L 1141 1197 
L 716 0 
L 50 0 
L 1831 4666 
z
" transform="scale(0.015625)"/>
       <path id="DejaVuSans-77" d="M 269 3500 
L 844 3500 
L 1563 769 
L 2278 3500 
L 2956 3500 
L 3675 769 
L 4391 3500 
L 4966 3500 
L 4050 0 
L 3372 0 
L 2619 2869 
L 1863 0 
L 1184 0 
L 269 3500 
z
" transform="scale(0.015625)"/>
       <path id="DejaVuSans-61" d="M 2194 1759 
Q 1497 1759 1228 1600 
Q 959 1441 959 1056 
Q 959 750 1161 570 
Q 1363 391 1709 391 
Q 2188 391 2477 730 
Q 2766 1069 2766 1631 
L 2766 1759 
L 2194 1759 
z
M 3341 1997 
L 3341 0 
L 2766 0 
L 2766 531 
Q 2569 213 2275 61 
Q 1981 -91 1556 -91 
Q 1019 -91 701 211 
Q 384 513 384 1019 
Q 384 1609 779 1909 
Q 1175 2209 1959 2209 
L 2766 2209 
L 2766 2266 
Q 2766 2663 2505 2880 
Q 2244 3097 1772 3097 
Q 1472 3097 1187 3025 
Q 903 2953 641 2809 
L 641 3341 
Q 956 3463 1253 3523 
Q 1550 3584 1831 3584 
Q 2591 3584 2966 3190 
Q 3341 2797 3341 1997 
z
" transform="scale(0.015625)"/>
       <path id="DejaVuSans-72" d="M 2631 2963 
Q 2534 3019 2420 3045 
Q 2306 3072 2169 3072 
Q 1681 3072 1420 2755 
Q 1159 2438 1159 1844 
L 1159 0 
L 581 0 
L 581 3500 
L 1159 3500 
L 1159 2956 
Q 1341 3275 1631 3429 
Q 1922 3584 2338 3584 
Q 2397 3584 2469 3576 
Q 2541 3569 2628 3553 
L 2631 2963 
z
" transform="scale(0.015625)"/>
       <path id="DejaVuSans-65" d="M 3597 1894 
L 3597 1613 
L 953 1613 
Q 991 1019 1311 708 
Q 1631 397 2203 397 
Q 2534 397 2845 478 
Q 3156 559 3463 722 
L 3463 178 
Q 3153 47 2828 -22 
Q 2503 -91 2169 -91 
Q 1331 -91 842 396 
Q 353 884 353 1716 
Q 353 2575 817 3079 
Q 1281 3584 2069 3584 
Q 2775 3584 3186 3129 
Q 3597 2675 3597 1894 
z
M 3022 2063 
Q 3016 2534 2758 2815 
Q 2500 3097 2075 3097 
Q 1594 3097 1305 2825 
Q 1016 2553 972 2059 
L 3022 2063 
z
" transform="scale(0.015625)"/>
       <path id="DejaVuSans-6e" d="M 3513 2113 
L 3513 0 
L 2938 0 
L 2938 2094 
Q 2938 2591 2744 2837 
Q 2550 3084 2163 3084 
Q 1697 3084 1428 2787 
Q 1159 2491 1159 1978 
L 1159 0 
L 581 0 
L 581 3500 
L 1159 3500 
L 1159 2956 
Q 1366 3272 1645 3428 
Q 1925 3584 2291 3584 
Q 2894 3584 3203 3211 
Q 3513 2838 3513 2113 
z
" transform="scale(0.015625)"/>
       <path id="DejaVuSans-73" d="M 2834 3397 
L 2834 2853 
Q 2591 2978 2328 3040 
Q 2066 3103 1784 3103 
Q 1356 3103 1142 2972 
Q 928 2841 928 2578 
Q 928 2378 1081 2264 
Q 1234 2150 1697 2047 
L 1894 2003 
Q 2506 1872 2764 1633 
Q 3022 1394 3022 966 
Q 3022 478 2636 193 
Q 2250 -91 1575 -91 
Q 1294 -91 989 -36 
Q 684 19 347 128 
L 347 722 
Q 666 556 975 473 
Q 1284 391 1588 391 
Q 1994 391 2212 530 
Q 2431 669 2431 922 
Q 2431 1156 2273 1281 
Q 2116 1406 1581 1522 
L 1381 1569 
Q 847 1681 609 1914 
Q 372 2147 372 2553 
Q 372 3047 722 3315 
Q 1072 3584 1716 3584 
Q 2034 3584 2315 3537 
Q 2597 3491 2834 3397 
z
" transform="scale(0.015625)"/>
       <path id="DejaVuSans-20" transform="scale(0.015625)"/>
       <path id="DejaVuSans-70" d="M 1159 525 
L 1159 -1331 
L 581 -1331 
L 581 3500 
L 1159 3500 
L 1159 2969 
Q 1341 3281 1617 3432 
Q 1894 3584 2278 3584 
Q 2916 3584 3314 3078 
Q 3713 2572 3713 1747 
Q 3713 922 3314 415 
Q 2916 -91 2278 -91 
Q 1894 -91 1617 61 
Q 1341 213 1159 525 
z
M 3116 1747 
Q 3116 2381 2855 2742 
Q 2594 3103 2138 3103 
Q 1681 3103 1420 2742 
Q 1159 2381 1159 1747 
Q 1159 1113 1420 752 
Q 1681 391 2138 391 
Q 2594 391 2855 752 
Q 3116 1113 3116 1747 
z
" transform="scale(0.015625)"/>
       <path id="DejaVuSans-6f" d="M 1959 3097 
Q 1497 3097 1228 2736 
Q 959 2375 959 1747 
Q 959 1119 1226 758 
Q 1494 397 1959 397 
Q 2419 397 2687 759 
Q 2956 1122 2956 1747 
Q 2956 2369 2687 2733 
Q 2419 3097 1959 3097 
z
M 1959 3584 
Q 2709 3584 3137 3096 
Q 3566 2609 3566 1747 
Q 3566 888 3137 398 
Q 2709 -91 1959 -91 
Q 1206 -91 779 398 
Q 353 888 353 1747 
Q 353 2609 779 3096 
Q 1206 3584 1959 3584 
z
" transform="scale(0.015625)"/>
       <path id="DejaVuSans-62" d="M 3116 1747 
Q 3116 2381 2855 2742 
Q 2594 3103 2138 3103 
Q 1681 3103 1420 2742 
Q 1159 2381 1159 1747 
Q 1159 1113 1420 752 
Q 1681 391 2138 391 
Q 2594 391 2855 752 
Q 3116 1113 3116 1747 
z
M 1159 2969 
Q 1341 3281 1617 3432 
Q 1894 3584 2278 3584 
Q 2916 3584 3314 3078 
Q 3713 2572 3713 1747 
Q 3713 922 3314 415 
Q 2916 -91 2278 -91 
Q 1894 -91 1617 61 
Q 1341 213 1159 525 
L 1159 0 
L 581 0 
L 581 4863 
L 1159 4863 
L 1159 2969 
z
" transform="scale(0.015625)"/>
       <path id="DejaVuSans-69" d="M 603 3500 
L 1178 3500 
L 1178 0 
L 603 0 
L 603 3500 
z
M 603 4863 
L 1178 4863 
L 1178 4134 
L 603 4134 
L 603 4863 
z
" transform="scale(0.015625)"/>
       <path id="DejaVuSans-6c" d="M 603 4863 
L 1178 4863 
L 1178 0 
L 603 0 
L 603 4863 
z
" transform="scale(0.015625)"/>
       <path id="DejaVuSans-74" d="M 1172 4494 
L 1172 3500 
L 2356 3500 
L 2356 3053 
L 1172 3053 
L 1172 1153 
Q 1172 725 1289 603 
Q 1406 481 1766 481 
L 2356 481 
L 2356 0 
L 1766 0 
Q 1100 0 847 248 
Q 594 497 594 1153 
L 594 3053 
L 172 3053 
L 172 3500 
L 594 3500 
L 594 4494 
L 1172 4494 
z
" transform="scale(0.015625)"/>
       <path id="DejaVuSans-79" d="M 2059 -325 
Q 1816 -950 1584 -1140 
Q 1353 -1331 966 -1331 
L 506 -1331 
L 506 -850 
L 844 -850 
Q 1081 -850 1212 -737 
Q 1344 -625 1503 -206 
L 1606 56 
L 191 3500 
L 800 3500 
L 1894 763 
L 2988 3500 
L 3597 3500 
L 2059 -325 
z
" transform="scale(0.015625)"/>
       <path id="DejaVuSans-Oblique-3bb" d="M 2350 4316 
L 3125 0 
L 2516 0 
L 2038 2588 
L 328 0 
L -281 0 
L 1903 3356 
L 1794 3975 
Q 1725 4369 1391 4369 
L 1091 4369 
L 1184 4863 
L 1550 4856 
Q 2253 4847 2350 4316 
z
" transform="scale(0.015625)"/>
      </defs>
      <use xlink:href="#DejaVuSans-41" transform="translate(0 0.015625)"/>
      <use xlink:href="#DejaVuSans-77" transform="translate(68.408203 0.015625)"/>
      <use xlink:href="#DejaVuSans-61" transform="translate(150.195312 0.015625)"/>
      <use xlink:href="#DejaVuSans-72" transform="translate(211.474609 0.015625)"/>
      <use xlink:href="#DejaVuSans-65" transform="translate(252.587891 0.015625)"/>
      <use xlink:href="#DejaVuSans-6e" transform="translate(314.111328 0.015625)"/>
      <use xlink:href="#DejaVuSans-65" transform="translate(377.490234 0.015625)"/>
      <use xlink:href="#DejaVuSans-73" transform="translate(439.013672 0.015625)"/>
      <use xlink:href="#DejaVuSans-73" transform="translate(491.113281 0.015625)"/>
      <use xlink:href="#DejaVuSans-20" transform="translate(543.212891 0.015625)"/>
      <use xlink:href="#DejaVuSans-70" transform="translate(575 0.015625)"/>
      <use xlink:href="#DejaVuSans-72" transform="translate(638.476562 0.015625)"/>
      <use xlink:href="#DejaVuSans-6f" transform="translate(679.589844 0.015625)"/>
      <use xlink:href="#DejaVuSans-62" transform="translate(740.771484 0.015625)"/>
      <use xlink:href="#DejaVuSans-61" transform="translate(804.248047 0.015625)"/>
      <use xlink:href="#DejaVuSans-62" transform="translate(865.527344 0.015625)"/>
      <use xlink:href="#DejaVuSans-69" transform="translate(929.003906 0.015625)"/>
      <use xlink:href="#DejaVuSans-6c" transform="translate(956.787109 0.015625)"/>
      <use xlink:href="#DejaVuSans-69" transform="translate(984.570312 0.015625)"/>
      <use xlink:href="#DejaVuSans-74" transform="translate(1012.353516 0.015625)"/>
      <use xlink:href="#DejaVuSans-79" transform="translate(1051.5625 0.015625)"/>
      <use xlink:href="#DejaVuSans-20" transform="translate(1110.742188 0.015625)"/>
      <use xlink:href="#DejaVuSans-Oblique-3bb" transform="translate(1142.529297 0.015625)"/>
     </g>
    </g>
   </g>
   <g id="matplotlib.axis_2">
    <g id="ytick_1">
     <g id="line2d_20">
      <defs>
       <path id="mde48b473b3" d="M 0 0 
L -2 0 
" style="stroke: #000000; stroke-width: 1.5"/>
      </defs>
      <g>
       <use xlink:href="#mde48b473b3" x="88.2" y="347.438436" style="stroke: #000000; stroke-width: 1.5"/>
      </g>
     </g>
     <g id="text_5">
      <!-- $\mathdefault{10^{-2}}$ -->
      <g transform="translate(35.7 355.036873) scale(0.2 -0.2)">
       <use xlink:href="#DejaVuSans-31" transform="translate(0 0.765625)"/>
       <use xlink:href="#DejaVuSans-30" transform="translate(63.623047 0.765625)"/>
       <use xlink:href="#DejaVuSans-2212" transform="translate(128.203125 39.046875) scale(0.7)"/>
       <use xlink:href="#DejaVuSans-32" transform="translate(186.855469 39.046875) scale(0.7)"/>
      </g>
     </g>
    </g>
    <g id="ytick_2">
     <g id="line2d_21">
      <g>
       <use xlink:href="#mde48b473b3" x="88.2" y="181.118437" style="stroke: #000000; stroke-width: 1.5"/>
      </g>
     </g>
     <g id="text_6">
      <!-- $\mathdefault{10^{-1}}$ -->
      <g transform="translate(35.7 188.716874) scale(0.2 -0.2)">
       <use xlink:href="#DejaVuSans-31" transform="translate(0 0.684375)"/>
       <use xlink:href="#DejaVuSans-30" transform="translate(63.623047 0.684375)"/>
       <use xlink:href="#DejaVuSans-2212" transform="translate(128.203125 38.965625) scale(0.7)"/>
       <use xlink:href="#DejaVuSans-31" transform="translate(186.855469 38.965625) scale(0.7)"/>
      </g>
     </g>
    </g>
    <g id="ytick_3">
     <g id="line2d_22">
      <g>
       <use xlink:href="#mde48b473b3" x="88.2" y="14.798437" style="stroke: #000000; stroke-width: 1.5"/>
      </g>
     </g>
     <g id="text_7">
      <!-- $\mathdefault{10^{0}}$ -->
      <g transform="translate(47.5 22.396875) scale(0.2 -0.2)">
       <use xlink:href="#DejaVuSans-31" transform="translate(0 0.765625)"/>
       <use xlink:href="#DejaVuSans-30" transform="translate(63.623047 0.765625)"/>
       <use xlink:href="#DejaVuSans-30" transform="translate(128.203125 39.046875) scale(0.7)"/>
      </g>
     </g>
    </g>
    <g id="ytick_4">
     <g id="line2d_23">
      <defs>
       <path id="m3c00d9944f" d="M 0 0 
L -2 0 
" style="stroke: #000000; stroke-width: 0.6"/>
      </defs>
      <g>
       <use xlink:href="#m3c00d9944f" x="88.2" y="297.371127" style="stroke: #000000; stroke-width: 0.6"/>
      </g>
     </g>
    </g>
    <g id="ytick_5">
     <g id="line2d_24">
      <g>
       <use xlink:href="#m3c00d9944f" x="88.2" y="268.083629" style="stroke: #000000; stroke-width: 0.6"/>
      </g>
     </g>
    </g>
    <g id="ytick_6">
     <g id="line2d_25">
      <g>
       <use xlink:href="#m3c00d9944f" x="88.2" y="247.303819" style="stroke: #000000; stroke-width: 0.6"/>
      </g>
     </g>
    </g>
    <g id="ytick_7">
     <g id="line2d_26">
      <g>
       <use xlink:href="#m3c00d9944f" x="88.2" y="231.185745" style="stroke: #000000; stroke-width: 0.6"/>
      </g>
     </g>
    </g>
    <g id="ytick_8">
     <g id="line2d_27">
      <g>
       <use xlink:href="#m3c00d9944f" x="88.2" y="218.016321" style="stroke: #000000; stroke-width: 0.6"/>
      </g>
     </g>
    </g>
    <g id="ytick_9">
     <g id="line2d_28">
      <g>
       <use xlink:href="#m3c00d9944f" x="88.2" y="206.881731" style="stroke: #000000; stroke-width: 0.6"/>
      </g>
     </g>
    </g>
    <g id="ytick_10">
     <g id="line2d_29">
      <g>
       <use xlink:href="#m3c00d9944f" x="88.2" y="197.23651" style="stroke: #000000; stroke-width: 0.6"/>
      </g>
     </g>
    </g>
    <g id="ytick_11">
     <g id="line2d_30">
      <g>
       <use xlink:href="#m3c00d9944f" x="88.2" y="188.728822" style="stroke: #000000; stroke-width: 0.6"/>
      </g>
     </g>
    </g>
    <g id="ytick_12">
     <g id="line2d_31">
      <g>
       <use xlink:href="#m3c00d9944f" x="88.2" y="131.051128" style="stroke: #000000; stroke-width: 0.6"/>
      </g>
     </g>
    </g>
    <g id="ytick_13">
     <g id="line2d_32">
      <g>
       <use xlink:href="#m3c00d9944f" x="88.2" y="101.76363" style="stroke: #000000; stroke-width: 0.6"/>
      </g>
     </g>
    </g>
    <g id="ytick_14">
     <g id="line2d_33">
      <g>
       <use xlink:href="#m3c00d9944f" x="88.2" y="80.983819" style="stroke: #000000; stroke-width: 0.6"/>
      </g>
     </g>
    </g>
    <g id="ytick_15">
     <g id="line2d_34">
      <g>
       <use xlink:href="#m3c00d9944f" x="88.2" y="64.865746" style="stroke: #000000; stroke-width: 0.6"/>
      </g>
     </g>
    </g>
    <g id="ytick_16">
     <g id="line2d_35">
      <g>
       <use xlink:href="#m3c00d9944f" x="88.2" y="51.696321" style="stroke: #000000; stroke-width: 0.6"/>
      </g>
     </g>
    </g>
    <g id="ytick_17">
     <g id="line2d_36">
      <g>
       <use xlink:href="#m3c00d9944f" x="88.2" y="40.561731" style="stroke: #000000; stroke-width: 0.6"/>
      </g>
     </g>
    </g>
    <g id="ytick_18">
     <g id="line2d_37">
      <g>
       <use xlink:href="#m3c00d9944f" x="88.2" y="30.916511" style="stroke: #000000; stroke-width: 0.6"/>
      </g>
     </g>
    </g>
    <g id="ytick_19">
     <g id="line2d_38">
      <g>
       <use xlink:href="#m3c00d9944f" x="88.2" y="22.408823" style="stroke: #000000; stroke-width: 0.6"/>
      </g>
     </g>
    </g>
    <g id="text_8">
     <!-- Infection probability $\beta$ -->
     <g transform="translate(26.45 318.618438) rotate(-90) scale(0.25 -0.25)">
      <defs>
       <path id="DejaVuSans-49" d="M 628 4666 
L 1259 4666 
L 1259 0 
L 628 0 
L 628 4666 
z
" transform="scale(0.015625)"/>
       <path id="DejaVuSans-66" d="M 2375 4863 
L 2375 4384 
L 1825 4384 
Q 1516 4384 1395 4259 
Q 1275 4134 1275 3809 
L 1275 3500 
L 2222 3500 
L 2222 3053 
L 1275 3053 
L 1275 0 
L 697 0 
L 697 3053 
L 147 3053 
L 147 3500 
L 697 3500 
L 697 3744 
Q 697 4328 969 4595 
Q 1241 4863 1831 4863 
L 2375 4863 
z
" transform="scale(0.015625)"/>
       <path id="DejaVuSans-63" d="M 3122 3366 
L 3122 2828 
Q 2878 2963 2633 3030 
Q 2388 3097 2138 3097 
Q 1578 3097 1268 2742 
Q 959 2388 959 1747 
Q 959 1106 1268 751 
Q 1578 397 2138 397 
Q 2388 397 2633 464 
Q 2878 531 3122 666 
L 3122 134 
Q 2881 22 2623 -34 
Q 2366 -91 2075 -91 
Q 1284 -91 818 406 
Q 353 903 353 1747 
Q 353 2603 823 3093 
Q 1294 3584 2113 3584 
Q 2378 3584 2631 3529 
Q 2884 3475 3122 3366 
z
" transform="scale(0.015625)"/>
       <path id="DejaVuSans-Oblique-3b2" d="M 872 216 
L 572 -1331 
L -6 -1331 
L 928 3478 
Q 1206 4903 2538 4903 
Q 3888 4903 3659 3700 
Q 3503 2844 2894 2531 
Q 3713 2250 3553 1416 
Q 3272 -69 1759 -66 
Q 1097 -63 872 216 
z
M 1019 966 
Q 1259 422 1875 425 
Q 2775 425 2966 1406 
Q 3138 2288 1675 2219 
L 1778 2750 
Q 2909 2731 3106 3750 
Q 3241 4438 2509 4434 
Q 1691 4434 1503 3459 
L 1019 966 
z
" transform="scale(0.015625)"/>
      </defs>
      <use xlink:href="#DejaVuSans-49" transform="translate(0 0.390625)"/>
      <use xlink:href="#DejaVuSans-6e" transform="translate(29.492188 0.390625)"/>
      <use xlink:href="#DejaVuSans-66" transform="translate(92.871094 0.390625)"/>
      <use xlink:href="#DejaVuSans-65" transform="translate(128.076172 0.390625)"/>
      <use xlink:href="#DejaVuSans-63" transform="translate(189.599609 0.390625)"/>
      <use xlink:href="#DejaVuSans-74" transform="translate(244.580078 0.390625)"/>
      <use xlink:href="#DejaVuSans-69" transform="translate(283.789062 0.390625)"/>
      <use xlink:href="#DejaVuSans-6f" transform="translate(311.572266 0.390625)"/>
      <use xlink:href="#DejaVuSans-6e" transform="translate(372.753906 0.390625)"/>
      <use xlink:href="#DejaVuSans-20" transform="translate(436.132812 0.390625)"/>
      <use xlink:href="#DejaVuSans-70" transform="translate(467.919922 0.390625)"/>
      <use xlink:href="#DejaVuSans-72" transform="translate(531.396484 0.390625)"/>
      <use xlink:href="#DejaVuSans-6f" transform="translate(572.509766 0.390625)"/>
      <use xlink:href="#DejaVuSans-62" transform="translate(633.691406 0.390625)"/>
      <use xlink:href="#DejaVuSans-61" transform="translate(697.167969 0.390625)"/>
      <use xlink:href="#DejaVuSans-62" transform="translate(758.447266 0.390625)"/>
      <use xlink:href="#DejaVuSans-69" transform="translate(821.923828 0.390625)"/>
      <use xlink:href="#DejaVuSans-6c" transform="translate(849.707031 0.390625)"/>
      <use xlink:href="#DejaVuSans-69" transform="translate(877.490234 0.390625)"/>
      <use xlink:href="#DejaVuSans-74" transform="translate(905.273438 0.390625)"/>
      <use xlink:href="#DejaVuSans-79" transform="translate(944.482422 0.390625)"/>
      <use xlink:href="#DejaVuSans-20" transform="translate(1003.662109 0.390625)"/>
      <use xlink:href="#DejaVuSans-Oblique-3b2" transform="translate(1035.449219 0.390625)"/>
     </g>
    </g>
   </g>
   <g id="patch_3">
    <path d="M 88.2 347.438438 
L 88.2 14.798437 
" style="fill: none; stroke: #000000; stroke-width: 0.8; stroke-linejoin: miter; stroke-linecap: square"/>
   </g>
   <g id="patch_4">
    <path d="M 423 347.438438 
L 423 14.798437 
" style="fill: none; stroke: #000000; stroke-width: 0.8; stroke-linejoin: miter; stroke-linecap: square"/>
   </g>
   <g id="patch_5">
    <path d="M 88.2 347.438438 
L 423 347.438438 
" style="fill: none; stroke: #000000; stroke-width: 0.8; stroke-linejoin: miter; stroke-linecap: square"/>
   </g>
   <g id="patch_6">
    <path d="M 88.2 14.798437 
L 423 14.798437 
" style="fill: none; stroke: #000000; stroke-width: 0.8; stroke-linejoin: miter; stroke-linecap: square"/>
   </g>
   <g id="text_9">
    <!-- $p^{EI}$ -->
    <g transform="translate(372.607579 72.476132) scale(0.25 -0.25)">
     <defs>
      <path id="DejaVuSans-Oblique-70" d="M 3175 2156 
Q 3175 2616 2975 2859 
Q 2775 3103 2400 3103 
Q 2144 3103 1911 2972 
Q 1678 2841 1497 2591 
Q 1319 2344 1212 1994 
Q 1106 1644 1106 1300 
Q 1106 863 1306 627 
Q 1506 391 1875 391 
Q 2147 391 2380 519 
Q 2613 647 2778 891 
Q 2956 1147 3065 1494 
Q 3175 1841 3175 2156 
z
M 1394 2969 
Q 1625 3272 1939 3428 
Q 2253 3584 2638 3584 
Q 3175 3584 3472 3232 
Q 3769 2881 3769 2247 
Q 3769 1728 3584 1258 
Q 3400 788 3053 416 
Q 2822 169 2531 39 
Q 2241 -91 1919 -91 
Q 1547 -91 1294 64 
Q 1041 219 916 525 
L 556 -1331 
L -19 -1331 
L 922 3500 
L 1497 3500 
L 1394 2969 
z
" transform="scale(0.015625)"/>
      <path id="DejaVuSans-Oblique-45" d="M 1081 4666 
L 4031 4666 
L 3928 4134 
L 1606 4134 
L 1338 2753 
L 3566 2753 
L 3463 2222 
L 1234 2222 
L 909 531 
L 3284 531 
L 3181 0 
L 172 0 
L 1081 4666 
z
" transform="scale(0.015625)"/>
      <path id="DejaVuSans-Oblique-49" d="M 1081 4666 
L 1716 4666 
L 806 0 
L 172 0 
L 1081 4666 
z
" transform="scale(0.015625)"/>
     </defs>
     <use xlink:href="#DejaVuSans-Oblique-70" transform="translate(0 0.684375)"/>
     <use xlink:href="#DejaVuSans-Oblique-45" transform="translate(68.126458 38.965625) scale(0.7)"/>
     <use xlink:href="#DejaVuSans-Oblique-49" transform="translate(112.354974 38.965625) scale(0.7)"/>
    </g>
   </g>
   <g id="text_10">
    <!-- MC -->
    <g transform="translate(372.607579 40.561731) scale(0.25 -0.25)">
     <defs>
      <path id="DejaVuSans-4d" d="M 628 4666 
L 1569 4666 
L 2759 1491 
L 3956 4666 
L 4897 4666 
L 4897 0 
L 4281 0 
L 4281 4097 
L 3078 897 
L 2444 897 
L 1241 4097 
L 1241 0 
L 628 0 
L 628 4666 
z
" transform="scale(0.015625)"/>
      <path id="DejaVuSans-43" d="M 4122 4306 
L 4122 3641 
Q 3803 3938 3442 4084 
Q 3081 4231 2675 4231 
Q 1875 4231 1450 3742 
Q 1025 3253 1025 2328 
Q 1025 1406 1450 917 
Q 1875 428 2675 428 
Q 3081 428 3442 575 
Q 3803 722 4122 1019 
L 4122 359 
Q 3791 134 3420 21 
Q 3050 -91 2638 -91 
Q 1578 -91 968 557 
Q 359 1206 359 2328 
Q 359 3453 968 4101 
Q 1578 4750 2638 4750 
Q 3056 4750 3426 4639 
Q 3797 4528 4122 4306 
z
" transform="scale(0.015625)"/>
     </defs>
     <use xlink:href="#DejaVuSans-4d"/>
     <use xlink:href="#DejaVuSans-43" transform="translate(86.279297 0)"/>
    </g>
   </g>
  </g>
 </g>
 <defs>
  <clipPath id="pddd29f85b6">
   <rect x="88.2" y="14.798437" width="334.8" height="332.64"/>
  </clipPath>
 </defs>
</svg>
