<?xml version="1.0" encoding="utf-8" standalone="no"?>
<!DOCTYPE svg PUBLIC "-//W3C//DTD SVG 1.1//EN"
  "http://www.w3.org/Graphics/SVG/1.1/DTD/svg11.dtd">
<svg xmlns:xlink="http://www.w3.org/1999/xlink" width="456.17625pt" height="342.466687pt" viewBox="0 0 456.17625 342.466687" xmlns="http://www.w3.org/2000/svg" version="1.1">
 <metadata>
  <rdf:RDF xmlns:dc="http://purl.org/dc/elements/1.1/" xmlns:cc="http://creativecommons.org/ns#" xmlns:rdf="http://www.w3.org/1999/02/22-rdf-syntax-ns#">
   <cc:Work>
    <dc:type rdf:resource="http://purl.org/dc/dcmitype/StillImage"/>
    <dc:date>2025-05-19T13:34:50.020411</dc:date>
    <dc:format>image/svg+xml</dc:format>
    <dc:creator>
     <cc:Agent>
      <dc:title>Matplotlib v3.10.1, https://matplotlib.org/</dc:title>
     </cc:Agent>
    </dc:creator>
   </cc:Work>
  </rdf:RDF>
 </metadata>
 <defs>
  <style type="text/css">*{stroke-linejoin: round; stroke-linecap: butt}</style>
 </defs>
 <g id="figure_1">
  <g id="patch_1">
   <path d="M 0 342.466687 
L 456.17625 342.466687 
L 456.17625 0 
L 0 0 
z
" style="fill: #ffffff"/>
  </g>
  <g id="axes_1">
   <g id="patch_2">
    <path d="M 74.25625 280.910437 
L 431.37625 280.910437 
L 431.37625 14.798437 
L 74.25625 14.798437 
z
" style="fill: #ffffff"/>
   </g>
   <g id="PathCollection_1">
    <defs>
     <path id="mdadb91ffc5" d="M 0 4.1833 
C 1.109424 4.1833 2.173559 3.742521 2.95804 2.95804 
C 3.742521 2.173559 4.1833 1.109424 4.1833 0 
C 4.1833 -1.109424 3.742521 -2.173559 2.95804 -2.95804 
C 2.173559 -3.742521 1.109424 -4.1833 0 -4.1833 
C -1.109424 -4.1833 -2.173559 -3.742521 -2.95804 -2.95804 
C -3.742521 -2.173559 -4.1833 -1.109424 -4.1833 0 
C -4.1833 1.109424 -3.742521 2.173559 -2.95804 2.95804 
C -2.173559 3.742521 -1.109424 4.1833 0 4.1833 
z
" style="stroke: #ff0000"/>
    </defs>
    <g clip-path="url(#p7b97ce5ad7)">
     <use xlink:href="#mdadb91ffc5" x="91.261964" y="276.930853" style="fill: #ff0000; stroke: #ff0000"/>
     <use xlink:href="#mdadb91ffc5" x="96.660605" y="275.965237" style="fill: #ff0000; stroke: #ff0000"/>
     <use xlink:href="#mdadb91ffc5" x="102.059242" y="274.733748" style="fill: #ff0000; stroke: #ff0000"/>
     <use xlink:href="#mdadb91ffc5" x="107.457885" y="273.175685" style="fill: #ff0000; stroke: #ff0000"/>
     <use xlink:href="#mdadb91ffc5" x="112.856523" y="271.227586" style="fill: #ff0000; stroke: #ff0000"/>
     <use xlink:href="#mdadb91ffc5" x="118.25516" y="268.829547" style="fill: #ff0000; stroke: #ff0000"/>
     <use xlink:href="#mdadb91ffc5" x="123.653801" y="265.932432" style="fill: #ff0000; stroke: #ff0000"/>
     <use xlink:href="#mdadb91ffc5" x="129.052437" y="262.50426" style="fill: #ff0000; stroke: #ff0000"/>
     <use xlink:href="#mdadb91ffc5" x="134.451078" y="258.534306" style="fill: #ff0000; stroke: #ff0000"/>
     <use xlink:href="#mdadb91ffc5" x="139.849717" y="254.033543" style="fill: #ff0000; stroke: #ff0000"/>
     <use xlink:href="#mdadb91ffc5" x="145.248357" y="249.03181" style="fill: #ff0000; stroke: #ff0000"/>
     <use xlink:href="#mdadb91ffc5" x="150.646997" y="243.57317" style="fill: #ff0000; stroke: #ff0000"/>
     <use xlink:href="#mdadb91ffc5" x="156.045638" y="237.711723" style="fill: #ff0000; stroke: #ff0000"/>
     <use xlink:href="#mdadb91ffc5" x="161.444293" y="231.507659" style="fill: #ff0000; stroke: #ff0000"/>
     <use xlink:href="#mdadb91ffc5" x="166.842913" y="225.024544" style="fill: #ff0000; stroke: #ff0000"/>
     <use xlink:href="#mdadb91ffc5" x="172.241572" y="218.32712" style="fill: #ff0000; stroke: #ff0000"/>
     <use xlink:href="#mdadb91ffc5" x="177.640191" y="211.479765" style="fill: #ff0000; stroke: #ff0000"/>
     <use xlink:href="#mdadb91ffc5" x="183.03885" y="204.544525" style="fill: #ff0000; stroke: #ff0000"/>
     <use xlink:href="#mdadb91ffc5" x="188.437467" y="197.58037" style="fill: #ff0000; stroke: #ff0000"/>
     <use xlink:href="#mdadb91ffc5" x="193.836128" y="193.82143" style="fill: #ff0000; stroke: #ff0000"/>
     <use xlink:href="#mdadb91ffc5" x="199.234746" y="193.447876" style="fill: #ff0000; stroke: #ff0000"/>
     <use xlink:href="#mdadb91ffc5" x="204.633405" y="192.600205" style="fill: #ff0000; stroke: #ff0000"/>
     <use xlink:href="#mdadb91ffc5" x="210.032025" y="192.782549" style="fill: #ff0000; stroke: #ff0000"/>
     <use xlink:href="#mdadb91ffc5" x="215.430687" y="192.826834" style="fill: #ff0000; stroke: #ff0000"/>
     <use xlink:href="#mdadb91ffc5" x="220.829327" y="193.006022" style="fill: #ff0000; stroke: #ff0000"/>
     <use xlink:href="#mdadb91ffc5" x="226.227962" y="193.510949" style="fill: #ff0000; stroke: #ff0000"/>
     <use xlink:href="#mdadb91ffc5" x="231.626604" y="193.212443" style="fill: #ff0000; stroke: #ff0000"/>
     <use xlink:href="#mdadb91ffc5" x="237.025241" y="193.011819" style="fill: #ff0000; stroke: #ff0000"/>
     <use xlink:href="#mdadb91ffc5" x="242.423882" y="192.002836" style="fill: #ff0000; stroke: #ff0000"/>
     <use xlink:href="#mdadb91ffc5" x="247.822521" y="192.050976" style="fill: #ff0000; stroke: #ff0000"/>
     <use xlink:href="#mdadb91ffc5" x="253.221158" y="191.592824" style="fill: #ff0000; stroke: #ff0000"/>
     <use xlink:href="#mdadb91ffc5" x="258.619799" y="192.209417" style="fill: #ff0000; stroke: #ff0000"/>
     <use xlink:href="#mdadb91ffc5" x="264.018419" y="192.344137" style="fill: #ff0000; stroke: #ff0000"/>
     <use xlink:href="#mdadb91ffc5" x="269.417055" y="192.304768" style="fill: #ff0000; stroke: #ff0000"/>
     <use xlink:href="#mdadb91ffc5" x="274.815696" y="192.220837" style="fill: #ff0000; stroke: #ff0000"/>
     <use xlink:href="#mdadb91ffc5" x="280.214337" y="191.092965" style="fill: #ff0000; stroke: #ff0000"/>
     <use xlink:href="#mdadb91ffc5" x="285.612974" y="190.959474" style="fill: #ff0000; stroke: #ff0000"/>
     <use xlink:href="#mdadb91ffc5" x="291.011611" y="190.013985" style="fill: #ff0000; stroke: #ff0000"/>
     <use xlink:href="#mdadb91ffc5" x="296.410252" y="191.927835" style="fill: #ff0000; stroke: #ff0000"/>
     <use xlink:href="#mdadb91ffc5" x="301.808891" y="186.772987" style="fill: #ff0000; stroke: #ff0000"/>
     <use xlink:href="#mdadb91ffc5" x="307.207538" y="180.222944" style="fill: #ff0000; stroke: #ff0000"/>
     <use xlink:href="#mdadb91ffc5" x="312.606181" y="173.745595" style="fill: #ff0000; stroke: #ff0000"/>
     <use xlink:href="#mdadb91ffc5" x="318.00482" y="167.367998" style="fill: #ff0000; stroke: #ff0000"/>
     <use xlink:href="#mdadb91ffc5" x="323.403459" y="161.112694" style="fill: #ff0000; stroke: #ff0000"/>
     <use xlink:href="#mdadb91ffc5" x="328.802098" y="154.997756" style="fill: #ff0000; stroke: #ff0000"/>
     <use xlink:href="#mdadb91ffc5" x="334.200737" y="149.037373" style="fill: #ff0000; stroke: #ff0000"/>
     <use xlink:href="#mdadb91ffc5" x="339.599377" y="143.242005" style="fill: #ff0000; stroke: #ff0000"/>
     <use xlink:href="#mdadb91ffc5" x="344.998016" y="137.618846" style="fill: #ff0000; stroke: #ff0000"/>
     <use xlink:href="#mdadb91ffc5" x="350.396654" y="132.17259" style="fill: #ff0000; stroke: #ff0000"/>
     <use xlink:href="#mdadb91ffc5" x="355.795294" y="126.905505" style="fill: #ff0000; stroke: #ff0000"/>
     <use xlink:href="#mdadb91ffc5" x="361.193929" y="121.818132" style="fill: #ff0000; stroke: #ff0000"/>
     <use xlink:href="#mdadb91ffc5" x="366.592569" y="116.909486" style="fill: #ff0000; stroke: #ff0000"/>
     <use xlink:href="#mdadb91ffc5" x="371.991214" y="112.177521" style="fill: #ff0000; stroke: #ff0000"/>
     <use xlink:href="#mdadb91ffc5" x="377.389855" y="107.619414" style="fill: #ff0000; stroke: #ff0000"/>
     <use xlink:href="#mdadb91ffc5" x="382.78849" y="106.341976" style="fill: #ff0000; stroke: #ff0000"/>
     <use xlink:href="#mdadb91ffc5" x="388.187134" y="108.017269" style="fill: #ff0000; stroke: #ff0000"/>
     <use xlink:href="#mdadb91ffc5" x="393.585768" y="105.472939" style="fill: #ff0000; stroke: #ff0000"/>
     <use xlink:href="#mdadb91ffc5" x="398.984409" y="102.544476" style="fill: #ff0000; stroke: #ff0000"/>
     <use xlink:href="#mdadb91ffc5" x="404.383052" y="107.731968" style="fill: #ff0000; stroke: #ff0000"/>
     <use xlink:href="#mdadb91ffc5" x="409.781694" y="102.758258" style="fill: #ff0000; stroke: #ff0000"/>
     <use xlink:href="#mdadb91ffc5" x="415.180328" y="105.942234" style="fill: #ff0000; stroke: #ff0000"/>
     <use xlink:href="#mdadb91ffc5" x="420.578972" y="105.758415" style="fill: #ff0000; stroke: #ff0000"/>
     <use xlink:href="#mdadb91ffc5" x="425.977608" y="102.667831" style="fill: #ff0000; stroke: #ff0000"/>
     <use xlink:href="#mdadb91ffc5" x="431.37625" y="106.855857" style="fill: #ff0000; stroke: #ff0000"/>
    </g>
   </g>
   <g id="PathCollection_2">
    <defs>
     <path id="m8a007841a2" d="M -4.1833 4.1833 
L 4.1833 4.1833 
L 4.1833 -4.1833 
L -4.1833 -4.1833 
z
" style="stroke: #008000"/>
    </defs>
    <g clip-path="url(#p7b97ce5ad7)">
     <use xlink:href="#m8a007841a2" x="91.261964" y="279.435466" style="fill: #008000; stroke: #008000"/>
     <use xlink:href="#m8a007841a2" x="96.660605" y="279.16769" style="fill: #008000; stroke: #008000"/>
     <use xlink:href="#m8a007841a2" x="102.059242" y="278.828675" style="fill: #008000; stroke: #008000"/>
     <use xlink:href="#m8a007841a2" x="107.457885" y="278.397213" style="fill: #008000; stroke: #008000"/>
     <use xlink:href="#m8a007841a2" x="112.856523" y="277.845922" style="fill: #008000; stroke: #008000"/>
     <use xlink:href="#m8a007841a2" x="118.25516" y="277.140116" style="fill: #008000; stroke: #008000"/>
     <use xlink:href="#m8a007841a2" x="123.653801" y="276.236868" style="fill: #008000; stroke: #008000"/>
     <use xlink:href="#m8a007841a2" x="129.052437" y="275.085071" style="fill: #008000; stroke: #008000"/>
     <use xlink:href="#m8a007841a2" x="134.451078" y="273.626299" style="fill: #008000; stroke: #008000"/>
     <use xlink:href="#m8a007841a2" x="139.849717" y="271.7981" style="fill: #008000; stroke: #008000"/>
     <use xlink:href="#m8a007841a2" x="145.248357" y="269.538973" style="fill: #008000; stroke: #008000"/>
     <use xlink:href="#m8a007841a2" x="150.646997" y="266.794503" style="fill: #008000; stroke: #008000"/>
     <use xlink:href="#m8a007841a2" x="156.045638" y="263.524318" style="fill: #008000; stroke: #008000"/>
     <use xlink:href="#m8a007841a2" x="161.444293" y="259.706006" style="fill: #008000; stroke: #008000"/>
     <use xlink:href="#m8a007841a2" x="166.842913" y="255.337434" style="fill: #008000; stroke: #008000"/>
     <use xlink:href="#m8a007841a2" x="172.241572" y="250.435375" style="fill: #008000; stroke: #008000"/>
     <use xlink:href="#m8a007841a2" x="177.640191" y="245.032389" style="fill: #008000; stroke: #008000"/>
     <use xlink:href="#m8a007841a2" x="183.03885" y="239.173087" style="fill: #008000; stroke: #008000"/>
     <use xlink:href="#m8a007841a2" x="188.437467" y="232.911006" style="fill: #008000; stroke: #008000"/>
     <use xlink:href="#m8a007841a2" x="193.836128" y="226.304715" style="fill: #008000; stroke: #008000"/>
     <use xlink:href="#m8a007841a2" x="199.234746" y="219.416342" style="fill: #008000; stroke: #008000"/>
     <use xlink:href="#m8a007841a2" x="204.633405" y="212.308743" style="fill: #008000; stroke: #008000"/>
     <use xlink:href="#m8a007841a2" x="210.032025" y="205.044829" style="fill: #008000; stroke: #008000"/>
     <use xlink:href="#m8a007841a2" x="215.430687" y="197.68558" style="fill: #008000; stroke: #008000"/>
     <use xlink:href="#m8a007841a2" x="220.829327" y="193.020249" style="fill: #008000; stroke: #008000"/>
     <use xlink:href="#m8a007841a2" x="226.227962" y="193.237623" style="fill: #008000; stroke: #008000"/>
     <use xlink:href="#m8a007841a2" x="231.626604" y="192.185038" style="fill: #008000; stroke: #008000"/>
     <use xlink:href="#m8a007841a2" x="237.025241" y="193.016054" style="fill: #008000; stroke: #008000"/>
     <use xlink:href="#m8a007841a2" x="242.423882" y="193.29229" style="fill: #008000; stroke: #008000"/>
     <use xlink:href="#m8a007841a2" x="247.822521" y="193.382209" style="fill: #008000; stroke: #008000"/>
     <use xlink:href="#m8a007841a2" x="253.221158" y="191.695115" style="fill: #008000; stroke: #008000"/>
     <use xlink:href="#m8a007841a2" x="258.619799" y="192.32013" style="fill: #008000; stroke: #008000"/>
     <use xlink:href="#m8a007841a2" x="264.018419" y="191.807082" style="fill: #008000; stroke: #008000"/>
     <use xlink:href="#m8a007841a2" x="269.417055" y="192.502085" style="fill: #008000; stroke: #008000"/>
     <use xlink:href="#m8a007841a2" x="274.815696" y="192.597635" style="fill: #008000; stroke: #008000"/>
     <use xlink:href="#m8a007841a2" x="280.214337" y="192.211447" style="fill: #008000; stroke: #008000"/>
     <use xlink:href="#m8a007841a2" x="285.612974" y="191.842635" style="fill: #008000; stroke: #008000"/>
     <use xlink:href="#m8a007841a2" x="291.011611" y="192.551851" style="fill: #008000; stroke: #008000"/>
     <use xlink:href="#m8a007841a2" x="296.410252" y="190.860118" style="fill: #008000; stroke: #008000"/>
     <use xlink:href="#m8a007841a2" x="301.808891" y="191.647864" style="fill: #008000; stroke: #008000"/>
     <use xlink:href="#m8a007841a2" x="307.207538" y="191.267283" style="fill: #008000; stroke: #008000"/>
     <use xlink:href="#m8a007841a2" x="312.606181" y="191.449785" style="fill: #008000; stroke: #008000"/>
     <use xlink:href="#m8a007841a2" x="318.00482" y="184.424928" style="fill: #008000; stroke: #008000"/>
     <use xlink:href="#m8a007841a2" x="323.403459" y="177.429684" style="fill: #008000; stroke: #008000"/>
     <use xlink:href="#m8a007841a2" x="328.802098" y="170.499838" style="fill: #008000; stroke: #008000"/>
     <use xlink:href="#m8a007841a2" x="334.200737" y="163.669752" style="fill: #008000; stroke: #008000"/>
     <use xlink:href="#m8a007841a2" x="339.599377" y="156.968176" style="fill: #008000; stroke: #008000"/>
     <use xlink:href="#m8a007841a2" x="344.998016" y="150.419228" style="fill: #008000; stroke: #008000"/>
     <use xlink:href="#m8a007841a2" x="350.396654" y="144.042599" style="fill: #008000; stroke: #008000"/>
     <use xlink:href="#m8a007841a2" x="355.795294" y="137.85366" style="fill: #008000; stroke: #008000"/>
     <use xlink:href="#m8a007841a2" x="361.193929" y="131.86394" style="fill: #008000; stroke: #008000"/>
     <use xlink:href="#m8a007841a2" x="366.592569" y="126.081595" style="fill: #008000; stroke: #008000"/>
     <use xlink:href="#m8a007841a2" x="371.991214" y="120.511762" style="fill: #008000; stroke: #008000"/>
     <use xlink:href="#m8a007841a2" x="377.389855" y="115.157074" style="fill: #008000; stroke: #008000"/>
     <use xlink:href="#m8a007841a2" x="382.78849" y="110.01804" style="fill: #008000; stroke: #008000"/>
     <use xlink:href="#m8a007841a2" x="388.187134" y="105.093358" style="fill: #008000; stroke: #008000"/>
     <use xlink:href="#m8a007841a2" x="393.585768" y="107.800426" style="fill: #008000; stroke: #008000"/>
     <use xlink:href="#m8a007841a2" x="398.984409" y="103.986954" style="fill: #008000; stroke: #008000"/>
     <use xlink:href="#m8a007841a2" x="404.383052" y="102.912527" style="fill: #008000; stroke: #008000"/>
     <use xlink:href="#m8a007841a2" x="409.781694" y="102.871858" style="fill: #008000; stroke: #008000"/>
     <use xlink:href="#m8a007841a2" x="415.180328" y="102.524871" style="fill: #008000; stroke: #008000"/>
     <use xlink:href="#m8a007841a2" x="420.578972" y="104.577161" style="fill: #008000; stroke: #008000"/>
     <use xlink:href="#m8a007841a2" x="425.977608" y="101.503469" style="fill: #008000; stroke: #008000"/>
     <use xlink:href="#m8a007841a2" x="431.37625" y="101.235489" style="fill: #008000; stroke: #008000"/>
    </g>
   </g>
   <g id="PathCollection_3">
    <defs>
     <path id="m009edc6858" d="M 0 -4.1833 
L -3.622844 -2.09165 
L -3.622844 2.09165 
L -0 4.1833 
L 3.622844 2.09165 
L 3.622844 -2.09165 
z
" style="stroke: #0000ff"/>
    </defs>
    <g clip-path="url(#p7b97ce5ad7)">
     <use xlink:href="#m009edc6858" x="91.261964" y="280.286514" style="fill: #0000ff; stroke: #0000ff"/>
     <use xlink:href="#m009edc6858" x="96.660605" y="280.221548" style="fill: #0000ff; stroke: #0000ff"/>
     <use xlink:href="#m009edc6858" x="102.059242" y="280.143081" style="fill: #0000ff; stroke: #0000ff"/>
     <use xlink:href="#m009edc6858" x="107.457885" y="280.047645" style="fill: #0000ff; stroke: #0000ff"/>
     <use xlink:href="#m009edc6858" x="112.856523" y="279.930614" style="fill: #0000ff; stroke: #0000ff"/>
     <use xlink:href="#m009edc6858" x="118.25516" y="279.785954" style="fill: #0000ff; stroke: #0000ff"/>
     <use xlink:href="#m009edc6858" x="123.653801" y="279.60572" style="fill: #0000ff; stroke: #0000ff"/>
     <use xlink:href="#m009edc6858" x="129.052437" y="279.379401" style="fill: #0000ff; stroke: #0000ff"/>
     <use xlink:href="#m009edc6858" x="134.451078" y="279.092988" style="fill: #0000ff; stroke: #0000ff"/>
     <use xlink:href="#m009edc6858" x="139.849717" y="278.727952" style="fill: #0000ff; stroke: #0000ff"/>
     <use xlink:href="#m009edc6858" x="145.248357" y="278.259899" style="fill: #0000ff; stroke: #0000ff"/>
     <use xlink:href="#m009edc6858" x="150.646997" y="277.656768" style="fill: #0000ff; stroke: #0000ff"/>
     <use xlink:href="#m009edc6858" x="156.045638" y="276.877451" style="fill: #0000ff; stroke: #0000ff"/>
     <use xlink:href="#m009edc6858" x="161.444293" y="275.870172" style="fill: #0000ff; stroke: #0000ff"/>
     <use xlink:href="#m009edc6858" x="166.842913" y="274.571914" style="fill: #0000ff; stroke: #0000ff"/>
     <use xlink:href="#m009edc6858" x="172.241572" y="272.909764" style="fill: #0000ff; stroke: #0000ff"/>
     <use xlink:href="#m009edc6858" x="177.640191" y="270.804452" style="fill: #0000ff; stroke: #0000ff"/>
     <use xlink:href="#m009edc6858" x="183.03885" y="268.177637" style="fill: #0000ff; stroke: #0000ff"/>
     <use xlink:href="#m009edc6858" x="188.437467" y="264.960838" style="fill: #0000ff; stroke: #0000ff"/>
     <use xlink:href="#m009edc6858" x="193.836128" y="261.104605" style="fill: #0000ff; stroke: #0000ff"/>
     <use xlink:href="#m009edc6858" x="199.234746" y="256.58564" style="fill: #0000ff; stroke: #0000ff"/>
     <use xlink:href="#m009edc6858" x="204.633405" y="251.408312" style="fill: #0000ff; stroke: #0000ff"/>
     <use xlink:href="#m009edc6858" x="210.032025" y="245.60269" style="fill: #0000ff; stroke: #0000ff"/>
     <use xlink:href="#m009edc6858" x="215.430687" y="239.2188" style="fill: #0000ff; stroke: #0000ff"/>
     <use xlink:href="#m009edc6858" x="220.829327" y="232.320986" style="fill: #0000ff; stroke: #0000ff"/>
     <use xlink:href="#m009edc6858" x="226.227962" y="224.98284" style="fill: #0000ff; stroke: #0000ff"/>
     <use xlink:href="#m009edc6858" x="231.626604" y="217.283345" style="fill: #0000ff; stroke: #0000ff"/>
     <use xlink:href="#m009edc6858" x="237.025241" y="209.304732" style="fill: #0000ff; stroke: #0000ff"/>
     <use xlink:href="#m009edc6858" x="242.423882" y="201.130129" style="fill: #0000ff; stroke: #0000ff"/>
     <use xlink:href="#m009edc6858" x="247.822521" y="192.841688" style="fill: #0000ff; stroke: #0000ff"/>
     <use xlink:href="#m009edc6858" x="253.221158" y="193.792023" style="fill: #0000ff; stroke: #0000ff"/>
     <use xlink:href="#m009edc6858" x="258.619799" y="193.625739" style="fill: #0000ff; stroke: #0000ff"/>
     <use xlink:href="#m009edc6858" x="264.018419" y="193.030306" style="fill: #0000ff; stroke: #0000ff"/>
     <use xlink:href="#m009edc6858" x="269.417055" y="192.925596" style="fill: #0000ff; stroke: #0000ff"/>
     <use xlink:href="#m009edc6858" x="274.815696" y="192.298979" style="fill: #0000ff; stroke: #0000ff"/>
     <use xlink:href="#m009edc6858" x="280.214337" y="193.32575" style="fill: #0000ff; stroke: #0000ff"/>
     <use xlink:href="#m009edc6858" x="285.612974" y="192.606859" style="fill: #0000ff; stroke: #0000ff"/>
     <use xlink:href="#m009edc6858" x="291.011611" y="191.636229" style="fill: #0000ff; stroke: #0000ff"/>
     <use xlink:href="#m009edc6858" x="296.410252" y="192.630326" style="fill: #0000ff; stroke: #0000ff"/>
     <use xlink:href="#m009edc6858" x="301.808891" y="192.08952" style="fill: #0000ff; stroke: #0000ff"/>
     <use xlink:href="#m009edc6858" x="307.207538" y="192.828357" style="fill: #0000ff; stroke: #0000ff"/>
     <use xlink:href="#m009edc6858" x="312.606181" y="190.920526" style="fill: #0000ff; stroke: #0000ff"/>
     <use xlink:href="#m009edc6858" x="318.00482" y="190.995932" style="fill: #0000ff; stroke: #0000ff"/>
     <use xlink:href="#m009edc6858" x="323.403459" y="191.213925" style="fill: #0000ff; stroke: #0000ff"/>
     <use xlink:href="#m009edc6858" x="328.802098" y="191.978584" style="fill: #0000ff; stroke: #0000ff"/>
     <use xlink:href="#m009edc6858" x="334.200737" y="189.247581" style="fill: #0000ff; stroke: #0000ff"/>
     <use xlink:href="#m009edc6858" x="339.599377" y="181.626783" style="fill: #0000ff; stroke: #0000ff"/>
     <use xlink:href="#m009edc6858" x="344.998016" y="174.030452" style="fill: #0000ff; stroke: #0000ff"/>
     <use xlink:href="#m009edc6858" x="350.396654" y="166.502967" style="fill: #0000ff; stroke: #0000ff"/>
     <use xlink:href="#m009edc6858" x="355.795294" y="159.088329" style="fill: #0000ff; stroke: #0000ff"/>
     <use xlink:href="#m009edc6858" x="361.193929" y="151.823717" style="fill: #0000ff; stroke: #0000ff"/>
     <use xlink:href="#m009edc6858" x="366.592569" y="144.740569" style="fill: #0000ff; stroke: #0000ff"/>
     <use xlink:href="#m009edc6858" x="371.991214" y="137.864842" style="fill: #0000ff; stroke: #0000ff"/>
     <use xlink:href="#m009edc6858" x="377.389855" y="131.216918" style="fill: #0000ff; stroke: #0000ff"/>
     <use xlink:href="#m009edc6858" x="382.78849" y="124.81223" style="fill: #0000ff; stroke: #0000ff"/>
     <use xlink:href="#m009edc6858" x="388.187134" y="118.661612" style="fill: #0000ff; stroke: #0000ff"/>
     <use xlink:href="#m009edc6858" x="393.585768" y="112.771884" style="fill: #0000ff; stroke: #0000ff"/>
     <use xlink:href="#m009edc6858" x="398.984409" y="107.146503" style="fill: #0000ff; stroke: #0000ff"/>
     <use xlink:href="#m009edc6858" x="404.383052" y="105.247452" style="fill: #0000ff; stroke: #0000ff"/>
     <use xlink:href="#m009edc6858" x="409.781694" y="106.823991" style="fill: #0000ff; stroke: #0000ff"/>
     <use xlink:href="#m009edc6858" x="415.180328" y="106.003491" style="fill: #0000ff; stroke: #0000ff"/>
     <use xlink:href="#m009edc6858" x="420.578972" y="107.312589" style="fill: #0000ff; stroke: #0000ff"/>
     <use xlink:href="#m009edc6858" x="425.977608" y="104.808897" style="fill: #0000ff; stroke: #0000ff"/>
     <use xlink:href="#m009edc6858" x="431.37625" y="105.346063" style="fill: #0000ff; stroke: #0000ff"/>
    </g>
   </g>
   <g id="line2d_1">
    <path d="M 74.25625 192.206437 
L 431.37625 192.206437 
" clip-path="url(#p7b97ce5ad7)" style="fill: none; stroke-dasharray: 5.55,2.4; stroke-dashoffset: 0; stroke: #008000; stroke-opacity: 0.5; stroke-width: 1.5"/>
   </g>
   <g id="line2d_2">
    <path d="M 74.25625 103.502437 
L 431.37625 103.502437 
" clip-path="url(#p7b97ce5ad7)" style="fill: none; stroke-dasharray: 5.55,2.4; stroke-dashoffset: 0; stroke: #ff0000; stroke-opacity: 0.5; stroke-width: 1.5"/>
   </g>
   <g id="matplotlib.axis_1">
    <g id="xtick_1">
     <g id="line2d_3">
      <defs>
       <path id="mdb84f531f1" d="M 0 0 
L 0 3 
" style="stroke: #000000; stroke-width: 1.5"/>
      </defs>
      <g>
       <use xlink:href="#mdb84f531f1" x="91.261966" y="280.910437" style="stroke: #000000; stroke-width: 1.5"/>
      </g>
     </g>
     <g id="text_1">
      <!-- $\mathdefault{10^{-2}}$ -->
      <g transform="translate(67.761966 302.607312) scale(0.2 -0.2)">
       <defs>
        <path id="DejaVuSans-31" d="M 794 531 
L 1825 531 
L 1825 4091 
L 703 3866 
L 703 4441 
L 1819 4666 
L 2450 4666 
L 2450 531 
L 3481 531 
L 3481 0 
L 794 0 
L 794 531 
z
" transform="scale(0.015625)"/>
        <path id="DejaVuSans-30" d="M 2034 4250 
Q 1547 4250 1301 3770 
Q 1056 3291 1056 2328 
Q 1056 1369 1301 889 
Q 1547 409 2034 409 
Q 2525 409 2770 889 
Q 3016 1369 3016 2328 
Q 3016 3291 2770 3770 
Q 2525 4250 2034 4250 
z
M 2034 4750 
Q 2819 4750 3233 4129 
Q 3647 3509 3647 2328 
Q 3647 1150 3233 529 
Q 2819 -91 2034 -91 
Q 1250 -91 836 529 
Q 422 1150 422 2328 
Q 422 3509 836 4129 
Q 1250 4750 2034 4750 
z
" transform="scale(0.015625)"/>
        <path id="DejaVuSans-2212" d="M 678 2272 
L 4684 2272 
L 4684 1741 
L 678 1741 
L 678 2272 
z
" transform="scale(0.015625)"/>
        <path id="DejaVuSans-32" d="M 1228 531 
L 3431 531 
L 3431 0 
L 469 0 
L 469 531 
Q 828 903 1448 1529 
Q 2069 2156 2228 2338 
Q 2531 2678 2651 2914 
Q 2772 3150 2772 3378 
Q 2772 3750 2511 3984 
Q 2250 4219 1831 4219 
Q 1534 4219 1204 4116 
Q 875 4013 500 3803 
L 500 4441 
Q 881 4594 1212 4672 
Q 1544 4750 1819 4750 
Q 2544 4750 2975 4387 
Q 3406 4025 3406 3419 
Q 3406 3131 3298 2873 
Q 3191 2616 2906 2266 
Q 2828 2175 2409 1742 
Q 1991 1309 1228 531 
z
" transform="scale(0.015625)"/>
       </defs>
       <use xlink:href="#DejaVuSans-31" transform="translate(0 0.765625)"/>
       <use xlink:href="#DejaVuSans-30" transform="translate(63.623047 0.765625)"/>
       <use xlink:href="#DejaVuSans-2212" transform="translate(128.203125 39.046875) scale(0.7)"/>
       <use xlink:href="#DejaVuSans-32" transform="translate(186.855469 39.046875) scale(0.7)"/>
      </g>
     </g>
    </g>
    <g id="xtick_2">
     <g id="line2d_4">
      <g>
       <use xlink:href="#mdb84f531f1" x="261.319108" y="280.910437" style="stroke: #000000; stroke-width: 1.5"/>
      </g>
     </g>
     <g id="text_2">
      <!-- $\mathdefault{10^{-1}}$ -->
      <g transform="translate(237.819108 302.607312) scale(0.2 -0.2)">
       <use xlink:href="#DejaVuSans-31" transform="translate(0 0.684375)"/>
       <use xlink:href="#DejaVuSans-30" transform="translate(63.623047 0.684375)"/>
       <use xlink:href="#DejaVuSans-2212" transform="translate(128.203125 38.965625) scale(0.7)"/>
       <use xlink:href="#DejaVuSans-31" transform="translate(186.855469 38.965625) scale(0.7)"/>
      </g>
     </g>
    </g>
    <g id="xtick_3">
     <g id="line2d_5">
      <g>
       <use xlink:href="#mdb84f531f1" x="431.37625" y="280.910437" style="stroke: #000000; stroke-width: 1.5"/>
      </g>
     </g>
     <g id="text_3">
      <!-- $\mathdefault{10^{0}}$ -->
      <g transform="translate(413.77625 302.607312) scale(0.2 -0.2)">
       <use xlink:href="#DejaVuSans-31" transform="translate(0 0.765625)"/>
       <use xlink:href="#DejaVuSans-30" transform="translate(63.623047 0.765625)"/>
       <use xlink:href="#DejaVuSans-30" transform="translate(128.203125 39.046875) scale(0.7)"/>
      </g>
     </g>
    </g>
    <g id="xtick_4">
     <g id="line2d_6">
      <defs>
       <path id="md5c1492fe3" d="M 0 0 
L 0 2 
" style="stroke: #000000; stroke-width: 0.6"/>
      </defs>
      <g>
       <use xlink:href="#md5c1492fe3" x="74.781726" y="280.910437" style="stroke: #000000; stroke-width: 0.6"/>
      </g>
     </g>
    </g>
    <g id="xtick_5">
     <g id="line2d_7">
      <g>
       <use xlink:href="#md5c1492fe3" x="83.480578" y="280.910437" style="stroke: #000000; stroke-width: 0.6"/>
      </g>
     </g>
    </g>
    <g id="xtick_6">
     <g id="line2d_8">
      <g>
       <use xlink:href="#md5c1492fe3" x="142.454267" y="280.910437" style="stroke: #000000; stroke-width: 0.6"/>
      </g>
     </g>
    </g>
    <g id="xtick_7">
     <g id="line2d_9">
      <g>
       <use xlink:href="#md5c1492fe3" x="172.399843" y="280.910437" style="stroke: #000000; stroke-width: 0.6"/>
      </g>
     </g>
    </g>
    <g id="xtick_8">
     <g id="line2d_10">
      <g>
       <use xlink:href="#md5c1492fe3" x="193.646567" y="280.910437" style="stroke: #000000; stroke-width: 0.6"/>
      </g>
     </g>
    </g>
    <g id="xtick_9">
     <g id="line2d_11">
      <g>
       <use xlink:href="#md5c1492fe3" x="210.126807" y="280.910437" style="stroke: #000000; stroke-width: 0.6"/>
      </g>
     </g>
    </g>
    <g id="xtick_10">
     <g id="line2d_12">
      <g>
       <use xlink:href="#md5c1492fe3" x="223.592144" y="280.910437" style="stroke: #000000; stroke-width: 0.6"/>
      </g>
     </g>
    </g>
    <g id="xtick_11">
     <g id="line2d_13">
      <g>
       <use xlink:href="#md5c1492fe3" x="234.976923" y="280.910437" style="stroke: #000000; stroke-width: 0.6"/>
      </g>
     </g>
    </g>
    <g id="xtick_12">
     <g id="line2d_14">
      <g>
       <use xlink:href="#md5c1492fe3" x="244.838868" y="280.910437" style="stroke: #000000; stroke-width: 0.6"/>
      </g>
     </g>
    </g>
    <g id="xtick_13">
     <g id="line2d_15">
      <g>
       <use xlink:href="#md5c1492fe3" x="253.53772" y="280.910437" style="stroke: #000000; stroke-width: 0.6"/>
      </g>
     </g>
    </g>
    <g id="xtick_14">
     <g id="line2d_16">
      <g>
       <use xlink:href="#md5c1492fe3" x="312.511409" y="280.910437" style="stroke: #000000; stroke-width: 0.6"/>
      </g>
     </g>
    </g>
    <g id="xtick_15">
     <g id="line2d_17">
      <g>
       <use xlink:href="#md5c1492fe3" x="342.456985" y="280.910437" style="stroke: #000000; stroke-width: 0.6"/>
      </g>
     </g>
    </g>
    <g id="xtick_16">
     <g id="line2d_18">
      <g>
       <use xlink:href="#md5c1492fe3" x="363.703709" y="280.910437" style="stroke: #000000; stroke-width: 0.6"/>
      </g>
     </g>
    </g>
    <g id="xtick_17">
     <g id="line2d_19">
      <g>
       <use xlink:href="#md5c1492fe3" x="380.183949" y="280.910437" style="stroke: #000000; stroke-width: 0.6"/>
      </g>
     </g>
    </g>
    <g id="xtick_18">
     <g id="line2d_20">
      <g>
       <use xlink:href="#md5c1492fe3" x="393.649286" y="280.910437" style="stroke: #000000; stroke-width: 0.6"/>
      </g>
     </g>
    </g>
    <g id="xtick_19">
     <g id="line2d_21">
      <g>
       <use xlink:href="#md5c1492fe3" x="405.034065" y="280.910437" style="stroke: #000000; stroke-width: 0.6"/>
      </g>
     </g>
    </g>
    <g id="xtick_20">
     <g id="line2d_22">
      <g>
       <use xlink:href="#md5c1492fe3" x="414.89601" y="280.910437" style="stroke: #000000; stroke-width: 0.6"/>
      </g>
     </g>
    </g>
    <g id="xtick_21">
     <g id="line2d_23">
      <g>
       <use xlink:href="#md5c1492fe3" x="423.594862" y="280.910437" style="stroke: #000000; stroke-width: 0.6"/>
      </g>
     </g>
    </g>
    <g id="text_4">
     <!-- $\beta$ -->
     <g transform="translate(244.81625 330.016687) scale(0.25 -0.25)">
      <defs>
       <path id="DejaVuSans-Oblique-3b2" d="M 872 216 
L 572 -1331 
L -6 -1331 
L 928 3478 
Q 1206 4903 2538 4903 
Q 3888 4903 3659 3700 
Q 3503 2844 2894 2531 
Q 3713 2250 3553 1416 
Q 3272 -69 1759 -66 
Q 1097 -63 872 216 
z
M 1019 966 
Q 1259 422 1875 425 
Q 2775 425 2966 1406 
Q 3138 2288 1675 2219 
L 1778 2750 
Q 2909 2731 3106 3750 
Q 3241 4438 2509 4434 
Q 1691 4434 1503 3459 
L 1019 966 
z
" transform="scale(0.015625)"/>
      </defs>
      <use xlink:href="#DejaVuSans-Oblique-3b2" transform="translate(0 0.390625)"/>
     </g>
    </g>
   </g>
   <g id="matplotlib.axis_2">
    <g id="ytick_1">
     <g id="line2d_24">
      <defs>
       <path id="mb7668eb403" d="M 0 0 
L 3 0 
" style="stroke: #000000; stroke-width: 1.5"/>
      </defs>
      <g>
       <use xlink:href="#mb7668eb403" x="74.25625" y="280.910437" style="stroke: #000000; stroke-width: 1.5"/>
      </g>
     </g>
     <g id="text_5">
      <!-- 0.0 -->
      <g transform="translate(38.95 288.508875) scale(0.2 -0.2)">
       <defs>
        <path id="DejaVuSans-2e" d="M 684 794 
L 1344 794 
L 1344 0 
L 684 0 
L 684 794 
z
" transform="scale(0.015625)"/>
       </defs>
       <use xlink:href="#DejaVuSans-30"/>
       <use xlink:href="#DejaVuSans-2e" transform="translate(63.623047 0)"/>
       <use xlink:href="#DejaVuSans-30" transform="translate(95.410156 0)"/>
      </g>
     </g>
    </g>
    <g id="ytick_2">
     <g id="line2d_25">
      <g>
       <use xlink:href="#mb7668eb403" x="74.25625" y="227.688037" style="stroke: #000000; stroke-width: 1.5"/>
      </g>
     </g>
     <g id="text_6">
      <!-- 0.2 -->
      <g transform="translate(38.95 235.286475) scale(0.2 -0.2)">
       <use xlink:href="#DejaVuSans-30"/>
       <use xlink:href="#DejaVuSans-2e" transform="translate(63.623047 0)"/>
       <use xlink:href="#DejaVuSans-32" transform="translate(95.410156 0)"/>
      </g>
     </g>
    </g>
    <g id="ytick_3">
     <g id="line2d_26">
      <g>
       <use xlink:href="#mb7668eb403" x="74.25625" y="174.465637" style="stroke: #000000; stroke-width: 1.5"/>
      </g>
     </g>
     <g id="text_7">
      <!-- 0.4 -->
      <g transform="translate(38.95 182.064075) scale(0.2 -0.2)">
       <defs>
        <path id="DejaVuSans-34" d="M 2419 4116 
L 825 1625 
L 2419 1625 
L 2419 4116 
z
M 2253 4666 
L 3047 4666 
L 3047 1625 
L 3713 1625 
L 3713 1100 
L 3047 1100 
L 3047 0 
L 2419 0 
L 2419 1100 
L 313 1100 
L 313 1709 
L 2253 4666 
z
" transform="scale(0.015625)"/>
       </defs>
       <use xlink:href="#DejaVuSans-30"/>
       <use xlink:href="#DejaVuSans-2e" transform="translate(63.623047 0)"/>
       <use xlink:href="#DejaVuSans-34" transform="translate(95.410156 0)"/>
      </g>
     </g>
    </g>
    <g id="ytick_4">
     <g id="line2d_27">
      <g>
       <use xlink:href="#mb7668eb403" x="74.25625" y="121.243237" style="stroke: #000000; stroke-width: 1.5"/>
      </g>
     </g>
     <g id="text_8">
      <!-- 0.6 -->
      <g transform="translate(38.95 128.841675) scale(0.2 -0.2)">
       <defs>
        <path id="DejaVuSans-36" d="M 2113 2584 
Q 1688 2584 1439 2293 
Q 1191 2003 1191 1497 
Q 1191 994 1439 701 
Q 1688 409 2113 409 
Q 2538 409 2786 701 
Q 3034 994 3034 1497 
Q 3034 2003 2786 2293 
Q 2538 2584 2113 2584 
z
M 3366 4563 
L 3366 3988 
Q 3128 4100 2886 4159 
Q 2644 4219 2406 4219 
Q 1781 4219 1451 3797 
Q 1122 3375 1075 2522 
Q 1259 2794 1537 2939 
Q 1816 3084 2150 3084 
Q 2853 3084 3261 2657 
Q 3669 2231 3669 1497 
Q 3669 778 3244 343 
Q 2819 -91 2113 -91 
Q 1303 -91 875 529 
Q 447 1150 447 2328 
Q 447 3434 972 4092 
Q 1497 4750 2381 4750 
Q 2619 4750 2861 4703 
Q 3103 4656 3366 4563 
z
" transform="scale(0.015625)"/>
       </defs>
       <use xlink:href="#DejaVuSans-30"/>
       <use xlink:href="#DejaVuSans-2e" transform="translate(63.623047 0)"/>
       <use xlink:href="#DejaVuSans-36" transform="translate(95.410156 0)"/>
      </g>
     </g>
    </g>
    <g id="ytick_5">
     <g id="line2d_28">
      <g>
       <use xlink:href="#mb7668eb403" x="74.25625" y="68.020837" style="stroke: #000000; stroke-width: 1.5"/>
      </g>
     </g>
     <g id="text_9">
      <!-- 0.8 -->
      <g transform="translate(38.95 75.619275) scale(0.2 -0.2)">
       <defs>
        <path id="DejaVuSans-38" d="M 2034 2216 
Q 1584 2216 1326 1975 
Q 1069 1734 1069 1313 
Q 1069 891 1326 650 
Q 1584 409 2034 409 
Q 2484 409 2743 651 
Q 3003 894 3003 1313 
Q 3003 1734 2745 1975 
Q 2488 2216 2034 2216 
z
M 1403 2484 
Q 997 2584 770 2862 
Q 544 3141 544 3541 
Q 544 4100 942 4425 
Q 1341 4750 2034 4750 
Q 2731 4750 3128 4425 
Q 3525 4100 3525 3541 
Q 3525 3141 3298 2862 
Q 3072 2584 2669 2484 
Q 3125 2378 3379 2068 
Q 3634 1759 3634 1313 
Q 3634 634 3220 271 
Q 2806 -91 2034 -91 
Q 1263 -91 848 271 
Q 434 634 434 1313 
Q 434 1759 690 2068 
Q 947 2378 1403 2484 
z
M 1172 3481 
Q 1172 3119 1398 2916 
Q 1625 2713 2034 2713 
Q 2441 2713 2670 2916 
Q 2900 3119 2900 3481 
Q 2900 3844 2670 4047 
Q 2441 4250 2034 4250 
Q 1625 4250 1398 4047 
Q 1172 3844 1172 3481 
z
" transform="scale(0.015625)"/>
       </defs>
       <use xlink:href="#DejaVuSans-30"/>
       <use xlink:href="#DejaVuSans-2e" transform="translate(63.623047 0)"/>
       <use xlink:href="#DejaVuSans-38" transform="translate(95.410156 0)"/>
      </g>
     </g>
    </g>
    <g id="ytick_6">
     <g id="line2d_29">
      <g>
       <use xlink:href="#mb7668eb403" x="74.25625" y="14.798437" style="stroke: #000000; stroke-width: 1.5"/>
      </g>
     </g>
     <g id="text_10">
      <!-- 1.0 -->
      <g transform="translate(38.95 22.396875) scale(0.2 -0.2)">
       <use xlink:href="#DejaVuSans-31"/>
       <use xlink:href="#DejaVuSans-2e" transform="translate(63.623047 0)"/>
       <use xlink:href="#DejaVuSans-30" transform="translate(95.410156 0)"/>
      </g>
     </g>
    </g>
    <g id="text_11">
     <!-- Epidemic size $p^{EI}$ -->
     <g transform="translate(29.7 254.479437) rotate(-90) scale(0.25 -0.25)">
      <defs>
       <path id="DejaVuSans-45" d="M 628 4666 
L 3578 4666 
L 3578 4134 
L 1259 4134 
L 1259 2753 
L 3481 2753 
L 3481 2222 
L 1259 2222 
L 1259 531 
L 3634 531 
L 3634 0 
L 628 0 
L 628 4666 
z
" transform="scale(0.015625)"/>
       <path id="DejaVuSans-70" d="M 1159 525 
L 1159 -1331 
L 581 -1331 
L 581 3500 
L 1159 3500 
L 1159 2969 
Q 1341 3281 1617 3432 
Q 1894 3584 2278 3584 
Q 2916 3584 3314 3078 
Q 3713 2572 3713 1747 
Q 3713 922 3314 415 
Q 2916 -91 2278 -91 
Q 1894 -91 1617 61 
Q 1341 213 1159 525 
z
M 3116 1747 
Q 3116 2381 2855 2742 
Q 2594 3103 2138 3103 
Q 1681 3103 1420 2742 
Q 1159 2381 1159 1747 
Q 1159 1113 1420 752 
Q 1681 391 2138 391 
Q 2594 391 2855 752 
Q 3116 1113 3116 1747 
z
" transform="scale(0.015625)"/>
       <path id="DejaVuSans-69" d="M 603 3500 
L 1178 3500 
L 1178 0 
L 603 0 
L 603 3500 
z
M 603 4863 
L 1178 4863 
L 1178 4134 
L 603 4134 
L 603 4863 
z
" transform="scale(0.015625)"/>
       <path id="DejaVuSans-64" d="M 2906 2969 
L 2906 4863 
L 3481 4863 
L 3481 0 
L 2906 0 
L 2906 525 
Q 2725 213 2448 61 
Q 2172 -91 1784 -91 
Q 1150 -91 751 415 
Q 353 922 353 1747 
Q 353 2572 751 3078 
Q 1150 3584 1784 3584 
Q 2172 3584 2448 3432 
Q 2725 3281 2906 2969 
z
M 947 1747 
Q 947 1113 1208 752 
Q 1469 391 1925 391 
Q 2381 391 2643 752 
Q 2906 1113 2906 1747 
Q 2906 2381 2643 2742 
Q 2381 3103 1925 3103 
Q 1469 3103 1208 2742 
Q 947 2381 947 1747 
z
" transform="scale(0.015625)"/>
       <path id="DejaVuSans-65" d="M 3597 1894 
L 3597 1613 
L 953 1613 
Q 991 1019 1311 708 
Q 1631 397 2203 397 
Q 2534 397 2845 478 
Q 3156 559 3463 722 
L 3463 178 
Q 3153 47 2828 -22 
Q 2503 -91 2169 -91 
Q 1331 -91 842 396 
Q 353 884 353 1716 
Q 353 2575 817 3079 
Q 1281 3584 2069 3584 
Q 2775 3584 3186 3129 
Q 3597 2675 3597 1894 
z
M 3022 2063 
Q 3016 2534 2758 2815 
Q 2500 3097 2075 3097 
Q 1594 3097 1305 2825 
Q 1016 2553 972 2059 
L 3022 2063 
z
" transform="scale(0.015625)"/>
       <path id="DejaVuSans-6d" d="M 3328 2828 
Q 3544 3216 3844 3400 
Q 4144 3584 4550 3584 
Q 5097 3584 5394 3201 
Q 5691 2819 5691 2113 
L 5691 0 
L 5113 0 
L 5113 2094 
Q 5113 2597 4934 2840 
Q 4756 3084 4391 3084 
Q 3944 3084 3684 2787 
Q 3425 2491 3425 1978 
L 3425 0 
L 2847 0 
L 2847 2094 
Q 2847 2600 2669 2842 
Q 2491 3084 2119 3084 
Q 1678 3084 1418 2786 
Q 1159 2488 1159 1978 
L 1159 0 
L 581 0 
L 581 3500 
L 1159 3500 
L 1159 2956 
Q 1356 3278 1631 3431 
Q 1906 3584 2284 3584 
Q 2666 3584 2933 3390 
Q 3200 3197 3328 2828 
z
" transform="scale(0.015625)"/>
       <path id="DejaVuSans-63" d="M 3122 3366 
L 3122 2828 
Q 2878 2963 2633 3030 
Q 2388 3097 2138 3097 
Q 1578 3097 1268 2742 
Q 959 2388 959 1747 
Q 959 1106 1268 751 
Q 1578 397 2138 397 
Q 2388 397 2633 464 
Q 2878 531 3122 666 
L 3122 134 
Q 2881 22 2623 -34 
Q 2366 -91 2075 -91 
Q 1284 -91 818 406 
Q 353 903 353 1747 
Q 353 2603 823 3093 
Q 1294 3584 2113 3584 
Q 2378 3584 2631 3529 
Q 2884 3475 3122 3366 
z
" transform="scale(0.015625)"/>
       <path id="DejaVuSans-20" transform="scale(0.015625)"/>
       <path id="DejaVuSans-73" d="M 2834 3397 
L 2834 2853 
Q 2591 2978 2328 3040 
Q 2066 3103 1784 3103 
Q 1356 3103 1142 2972 
Q 928 2841 928 2578 
Q 928 2378 1081 2264 
Q 1234 2150 1697 2047 
L 1894 2003 
Q 2506 1872 2764 1633 
Q 3022 1394 3022 966 
Q 3022 478 2636 193 
Q 2250 -91 1575 -91 
Q 1294 -91 989 -36 
Q 684 19 347 128 
L 347 722 
Q 666 556 975 473 
Q 1284 391 1588 391 
Q 1994 391 2212 530 
Q 2431 669 2431 922 
Q 2431 1156 2273 1281 
Q 2116 1406 1581 1522 
L 1381 1569 
Q 847 1681 609 1914 
Q 372 2147 372 2553 
Q 372 3047 722 3315 
Q 1072 3584 1716 3584 
Q 2034 3584 2315 3537 
Q 2597 3491 2834 3397 
z
" transform="scale(0.015625)"/>
       <path id="DejaVuSans-7a" d="M 353 3500 
L 3084 3500 
L 3084 2975 
L 922 459 
L 3084 459 
L 3084 0 
L 275 0 
L 275 525 
L 2438 3041 
L 353 3041 
L 353 3500 
z
" transform="scale(0.015625)"/>
       <path id="DejaVuSans-Oblique-70" d="M 3175 2156 
Q 3175 2616 2975 2859 
Q 2775 3103 2400 3103 
Q 2144 3103 1911 2972 
Q 1678 2841 1497 2591 
Q 1319 2344 1212 1994 
Q 1106 1644 1106 1300 
Q 1106 863 1306 627 
Q 1506 391 1875 391 
Q 2147 391 2380 519 
Q 2613 647 2778 891 
Q 2956 1147 3065 1494 
Q 3175 1841 3175 2156 
z
M 1394 2969 
Q 1625 3272 1939 3428 
Q 2253 3584 2638 3584 
Q 3175 3584 3472 3232 
Q 3769 2881 3769 2247 
Q 3769 1728 3584 1258 
Q 3400 788 3053 416 
Q 2822 169 2531 39 
Q 2241 -91 1919 -91 
Q 1547 -91 1294 64 
Q 1041 219 916 525 
L 556 -1331 
L -19 -1331 
L 922 3500 
L 1497 3500 
L 1394 2969 
z
" transform="scale(0.015625)"/>
       <path id="DejaVuSans-Oblique-45" d="M 1081 4666 
L 4031 4666 
L 3928 4134 
L 1606 4134 
L 1338 2753 
L 3566 2753 
L 3463 2222 
L 1234 2222 
L 909 531 
L 3284 531 
L 3181 0 
L 172 0 
L 1081 4666 
z
" transform="scale(0.015625)"/>
       <path id="DejaVuSans-Oblique-49" d="M 1081 4666 
L 1716 4666 
L 806 0 
L 172 0 
L 1081 4666 
z
" transform="scale(0.015625)"/>
      </defs>
      <use xlink:href="#DejaVuSans-45" transform="translate(0 0.684375)"/>
      <use xlink:href="#DejaVuSans-70" transform="translate(63.183594 0.684375)"/>
      <use xlink:href="#DejaVuSans-69" transform="translate(126.660156 0.684375)"/>
      <use xlink:href="#DejaVuSans-64" transform="translate(154.443359 0.684375)"/>
      <use xlink:href="#DejaVuSans-65" transform="translate(217.919922 0.684375)"/>
      <use xlink:href="#DejaVuSans-6d" transform="translate(279.443359 0.684375)"/>
      <use xlink:href="#DejaVuSans-69" transform="translate(376.855469 0.684375)"/>
      <use xlink:href="#DejaVuSans-63" transform="translate(404.638672 0.684375)"/>
      <use xlink:href="#DejaVuSans-20" transform="translate(459.619141 0.684375)"/>
      <use xlink:href="#DejaVuSans-73" transform="translate(491.40625 0.684375)"/>
      <use xlink:href="#DejaVuSans-69" transform="translate(543.505859 0.684375)"/>
      <use xlink:href="#DejaVuSans-7a" transform="translate(571.289062 0.684375)"/>
      <use xlink:href="#DejaVuSans-65" transform="translate(623.779297 0.684375)"/>
      <use xlink:href="#DejaVuSans-20" transform="translate(685.302734 0.684375)"/>
      <use xlink:href="#DejaVuSans-Oblique-70" transform="translate(717.089844 0.684375)"/>
      <use xlink:href="#DejaVuSans-Oblique-45" transform="translate(785.216302 38.965625) scale(0.7)"/>
      <use xlink:href="#DejaVuSans-Oblique-49" transform="translate(829.444818 38.965625) scale(0.7)"/>
     </g>
    </g>
   </g>
   <g id="line2d_30">
    <path d="M 91.261964 277.242633 
L 96.660605 276.5066 
L 102.059242 275.651291 
L 107.457885 274.956997 
L 112.856523 273.362645 
L 118.25516 271.87784 
L 123.653801 269.873001 
L 129.052437 267.616805 
L 134.451078 264.610429 
L 139.849717 261.677633 
L 145.248357 257.404191 
L 150.646997 252.975921 
L 156.045638 247.738319 
L 161.444293 242.32197 
L 166.842913 236.556481 
L 172.241572 230.673613 
L 177.640191 223.335479 
L 183.03885 216.008714 
L 188.437467 209.129081 
L 193.836128 201.43237 
L 199.234746 195.194188 
L 204.633405 193.311427 
L 210.032025 193.080127 
L 215.430687 192.97368 
L 220.829327 192.841744 
L 226.227962 192.738374 
L 231.626604 192.657497 
L 237.025241 192.553191 
L 242.423882 192.447236 
L 247.822521 192.353542 
L 253.221158 192.249515 
L 258.619799 192.143409 
L 264.018419 192.034107 
L 269.417055 191.898111 
L 274.815696 191.775977 
L 280.214337 191.622136 
L 285.612974 191.47104 
L 291.011611 191.255672 
L 296.410252 190.949775 
L 301.808891 190.349726 
L 307.207538 187.164164 
L 312.606181 180.586958 
L 318.00482 173.556938 
L 323.403459 167.262297 
L 328.802098 161.313525 
L 334.200737 154.7825 
L 339.599377 148.446135 
L 344.998016 142.461302 
L 350.396654 137.198309 
L 355.795294 131.407938 
L 361.193929 125.883167 
L 366.592569 120.626536 
L 371.991214 115.792962 
L 377.389855 110.69485 
L 382.78849 107.1052 
L 388.187134 105.874442 
L 393.585768 105.563731 
L 398.984409 105.299446 
L 404.383052 105.09948 
L 409.781694 104.908777 
L 415.180328 104.682545 
L 420.578972 104.406174 
L 425.977608 104.192916 
L 431.37625 103.892213 
" clip-path="url(#p7b97ce5ad7)" style="fill: none; stroke: #ff0000; stroke-opacity: 0.8; stroke-width: 3.5; stroke-linecap: square"/>
   </g>
   <g id="line2d_31">
    <path d="M 91.261964 278.920727 
L 96.660605 278.748144 
L 102.059242 278.454224 
L 107.457885 277.997326 
L 112.856523 277.603605 
L 118.25516 277.044562 
L 123.653801 276.26596 
L 129.052437 275.418251 
L 134.451078 274.513122 
L 139.849717 273.168932 
L 145.248357 271.588211 
L 150.646997 269.530166 
L 156.045638 267.510725 
L 161.444293 264.712549 
L 166.842913 261.194781 
L 172.241572 256.438303 
L 177.640191 252.978447 
L 183.03885 248.251693 
L 188.437467 242.222427 
L 193.836128 236.779121 
L 199.234746 229.433683 
L 204.633405 222.472601 
L 210.032025 215.429456 
L 215.430687 207.781741 
L 220.829327 200.336871 
L 226.227962 194.393127 
L 231.626604 193.185867 
L 237.025241 193.012858 
L 242.423882 192.831133 
L 247.822521 192.76403 
L 253.221158 192.656101 
L 258.619799 192.54419 
L 264.018419 192.419336 
L 269.417055 192.304959 
L 274.815696 192.200701 
L 280.214337 192.057186 
L 285.612974 191.93583 
L 291.011611 191.776992 
L 296.410252 191.613151 
L 301.808891 191.436438 
L 307.207538 191.218318 
L 312.606181 190.836 
L 318.00482 189.399994 
L 323.403459 184.08868 
L 328.802098 177.053148 
L 334.200737 170.057873 
L 339.599377 163.171486 
L 344.998016 156.325611 
L 350.396654 149.740078 
L 355.795294 142.928836 
L 361.193929 137.030574 
L 366.592569 131.212889 
L 371.991214 124.624366 
L 377.389855 119.205836 
L 382.78849 113.659145 
L 388.187134 108.58216 
L 393.585768 106.176794 
L 398.984409 105.644196 
L 404.383052 105.389524 
L 409.781694 105.167986 
L 415.180328 104.956758 
L 420.578972 104.716123 
L 425.977608 104.477646 
L 431.37625 104.216121 
" clip-path="url(#p7b97ce5ad7)" style="fill: none; stroke: #008000; stroke-opacity: 0.8; stroke-width: 3.5; stroke-linecap: square"/>
   </g>
   <g id="line2d_32">
    <path d="M 91.261964 279.833906 
L 96.660605 279.812825 
L 102.059242 279.718838 
L 107.457885 279.637125 
L 112.856523 279.498381 
L 118.25516 279.344476 
L 123.653801 279.242888 
L 129.052437 278.862573 
L 134.451078 278.696087 
L 139.849717 278.357891 
L 145.248357 278.187455 
L 150.646997 277.561892 
L 156.045638 276.961826 
L 161.444293 276.075673 
L 166.842913 275.342842 
L 172.241572 273.915758 
L 177.640191 272.932624 
L 183.03885 271.12619 
L 188.437467 268.750424 
L 193.836128 266.215142 
L 199.234746 262.589359 
L 204.633405 258.890552 
L 210.032025 254.44022 
L 215.430687 249.375644 
L 220.829327 244.099542 
L 226.227962 237.139915 
L 231.626604 229.653599 
L 237.025241 222.564983 
L 242.423882 214.075541 
L 247.822521 205.471536 
L 253.221158 197.223248 
L 258.619799 193.531101 
L 264.018419 192.961847 
L 269.417055 192.839507 
L 274.815696 192.696873 
L 280.214337 192.59072 
L 285.612974 192.471346 
L 291.011611 192.341718 
L 296.410252 192.210678 
L 301.808891 192.082929 
L 307.207538 191.925583 
L 312.606181 191.787762 
L 318.00482 191.609281 
L 323.403459 191.375736 
L 328.802098 191.134252 
L 334.200737 190.597174 
L 339.599377 187.772587 
L 344.998016 180.82216 
L 350.396654 172.573564 
L 355.795294 165.468788 
L 361.193929 157.961948 
L 366.592569 150.738076 
L 371.991214 143.787847 
L 377.389855 136.20549 
L 382.78849 129.811715 
L 388.187134 123.462098 
L 393.585768 117.129279 
L 398.984409 111.088438 
L 404.383052 106.61086 
L 409.781694 105.794278 
L 415.180328 105.459219 
L 420.578972 105.2127 
L 425.977608 104.999648 
L 431.37625 104.720089 
" clip-path="url(#p7b97ce5ad7)" style="fill: none; stroke: #0000ff; stroke-opacity: 0.8; stroke-width: 3.5; stroke-linecap: square"/>
   </g>
   <g id="patch_3">
    <path d="M 74.25625 280.910437 
L 74.25625 14.798437 
" style="fill: none; stroke: #000000; stroke-width: 0.8; stroke-linejoin: miter; stroke-linecap: square"/>
   </g>
   <g id="patch_4">
    <path d="M 431.37625 280.910437 
L 431.37625 14.798437 
" style="fill: none; stroke: #000000; stroke-width: 0.8; stroke-linejoin: miter; stroke-linecap: square"/>
   </g>
   <g id="patch_5">
    <path d="M 74.25625 280.910437 
L 431.37625 280.910437 
" style="fill: none; stroke: #000000; stroke-width: 0.8; stroke-linejoin: miter; stroke-linecap: square"/>
   </g>
   <g id="patch_6">
    <path d="M 74.25625 14.798437 
L 431.37625 14.798437 
" style="fill: none; stroke: #000000; stroke-width: 0.8; stroke-linejoin: miter; stroke-linecap: square"/>
   </g>
   <g id="text_12">
    <!-- 0.33 -->
    <g style="fill: #008000" transform="translate(40.069665 201.076837) scale(0.15 -0.15)">
     <defs>
      <path id="DejaVuSans-33" d="M 2597 2516 
Q 3050 2419 3304 2112 
Q 3559 1806 3559 1356 
Q 3559 666 3084 287 
Q 2609 -91 1734 -91 
Q 1441 -91 1130 -33 
Q 819 25 488 141 
L 488 750 
Q 750 597 1062 519 
Q 1375 441 1716 441 
Q 2309 441 2620 675 
Q 2931 909 2931 1356 
Q 2931 1769 2642 2001 
Q 2353 2234 1838 2234 
L 1294 2234 
L 1294 2753 
L 1863 2753 
Q 2328 2753 2575 2939 
Q 2822 3125 2822 3475 
Q 2822 3834 2567 4026 
Q 2313 4219 1838 4219 
Q 1578 4219 1281 4162 
Q 984 4106 628 3988 
L 628 4550 
Q 988 4650 1302 4700 
Q 1616 4750 1894 4750 
Q 2613 4750 3031 4423 
Q 3450 4097 3450 3541 
Q 3450 3153 3228 2886 
Q 3006 2619 2597 2516 
z
" transform="scale(0.015625)"/>
     </defs>
     <use xlink:href="#DejaVuSans-30"/>
     <use xlink:href="#DejaVuSans-2e" transform="translate(63.623047 0)"/>
     <use xlink:href="#DejaVuSans-33" transform="translate(95.410156 0)"/>
     <use xlink:href="#DejaVuSans-33" transform="translate(159.033203 0)"/>
    </g>
   </g>
   <g id="text_13">
    <!-- 0.67 -->
    <g style="fill: #ff0000" transform="translate(40.069665 105.276517) scale(0.15 -0.15)">
     <defs>
      <path id="DejaVuSans-37" d="M 525 4666 
L 3525 4666 
L 3525 4397 
L 1831 0 
L 1172 0 
L 2766 4134 
L 525 4134 
L 525 4666 
z
" transform="scale(0.015625)"/>
     </defs>
     <use xlink:href="#DejaVuSans-30"/>
     <use xlink:href="#DejaVuSans-2e" transform="translate(63.623047 0)"/>
     <use xlink:href="#DejaVuSans-36" transform="translate(95.410156 0)"/>
     <use xlink:href="#DejaVuSans-37" transform="translate(159.033203 0)"/>
    </g>
   </g>
   <g id="legend_1">
    <g id="patch_7">
     <path d="M 84.75625 149.498437 
L 193.50625 149.498437 
Q 196.50625 149.498437 196.50625 146.498437 
L 196.50625 25.298437 
Q 196.50625 22.298437 193.50625 22.298437 
L 84.75625 22.298437 
Q 81.75625 22.298437 81.75625 25.298437 
L 81.75625 146.498437 
Q 81.75625 149.498437 84.75625 149.498437 
z
" style="fill: #ffffff; opacity: 0.8; stroke: #cccccc; stroke-linejoin: miter"/>
    </g>
    <g id="line2d_33">
     <path d="M 87.75625 36.473437 
L 102.75625 36.473437 
L 117.75625 36.473437 
" style="fill: none; stroke: #ff0000; stroke-opacity: 0.8; stroke-width: 3.5; stroke-linecap: square"/>
    </g>
    <g id="text_14">
     <!-- MCMC -->
     <g transform="translate(129.75625 44.648437) scale(0.15 -0.15)">
      <defs>
       <path id="DejaVuSans-4d" d="M 628 4666 
L 1569 4666 
L 2759 1491 
L 3956 4666 
L 4897 4666 
L 4897 0 
L 4281 0 
L 4281 4097 
L 3078 897 
L 2444 897 
L 1241 4097 
L 1241 0 
L 628 0 
L 628 4666 
z
" transform="scale(0.015625)"/>
       <path id="DejaVuSans-43" d="M 4122 4306 
L 4122 3641 
Q 3803 3938 3442 4084 
Q 3081 4231 2675 4231 
Q 1875 4231 1450 3742 
Q 1025 3253 1025 2328 
Q 1025 1406 1450 917 
Q 1875 428 2675 428 
Q 3081 428 3442 575 
Q 3803 722 4122 1019 
L 4122 359 
Q 3791 134 3420 21 
Q 3050 -91 2638 -91 
Q 1578 -91 968 557 
Q 359 1206 359 2328 
Q 359 3453 968 4101 
Q 1578 4750 2638 4750 
Q 3056 4750 3426 4639 
Q 3797 4528 4122 4306 
z
" transform="scale(0.015625)"/>
      </defs>
      <use xlink:href="#DejaVuSans-4d"/>
      <use xlink:href="#DejaVuSans-43" transform="translate(86.279297 0)"/>
      <use xlink:href="#DejaVuSans-4d" transform="translate(156.103516 0)"/>
      <use xlink:href="#DejaVuSans-43" transform="translate(242.382812 0)"/>
     </g>
    </g>
    <g id="PathCollection_4">
     <g>
      <use xlink:href="#mdadb91ffc5" x="102.75625" y="66.632812" style="fill: #ff0000; stroke: #ff0000"/>
     </g>
    </g>
    <g id="text_15">
     <!-- $\lambda = $0.01 -->
     <g transform="translate(129.75625 75.323437) scale(0.15 -0.15)">
      <defs>
       <path id="DejaVuSans-Oblique-3bb" d="M 2350 4316 
L 3125 0 
L 2516 0 
L 2038 2588 
L 328 0 
L -281 0 
L 1903 3356 
L 1794 3975 
Q 1725 4369 1391 4369 
L 1091 4369 
L 1184 4863 
L 1550 4856 
Q 2253 4847 2350 4316 
z
" transform="scale(0.015625)"/>
       <path id="DejaVuSans-3d" d="M 678 2906 
L 4684 2906 
L 4684 2381 
L 678 2381 
L 678 2906 
z
M 678 1631 
L 4684 1631 
L 4684 1100 
L 678 1100 
L 678 1631 
z
" transform="scale(0.015625)"/>
      </defs>
      <use xlink:href="#DejaVuSans-Oblique-3bb" transform="translate(0 0.015625)"/>
      <use xlink:href="#DejaVuSans-3d" transform="translate(78.662109 0.015625)"/>
      <use xlink:href="#DejaVuSans-30" transform="translate(181.933594 0.015625)"/>
      <use xlink:href="#DejaVuSans-2e" transform="translate(245.556641 0.015625)"/>
      <use xlink:href="#DejaVuSans-30" transform="translate(277.34375 0.015625)"/>
      <use xlink:href="#DejaVuSans-31" transform="translate(340.966797 0.015625)"/>
     </g>
    </g>
    <g id="PathCollection_5">
     <g>
      <use xlink:href="#m8a007841a2" x="102.75625" y="97.307812" style="fill: #008000; stroke: #008000"/>
     </g>
    </g>
    <g id="text_16">
     <!-- $\lambda = $0.10 -->
     <g transform="translate(129.75625 105.998437) scale(0.15 -0.15)">
      <use xlink:href="#DejaVuSans-Oblique-3bb" transform="translate(0 0.015625)"/>
      <use xlink:href="#DejaVuSans-3d" transform="translate(78.662109 0.015625)"/>
      <use xlink:href="#DejaVuSans-30" transform="translate(181.933594 0.015625)"/>
      <use xlink:href="#DejaVuSans-2e" transform="translate(245.556641 0.015625)"/>
      <use xlink:href="#DejaVuSans-31" transform="translate(277.34375 0.015625)"/>
      <use xlink:href="#DejaVuSans-30" transform="translate(340.966797 0.015625)"/>
     </g>
    </g>
    <g id="PathCollection_6">
     <g>
      <use xlink:href="#m009edc6858" x="102.75625" y="127.982812" style="fill: #0000ff; stroke: #0000ff"/>
     </g>
    </g>
    <g id="text_17">
     <!-- $\lambda = $0.80 -->
     <g transform="translate(129.75625 136.673437) scale(0.15 -0.15)">
      <use xlink:href="#DejaVuSans-Oblique-3bb" transform="translate(0 0.015625)"/>
      <use xlink:href="#DejaVuSans-3d" transform="translate(78.662109 0.015625)"/>
      <use xlink:href="#DejaVuSans-30" transform="translate(181.933594 0.015625)"/>
      <use xlink:href="#DejaVuSans-2e" transform="translate(245.556641 0.015625)"/>
      <use xlink:href="#DejaVuSans-38" transform="translate(274.71875 0.015625)"/>
      <use xlink:href="#DejaVuSans-30" transform="translate(338.341797 0.015625)"/>
     </g>
    </g>
   </g>
  </g>
 </g>
 <defs>
  <clipPath id="p7b97ce5ad7">
   <rect x="74.25625" y="14.798437" width="357.12" height="266.112"/>
  </clipPath>
 </defs>
</svg>
