<?xml version="1.0" encoding="utf-8" standalone="no"?>
<!DOCTYPE svg PUBLIC "-//W3C//DTD SVG 1.1//EN"
  "http://www.w3.org/Graphics/SVG/1.1/DTD/svg11.dtd">
<svg xmlns:xlink="http://www.w3.org/1999/xlink" width="447.8pt" height="402.894688pt" viewBox="0 0 447.8 402.894688" xmlns="http://www.w3.org/2000/svg" version="1.1">
 <metadata>
  <rdf:RDF xmlns:dc="http://purl.org/dc/elements/1.1/" xmlns:cc="http://creativecommons.org/ns#" xmlns:rdf="http://www.w3.org/1999/02/22-rdf-syntax-ns#">
   <cc:Work>
    <dc:type rdf:resource="http://purl.org/dc/dcmitype/StillImage"/>
    <dc:date>2025-05-19T13:30:07.801748</dc:date>
    <dc:format>image/svg+xml</dc:format>
    <dc:creator>
     <cc:Agent>
      <dc:title>Matplotlib v3.10.1, https://matplotlib.org/</dc:title>
     </cc:Agent>
    </dc:creator>
   </cc:Work>
  </rdf:RDF>
 </metadata>
 <defs>
  <style type="text/css">*{stroke-linejoin: round; stroke-linecap: butt}</style>
 </defs>
 <g id="figure_1">
  <g id="patch_1">
   <path d="M 0 402.894688 
L 447.8 402.894688 
L 447.8 0 
L 0 0 
z
" style="fill: #ffffff"/>
  </g>
  <g id="axes_1">
   <g id="patch_2">
    <path d="M 88.2 347.438438 
L 423 347.438438 
L 423 14.798437 
L 88.2 14.798437 
z
" style="fill: #ffffff"/>
   </g>
   <g id="QuadContourSet_1">
    <path clip-path="url(#pf04044a9b8)" style="fill: #460a5d"/>
    <path clip-path="url(#pf04044a9b8)" style="fill: #481d6f"/>
    <path clip-path="url(#pf04044a9b8)" style="fill: #472e7c"/>
    <path d="M 93.514287 347.438438 
L 98.82857 347.438438 
L 104.142859 347.438438 
L 107.910158 347.438438 
L 104.16759 342.158436 
L 104.142859 342.124935 
L 101.602577 336.878439 
L 98.82857 333.477116 
L 96.840197 331.598435 
L 93.514287 328.699636 
L 89.8009 326.318437 
L 88.2 325.321097 
L 88.2 326.318437 
L 88.2 331.598435 
L 88.2 336.878439 
L 88.2 342.158436 
L 88.2 347.438438 
z
" clip-path="url(#pf04044a9b8)" style="fill: #423f85"/>
    <path d="M 109.457144 347.438438 
L 114.771427 347.438438 
L 120.085714 347.438438 
L 125.399997 347.438438 
L 130.714283 347.438438 
L 136.028569 347.438438 
L 141.342855 347.438438 
L 146.657141 347.438438 
L 148.35428 347.438438 
L 147.412962 342.158436 
L 146.657141 338.746315 
L 146.041485 336.878439 
L 142.831242 331.598435 
L 141.342855 327.741306 
L 140.323975 326.318437 
L 136.349961 321.038439 
L 136.028569 320.543396 
L 132.311829 315.758438 
L 130.714283 314.540087 
L 125.399997 311.089555 
L 124.598796 310.478441 
L 120.085714 307.021651 
L 115.997604 305.19844 
L 114.771427 304.742276 
L 109.457144 302.202046 
L 104.142859 300.519047 
L 102.205858 299.91844 
L 98.82857 298.972741 
L 93.514287 297.913587 
L 88.2 296.280425 
L 88.2 299.91844 
L 88.2 305.19844 
L 88.2 310.478441 
L 88.2 315.758438 
L 88.2 321.038439 
L 88.2 325.321097 
L 89.8009 326.318437 
L 93.514287 328.699636 
L 96.840197 331.598435 
L 98.82857 333.477116 
L 101.602577 336.878439 
L 104.142859 342.124935 
L 104.16759 342.158436 
L 107.910158 347.438438 
z
" clip-path="url(#pf04044a9b8)" style="fill: #3d4e8a"/>
    <path d="M 151.971429 347.438438 
L 157.28573 347.438438 
L 162.599996 347.438438 
L 167.914302 347.438438 
L 172.16173 347.438438 
L 171.414219 342.158436 
L 170.407145 336.878439 
L 168.651725 331.598435 
L 167.914302 327.7665 
L 167.678511 326.318437 
L 165.835956 321.038439 
L 162.725906 315.758438 
L 162.599996 315.449144 
L 160.320826 310.478441 
L 157.28573 307.509477 
L 154.85796 305.19844 
L 151.971429 302.748296 
L 148.536681 299.91844 
L 146.657141 298.472067 
L 141.528827 294.638439 
L 141.342855 294.537254 
L 136.028569 292.42735 
L 130.714283 289.995368 
L 128.39866 289.358439 
L 125.399997 288.614815 
L 120.085714 286.76502 
L 114.771427 285.28611 
L 112.154213 284.078437 
L 109.457144 283.009998 
L 104.142859 282.610558 
L 98.82857 281.662142 
L 93.514287 280.843232 
L 88.2 280.167323 
L 88.2 284.078437 
L 88.2 289.358439 
L 88.2 294.638439 
L 88.2 296.280425 
L 93.514287 297.913587 
L 98.82857 298.972741 
L 102.205858 299.91844 
L 104.142859 300.519047 
L 109.457144 302.202046 
L 114.771427 304.742276 
L 115.997604 305.19844 
L 120.085714 307.021651 
L 124.598796 310.478441 
L 125.399997 311.089555 
L 130.714283 314.540087 
L 132.311829 315.758438 
L 136.028569 320.543396 
L 136.349961 321.038439 
L 140.323975 326.318437 
L 141.342855 327.741306 
L 142.831242 331.598435 
L 146.041485 336.878439 
L 146.657141 338.746315 
L 147.412962 342.158436 
L 148.35428 347.438438 
z
" clip-path="url(#pf04044a9b8)" style="fill: #365d8d"/>
    <path d="M 173.228567 347.438438 
L 178.542872 347.438438 
L 183.857135 347.438438 
L 189.171443 347.438438 
L 190.654481 347.438438 
L 190.203656 342.158436 
L 189.53972 336.878439 
L 189.171443 335.007642 
L 188.586081 331.598435 
L 187.638397 326.318437 
L 185.874632 321.038439 
L 184.691262 315.758438 
L 183.857135 314.056053 
L 182.117824 310.478441 
L 179.622221 305.19844 
L 178.542872 303.746487 
L 175.593896 299.91844 
L 173.228567 296.667156 
L 171.148944 294.638439 
L 167.914302 291.915523 
L 164.503898 289.358439 
L 162.599996 288.252608 
L 157.38181 284.078437 
L 157.28573 284.017442 
L 151.971429 282.318235 
L 146.657141 279.794101 
L 144.192575 278.798422 
L 141.342855 277.774301 
L 136.028569 276.549808 
L 130.714283 275.128147 
L 125.399997 273.795584 
L 124.486294 273.518441 
L 120.085714 272.365316 
L 114.771427 271.36689 
L 109.457144 269.95601 
L 104.142859 269.310678 
L 98.82857 268.88262 
L 93.514287 268.348343 
L 93.191866 268.238422 
L 88.2 266.630418 
L 88.2 268.238422 
L 88.2 273.518441 
L 88.2 278.798422 
L 88.2 280.167323 
L 93.514287 280.843232 
L 98.82857 281.662142 
L 104.142859 282.610558 
L 109.457144 283.009998 
L 112.154213 284.078437 
L 114.771427 285.28611 
L 120.085714 286.76502 
L 125.399997 288.614815 
L 128.39866 289.358439 
L 130.714283 289.995368 
L 136.028569 292.42735 
L 141.342855 294.537254 
L 141.528827 294.638439 
L 146.657141 298.472067 
L 148.536681 299.91844 
L 151.971429 302.748296 
L 154.85796 305.19844 
L 157.28573 307.509477 
L 160.320826 310.478441 
L 162.599996 315.449144 
L 162.725906 315.758438 
L 165.835956 321.038439 
L 167.678511 326.318437 
L 167.914302 327.7665 
L 168.651725 331.598435 
L 170.407145 336.878439 
L 171.414219 342.158436 
L 172.16173 347.438438 
z
" clip-path="url(#pf04044a9b8)" style="fill: #306a8e"/>
    <path d="M 194.485707 347.438438 
L 199.800012 347.438438 
L 205.114279 347.438438 
L 206.856805 347.438438 
L 205.983034 342.158436 
L 205.709752 336.878439 
L 205.37028 331.598435 
L 205.114279 330.451804 
L 204.17448 326.318437 
L 203.450421 321.038439 
L 202.334968 315.758438 
L 200.65395 310.478441 
L 199.800012 308.179069 
L 198.535821 305.19844 
L 196.166703 299.91844 
L 194.485707 296.922297 
L 193.291626 294.638439 
L 189.171443 290.127145 
L 188.500809 289.358439 
L 183.857135 284.591956 
L 183.190029 284.078437 
L 178.542872 280.19057 
L 176.453263 278.798422 
L 173.228567 277.076223 
L 167.914302 273.964312 
L 166.759374 273.518441 
L 162.599996 272.082815 
L 157.28573 269.321003 
L 153.580165 268.238422 
L 151.971429 267.829038 
L 146.657141 266.074544 
L 141.342855 264.788694 
L 136.028569 263.012874 
L 135.778737 262.958442 
L 130.714283 262.015261 
L 125.399997 261.128645 
L 120.085714 260.248233 
L 114.771427 259.098976 
L 109.457144 258.216033 
L 105.37501 257.678423 
L 104.142859 257.512948 
L 98.82857 257.001379 
L 93.514287 256.18657 
L 88.2 255.690685 
L 88.2 257.678423 
L 88.2 262.958442 
L 88.2 266.630418 
L 93.191866 268.238422 
L 93.514287 268.348343 
L 98.82857 268.88262 
L 104.142859 269.310678 
L 109.457144 269.95601 
L 114.771427 271.36689 
L 120.085714 272.365316 
L 124.486294 273.518441 
L 125.399997 273.795584 
L 130.714283 275.128147 
L 136.028569 276.549808 
L 141.342855 277.774301 
L 144.192575 278.798422 
L 146.657141 279.794101 
L 151.971429 282.318235 
L 157.28573 284.017442 
L 157.38181 284.078437 
L 162.599996 288.252608 
L 164.503898 289.358439 
L 167.914302 291.915523 
L 171.148944 294.638439 
L 173.228567 296.667156 
L 175.593896 299.91844 
L 178.542872 303.746487 
L 179.622221 305.19844 
L 182.117824 310.478441 
L 183.857135 314.056053 
L 184.691262 315.758438 
L 185.874632 321.038439 
L 187.638397 326.318437 
L 188.586081 331.598435 
L 189.171443 335.007642 
L 189.53972 336.878439 
L 190.203656 342.158436 
L 190.654481 347.438438 
z
" clip-path="url(#pf04044a9b8)" style="fill: #2a778e"/>
    <path d="M 210.428586 347.438438 
L 215.742872 347.438438 
L 220.963772 347.438438 
L 220.893442 342.158436 
L 220.635173 336.878439 
L 220.278745 331.598435 
L 219.499275 326.318437 
L 218.706652 321.038439 
L 217.752417 315.758438 
L 216.996283 310.478441 
L 215.742872 306.22861 
L 215.45715 305.19844 
L 213.936466 299.91844 
L 211.693973 294.638439 
L 210.428586 292.368444 
L 208.460164 289.358439 
L 205.131327 284.078437 
L 205.114279 284.05487 
L 200.528028 278.798422 
L 199.800012 278.205864 
L 194.485707 273.596456 
L 194.388456 273.518441 
L 189.171443 269.830064 
L 185.817545 268.238422 
L 183.857135 267.336641 
L 178.542872 264.422799 
L 174.916612 262.958442 
L 173.228567 262.242093 
L 167.914302 259.925897 
L 162.599996 258.040972 
L 161.295746 257.678423 
L 157.28573 256.46854 
L 151.971429 254.60234 
L 146.657141 253.606399 
L 142.394411 252.398445 
L 141.342855 252.095849 
L 136.028569 251.473833 
L 130.714283 250.318539 
L 125.399997 249.402311 
L 120.085714 248.540302 
L 114.771427 247.682094 
L 111.151836 247.118424 
L 109.457144 246.875188 
L 104.142859 246.616743 
L 98.82857 245.486312 
L 93.514287 245.434023 
L 88.2 244.806845 
L 88.2 247.118424 
L 88.2 252.398445 
L 88.2 255.690685 
L 93.514287 256.18657 
L 98.82857 257.001379 
L 104.142859 257.512948 
L 105.37501 257.678423 
L 109.457144 258.216033 
L 114.771427 259.098976 
L 120.085714 260.248233 
L 125.399997 261.128645 
L 130.714283 262.015261 
L 135.778737 262.958442 
L 136.028569 263.012874 
L 141.342855 264.788694 
L 146.657141 266.074544 
L 151.971429 267.829038 
L 153.580165 268.238422 
L 157.28573 269.321003 
L 162.599996 272.082815 
L 166.759374 273.518441 
L 167.914302 273.964312 
L 173.228567 277.076223 
L 176.453263 278.798422 
L 178.542872 280.19057 
L 183.190029 284.078437 
L 183.857135 284.591956 
L 188.500809 289.358439 
L 189.171443 290.127145 
L 193.291626 294.638439 
L 194.485707 296.922297 
L 196.166703 299.91844 
L 198.535821 305.19844 
L 199.800012 308.179069 
L 200.65395 310.478441 
L 202.334968 315.758438 
L 203.450421 321.038439 
L 204.17448 326.318437 
L 205.114279 330.451804 
L 205.37028 331.598435 
L 205.709752 336.878439 
L 205.983034 342.158436 
L 206.856805 347.438438 
z
" clip-path="url(#pf04044a9b8)" style="fill: #25838e"/>
    <path d="M 221.057154 347.438438 
L 226.371443 347.438438 
L 231.685726 347.438438 
L 235.114663 347.438438 
L 234.882774 342.158436 
L 234.616195 336.878439 
L 234.139595 331.598435 
L 234.006885 326.318437 
L 233.439774 321.038439 
L 232.935537 315.758438 
L 232.036667 310.478441 
L 231.685726 308.39642 
L 231.097058 305.19844 
L 230.054536 299.91844 
L 228.202044 294.638439 
L 226.371443 289.619813 
L 226.251673 289.358439 
L 223.659433 284.078437 
L 221.057154 279.546178 
L 220.46727 278.798422 
L 216.620769 273.518441 
L 215.742872 272.57365 
L 210.428586 268.667276 
L 209.93511 268.238422 
L 205.114279 263.325745 
L 204.575299 262.958442 
L 199.800012 260.253187 
L 194.485707 257.810444 
L 194.252236 257.678423 
L 189.171443 254.685581 
L 183.857135 252.843161 
L 183.046124 252.398445 
L 178.542872 249.972914 
L 173.228567 248.520461 
L 168.494129 247.118424 
L 167.914302 246.930622 
L 162.599996 245.717789 
L 157.28573 244.088634 
L 151.971429 242.74822 
L 148.11173 241.838445 
L 146.657141 241.512189 
L 141.342855 240.780749 
L 136.028569 239.415739 
L 130.714283 238.573537 
L 125.399997 237.652308 
L 120.085714 237.198402 
L 116.711685 236.558426 
L 114.771427 235.959114 
L 109.457144 234.922498 
L 104.142859 233.715082 
L 98.82857 232.351441 
L 93.538625 231.278444 
L 93.514287 231.272656 
L 88.2 229.881983 
L 88.2 231.278444 
L 88.2 236.558426 
L 88.2 241.838445 
L 88.2 244.806845 
L 93.514287 245.434023 
L 98.82857 245.486312 
L 104.142859 246.616743 
L 109.457144 246.875188 
L 111.151836 247.118424 
L 114.771427 247.682094 
L 120.085714 248.540302 
L 125.399997 249.402311 
L 130.714283 250.318539 
L 136.028569 251.473833 
L 141.342855 252.095849 
L 142.394411 252.398445 
L 146.657141 253.606399 
L 151.971429 254.60234 
L 157.28573 256.46854 
L 161.295746 257.678423 
L 162.599996 258.040972 
L 167.914302 259.925897 
L 173.228567 262.242093 
L 174.916612 262.958442 
L 178.542872 264.422799 
L 183.857135 267.336641 
L 185.817545 268.238422 
L 189.171443 269.830064 
L 194.388456 273.518441 
L 194.485707 273.596456 
L 199.800012 278.205864 
L 200.528028 278.798422 
L 205.114279 284.05487 
L 205.131327 284.078437 
L 208.460164 289.358439 
L 210.428586 292.368444 
L 211.693973 294.638439 
L 213.936466 299.91844 
L 215.45715 305.19844 
L 215.742872 306.22861 
L 216.996283 310.478441 
L 217.752417 315.758438 
L 218.706652 321.038439 
L 219.499275 326.318437 
L 220.278745 331.598435 
L 220.635173 336.878439 
L 220.893442 342.158436 
L 220.963772 347.438438 
z
" clip-path="url(#pf04044a9b8)" style="fill: #21918c"/>
    <path d="M 237.000013 347.438438 
L 242.314298 347.438438 
L 247.628582 347.438438 
L 248.89928 347.438438 
L 248.676723 342.158436 
L 248.578644 336.878439 
L 248.655928 331.598435 
L 247.892861 326.318437 
L 247.628582 323.590087 
L 247.4042 321.038439 
L 247.113658 315.758438 
L 246.460945 310.478441 
L 245.832941 305.19844 
L 244.751159 299.91844 
L 244.035761 294.638439 
L 242.340686 289.358439 
L 242.314298 289.288181 
L 240.542685 284.078437 
L 238.294918 278.798422 
L 237.000013 276.292711 
L 235.397818 273.518441 
L 231.860589 268.238422 
L 231.685726 268.041939 
L 226.851681 262.958442 
L 226.371443 262.429658 
L 221.805111 257.678423 
L 221.057154 257.097816 
L 215.742872 253.384535 
L 214.194815 252.398445 
L 210.428586 250.182163 
L 205.114279 247.346576 
L 204.649193 247.118424 
L 199.800012 244.549402 
L 194.485707 242.635234 
L 192.669925 241.838445 
L 189.171443 240.265608 
L 183.857135 238.209362 
L 178.542872 237.063682 
L 177.210145 236.558426 
L 173.228567 234.810612 
L 167.914302 233.711511 
L 162.599996 232.035472 
L 160.279846 231.278444 
L 157.28573 229.637008 
L 151.971429 226.686376 
L 149.832373 225.998423 
L 146.657141 224.541003 
L 141.664659 220.718422 
L 141.342855 220.535928 
L 136.028569 218.454864 
L 130.714283 215.859573 
L 129.9136 215.438426 
L 125.399997 212.64823 
L 120.085714 210.722727 
L 118.74866 210.158424 
L 114.771427 208.50669 
L 109.457144 206.61639 
L 104.142859 205.21942 
L 102.976069 204.878426 
L 98.82857 203.611406 
L 93.514287 201.999769 
L 88.2 200.652343 
L 88.2 204.878426 
L 88.2 210.158424 
L 88.2 215.438426 
L 88.2 220.718422 
L 88.2 225.998423 
L 88.2 229.881983 
L 93.514287 231.272656 
L 93.538625 231.278444 
L 98.82857 232.351441 
L 104.142859 233.715082 
L 109.457144 234.922498 
L 114.771427 235.959114 
L 116.711685 236.558426 
L 120.085714 237.198402 
L 125.399997 237.652308 
L 130.714283 238.573537 
L 136.028569 239.415739 
L 141.342855 240.780749 
L 146.657141 241.512189 
L 148.11173 241.838445 
L 151.971429 242.74822 
L 157.28573 244.088634 
L 162.599996 245.717789 
L 167.914302 246.930622 
L 168.494129 247.118424 
L 173.228567 248.520461 
L 178.542872 249.972914 
L 183.046124 252.398445 
L 183.857135 252.843161 
L 189.171443 254.685581 
L 194.252236 257.678423 
L 194.485707 257.810444 
L 199.800012 260.253187 
L 204.575299 262.958442 
L 205.114279 263.325745 
L 209.93511 268.238422 
L 210.428586 268.667276 
L 215.742872 272.57365 
L 216.620769 273.518441 
L 220.46727 278.798422 
L 221.057154 279.546178 
L 223.659433 284.078437 
L 226.251673 289.358439 
L 226.371443 289.619813 
L 228.202044 294.638439 
L 230.054536 299.91844 
L 231.097058 305.19844 
L 231.685726 308.39642 
L 232.036667 310.478441 
L 232.935537 315.758438 
L 233.439774 321.038439 
L 234.006885 326.318437 
L 234.139595 331.598435 
L 234.616195 336.878439 
L 234.882774 342.158436 
L 235.114663 347.438438 
z
" clip-path="url(#pf04044a9b8)" style="fill: #1e9d89"/>
    <path d="M 252.942868 347.438438 
L 258.257135 347.438438 
L 263.132924 347.438438 
L 263.280818 342.158436 
L 262.896412 336.878439 
L 262.891845 331.598435 
L 262.699321 326.318437 
L 262.440451 321.038439 
L 261.911456 315.758438 
L 261.882123 310.478441 
L 261.184884 305.19844 
L 260.265288 299.91844 
L 259.651036 294.638439 
L 258.41651 289.358439 
L 258.257135 288.415011 
L 257.521354 284.078437 
L 255.536482 278.798422 
L 253.37286 273.518441 
L 252.942868 272.705304 
L 250.761428 268.238422 
L 247.705969 262.958442 
L 247.628582 262.842442 
L 243.815037 257.678423 
L 242.314298 256.198844 
L 238.577331 252.398445 
L 237.000013 250.937539 
L 232.843031 247.118424 
L 231.685726 246.129223 
L 226.371443 242.53494 
L 225.523319 241.838445 
L 221.057154 239.210035 
L 215.742872 236.597492 
L 215.651335 236.558426 
L 210.428586 233.915619 
L 205.365759 231.278444 
L 205.114279 231.169233 
L 199.800012 229.162576 
L 194.485707 226.724699 
L 192.995724 225.998423 
L 189.171443 222.53096 
L 187.377758 220.718422 
L 183.857135 217.286997 
L 181.863806 215.438426 
L 178.542872 211.767858 
L 176.751645 210.158424 
L 173.228567 207.210833 
L 170.763278 204.878426 
L 167.914302 201.986777 
L 164.487671 199.598424 
L 162.599996 198.162489 
L 157.97038 194.318425 
L 157.28573 193.859682 
L 151.971429 190.790627 
L 149.543918 189.038427 
L 146.657141 187.322643 
L 141.342855 184.559003 
L 139.785289 183.758427 
L 136.028569 182.116063 
L 130.714283 179.269941 
L 128.956358 178.478445 
L 125.399997 176.994272 
L 120.085714 174.830136 
L 115.402137 173.198448 
L 114.771427 172.936618 
L 109.457144 171.215791 
L 104.142859 169.240054 
L 99.950504 167.918447 
L 98.82857 167.446743 
L 93.514287 165.399337 
L 88.2 164.701539 
L 88.2 167.918447 
L 88.2 173.198448 
L 88.2 178.478445 
L 88.2 183.758427 
L 88.2 189.038427 
L 88.2 194.318425 
L 88.2 199.598424 
L 88.2 200.652343 
L 93.514287 201.999769 
L 98.82857 203.611406 
L 102.976069 204.878426 
L 104.142859 205.21942 
L 109.457144 206.61639 
L 114.771427 208.50669 
L 118.74866 210.158424 
L 120.085714 210.722727 
L 125.399997 212.64823 
L 129.9136 215.438426 
L 130.714283 215.859573 
L 136.028569 218.454864 
L 141.342855 220.535928 
L 141.664659 220.718422 
L 146.657141 224.541003 
L 149.832373 225.998423 
L 151.971429 226.686376 
L 157.28573 229.637008 
L 160.279846 231.278444 
L 162.599996 232.035472 
L 167.914302 233.711511 
L 173.228567 234.810612 
L 177.210145 236.558426 
L 178.542872 237.063682 
L 183.857135 238.209362 
L 189.171443 240.265608 
L 192.669925 241.838445 
L 194.485707 242.635234 
L 199.800012 244.549402 
L 204.649193 247.118424 
L 205.114279 247.346576 
L 210.428586 250.182163 
L 214.194815 252.398445 
L 215.742872 253.384535 
L 221.057154 257.097816 
L 221.805111 257.678423 
L 226.371443 262.429658 
L 226.851681 262.958442 
L 231.685726 268.041939 
L 231.860589 268.238422 
L 235.397818 273.518441 
L 237.000013 276.292711 
L 238.294918 278.798422 
L 240.542685 284.078437 
L 242.314298 289.288181 
L 242.340686 289.358439 
L 244.035761 294.638439 
L 244.751159 299.91844 
L 245.832941 305.19844 
L 246.460945 310.478441 
L 247.113658 315.758438 
L 247.4042 321.038439 
L 247.628582 323.590087 
L 247.892861 326.318437 
L 248.655928 331.598435 
L 248.578644 336.878439 
L 248.676723 342.158436 
L 248.89928 347.438438 
z
" clip-path="url(#pf04044a9b8)" style="fill: #23a983"/>
    <path d="M 263.571418 347.438438 
L 268.885704 347.438438 
L 274.199992 347.438438 
L 278.754462 347.438438 
L 278.694255 342.158436 
L 278.420982 336.878439 
L 278.310479 331.598435 
L 278.137366 326.318437 
L 277.973565 321.038439 
L 277.749551 315.758438 
L 277.23602 310.478441 
L 277.027966 305.19844 
L 276.652808 299.91844 
L 275.937942 294.638439 
L 275.245125 289.358439 
L 274.298934 284.078437 
L 274.199992 283.710737 
L 272.875823 278.798422 
L 271.900345 273.518441 
L 269.373879 268.238422 
L 268.885704 266.846802 
L 267.623934 262.958442 
L 264.06254 257.678423 
L 263.571418 256.822221 
L 261.15731 252.398445 
L 258.257135 248.336157 
L 257.292741 247.118424 
L 252.942868 242.761348 
L 251.927659 241.838445 
L 247.628582 238.30503 
L 245.465049 236.558426 
L 242.314298 233.97717 
L 238.141729 231.278444 
L 237.000013 230.540471 
L 231.685726 226.888336 
L 229.604317 225.998423 
L 226.371443 224.427039 
L 221.057154 220.962293 
L 220.736988 220.718422 
L 217.720885 215.438426 
L 215.742872 211.677857 
L 214.854091 210.158424 
L 211.962595 204.878426 
L 210.428586 202.611016 
L 208.101628 199.598424 
L 205.114279 195.694221 
L 203.999203 194.318425 
L 200.386072 189.038427 
L 199.800012 188.233002 
L 196.373169 183.758427 
L 194.485707 181.260059 
L 192.498868 178.478445 
L 189.171443 175.208551 
L 186.693238 173.198448 
L 183.857135 170.527505 
L 181.286702 167.918447 
L 178.542872 164.693587 
L 175.821784 162.638446 
L 173.228567 160.583609 
L 169.683543 157.358448 
L 167.914302 155.785858 
L 162.599996 152.167477 
L 162.488952 152.078451 
L 157.28573 147.369186 
L 156.092308 146.798449 
L 151.971429 144.588318 
L 148.234326 141.51845 
L 146.657141 140.571793 
L 141.342855 138.779606 
L 136.028569 136.240428 
L 136.023176 136.238442 
L 130.714283 135.03048 
L 125.399997 134.058071 
L 120.085714 132.852735 
L 114.771427 132.148912 
L 109.457144 131.637012 
L 105.888102 130.958438 
L 104.142859 130.623984 
L 98.82857 129.607316 
L 93.514287 129.308082 
L 88.2 128.405734 
L 88.2 130.958438 
L 88.2 136.238442 
L 88.2 141.51845 
L 88.2 146.798449 
L 88.2 152.078451 
L 88.2 157.358448 
L 88.2 162.638446 
L 88.2 164.701539 
L 93.514287 165.399337 
L 98.82857 167.446743 
L 99.950504 167.918447 
L 104.142859 169.240054 
L 109.457144 171.215791 
L 114.771427 172.936618 
L 115.402137 173.198448 
L 120.085714 174.830136 
L 125.399997 176.994272 
L 128.956358 178.478445 
L 130.714283 179.269941 
L 136.028569 182.116063 
L 139.785289 183.758427 
L 141.342855 184.559003 
L 146.657141 187.322643 
L 149.543918 189.038427 
L 151.971429 190.790627 
L 157.28573 193.859682 
L 157.97038 194.318425 
L 162.599996 198.162489 
L 164.487671 199.598424 
L 167.914302 201.986777 
L 170.763278 204.878426 
L 173.228567 207.210833 
L 176.751645 210.158424 
L 178.542872 211.767858 
L 181.863806 215.438426 
L 183.857135 217.286997 
L 187.377758 220.718422 
L 189.171443 222.53096 
L 192.995724 225.998423 
L 194.485707 226.724699 
L 199.800012 229.162576 
L 205.114279 231.169233 
L 205.365759 231.278444 
L 210.428586 233.915619 
L 215.651335 236.558426 
L 215.742872 236.597492 
L 221.057154 239.210035 
L 225.523319 241.838445 
L 226.371443 242.53494 
L 231.685726 246.129223 
L 232.843031 247.118424 
L 237.000013 250.937539 
L 238.577331 252.398445 
L 242.314298 256.198844 
L 243.815037 257.678423 
L 247.628582 262.842442 
L 247.705969 262.958442 
L 250.761428 268.238422 
L 252.942868 272.705304 
L 253.37286 273.518441 
L 255.536482 278.798422 
L 257.521354 284.078437 
L 258.257135 288.415011 
L 258.41651 289.358439 
L 259.651036 294.638439 
L 260.265288 299.91844 
L 261.184884 305.19844 
L 261.882123 310.478441 
L 261.911456 315.758438 
L 262.440451 321.038439 
L 262.699321 326.318437 
L 262.891845 331.598435 
L 262.896412 336.878439 
L 263.280818 342.158436 
L 263.132924 347.438438 
z
" clip-path="url(#pf04044a9b8)" style="fill: #32b67a"/>
    <path d="M 279.514275 347.438438 
L 284.828558 347.438438 
L 290.142845 347.438438 
L 295.457131 347.438438 
L 295.523962 347.438438 
L 295.527062 342.158436 
L 295.566744 336.878439 
L 295.600987 331.598435 
L 295.457131 329.227739 
L 295.292532 326.318437 
L 295.141862 321.038439 
L 294.90582 315.758438 
L 294.648459 310.478441 
L 294.768337 305.19844 
L 294.180703 299.91844 
L 293.718237 294.638439 
L 293.369887 289.358439 
L 292.482928 284.078437 
L 292.10664 278.798422 
L 290.84786 273.518441 
L 290.142845 270.865829 
L 289.465664 268.238422 
L 287.650931 262.958442 
L 285.695525 257.678423 
L 284.828558 255.73075 
L 283.341892 252.398445 
L 280.619413 247.118424 
L 279.514275 245.320246 
L 277.179806 241.838445 
L 274.199992 238.426449 
L 272.359612 236.558426 
L 268.885704 232.521536 
L 267.760839 231.278444 
L 263.571418 227.41685 
L 261.871629 225.998423 
L 258.257135 223.138735 
L 255.425677 220.718422 
L 252.942868 218.723841 
L 248.86937 215.438426 
L 247.628582 213.533272 
L 245.672995 210.158424 
L 244.169929 204.878426 
L 242.314298 200.541556 
L 241.878458 199.598424 
L 240.16249 194.318425 
L 237.568437 189.038427 
L 237.000013 187.294062 
L 235.811205 183.758427 
L 233.133591 178.478445 
L 231.685726 175.528152 
L 230.511092 173.198448 
L 228.366017 167.918447 
L 226.371443 164.556845 
L 225.034648 162.638446 
L 222.499961 157.358448 
L 221.057154 154.182317 
L 219.761349 152.078451 
L 216.750823 146.798449 
L 215.742872 145.270903 
L 212.625499 141.51845 
L 210.428586 137.244531 
L 209.775101 136.238442 
L 205.114279 132.220303 
L 203.831989 130.958438 
L 199.800012 128.639369 
L 194.485707 126.434904 
L 192.726228 125.678439 
L 189.171443 124.129268 
L 183.857135 122.259904 
L 179.271361 120.398439 
L 178.542872 120.088897 
L 173.228567 118.312331 
L 167.914302 117.31995 
L 162.599996 115.76417 
L 160.505284 115.11844 
L 157.28573 114.078541 
L 151.971429 112.482966 
L 146.657141 111.165762 
L 141.342855 110.466602 
L 138.597279 109.83844 
L 136.028569 109.228333 
L 130.714283 108.133352 
L 125.399997 107.292404 
L 120.085714 106.575362 
L 114.771427 105.060411 
L 109.457144 104.671352 
L 108.493305 104.558439 
L 104.142859 104.079044 
L 98.82857 103.504295 
L 93.514287 102.872006 
L 88.2 102.512344 
L 88.2 104.558439 
L 88.2 109.83844 
L 88.2 115.11844 
L 88.2 120.398439 
L 88.2 125.678439 
L 88.2 128.405734 
L 93.514287 129.308082 
L 98.82857 129.607316 
L 104.142859 130.623984 
L 105.888102 130.958438 
L 109.457144 131.637012 
L 114.771427 132.148912 
L 120.085714 132.852735 
L 125.399997 134.058071 
L 130.714283 135.03048 
L 136.023176 136.238442 
L 136.028569 136.240428 
L 141.342855 138.779606 
L 146.657141 140.571793 
L 148.234326 141.51845 
L 151.971429 144.588318 
L 156.092308 146.798449 
L 157.28573 147.369186 
L 162.488952 152.078451 
L 162.599996 152.167477 
L 167.914302 155.785858 
L 169.683543 157.358448 
L 173.228567 160.583609 
L 175.821784 162.638446 
L 178.542872 164.693587 
L 181.286702 167.918447 
L 183.857135 170.527505 
L 186.693238 173.198448 
L 189.171443 175.208551 
L 192.498868 178.478445 
L 194.485707 181.260059 
L 196.373169 183.758427 
L 199.800012 188.233002 
L 200.386072 189.038427 
L 203.999203 194.318425 
L 205.114279 195.694221 
L 208.101628 199.598424 
L 210.428586 202.611016 
L 211.962595 204.878426 
L 214.854091 210.158424 
L 215.742872 211.677857 
L 217.720885 215.438426 
L 220.736988 220.718422 
L 221.057154 220.962293 
L 226.371443 224.427039 
L 229.604317 225.998423 
L 231.685726 226.888336 
L 237.000013 230.540471 
L 238.141729 231.278444 
L 242.314298 233.97717 
L 245.465049 236.558426 
L 247.628582 238.30503 
L 251.927659 241.838445 
L 252.942868 242.761348 
L 257.292741 247.118424 
L 258.257135 248.336157 
L 261.15731 252.398445 
L 263.571418 256.822221 
L 264.06254 257.678423 
L 267.623934 262.958442 
L 268.885704 266.846802 
L 269.373879 268.238422 
L 271.900345 273.518441 
L 272.875823 278.798422 
L 274.199992 283.710737 
L 274.298934 284.078437 
L 275.245125 289.358439 
L 275.937942 294.638439 
L 276.652808 299.91844 
L 277.027966 305.19844 
L 277.23602 310.478441 
L 277.749551 315.758438 
L 277.973565 321.038439 
L 278.137366 326.318437 
L 278.310479 331.598435 
L 278.420982 336.878439 
L 278.694255 342.158436 
L 278.754462 347.438438 
z
" clip-path="url(#pf04044a9b8)" style="fill: #48c16e"/>
    <path d="M 300.771424 347.438438 
L 306.085713 347.438438 
L 311.399998 347.438438 
L 315.648822 347.438438 
L 315.670672 342.158436 
L 315.643637 336.878439 
L 315.483145 331.598435 
L 315.456273 326.318437 
L 315.363578 321.038439 
L 315.234179 315.758438 
L 314.935823 310.478441 
L 314.895184 305.19844 
L 314.433484 299.91844 
L 314.36111 294.638439 
L 313.902509 289.358439 
L 313.468254 284.078437 
L 312.808915 278.798422 
L 312.01824 273.518441 
L 311.399998 270.392277 
L 311.019433 268.238422 
L 310.005985 262.958442 
L 308.959839 257.678423 
L 307.141668 252.398445 
L 306.085713 249.370515 
L 305.277994 247.118424 
L 302.572207 241.838445 
L 300.771424 238.507219 
L 299.675423 236.558426 
L 296.137416 231.278444 
L 295.457131 230.302552 
L 291.892037 225.998423 
L 290.142845 224.07227 
L 287.249048 220.718422 
L 284.828558 218.24309 
L 281.763559 215.438426 
L 279.514275 213.233787 
L 276.583243 210.158424 
L 274.199992 205.0382 
L 274.128704 204.878426 
L 273.213307 199.598424 
L 271.790175 194.318425 
L 271.040221 189.038427 
L 269.738619 183.758427 
L 268.885704 180.70158 
L 268.280425 178.478445 
L 266.909706 173.198448 
L 265.533281 167.918447 
L 263.937241 162.638446 
L 263.571418 161.174283 
L 262.580583 157.358448 
L 261.213648 152.078451 
L 258.9987 146.798449 
L 258.257135 144.126826 
L 257.621607 141.51845 
L 256.110497 136.238442 
L 254.424311 130.958438 
L 252.942868 128.243402 
L 251.317919 125.678439 
L 247.628582 122.349564 
L 245.070267 120.398439 
L 242.314298 118.214734 
L 237.000013 115.125786 
L 236.98896 115.11844 
L 231.685726 111.212821 
L 229.221569 109.83844 
L 226.371443 108.160006 
L 221.057154 105.383743 
L 219.739213 104.558439 
L 215.742872 102.097197 
L 210.428586 100.018089 
L 208.803468 99.27844 
L 205.114279 97.484904 
L 199.800012 94.839931 
L 197.299938 93.998441 
L 194.485707 93.013771 
L 189.171443 90.843205 
L 183.857135 89.118358 
L 182.672137 88.718441 
L 178.542872 87.300539 
L 173.228567 85.454543 
L 167.914302 84.298675 
L 165.284729 83.438445 
L 162.599996 82.465038 
L 157.28573 81.080598 
L 151.971429 79.783273 
L 146.657141 78.435474 
L 145.171037 78.158445 
L 141.342855 77.276168 
L 136.028569 76.040182 
L 130.714283 74.872649 
L 125.399997 73.695276 
L 120.085714 73.048164 
L 119.236381 72.878439 
L 114.771427 71.841755 
L 109.457144 71.205215 
L 104.142859 70.352109 
L 98.82857 69.308411 
L 93.514287 68.700269 
L 88.2 68.484803 
L 88.2 72.878439 
L 88.2 78.158445 
L 88.2 83.438445 
L 88.2 88.718441 
L 88.2 93.998441 
L 88.2 99.27844 
L 88.2 102.512344 
L 93.514287 102.872006 
L 98.82857 103.504295 
L 104.142859 104.079044 
L 108.493305 104.558439 
L 109.457144 104.671352 
L 114.771427 105.060411 
L 120.085714 106.575362 
L 125.399997 107.292404 
L 130.714283 108.133352 
L 136.028569 109.228333 
L 138.597279 109.83844 
L 141.342855 110.466602 
L 146.657141 111.165762 
L 151.971429 112.482966 
L 157.28573 114.078541 
L 160.505284 115.11844 
L 162.599996 115.76417 
L 167.914302 117.31995 
L 173.228567 118.312331 
L 178.542872 120.088897 
L 179.271361 120.398439 
L 183.857135 122.259904 
L 189.171443 124.129268 
L 192.726228 125.678439 
L 194.485707 126.434904 
L 199.800012 128.639369 
L 203.831989 130.958438 
L 205.114279 132.220303 
L 209.775101 136.238442 
L 210.428586 137.244531 
L 212.625499 141.51845 
L 215.742872 145.270903 
L 216.750823 146.798449 
L 219.761349 152.078451 
L 221.057154 154.182317 
L 222.499961 157.358448 
L 225.034648 162.638446 
L 226.371443 164.556845 
L 228.366017 167.918447 
L 230.511092 173.198448 
L 231.685726 175.528152 
L 233.133591 178.478445 
L 235.811205 183.758427 
L 237.000013 187.294062 
L 237.568437 189.038427 
L 240.16249 194.318425 
L 241.878458 199.598424 
L 242.314298 200.541556 
L 244.169929 204.878426 
L 245.672995 210.158424 
L 247.628582 213.533272 
L 248.86937 215.438426 
L 252.942868 218.723841 
L 255.425677 220.718422 
L 258.257135 223.138735 
L 261.871629 225.998423 
L 263.571418 227.41685 
L 267.760839 231.278444 
L 268.885704 232.521536 
L 272.359612 236.558426 
L 274.199992 238.426449 
L 277.179806 241.838445 
L 279.514275 245.320246 
L 280.619413 247.118424 
L 283.341892 252.398445 
L 284.828558 255.73075 
L 285.695525 257.678423 
L 287.650931 262.958442 
L 289.465664 268.238422 
L 290.142845 270.865829 
L 290.84786 273.518441 
L 292.10664 278.798422 
L 292.482928 284.078437 
L 293.369887 289.358439 
L 293.718237 294.638439 
L 294.180703 299.91844 
L 294.768337 305.19844 
L 294.648459 310.478441 
L 294.90582 315.758438 
L 295.141862 321.038439 
L 295.292532 326.318437 
L 295.457131 329.227739 
L 295.600987 331.598435 
L 295.566744 336.878439 
L 295.527062 342.158436 
L 295.523962 347.438438 
z
" clip-path="url(#pf04044a9b8)" style="fill: #65cb5e"/>
    <path d="M 316.714284 347.438438 
L 322.028569 347.438438 
L 327.342855 347.438438 
L 332.657141 347.438438 
L 337.971426 347.438438 
L 340.633678 347.438438 
L 340.644411 342.158436 
L 340.494693 336.878439 
L 340.502208 331.598435 
L 340.440133 326.318437 
L 340.469172 321.038439 
L 340.110202 315.758438 
L 339.908762 310.478441 
L 340.093636 305.19844 
L 340.02124 299.91844 
L 339.578638 294.638439 
L 339.676087 289.358439 
L 338.995717 284.078437 
L 338.458935 278.798422 
L 338.279733 273.518441 
L 337.971426 270.517051 
L 337.735924 268.238422 
L 336.882531 262.958442 
L 335.839806 257.678423 
L 334.883675 252.398445 
L 333.246932 247.118424 
L 332.657141 244.98757 
L 331.795136 241.838445 
L 329.704366 236.558426 
L 327.342855 231.905045 
L 326.985224 231.278444 
L 324.048939 225.998423 
L 322.028569 222.834869 
L 320.714938 220.718422 
L 316.714284 215.582954 
L 316.601444 215.438426 
L 312.655735 210.158424 
L 311.399998 208.628002 
L 308.423461 204.878426 
L 306.085713 200.740919 
L 305.516884 199.598424 
L 305.075026 194.318425 
L 304.324727 189.038427 
L 303.870711 183.758427 
L 303.517413 178.478445 
L 302.953689 173.198448 
L 302.241689 167.918447 
L 301.460656 162.638446 
L 300.771424 158.828077 
L 300.527634 157.358448 
L 299.970362 152.078451 
L 299.017157 146.798449 
L 298.570358 141.51845 
L 297.714324 136.238442 
L 296.810563 130.958438 
L 295.778394 125.678439 
L 295.457131 124.363389 
L 294.396684 120.398439 
L 290.578232 115.11844 
L 290.142845 114.615751 
L 286.095075 109.83844 
L 284.828558 108.561574 
L 280.711569 104.558439 
L 279.514275 103.273404 
L 275.687672 99.27844 
L 274.199992 97.798068 
L 269.781212 93.998441 
L 268.885704 93.232429 
L 263.571418 89.323694 
L 262.864569 88.718441 
L 258.257135 84.634899 
L 256.841003 83.438445 
L 252.942868 80.447781 
L 249.539928 78.158445 
L 247.628582 76.715375 
L 242.314298 72.937966 
L 242.222719 72.878439 
L 237.000013 69.307405 
L 234.341503 67.598438 
L 231.685726 65.814944 
L 226.371443 62.808759 
L 225.600836 62.318442 
L 221.057154 59.128106 
L 218.323545 57.038437 
L 216.445896 51.758443 
L 215.742872 47.945281 
L 215.424964 46.478442 
L 212.932526 41.198439 
L 211.95919 35.918436 
L 211.140136 30.638441 
L 210.428586 28.400238 
L 208.99461 25.358437 
L 207.820477 20.07844 
L 206.233203 14.798437 
L 205.114279 14.798437 
L 199.800012 14.798437 
L 194.485707 14.798437 
L 189.171443 14.798437 
L 183.857135 14.798437 
L 178.542872 14.798437 
L 173.228567 14.798437 
L 167.914302 14.798437 
L 162.599996 14.798437 
L 157.28573 14.798437 
L 151.971429 14.798437 
L 146.657141 14.798437 
L 141.342855 14.798437 
L 136.028569 14.798437 
L 130.714283 14.798437 
L 125.399997 14.798437 
L 120.085714 14.798437 
L 114.771427 14.798437 
L 109.457144 14.798437 
L 104.142859 14.798437 
L 98.82857 14.798437 
L 93.514287 14.798437 
L 88.2 14.798437 
L 88.2 20.07844 
L 88.2 25.358437 
L 88.2 30.638441 
L 88.2 35.918436 
L 88.2 41.198439 
L 88.2 46.478442 
L 88.2 51.758443 
L 88.2 57.038437 
L 88.2 62.318442 
L 88.2 67.598438 
L 88.2 68.484803 
L 93.514287 68.700269 
L 98.82857 69.308411 
L 104.142859 70.352109 
L 109.457144 71.205215 
L 114.771427 71.841755 
L 119.236381 72.878439 
L 120.085714 73.048164 
L 125.399997 73.695276 
L 130.714283 74.872649 
L 136.028569 76.040182 
L 141.342855 77.276168 
L 145.171037 78.158445 
L 146.657141 78.435474 
L 151.971429 79.783273 
L 157.28573 81.080598 
L 162.599996 82.465038 
L 165.284729 83.438445 
L 167.914302 84.298675 
L 173.228567 85.454543 
L 178.542872 87.300539 
L 182.672137 88.718441 
L 183.857135 89.118358 
L 189.171443 90.843205 
L 194.485707 93.013771 
L 197.299938 93.998441 
L 199.800012 94.839931 
L 205.114279 97.484904 
L 208.803468 99.27844 
L 210.428586 100.018089 
L 215.742872 102.097197 
L 219.739213 104.558439 
L 221.057154 105.383743 
L 226.371443 108.160006 
L 229.221569 109.83844 
L 231.685726 111.212821 
L 236.98896 115.11844 
L 237.000013 115.125786 
L 242.314298 118.214734 
L 245.070267 120.398439 
L 247.628582 122.349564 
L 251.317919 125.678439 
L 252.942868 128.243402 
L 254.424311 130.958438 
L 256.110497 136.238442 
L 257.621607 141.51845 
L 258.257135 144.126826 
L 258.9987 146.798449 
L 261.213648 152.078451 
L 262.580583 157.358448 
L 263.571418 161.174283 
L 263.937241 162.638446 
L 265.533281 167.918447 
L 266.909706 173.198448 
L 268.280425 178.478445 
L 268.885704 180.70158 
L 269.738619 183.758427 
L 271.040221 189.038427 
L 271.790175 194.318425 
L 273.213307 199.598424 
L 274.128704 204.878426 
L 274.199992 205.0382 
L 276.583243 210.158424 
L 279.514275 213.233787 
L 281.763559 215.438426 
L 284.828558 218.24309 
L 287.249048 220.718422 
L 290.142845 224.07227 
L 291.892037 225.998423 
L 295.457131 230.302552 
L 296.137416 231.278444 
L 299.675423 236.558426 
L 300.771424 238.507219 
L 302.572207 241.838445 
L 305.277994 247.118424 
L 306.085713 249.370515 
L 307.141668 252.398445 
L 308.959839 257.678423 
L 310.005985 262.958442 
L 311.019433 268.238422 
L 311.399998 270.392277 
L 312.01824 273.518441 
L 312.808915 278.798422 
L 313.468254 284.078437 
L 313.902509 289.358439 
L 314.36111 294.638439 
L 314.433484 299.91844 
L 314.895184 305.19844 
L 314.935823 310.478441 
L 315.234179 315.758438 
L 315.363578 321.038439 
L 315.456273 326.318437 
L 315.483145 331.598435 
L 315.643637 336.878439 
L 315.670672 342.158436 
L 315.648822 347.438438 
z
" clip-path="url(#pf04044a9b8)" style="fill: #84d44b"/>
    <path d="M 343.285711 347.438438 
L 348.599997 347.438438 
L 353.914278 347.438438 
L 359.228564 347.438438 
L 364.542855 347.438438 
L 369.857142 347.438438 
L 375.171424 347.438438 
L 375.786211 347.438438 
L 375.79956 342.158436 
L 375.66014 336.878439 
L 375.675008 331.598435 
L 375.715237 326.318437 
L 375.477635 321.038439 
L 375.741089 315.758438 
L 375.375214 310.478441 
L 375.171424 305.746157 
L 375.151249 305.19844 
L 375.171424 304.639806 
L 375.376666 299.91844 
L 375.171424 295.967372 
L 375.106458 294.638439 
L 374.945422 289.358439 
L 374.632829 284.078437 
L 374.478282 278.798422 
L 374.134231 273.518441 
L 373.599832 268.238422 
L 373.342179 262.958442 
L 372.612495 257.678423 
L 371.725054 252.398445 
L 370.819386 247.118424 
L 369.857142 242.956054 
L 369.599151 241.838445 
L 367.776184 236.558426 
L 366.482866 231.278444 
L 364.542855 226.6934 
L 364.251829 225.998423 
L 361.632741 220.718422 
L 359.228564 215.905213 
L 358.996564 215.438426 
L 355.929323 210.158424 
L 353.914278 207.149237 
L 352.4328 204.878426 
L 349.20419 199.598424 
L 348.599997 198.72962 
L 345.716588 194.318425 
L 345.040588 189.038427 
L 344.873409 183.758427 
L 344.738406 178.478445 
L 344.657099 173.198448 
L 344.780408 167.918447 
L 344.371371 162.638446 
L 344.0776 157.358448 
L 344.312192 152.078451 
L 343.741131 146.798449 
L 343.673126 141.51845 
L 343.462422 136.238442 
L 343.285711 134.894555 
L 342.782174 130.958438 
L 342.922827 125.678439 
L 342.517344 120.398439 
L 341.98549 115.11844 
L 340.024639 109.83844 
L 337.971426 106.426806 
L 336.813436 104.558439 
L 333.245947 99.27844 
L 332.657141 98.34099 
L 330.000971 93.998441 
L 327.342855 90.828482 
L 325.613177 88.718441 
L 322.028569 83.508505 
L 321.975809 83.438445 
L 317.936509 78.158445 
L 316.714284 76.575515 
L 314.156475 72.878439 
L 311.399998 69.665135 
L 309.77011 67.598438 
L 306.085713 62.64491 
L 305.804228 62.318442 
L 301.112937 57.038437 
L 300.771424 56.508426 
L 297.380892 51.758443 
L 296.625115 46.478442 
L 296.743267 41.198439 
L 296.376209 35.918436 
L 296.372786 30.638441 
L 296.356185 25.358437 
L 295.789241 20.07844 
L 296.047333 14.798437 
L 295.457131 14.798437 
L 290.142845 14.798437 
L 284.828558 14.798437 
L 279.514275 14.798437 
L 274.199992 14.798437 
L 268.885704 14.798437 
L 263.571418 14.798437 
L 258.257135 14.798437 
L 252.942868 14.798437 
L 247.628582 14.798437 
L 242.314298 14.798437 
L 237.000013 14.798437 
L 231.685726 14.798437 
L 226.371443 14.798437 
L 221.057154 14.798437 
L 215.742872 14.798437 
L 210.428586 14.798437 
L 206.233203 14.798437 
L 207.820477 20.07844 
L 208.99461 25.358437 
L 210.428586 28.400238 
L 211.140136 30.638441 
L 211.95919 35.918436 
L 212.932526 41.198439 
L 215.424964 46.478442 
L 215.742872 47.945281 
L 216.445896 51.758443 
L 218.323545 57.038437 
L 221.057154 59.128106 
L 225.600836 62.318442 
L 226.371443 62.808759 
L 231.685726 65.814944 
L 234.341503 67.598438 
L 237.000013 69.307405 
L 242.222719 72.878439 
L 242.314298 72.937966 
L 247.628582 76.715375 
L 249.539928 78.158445 
L 252.942868 80.447781 
L 256.841003 83.438445 
L 258.257135 84.634899 
L 262.864569 88.718441 
L 263.571418 89.323694 
L 268.885704 93.232429 
L 269.781212 93.998441 
L 274.199992 97.798068 
L 275.687672 99.27844 
L 279.514275 103.273404 
L 280.711569 104.558439 
L 284.828558 108.561574 
L 286.095075 109.83844 
L 290.142845 114.615751 
L 290.578232 115.11844 
L 294.396684 120.398439 
L 295.457131 124.363389 
L 295.778394 125.678439 
L 296.810563 130.958438 
L 297.714324 136.238442 
L 298.570358 141.51845 
L 299.017157 146.798449 
L 299.970362 152.078451 
L 300.527634 157.358448 
L 300.771424 158.828077 
L 301.460656 162.638446 
L 302.241689 167.918447 
L 302.953689 173.198448 
L 303.517413 178.478445 
L 303.870711 183.758427 
L 304.324727 189.038427 
L 305.075026 194.318425 
L 305.516884 199.598424 
L 306.085713 200.740919 
L 308.423461 204.878426 
L 311.399998 208.628002 
L 312.655735 210.158424 
L 316.601444 215.438426 
L 316.714284 215.582954 
L 320.714938 220.718422 
L 322.028569 222.834869 
L 324.048939 225.998423 
L 326.985224 231.278444 
L 327.342855 231.905045 
L 329.704366 236.558426 
L 331.795136 241.838445 
L 332.657141 244.98757 
L 333.246932 247.118424 
L 334.883675 252.398445 
L 335.839806 257.678423 
L 336.882531 262.958442 
L 337.735924 268.238422 
L 337.971426 270.517051 
L 338.279733 273.518441 
L 338.458935 278.798422 
L 338.995717 284.078437 
L 339.676087 289.358439 
L 339.578638 294.638439 
L 340.02124 299.91844 
L 340.093636 305.19844 
L 339.908762 310.478441 
L 340.110202 315.758438 
L 340.469172 321.038439 
L 340.440133 326.318437 
L 340.502208 331.598435 
L 340.494693 336.878439 
L 340.644411 342.158436 
L 340.633678 347.438438 
z
" clip-path="url(#pf04044a9b8)" style="fill: #a8db34"/>
    <path d="M 380.485714 347.438438 
L 385.799995 347.438438 
L 391.114281 347.438438 
L 396.42857 347.438438 
L 401.742859 347.438438 
L 407.05714 347.438438 
L 412.371429 347.438438 
L 417.685712 347.438438 
L 423 347.438438 
L 423 342.158436 
L 423 336.878439 
L 423 331.598435 
L 423 326.318437 
L 423 321.038439 
L 423 315.758438 
L 423 310.478441 
L 423 305.19844 
L 423 299.91844 
L 423 294.638439 
L 423 289.358439 
L 423 284.078437 
L 423 278.798422 
L 423 273.518441 
L 423 268.238422 
L 423 262.958442 
L 423 257.678423 
L 423 252.398445 
L 423 247.118424 
L 423 241.838445 
L 423 236.558426 
L 423 231.278444 
L 423 225.998423 
L 423 220.718422 
L 423 215.438426 
L 423 210.158424 
L 423 204.878426 
L 423 204.717981 
L 420.100665 199.598424 
L 417.685712 195.663107 
L 416.821398 194.318425 
L 413.405385 189.038427 
L 412.371429 186.990567 
L 411.011653 183.758427 
L 410.980857 178.478445 
L 411.224411 173.198448 
L 411.542508 167.918447 
L 411.877339 162.638446 
L 412.162572 157.358448 
L 412.371429 154.566444 
L 412.595997 152.078451 
L 412.480499 146.798449 
L 412.936496 141.51845 
L 413.086331 136.238442 
L 413.190431 130.958438 
L 413.429916 125.678439 
L 413.787102 120.398439 
L 414.111062 115.11844 
L 413.683587 109.83844 
L 413.294887 104.558439 
L 412.371429 102.367108 
L 411.028531 99.27844 
L 408.063284 93.998441 
L 407.05714 92.148327 
L 405.313072 88.718441 
L 402.409605 83.438445 
L 401.742859 82.122491 
L 399.752225 78.158445 
L 396.791004 72.878439 
L 396.42857 72.187878 
L 393.916259 67.598438 
L 391.114281 62.693717 
L 390.920142 62.318442 
L 388.495884 57.038437 
L 385.799995 52.162439 
L 385.580024 51.758443 
L 382.966659 46.478442 
L 381.970278 41.198439 
L 382.140949 35.918436 
L 382.579391 30.638441 
L 383.147869 25.358437 
L 383.460064 20.07844 
L 383.767096 14.798437 
L 380.485714 14.798437 
L 375.171424 14.798437 
L 369.857142 14.798437 
L 364.542855 14.798437 
L 359.228564 14.798437 
L 353.914278 14.798437 
L 348.599997 14.798437 
L 343.285711 14.798437 
L 337.971426 14.798437 
L 332.657141 14.798437 
L 327.342855 14.798437 
L 322.028569 14.798437 
L 316.714284 14.798437 
L 311.399998 14.798437 
L 306.085713 14.798437 
L 300.771424 14.798437 
L 296.047333 14.798437 
L 295.789241 20.07844 
L 296.356185 25.358437 
L 296.372786 30.638441 
L 296.376209 35.918436 
L 296.743267 41.198439 
L 296.625115 46.478442 
L 297.380892 51.758443 
L 300.771424 56.508426 
L 301.112937 57.038437 
L 305.804228 62.318442 
L 306.085713 62.64491 
L 309.77011 67.598438 
L 311.399998 69.665135 
L 314.156475 72.878439 
L 316.714284 76.575515 
L 317.936509 78.158445 
L 321.975809 83.438445 
L 322.028569 83.508505 
L 325.613177 88.718441 
L 327.342855 90.828482 
L 330.000971 93.998441 
L 332.657141 98.34099 
L 333.245947 99.27844 
L 336.813436 104.558439 
L 337.971426 106.426806 
L 340.024639 109.83844 
L 341.98549 115.11844 
L 342.517344 120.398439 
L 342.922827 125.678439 
L 342.782174 130.958438 
L 343.285711 134.894555 
L 343.462422 136.238442 
L 343.673126 141.51845 
L 343.741131 146.798449 
L 344.312192 152.078451 
L 344.0776 157.358448 
L 344.371371 162.638446 
L 344.780408 167.918447 
L 344.657099 173.198448 
L 344.738406 178.478445 
L 344.873409 183.758427 
L 345.040588 189.038427 
L 345.716588 194.318425 
L 348.599997 198.72962 
L 349.20419 199.598424 
L 352.4328 204.878426 
L 353.914278 207.149237 
L 355.929323 210.158424 
L 358.996564 215.438426 
L 359.228564 215.905213 
L 361.632741 220.718422 
L 364.251829 225.998423 
L 364.542855 226.6934 
L 366.482866 231.278444 
L 367.776184 236.558426 
L 369.599151 241.838445 
L 369.857142 242.956054 
L 370.819386 247.118424 
L 371.725054 252.398445 
L 372.612495 257.678423 
L 373.342179 262.958442 
L 373.599832 268.238422 
L 374.134231 273.518441 
L 374.478282 278.798422 
L 374.632829 284.078437 
L 374.945422 289.358439 
L 375.106458 294.638439 
L 375.171424 295.967372 
L 375.376666 299.91844 
L 375.171424 304.639806 
L 375.151249 305.19844 
L 375.171424 305.746157 
L 375.375214 310.478441 
L 375.741089 315.758438 
L 375.477635 321.038439 
L 375.715237 326.318437 
L 375.675008 331.598435 
L 375.66014 336.878439 
L 375.79956 342.158436 
L 375.786211 347.438438 
z
" clip-path="url(#pf04044a9b8)" style="fill: #cae11f"/>
    <path d="M 423 204.717981 
L 423 199.598424 
L 423 194.318425 
L 423 189.038427 
L 423 183.758427 
L 423 178.478445 
L 423 173.198448 
L 423 167.918447 
L 423 162.638446 
L 423 157.358448 
L 423 152.078451 
L 423 146.798449 
L 423 141.51845 
L 423 136.238442 
L 423 130.958438 
L 423 125.678439 
L 423 120.398439 
L 423 115.11844 
L 423 109.83844 
L 423 104.558439 
L 423 99.27844 
L 423 93.998441 
L 423 88.718441 
L 423 83.438445 
L 423 78.158445 
L 423 72.878439 
L 423 67.598438 
L 423 62.318442 
L 423 57.038437 
L 423 51.758443 
L 423 46.478442 
L 423 41.198439 
L 423 35.918436 
L 423 30.638441 
L 423 25.358437 
L 423 20.07844 
L 423 14.798437 
L 417.685712 14.798437 
L 412.371429 14.798437 
L 407.05714 14.798437 
L 401.742859 14.798437 
L 396.42857 14.798437 
L 391.114281 14.798437 
L 385.799995 14.798437 
L 383.767096 14.798437 
L 383.460064 20.07844 
L 383.147869 25.358437 
L 382.579391 30.638441 
L 382.140949 35.918436 
L 381.970278 41.198439 
L 382.966659 46.478442 
L 385.580024 51.758443 
L 385.799995 52.162439 
L 388.495884 57.038437 
L 390.920142 62.318442 
L 391.114281 62.693717 
L 393.916259 67.598438 
L 396.42857 72.187878 
L 396.791004 72.878439 
L 399.752225 78.158445 
L 401.742859 82.122491 
L 402.409605 83.438445 
L 405.313072 88.718441 
L 407.05714 92.148327 
L 408.063284 93.998441 
L 411.028531 99.27844 
L 412.371429 102.367108 
L 413.294887 104.558439 
L 413.683587 109.83844 
L 414.111062 115.11844 
L 413.787102 120.398439 
L 413.429916 125.678439 
L 413.190431 130.958438 
L 413.086331 136.238442 
L 412.936496 141.51845 
L 412.480499 146.798449 
L 412.595997 152.078451 
L 412.371429 154.566444 
L 412.162572 157.358448 
L 411.877339 162.638446 
L 411.542508 167.918447 
L 411.224411 173.198448 
L 410.980857 178.478445 
L 411.011653 183.758427 
L 412.371429 186.990567 
L 413.405385 189.038427 
L 416.821398 194.318425 
L 417.685712 195.663107 
L 420.100665 199.598424 
z
" clip-path="url(#pf04044a9b8)" style="fill: #efe51c"/>
   </g>
   <g id="matplotlib.axis_1">
    <g id="xtick_1">
     <g id="line2d_1">
      <defs>
       <path id="m68713dbc58" d="M 0 0 
L 0 2 
" style="stroke: #000000; stroke-width: 1.5"/>
      </defs>
      <g>
       <use xlink:href="#m68713dbc58" x="88.200002" y="347.438438" style="stroke: #000000; stroke-width: 1.5"/>
      </g>
     </g>
     <g id="text_1">
      <!-- $\mathdefault{10^{-2}}$ -->
      <g transform="translate(64.700002 368.135313) scale(0.2 -0.2)">
       <defs>
        <path id="DejaVuSans-31" d="M 794 531 
L 1825 531 
L 1825 4091 
L 703 3866 
L 703 4441 
L 1819 4666 
L 2450 4666 
L 2450 531 
L 3481 531 
L 3481 0 
L 794 0 
L 794 531 
z
" transform="scale(0.015625)"/>
        <path id="DejaVuSans-30" d="M 2034 4250 
Q 1547 4250 1301 3770 
Q 1056 3291 1056 2328 
Q 1056 1369 1301 889 
Q 1547 409 2034 409 
Q 2525 409 2770 889 
Q 3016 1369 3016 2328 
Q 3016 3291 2770 3770 
Q 2525 4250 2034 4250 
z
M 2034 4750 
Q 2819 4750 3233 4129 
Q 3647 3509 3647 2328 
Q 3647 1150 3233 529 
Q 2819 -91 2034 -91 
Q 1250 -91 836 529 
Q 422 1150 422 2328 
Q 422 3509 836 4129 
Q 1250 4750 2034 4750 
z
" transform="scale(0.015625)"/>
        <path id="DejaVuSans-2212" d="M 678 2272 
L 4684 2272 
L 4684 1741 
L 678 1741 
L 678 2272 
z
" transform="scale(0.015625)"/>
        <path id="DejaVuSans-32" d="M 1228 531 
L 3431 531 
L 3431 0 
L 469 0 
L 469 531 
Q 828 903 1448 1529 
Q 2069 2156 2228 2338 
Q 2531 2678 2651 2914 
Q 2772 3150 2772 3378 
Q 2772 3750 2511 3984 
Q 2250 4219 1831 4219 
Q 1534 4219 1204 4116 
Q 875 4013 500 3803 
L 500 4441 
Q 881 4594 1212 4672 
Q 1544 4750 1819 4750 
Q 2544 4750 2975 4387 
Q 3406 4025 3406 3419 
Q 3406 3131 3298 2873 
Q 3191 2616 2906 2266 
Q 2828 2175 2409 1742 
Q 1991 1309 1228 531 
z
" transform="scale(0.015625)"/>
       </defs>
       <use xlink:href="#DejaVuSans-31" transform="translate(0 0.765625)"/>
       <use xlink:href="#DejaVuSans-30" transform="translate(63.623047 0.765625)"/>
       <use xlink:href="#DejaVuSans-2212" transform="translate(128.203125 39.046875) scale(0.7)"/>
       <use xlink:href="#DejaVuSans-32" transform="translate(186.855469 39.046875) scale(0.7)"/>
      </g>
     </g>
    </g>
    <g id="xtick_2">
     <g id="line2d_2">
      <g>
       <use xlink:href="#m68713dbc58" x="255.600001" y="347.438438" style="stroke: #000000; stroke-width: 1.5"/>
      </g>
     </g>
     <g id="text_2">
      <!-- $\mathdefault{10^{-1}}$ -->
      <g transform="translate(232.100001 368.135313) scale(0.2 -0.2)">
       <use xlink:href="#DejaVuSans-31" transform="translate(0 0.684375)"/>
       <use xlink:href="#DejaVuSans-30" transform="translate(63.623047 0.684375)"/>
       <use xlink:href="#DejaVuSans-2212" transform="translate(128.203125 38.965625) scale(0.7)"/>
       <use xlink:href="#DejaVuSans-31" transform="translate(186.855469 38.965625) scale(0.7)"/>
      </g>
     </g>
    </g>
    <g id="xtick_3">
     <g id="line2d_3">
      <g>
       <use xlink:href="#m68713dbc58" x="423" y="347.438438" style="stroke: #000000; stroke-width: 1.5"/>
      </g>
     </g>
     <g id="text_3">
      <!-- $\mathdefault{10^{0}}$ -->
      <g transform="translate(405.4 368.135313) scale(0.2 -0.2)">
       <use xlink:href="#DejaVuSans-31" transform="translate(0 0.765625)"/>
       <use xlink:href="#DejaVuSans-30" transform="translate(63.623047 0.765625)"/>
       <use xlink:href="#DejaVuSans-30" transform="translate(128.203125 39.046875) scale(0.7)"/>
      </g>
     </g>
    </g>
    <g id="xtick_4">
     <g id="line2d_4">
      <defs>
       <path id="m26abe8f663" d="M 0 0 
L 0 2 
" style="stroke: #000000; stroke-width: 0.6"/>
      </defs>
      <g>
       <use xlink:href="#m26abe8f663" x="138.592423" y="347.438438" style="stroke: #000000; stroke-width: 0.6"/>
      </g>
     </g>
    </g>
    <g id="xtick_5">
     <g id="line2d_5">
      <g>
       <use xlink:href="#m26abe8f663" x="168.070099" y="347.438438" style="stroke: #000000; stroke-width: 0.6"/>
      </g>
     </g>
    </g>
    <g id="xtick_6">
     <g id="line2d_6">
      <g>
       <use xlink:href="#m26abe8f663" x="188.984844" y="347.438438" style="stroke: #000000; stroke-width: 0.6"/>
      </g>
     </g>
    </g>
    <g id="xtick_7">
     <g id="line2d_7">
      <g>
       <use xlink:href="#m26abe8f663" x="205.20758" y="347.438438" style="stroke: #000000; stroke-width: 0.6"/>
      </g>
     </g>
    </g>
    <g id="xtick_8">
     <g id="line2d_8">
      <g>
       <use xlink:href="#m26abe8f663" x="218.46252" y="347.438438" style="stroke: #000000; stroke-width: 0.6"/>
      </g>
     </g>
    </g>
    <g id="xtick_9">
     <g id="line2d_9">
      <g>
       <use xlink:href="#m26abe8f663" x="229.669413" y="347.438438" style="stroke: #000000; stroke-width: 0.6"/>
      </g>
     </g>
    </g>
    <g id="xtick_10">
     <g id="line2d_10">
      <g>
       <use xlink:href="#m26abe8f663" x="239.377265" y="347.438438" style="stroke: #000000; stroke-width: 0.6"/>
      </g>
     </g>
    </g>
    <g id="xtick_11">
     <g id="line2d_11">
      <g>
       <use xlink:href="#m26abe8f663" x="247.940197" y="347.438438" style="stroke: #000000; stroke-width: 0.6"/>
      </g>
     </g>
    </g>
    <g id="xtick_12">
     <g id="line2d_12">
      <g>
       <use xlink:href="#m26abe8f663" x="305.992422" y="347.438438" style="stroke: #000000; stroke-width: 0.6"/>
      </g>
     </g>
    </g>
    <g id="xtick_13">
     <g id="line2d_13">
      <g>
       <use xlink:href="#m26abe8f663" x="335.470098" y="347.438438" style="stroke: #000000; stroke-width: 0.6"/>
      </g>
     </g>
    </g>
    <g id="xtick_14">
     <g id="line2d_14">
      <g>
       <use xlink:href="#m26abe8f663" x="356.384843" y="347.438438" style="stroke: #000000; stroke-width: 0.6"/>
      </g>
     </g>
    </g>
    <g id="xtick_15">
     <g id="line2d_15">
      <g>
       <use xlink:href="#m26abe8f663" x="372.607579" y="347.438438" style="stroke: #000000; stroke-width: 0.6"/>
      </g>
     </g>
    </g>
    <g id="xtick_16">
     <g id="line2d_16">
      <g>
       <use xlink:href="#m26abe8f663" x="385.862519" y="347.438438" style="stroke: #000000; stroke-width: 0.6"/>
      </g>
     </g>
    </g>
    <g id="xtick_17">
     <g id="line2d_17">
      <g>
       <use xlink:href="#m26abe8f663" x="397.069412" y="347.438438" style="stroke: #000000; stroke-width: 0.6"/>
      </g>
     </g>
    </g>
    <g id="xtick_18">
     <g id="line2d_18">
      <g>
       <use xlink:href="#m26abe8f663" x="406.777264" y="347.438438" style="stroke: #000000; stroke-width: 0.6"/>
      </g>
     </g>
    </g>
    <g id="xtick_19">
     <g id="line2d_19">
      <g>
       <use xlink:href="#m26abe8f663" x="415.340196" y="347.438438" style="stroke: #000000; stroke-width: 0.6"/>
      </g>
     </g>
    </g>
    <g id="text_4">
     <!-- Awareness probability $\lambda$ -->
     <g transform="translate(135.4 391.494688) scale(0.2 -0.2)">
      <defs>
       <path id="DejaVuSans-41" d="M 2188 4044 
L 1331 1722 
L 3047 1722 
L 2188 4044 
z
M 1831 4666 
L 2547 4666 
L 4325 0 
L 3669 0 
L 3244 1197 
L 1141 1197 
L 716 0 
L 50 0 
L 1831 4666 
z
" transform="scale(0.015625)"/>
       <path id="DejaVuSans-77" d="M 269 3500 
L 844 3500 
L 1563 769 
L 2278 3500 
L 2956 3500 
L 3675 769 
L 4391 3500 
L 4966 3500 
L 4050 0 
L 3372 0 
L 2619 2869 
L 1863 0 
L 1184 0 
L 269 3500 
z
" transform="scale(0.015625)"/>
       <path id="DejaVuSans-61" d="M 2194 1759 
Q 1497 1759 1228 1600 
Q 959 1441 959 1056 
Q 959 750 1161 570 
Q 1363 391 1709 391 
Q 2188 391 2477 730 
Q 2766 1069 2766 1631 
L 2766 1759 
L 2194 1759 
z
M 3341 1997 
L 3341 0 
L 2766 0 
L 2766 531 
Q 2569 213 2275 61 
Q 1981 -91 1556 -91 
Q 1019 -91 701 211 
Q 384 513 384 1019 
Q 384 1609 779 1909 
Q 1175 2209 1959 2209 
L 2766 2209 
L 2766 2266 
Q 2766 2663 2505 2880 
Q 2244 3097 1772 3097 
Q 1472 3097 1187 3025 
Q 903 2953 641 2809 
L 641 3341 
Q 956 3463 1253 3523 
Q 1550 3584 1831 3584 
Q 2591 3584 2966 3190 
Q 3341 2797 3341 1997 
z
" transform="scale(0.015625)"/>
       <path id="DejaVuSans-72" d="M 2631 2963 
Q 2534 3019 2420 3045 
Q 2306 3072 2169 3072 
Q 1681 3072 1420 2755 
Q 1159 2438 1159 1844 
L 1159 0 
L 581 0 
L 581 3500 
L 1159 3500 
L 1159 2956 
Q 1341 3275 1631 3429 
Q 1922 3584 2338 3584 
Q 2397 3584 2469 3576 
Q 2541 3569 2628 3553 
L 2631 2963 
z
" transform="scale(0.015625)"/>
       <path id="DejaVuSans-65" d="M 3597 1894 
L 3597 1613 
L 953 1613 
Q 991 1019 1311 708 
Q 1631 397 2203 397 
Q 2534 397 2845 478 
Q 3156 559 3463 722 
L 3463 178 
Q 3153 47 2828 -22 
Q 2503 -91 2169 -91 
Q 1331 -91 842 396 
Q 353 884 353 1716 
Q 353 2575 817 3079 
Q 1281 3584 2069 3584 
Q 2775 3584 3186 3129 
Q 3597 2675 3597 1894 
z
M 3022 2063 
Q 3016 2534 2758 2815 
Q 2500 3097 2075 3097 
Q 1594 3097 1305 2825 
Q 1016 2553 972 2059 
L 3022 2063 
z
" transform="scale(0.015625)"/>
       <path id="DejaVuSans-6e" d="M 3513 2113 
L 3513 0 
L 2938 0 
L 2938 2094 
Q 2938 2591 2744 2837 
Q 2550 3084 2163 3084 
Q 1697 3084 1428 2787 
Q 1159 2491 1159 1978 
L 1159 0 
L 581 0 
L 581 3500 
L 1159 3500 
L 1159 2956 
Q 1366 3272 1645 3428 
Q 1925 3584 2291 3584 
Q 2894 3584 3203 3211 
Q 3513 2838 3513 2113 
z
" transform="scale(0.015625)"/>
       <path id="DejaVuSans-73" d="M 2834 3397 
L 2834 2853 
Q 2591 2978 2328 3040 
Q 2066 3103 1784 3103 
Q 1356 3103 1142 2972 
Q 928 2841 928 2578 
Q 928 2378 1081 2264 
Q 1234 2150 1697 2047 
L 1894 2003 
Q 2506 1872 2764 1633 
Q 3022 1394 3022 966 
Q 3022 478 2636 193 
Q 2250 -91 1575 -91 
Q 1294 -91 989 -36 
Q 684 19 347 128 
L 347 722 
Q 666 556 975 473 
Q 1284 391 1588 391 
Q 1994 391 2212 530 
Q 2431 669 2431 922 
Q 2431 1156 2273 1281 
Q 2116 1406 1581 1522 
L 1381 1569 
Q 847 1681 609 1914 
Q 372 2147 372 2553 
Q 372 3047 722 3315 
Q 1072 3584 1716 3584 
Q 2034 3584 2315 3537 
Q 2597 3491 2834 3397 
z
" transform="scale(0.015625)"/>
       <path id="DejaVuSans-20" transform="scale(0.015625)"/>
       <path id="DejaVuSans-70" d="M 1159 525 
L 1159 -1331 
L 581 -1331 
L 581 3500 
L 1159 3500 
L 1159 2969 
Q 1341 3281 1617 3432 
Q 1894 3584 2278 3584 
Q 2916 3584 3314 3078 
Q 3713 2572 3713 1747 
Q 3713 922 3314 415 
Q 2916 -91 2278 -91 
Q 1894 -91 1617 61 
Q 1341 213 1159 525 
z
M 3116 1747 
Q 3116 2381 2855 2742 
Q 2594 3103 2138 3103 
Q 1681 3103 1420 2742 
Q 1159 2381 1159 1747 
Q 1159 1113 1420 752 
Q 1681 391 2138 391 
Q 2594 391 2855 752 
Q 3116 1113 3116 1747 
z
" transform="scale(0.015625)"/>
       <path id="DejaVuSans-6f" d="M 1959 3097 
Q 1497 3097 1228 2736 
Q 959 2375 959 1747 
Q 959 1119 1226 758 
Q 1494 397 1959 397 
Q 2419 397 2687 759 
Q 2956 1122 2956 1747 
Q 2956 2369 2687 2733 
Q 2419 3097 1959 3097 
z
M 1959 3584 
Q 2709 3584 3137 3096 
Q 3566 2609 3566 1747 
Q 3566 888 3137 398 
Q 2709 -91 1959 -91 
Q 1206 -91 779 398 
Q 353 888 353 1747 
Q 353 2609 779 3096 
Q 1206 3584 1959 3584 
z
" transform="scale(0.015625)"/>
       <path id="DejaVuSans-62" d="M 3116 1747 
Q 3116 2381 2855 2742 
Q 2594 3103 2138 3103 
Q 1681 3103 1420 2742 
Q 1159 2381 1159 1747 
Q 1159 1113 1420 752 
Q 1681 391 2138 391 
Q 2594 391 2855 752 
Q 3116 1113 3116 1747 
z
M 1159 2969 
Q 1341 3281 1617 3432 
Q 1894 3584 2278 3584 
Q 2916 3584 3314 3078 
Q 3713 2572 3713 1747 
Q 3713 922 3314 415 
Q 2916 -91 2278 -91 
Q 1894 -91 1617 61 
Q 1341 213 1159 525 
L 1159 0 
L 581 0 
L 581 4863 
L 1159 4863 
L 1159 2969 
z
" transform="scale(0.015625)"/>
       <path id="DejaVuSans-69" d="M 603 3500 
L 1178 3500 
L 1178 0 
L 603 0 
L 603 3500 
z
M 603 4863 
L 1178 4863 
L 1178 4134 
L 603 4134 
L 603 4863 
z
" transform="scale(0.015625)"/>
       <path id="DejaVuSans-6c" d="M 603 4863 
L 1178 4863 
L 1178 0 
L 603 0 
L 603 4863 
z
" transform="scale(0.015625)"/>
       <path id="DejaVuSans-74" d="M 1172 4494 
L 1172 3500 
L 2356 3500 
L 2356 3053 
L 1172 3053 
L 1172 1153 
Q 1172 725 1289 603 
Q 1406 481 1766 481 
L 2356 481 
L 2356 0 
L 1766 0 
Q 1100 0 847 248 
Q 594 497 594 1153 
L 594 3053 
L 172 3053 
L 172 3500 
L 594 3500 
L 594 4494 
L 1172 4494 
z
" transform="scale(0.015625)"/>
       <path id="DejaVuSans-79" d="M 2059 -325 
Q 1816 -950 1584 -1140 
Q 1353 -1331 966 -1331 
L 506 -1331 
L 506 -850 
L 844 -850 
Q 1081 -850 1212 -737 
Q 1344 -625 1503 -206 
L 1606 56 
L 191 3500 
L 800 3500 
L 1894 763 
L 2988 3500 
L 3597 3500 
L 2059 -325 
z
" transform="scale(0.015625)"/>
       <path id="DejaVuSans-Oblique-3bb" d="M 2350 4316 
L 3125 0 
L 2516 0 
L 2038 2588 
L 328 0 
L -281 0 
L 1903 3356 
L 1794 3975 
Q 1725 4369 1391 4369 
L 1091 4369 
L 1184 4863 
L 1550 4856 
Q 2253 4847 2350 4316 
z
" transform="scale(0.015625)"/>
      </defs>
      <use xlink:href="#DejaVuSans-41" transform="translate(0 0.015625)"/>
      <use xlink:href="#DejaVuSans-77" transform="translate(68.408203 0.015625)"/>
      <use xlink:href="#DejaVuSans-61" transform="translate(150.195312 0.015625)"/>
      <use xlink:href="#DejaVuSans-72" transform="translate(211.474609 0.015625)"/>
      <use xlink:href="#DejaVuSans-65" transform="translate(252.587891 0.015625)"/>
      <use xlink:href="#DejaVuSans-6e" transform="translate(314.111328 0.015625)"/>
      <use xlink:href="#DejaVuSans-65" transform="translate(377.490234 0.015625)"/>
      <use xlink:href="#DejaVuSans-73" transform="translate(439.013672 0.015625)"/>
      <use xlink:href="#DejaVuSans-73" transform="translate(491.113281 0.015625)"/>
      <use xlink:href="#DejaVuSans-20" transform="translate(543.212891 0.015625)"/>
      <use xlink:href="#DejaVuSans-70" transform="translate(575 0.015625)"/>
      <use xlink:href="#DejaVuSans-72" transform="translate(638.476562 0.015625)"/>
      <use xlink:href="#DejaVuSans-6f" transform="translate(679.589844 0.015625)"/>
      <use xlink:href="#DejaVuSans-62" transform="translate(740.771484 0.015625)"/>
      <use xlink:href="#DejaVuSans-61" transform="translate(804.248047 0.015625)"/>
      <use xlink:href="#DejaVuSans-62" transform="translate(865.527344 0.015625)"/>
      <use xlink:href="#DejaVuSans-69" transform="translate(929.003906 0.015625)"/>
      <use xlink:href="#DejaVuSans-6c" transform="translate(956.787109 0.015625)"/>
      <use xlink:href="#DejaVuSans-69" transform="translate(984.570312 0.015625)"/>
      <use xlink:href="#DejaVuSans-74" transform="translate(1012.353516 0.015625)"/>
      <use xlink:href="#DejaVuSans-79" transform="translate(1051.5625 0.015625)"/>
      <use xlink:href="#DejaVuSans-20" transform="translate(1110.742188 0.015625)"/>
      <use xlink:href="#DejaVuSans-Oblique-3bb" transform="translate(1142.529297 0.015625)"/>
     </g>
    </g>
   </g>
   <g id="matplotlib.axis_2">
    <g id="ytick_1">
     <g id="line2d_20">
      <defs>
       <path id="mac7e0a3a7d" d="M 0 0 
L -2 0 
" style="stroke: #000000; stroke-width: 1.5"/>
      </defs>
      <g>
       <use xlink:href="#mac7e0a3a7d" x="88.2" y="347.438436" style="stroke: #000000; stroke-width: 1.5"/>
      </g>
     </g>
     <g id="text_5">
      <!-- $\mathdefault{10^{-2}}$ -->
      <g transform="translate(35.7 355.036873) scale(0.2 -0.2)">
       <use xlink:href="#DejaVuSans-31" transform="translate(0 0.765625)"/>
       <use xlink:href="#DejaVuSans-30" transform="translate(63.623047 0.765625)"/>
       <use xlink:href="#DejaVuSans-2212" transform="translate(128.203125 39.046875) scale(0.7)"/>
       <use xlink:href="#DejaVuSans-32" transform="translate(186.855469 39.046875) scale(0.7)"/>
      </g>
     </g>
    </g>
    <g id="ytick_2">
     <g id="line2d_21">
      <g>
       <use xlink:href="#mac7e0a3a7d" x="88.2" y="181.118437" style="stroke: #000000; stroke-width: 1.5"/>
      </g>
     </g>
     <g id="text_6">
      <!-- $\mathdefault{10^{-1}}$ -->
      <g transform="translate(35.7 188.716874) scale(0.2 -0.2)">
       <use xlink:href="#DejaVuSans-31" transform="translate(0 0.684375)"/>
       <use xlink:href="#DejaVuSans-30" transform="translate(63.623047 0.684375)"/>
       <use xlink:href="#DejaVuSans-2212" transform="translate(128.203125 38.965625) scale(0.7)"/>
       <use xlink:href="#DejaVuSans-31" transform="translate(186.855469 38.965625) scale(0.7)"/>
      </g>
     </g>
    </g>
    <g id="ytick_3">
     <g id="line2d_22">
      <g>
       <use xlink:href="#mac7e0a3a7d" x="88.2" y="14.798437" style="stroke: #000000; stroke-width: 1.5"/>
      </g>
     </g>
     <g id="text_7">
      <!-- $\mathdefault{10^{0}}$ -->
      <g transform="translate(47.5 22.396875) scale(0.2 -0.2)">
       <use xlink:href="#DejaVuSans-31" transform="translate(0 0.765625)"/>
       <use xlink:href="#DejaVuSans-30" transform="translate(63.623047 0.765625)"/>
       <use xlink:href="#DejaVuSans-30" transform="translate(128.203125 39.046875) scale(0.7)"/>
      </g>
     </g>
    </g>
    <g id="ytick_4">
     <g id="line2d_23">
      <defs>
       <path id="m1cbe79e67a" d="M 0 0 
L -2 0 
" style="stroke: #000000; stroke-width: 0.6"/>
      </defs>
      <g>
       <use xlink:href="#m1cbe79e67a" x="88.2" y="297.371127" style="stroke: #000000; stroke-width: 0.6"/>
      </g>
     </g>
    </g>
    <g id="ytick_5">
     <g id="line2d_24">
      <g>
       <use xlink:href="#m1cbe79e67a" x="88.2" y="268.083629" style="stroke: #000000; stroke-width: 0.6"/>
      </g>
     </g>
    </g>
    <g id="ytick_6">
     <g id="line2d_25">
      <g>
       <use xlink:href="#m1cbe79e67a" x="88.2" y="247.303819" style="stroke: #000000; stroke-width: 0.6"/>
      </g>
     </g>
    </g>
    <g id="ytick_7">
     <g id="line2d_26">
      <g>
       <use xlink:href="#m1cbe79e67a" x="88.2" y="231.185745" style="stroke: #000000; stroke-width: 0.6"/>
      </g>
     </g>
    </g>
    <g id="ytick_8">
     <g id="line2d_27">
      <g>
       <use xlink:href="#m1cbe79e67a" x="88.2" y="218.016321" style="stroke: #000000; stroke-width: 0.6"/>
      </g>
     </g>
    </g>
    <g id="ytick_9">
     <g id="line2d_28">
      <g>
       <use xlink:href="#m1cbe79e67a" x="88.2" y="206.881731" style="stroke: #000000; stroke-width: 0.6"/>
      </g>
     </g>
    </g>
    <g id="ytick_10">
     <g id="line2d_29">
      <g>
       <use xlink:href="#m1cbe79e67a" x="88.2" y="197.23651" style="stroke: #000000; stroke-width: 0.6"/>
      </g>
     </g>
    </g>
    <g id="ytick_11">
     <g id="line2d_30">
      <g>
       <use xlink:href="#m1cbe79e67a" x="88.2" y="188.728822" style="stroke: #000000; stroke-width: 0.6"/>
      </g>
     </g>
    </g>
    <g id="ytick_12">
     <g id="line2d_31">
      <g>
       <use xlink:href="#m1cbe79e67a" x="88.2" y="131.051128" style="stroke: #000000; stroke-width: 0.6"/>
      </g>
     </g>
    </g>
    <g id="ytick_13">
     <g id="line2d_32">
      <g>
       <use xlink:href="#m1cbe79e67a" x="88.2" y="101.76363" style="stroke: #000000; stroke-width: 0.6"/>
      </g>
     </g>
    </g>
    <g id="ytick_14">
     <g id="line2d_33">
      <g>
       <use xlink:href="#m1cbe79e67a" x="88.2" y="80.983819" style="stroke: #000000; stroke-width: 0.6"/>
      </g>
     </g>
    </g>
    <g id="ytick_15">
     <g id="line2d_34">
      <g>
       <use xlink:href="#m1cbe79e67a" x="88.2" y="64.865746" style="stroke: #000000; stroke-width: 0.6"/>
      </g>
     </g>
    </g>
    <g id="ytick_16">
     <g id="line2d_35">
      <g>
       <use xlink:href="#m1cbe79e67a" x="88.2" y="51.696321" style="stroke: #000000; stroke-width: 0.6"/>
      </g>
     </g>
    </g>
    <g id="ytick_17">
     <g id="line2d_36">
      <g>
       <use xlink:href="#m1cbe79e67a" x="88.2" y="40.561731" style="stroke: #000000; stroke-width: 0.6"/>
      </g>
     </g>
    </g>
    <g id="ytick_18">
     <g id="line2d_37">
      <g>
       <use xlink:href="#m1cbe79e67a" x="88.2" y="30.916511" style="stroke: #000000; stroke-width: 0.6"/>
      </g>
     </g>
    </g>
    <g id="ytick_19">
     <g id="line2d_38">
      <g>
       <use xlink:href="#m1cbe79e67a" x="88.2" y="22.408823" style="stroke: #000000; stroke-width: 0.6"/>
      </g>
     </g>
    </g>
    <g id="text_8">
     <!-- Infection probability $\beta$ -->
     <g transform="translate(26.45 318.618438) rotate(-90) scale(0.25 -0.25)">
      <defs>
       <path id="DejaVuSans-49" d="M 628 4666 
L 1259 4666 
L 1259 0 
L 628 0 
L 628 4666 
z
" transform="scale(0.015625)"/>
       <path id="DejaVuSans-66" d="M 2375 4863 
L 2375 4384 
L 1825 4384 
Q 1516 4384 1395 4259 
Q 1275 4134 1275 3809 
L 1275 3500 
L 2222 3500 
L 2222 3053 
L 1275 3053 
L 1275 0 
L 697 0 
L 697 3053 
L 147 3053 
L 147 3500 
L 697 3500 
L 697 3744 
Q 697 4328 969 4595 
Q 1241 4863 1831 4863 
L 2375 4863 
z
" transform="scale(0.015625)"/>
       <path id="DejaVuSans-63" d="M 3122 3366 
L 3122 2828 
Q 2878 2963 2633 3030 
Q 2388 3097 2138 3097 
Q 1578 3097 1268 2742 
Q 959 2388 959 1747 
Q 959 1106 1268 751 
Q 1578 397 2138 397 
Q 2388 397 2633 464 
Q 2878 531 3122 666 
L 3122 134 
Q 2881 22 2623 -34 
Q 2366 -91 2075 -91 
Q 1284 -91 818 406 
Q 353 903 353 1747 
Q 353 2603 823 3093 
Q 1294 3584 2113 3584 
Q 2378 3584 2631 3529 
Q 2884 3475 3122 3366 
z
" transform="scale(0.015625)"/>
       <path id="DejaVuSans-Oblique-3b2" d="M 872 216 
L 572 -1331 
L -6 -1331 
L 928 3478 
Q 1206 4903 2538 4903 
Q 3888 4903 3659 3700 
Q 3503 2844 2894 2531 
Q 3713 2250 3553 1416 
Q 3272 -69 1759 -66 
Q 1097 -63 872 216 
z
M 1019 966 
Q 1259 422 1875 425 
Q 2775 425 2966 1406 
Q 3138 2288 1675 2219 
L 1778 2750 
Q 2909 2731 3106 3750 
Q 3241 4438 2509 4434 
Q 1691 4434 1503 3459 
L 1019 966 
z
" transform="scale(0.015625)"/>
      </defs>
      <use xlink:href="#DejaVuSans-49" transform="translate(0 0.390625)"/>
      <use xlink:href="#DejaVuSans-6e" transform="translate(29.492188 0.390625)"/>
      <use xlink:href="#DejaVuSans-66" transform="translate(92.871094 0.390625)"/>
      <use xlink:href="#DejaVuSans-65" transform="translate(128.076172 0.390625)"/>
      <use xlink:href="#DejaVuSans-63" transform="translate(189.599609 0.390625)"/>
      <use xlink:href="#DejaVuSans-74" transform="translate(244.580078 0.390625)"/>
      <use xlink:href="#DejaVuSans-69" transform="translate(283.789062 0.390625)"/>
      <use xlink:href="#DejaVuSans-6f" transform="translate(311.572266 0.390625)"/>
      <use xlink:href="#DejaVuSans-6e" transform="translate(372.753906 0.390625)"/>
      <use xlink:href="#DejaVuSans-20" transform="translate(436.132812 0.390625)"/>
      <use xlink:href="#DejaVuSans-70" transform="translate(467.919922 0.390625)"/>
      <use xlink:href="#DejaVuSans-72" transform="translate(531.396484 0.390625)"/>
      <use xlink:href="#DejaVuSans-6f" transform="translate(572.509766 0.390625)"/>
      <use xlink:href="#DejaVuSans-62" transform="translate(633.691406 0.390625)"/>
      <use xlink:href="#DejaVuSans-61" transform="translate(697.167969 0.390625)"/>
      <use xlink:href="#DejaVuSans-62" transform="translate(758.447266 0.390625)"/>
      <use xlink:href="#DejaVuSans-69" transform="translate(821.923828 0.390625)"/>
      <use xlink:href="#DejaVuSans-6c" transform="translate(849.707031 0.390625)"/>
      <use xlink:href="#DejaVuSans-69" transform="translate(877.490234 0.390625)"/>
      <use xlink:href="#DejaVuSans-74" transform="translate(905.273438 0.390625)"/>
      <use xlink:href="#DejaVuSans-79" transform="translate(944.482422 0.390625)"/>
      <use xlink:href="#DejaVuSans-20" transform="translate(1003.662109 0.390625)"/>
      <use xlink:href="#DejaVuSans-Oblique-3b2" transform="translate(1035.449219 0.390625)"/>
     </g>
    </g>
   </g>
   <g id="patch_3">
    <path d="M 88.2 347.438438 
L 88.2 14.798437 
" style="fill: none; stroke: #000000; stroke-width: 0.8; stroke-linejoin: miter; stroke-linecap: square"/>
   </g>
   <g id="patch_4">
    <path d="M 423 347.438438 
L 423 14.798437 
" style="fill: none; stroke: #000000; stroke-width: 0.8; stroke-linejoin: miter; stroke-linecap: square"/>
   </g>
   <g id="patch_5">
    <path d="M 88.2 347.438438 
L 423 347.438438 
" style="fill: none; stroke: #000000; stroke-width: 0.8; stroke-linejoin: miter; stroke-linecap: square"/>
   </g>
   <g id="patch_6">
    <path d="M 88.2 14.798437 
L 423 14.798437 
" style="fill: none; stroke: #000000; stroke-width: 0.8; stroke-linejoin: miter; stroke-linecap: square"/>
   </g>
   <g id="text_9">
    <!-- $p^{A}$ -->
    <g transform="translate(372.607579 72.476132) scale(0.25 -0.25)">
     <defs>
      <path id="DejaVuSans-Oblique-70" d="M 3175 2156 
Q 3175 2616 2975 2859 
Q 2775 3103 2400 3103 
Q 2144 3103 1911 2972 
Q 1678 2841 1497 2591 
Q 1319 2344 1212 1994 
Q 1106 1644 1106 1300 
Q 1106 863 1306 627 
Q 1506 391 1875 391 
Q 2147 391 2380 519 
Q 2613 647 2778 891 
Q 2956 1147 3065 1494 
Q 3175 1841 3175 2156 
z
M 1394 2969 
Q 1625 3272 1939 3428 
Q 2253 3584 2638 3584 
Q 3175 3584 3472 3232 
Q 3769 2881 3769 2247 
Q 3769 1728 3584 1258 
Q 3400 788 3053 416 
Q 2822 169 2531 39 
Q 2241 -91 1919 -91 
Q 1547 -91 1294 64 
Q 1041 219 916 525 
L 556 -1331 
L -19 -1331 
L 922 3500 
L 1497 3500 
L 1394 2969 
z
" transform="scale(0.015625)"/>
      <path id="DejaVuSans-Oblique-41" d="M 2356 4666 
L 3072 4666 
L 3938 0 
L 3278 0 
L 3084 1197 
L 984 1197 
L 325 0 
L -341 0 
L 2356 4666 
z
M 2584 4044 
L 1275 1722 
L 2988 1722 
L 2584 4044 
z
" transform="scale(0.015625)"/>
     </defs>
     <use xlink:href="#DejaVuSans-Oblique-70" transform="translate(0 0.684375)"/>
     <use xlink:href="#DejaVuSans-Oblique-41" transform="translate(68.126458 38.965625) scale(0.7)"/>
    </g>
   </g>
   <g id="text_10">
    <!-- MC -->
    <g transform="translate(372.607579 40.561731) scale(0.25 -0.25)">
     <defs>
      <path id="DejaVuSans-4d" d="M 628 4666 
L 1569 4666 
L 2759 1491 
L 3956 4666 
L 4897 4666 
L 4897 0 
L 4281 0 
L 4281 4097 
L 3078 897 
L 2444 897 
L 1241 4097 
L 1241 0 
L 628 0 
L 628 4666 
z
" transform="scale(0.015625)"/>
      <path id="DejaVuSans-43" d="M 4122 4306 
L 4122 3641 
Q 3803 3938 3442 4084 
Q 3081 4231 2675 4231 
Q 1875 4231 1450 3742 
Q 1025 3253 1025 2328 
Q 1025 1406 1450 917 
Q 1875 428 2675 428 
Q 3081 428 3442 575 
Q 3803 722 4122 1019 
L 4122 359 
Q 3791 134 3420 21 
Q 3050 -91 2638 -91 
Q 1578 -91 968 557 
Q 359 1206 359 2328 
Q 359 3453 968 4101 
Q 1578 4750 2638 4750 
Q 3056 4750 3426 4639 
Q 3797 4528 4122 4306 
z
" transform="scale(0.015625)"/>
     </defs>
     <use xlink:href="#DejaVuSans-4d"/>
     <use xlink:href="#DejaVuSans-43" transform="translate(86.279297 0)"/>
    </g>
   </g>
  </g>
 </g>
 <defs>
  <clipPath id="pf04044a9b8">
   <rect x="88.2" y="14.798437" width="334.8" height="332.64"/>
  </clipPath>
 </defs>
</svg>
