<?xml version="1.0" encoding="utf-8" standalone="no"?>
<!DOCTYPE svg PUBLIC "-//W3C//DTD SVG 1.1//EN"
  "http://www.w3.org/Graphics/SVG/1.1/DTD/svg11.dtd">
<svg xmlns:xlink="http://www.w3.org/1999/xlink" width="527.19605pt" height="402.850937pt" viewBox="0 0 527.19605 402.850937" xmlns="http://www.w3.org/2000/svg" version="1.1">
 <metadata>
  <rdf:RDF xmlns:dc="http://purl.org/dc/elements/1.1/" xmlns:cc="http://creativecommons.org/ns#" xmlns:rdf="http://www.w3.org/1999/02/22-rdf-syntax-ns#">
   <cc:Work>
    <dc:type rdf:resource="http://purl.org/dc/dcmitype/StillImage"/>
    <dc:date>2025-05-19T13:35:52.640917</dc:date>
    <dc:format>image/svg+xml</dc:format>
    <dc:creator>
     <cc:Agent>
      <dc:title>Matplotlib v3.10.1, https://matplotlib.org/</dc:title>
     </cc:Agent>
    </dc:creator>
   </cc:Work>
  </rdf:RDF>
 </metadata>
 <defs>
  <style type="text/css">*{stroke-linejoin: round; stroke-linecap: butt}</style>
 </defs>
 <g id="figure_1">
  <g id="patch_1">
   <path d="M 0 402.850937 
L 527.19605 402.850937 
L 527.19605 0 
L 0 0 
z
" style="fill: #ffffff"/>
  </g>
  <g id="axes_1">
   <g id="patch_2">
    <path d="M 83.3 347.438437 
L 416.7608 347.438437 
L 416.7608 14.798437 
L 83.3 14.798437 
z
" style="fill: #ffffff"/>
   </g>
   <g id="QuadContourSet_1">
    <path clip-path="url(#pd31b219752)" style="fill: #460a5d"/>
    <path clip-path="url(#pd31b219752)" style="fill: #481d6f"/>
    <path clip-path="url(#pd31b219752)" style="fill: #472e7c"/>
    <path d="M 88.59303 347.438437 
L 93.886056 347.438437 
L 99.179088 347.438437 
L 102.931318 347.438437 
L 99.20372 342.158436 
L 99.179088 342.124935 
L 96.648966 336.878439 
L 93.886056 333.477116 
L 91.905636 331.598435 
L 88.59303 328.699636 
L 84.894497 326.318437 
L 83.3 325.321097 
L 83.3 326.318437 
L 83.3 331.598435 
L 83.3 336.878439 
L 83.3 342.158436 
L 83.3 347.438437 
z
" clip-path="url(#pd31b219752)" style="fill: #423f85"/>
    <path d="M 104.472115 347.438437 
L 109.765142 347.438437 
L 115.058171 347.438437 
L 120.351197 347.438437 
L 125.644226 347.438437 
L 130.937255 347.438437 
L 136.230284 347.438437 
L 141.523313 347.438437 
L 143.213663 347.438437 
L 142.27611 342.158436 
L 141.523313 338.746315 
L 140.910119 336.878439 
L 137.712717 331.598435 
L 136.230284 327.741306 
L 135.215479 326.318437 
L 131.257361 321.038439 
L 130.937255 320.543396 
L 127.235382 315.758438 
L 125.644226 314.540087 
L 120.351197 311.089555 
L 119.5532 310.478441 
L 115.058171 307.021651 
L 110.986414 305.19844 
L 109.765142 304.742276 
L 104.472115 302.202046 
L 99.179088 300.519047 
L 97.249835 299.91844 
L 93.886056 298.972741 
L 88.59303 297.913587 
L 83.3 296.280425 
L 83.3 299.91844 
L 83.3 305.19844 
L 83.3 310.478441 
L 83.3 315.758438 
L 83.3 321.038439 
L 83.3 325.321097 
L 84.894497 326.318437 
L 88.59303 328.699636 
L 91.905636 331.598435 
L 93.886056 333.477116 
L 96.648966 336.878439 
L 99.179088 342.124935 
L 99.20372 342.158436 
L 102.931318 347.438437 
z
" clip-path="url(#pd31b219752)" style="fill: #3d4e8a"/>
    <path d="M 146.816343 347.438437 
L 152.109387 347.438437 
L 157.402396 347.438437 
L 162.695445 347.438437 
L 166.925883 347.438437 
L 166.181362 342.158436 
L 165.178317 336.878439 
L 163.429918 331.598435 
L 162.695445 327.7665 
L 162.460597 326.318437 
L 160.625412 321.038439 
L 157.527802 315.758438 
L 157.402396 315.449144 
L 155.132342 310.478441 
L 152.109387 307.509477 
L 149.691329 305.19844 
L 146.816343 302.748296 
L 143.395334 299.91844 
L 141.523313 298.472067 
L 136.415511 294.638439 
L 136.230284 294.537254 
L 130.937255 292.42735 
L 125.644226 289.995368 
L 123.337865 289.358439 
L 120.351197 288.614815 
L 115.058171 286.76502 
L 109.765142 285.28611 
L 107.158396 284.078437 
L 104.472115 283.009998 
L 99.179088 282.610558 
L 93.886056 281.662142 
L 88.59303 280.843232 
L 83.3 280.167323 
L 83.3 284.078437 
L 83.3 289.358439 
L 83.3 294.638439 
L 83.3 296.280425 
L 88.59303 297.913587 
L 93.886056 298.972741 
L 97.249835 299.91844 
L 99.179088 300.519047 
L 104.472115 302.202046 
L 109.765142 304.742276 
L 110.986414 305.19844 
L 115.058171 307.021651 
L 119.5532 310.478441 
L 120.351197 311.089555 
L 125.644226 314.540087 
L 127.235382 315.758438 
L 130.937255 320.543396 
L 131.257361 321.038439 
L 135.215479 326.318437 
L 136.230284 327.741306 
L 137.712717 331.598435 
L 140.910119 336.878439 
L 141.523313 338.746315 
L 142.27611 342.158436 
L 143.213663 347.438437 
z
" clip-path="url(#pd31b219752)" style="fill: #365d8d"/>
    <path d="M 167.988452 347.438437 
L 173.281501 347.438437 
L 178.574507 347.438437 
L 183.867557 347.438437 
L 185.344663 347.438437 
L 184.895641 342.158436 
L 184.234361 336.878439 
L 183.867557 335.007642 
L 183.284537 331.598435 
L 182.340644 326.318437 
L 180.583934 321.038439 
L 179.405297 315.758438 
L 178.574507 314.056053 
L 176.842153 310.478441 
L 174.356532 305.19844 
L 173.281501 303.746487 
L 170.344321 299.91844 
L 167.988452 296.667156 
L 165.917148 294.638439 
L 162.695445 291.915523 
L 159.298683 289.358439 
L 157.402396 288.252608 
L 152.205083 284.078437 
L 152.109387 284.017442 
L 146.816343 282.318235 
L 141.523313 279.794101 
L 139.068605 278.798422 
L 136.230284 277.774301 
L 130.937255 276.549808 
L 125.644226 275.128147 
L 120.351197 273.795584 
L 119.441149 273.518441 
L 115.058171 272.365316 
L 109.765142 271.36689 
L 104.472115 269.95601 
L 99.179088 269.310678 
L 93.886056 268.88262 
L 88.59303 268.348343 
L 88.271899 268.238422 
L 83.3 266.630418 
L 83.3 268.238422 
L 83.3 273.518441 
L 83.3 278.798422 
L 83.3 280.167323 
L 88.59303 280.843232 
L 93.886056 281.662142 
L 99.179088 282.610558 
L 104.472115 283.009998 
L 107.158396 284.078437 
L 109.765142 285.28611 
L 115.058171 286.76502 
L 120.351197 288.614815 
L 123.337865 289.358439 
L 125.644226 289.995368 
L 130.937255 292.42735 
L 136.230284 294.537254 
L 136.415511 294.638439 
L 141.523313 298.472067 
L 143.395334 299.91844 
L 146.816343 302.748296 
L 149.691329 305.19844 
L 152.109387 307.509477 
L 155.132342 310.478441 
L 157.402396 315.449144 
L 157.527802 315.758438 
L 160.625412 321.038439 
L 162.460597 326.318437 
L 162.695445 327.7665 
L 163.429918 331.598435 
L 165.178317 336.878439 
L 166.181362 342.158436 
L 166.925883 347.438437 
z
" clip-path="url(#pd31b219752)" style="fill: #306a8e"/>
    <path d="M 189.160564 347.438437 
L 194.453612 347.438437 
L 199.746622 347.438437 
L 201.482178 347.438437 
L 200.611902 342.158436 
L 200.339713 336.878439 
L 200.001599 331.598435 
L 199.746622 330.451804 
L 198.810582 326.318437 
L 198.08942 321.038439 
L 196.978428 315.758438 
L 195.304134 310.478441 
L 194.453612 308.179069 
L 193.194477 305.19844 
L 190.834837 299.91844 
L 189.160564 296.922297 
L 187.97126 294.638439 
L 183.867557 290.127145 
L 183.199606 289.358439 
L 178.574507 284.591956 
L 177.910069 284.078437 
L 173.281501 280.19057 
L 171.20025 278.798422 
L 167.988452 277.076223 
L 162.695445 273.964312 
L 161.545137 273.518441 
L 157.402396 272.082815 
L 152.109387 269.321003 
L 148.418645 268.238422 
L 146.816343 267.829038 
L 141.523313 266.074544 
L 136.230284 264.788694 
L 130.937255 263.012874 
L 130.688422 262.958442 
L 125.644226 262.015261 
L 120.351197 261.128645 
L 115.058171 260.248233 
L 109.765142 259.098976 
L 104.472115 258.216033 
L 100.40631 257.678423 
L 99.179088 257.512948 
L 93.886056 257.001379 
L 88.59303 256.18657 
L 83.3 255.690685 
L 83.3 257.678423 
L 83.3 262.958442 
L 83.3 266.630418 
L 88.271899 268.238422 
L 88.59303 268.348343 
L 93.886056 268.88262 
L 99.179088 269.310678 
L 104.472115 269.95601 
L 109.765142 271.36689 
L 115.058171 272.365316 
L 119.441149 273.518441 
L 120.351197 273.795584 
L 125.644226 275.128147 
L 130.937255 276.549808 
L 136.230284 277.774301 
L 139.068605 278.798422 
L 141.523313 279.794101 
L 146.816343 282.318235 
L 152.109387 284.017442 
L 152.205083 284.078437 
L 157.402396 288.252608 
L 159.298683 289.358439 
L 162.695445 291.915523 
L 165.917148 294.638439 
L 167.988452 296.667156 
L 170.344321 299.91844 
L 173.281501 303.746487 
L 174.356532 305.19844 
L 176.842153 310.478441 
L 178.574507 314.056053 
L 179.405297 315.758438 
L 180.583934 321.038439 
L 182.340644 326.318437 
L 183.284537 331.598435 
L 183.867557 335.007642 
L 184.234361 336.878439 
L 184.895641 342.158436 
L 185.344663 347.438437 
z
" clip-path="url(#pd31b219752)" style="fill: #2a778e"/>
    <path d="M 205.039672 347.438437 
L 210.332701 347.438437 
L 215.532717 347.438437 
L 215.462668 342.158436 
L 215.205433 336.878439 
L 214.85043 331.598435 
L 214.074078 326.318437 
L 213.284625 321.038439 
L 212.334207 315.758438 
L 211.581098 310.478441 
L 210.332701 306.22861 
L 210.048121 305.19844 
L 208.53352 299.91844 
L 206.299997 294.638439 
L 205.039672 292.368444 
L 203.079123 289.358439 
L 199.763602 284.078437 
L 199.746622 284.05487 
L 195.178716 278.798422 
L 194.453612 278.205864 
L 189.160564 273.596456 
L 189.063702 273.518441 
L 183.867557 269.830064 
L 180.527075 268.238422 
L 178.574507 267.336641 
L 173.281501 264.422799 
L 169.669745 262.958442 
L 167.988452 262.242093 
L 162.695445 259.925897 
L 157.402396 258.040972 
L 156.103363 257.678423 
L 152.109387 256.46854 
L 146.816343 254.60234 
L 141.523313 253.606399 
L 137.277633 252.398445 
L 136.230284 252.095849 
L 130.937255 251.473833 
L 125.644226 250.318539 
L 120.351197 249.402311 
L 115.058171 248.540302 
L 109.765142 247.682094 
L 106.160029 247.118424 
L 104.472115 246.875188 
L 99.179088 246.616743 
L 93.886056 245.486312 
L 88.59303 245.434023 
L 83.3 244.806845 
L 83.3 247.118424 
L 83.3 252.398445 
L 83.3 255.690685 
L 88.59303 256.18657 
L 93.886056 257.001379 
L 99.179088 257.512948 
L 100.40631 257.678423 
L 104.472115 258.216033 
L 109.765142 259.098976 
L 115.058171 260.248233 
L 120.351197 261.128645 
L 125.644226 262.015261 
L 130.688422 262.958442 
L 130.937255 263.012874 
L 136.230284 264.788694 
L 141.523313 266.074544 
L 146.816343 267.829038 
L 148.418645 268.238422 
L 152.109387 269.321003 
L 157.402396 272.082815 
L 161.545137 273.518441 
L 162.695445 273.964312 
L 167.988452 277.076223 
L 171.20025 278.798422 
L 173.281501 280.19057 
L 177.910069 284.078437 
L 178.574507 284.591956 
L 183.199606 289.358439 
L 183.867557 290.127145 
L 187.97126 294.638439 
L 189.160564 296.922297 
L 190.834837 299.91844 
L 193.194477 305.19844 
L 194.453612 308.179069 
L 195.304134 310.478441 
L 196.978428 315.758438 
L 198.08942 321.038439 
L 198.810582 326.318437 
L 199.746622 330.451804 
L 200.001599 331.598435 
L 200.339713 336.878439 
L 200.611902 342.158436 
L 201.482178 347.438437 
z
" clip-path="url(#pd31b219752)" style="fill: #25838e"/>
    <path d="M 215.625726 347.438437 
L 220.918757 347.438437 
L 226.211783 347.438437 
L 229.627004 347.438437 
L 229.396043 342.158436 
L 229.13053 336.878439 
L 228.655836 331.598435 
L 228.523658 326.318437 
L 227.958815 321.038439 
L 227.456595 315.758438 
L 226.56132 310.478441 
L 226.211783 308.39642 
L 225.625469 305.19844 
L 224.587117 299.91844 
L 222.742036 294.638439 
L 220.918757 289.619813 
L 220.799466 289.358439 
L 218.217596 284.078437 
L 215.625726 279.546178 
L 215.0382 278.798422 
L 211.207086 273.518441 
L 210.332701 272.57365 
L 205.039672 268.667276 
L 204.54817 268.238422 
L 199.746622 263.325745 
L 199.209798 262.958442 
L 194.453612 260.253187 
L 189.160564 257.810444 
L 188.928027 257.678423 
L 183.867557 254.685581 
L 178.574507 252.843161 
L 177.766739 252.398445 
L 173.281501 249.972914 
L 167.988452 248.520461 
L 163.272953 247.118424 
L 162.695445 246.930622 
L 157.402396 245.717789 
L 152.109387 244.088634 
L 146.816343 242.74822 
L 142.972083 241.838445 
L 141.523313 241.512189 
L 136.230284 240.780749 
L 130.937255 239.415739 
L 125.644226 238.573537 
L 120.351197 237.652308 
L 115.058171 237.198402 
L 111.697638 236.558426 
L 109.765142 235.959114 
L 104.472115 234.922498 
L 99.179088 233.715082 
L 93.886056 232.351441 
L 88.617271 231.278444 
L 88.59303 231.272656 
L 83.3 229.881983 
L 83.3 231.278444 
L 83.3 236.558426 
L 83.3 241.838445 
L 83.3 244.806845 
L 88.59303 245.434023 
L 93.886056 245.486312 
L 99.179088 246.616743 
L 104.472115 246.875188 
L 106.160029 247.118424 
L 109.765142 247.682094 
L 115.058171 248.540302 
L 120.351197 249.402311 
L 125.644226 250.318539 
L 130.937255 251.473833 
L 136.230284 252.095849 
L 137.277633 252.398445 
L 141.523313 253.606399 
L 146.816343 254.60234 
L 152.109387 256.46854 
L 156.103363 257.678423 
L 157.402396 258.040972 
L 162.695445 259.925897 
L 167.988452 262.242093 
L 169.669745 262.958442 
L 173.281501 264.422799 
L 178.574507 267.336641 
L 180.527075 268.238422 
L 183.867557 269.830064 
L 189.063702 273.518441 
L 189.160564 273.596456 
L 194.453612 278.205864 
L 195.178716 278.798422 
L 199.746622 284.05487 
L 199.763602 284.078437 
L 203.079123 289.358439 
L 205.039672 292.368444 
L 206.299997 294.638439 
L 208.53352 299.91844 
L 210.048121 305.19844 
L 210.332701 306.22861 
L 211.581098 310.478441 
L 212.334207 315.758438 
L 213.284625 321.038439 
L 214.074078 326.318437 
L 214.85043 331.598435 
L 215.205433 336.878439 
L 215.462668 342.158436 
L 215.532717 347.438437 
z
" clip-path="url(#pd31b219752)" style="fill: #21918c"/>
    <path d="M 231.504813 347.438437 
L 236.797841 347.438437 
L 242.090867 347.438437 
L 243.356483 347.438437 
L 243.134816 342.158436 
L 243.037129 336.878439 
L 243.114104 331.598435 
L 242.35409 326.318437 
L 242.090867 323.590087 
L 241.867383 321.038439 
L 241.578004 315.758438 
L 240.927901 310.478441 
L 240.302409 305.19844 
L 239.224954 299.91844 
L 238.512418 294.638439 
L 236.824123 289.358439 
L 236.797841 289.288181 
L 235.033314 284.078437 
L 232.794539 278.798422 
L 231.504813 276.292711 
L 229.909027 273.518441 
L 226.385947 268.238422 
L 226.211783 268.041939 
L 221.397075 262.958442 
L 220.918757 262.429658 
L 216.37069 257.678423 
L 215.625726 257.097816 
L 210.332701 253.384535 
L 208.790836 252.398445 
L 205.039672 250.182163 
L 199.746622 247.346576 
L 199.283396 247.118424 
L 194.453612 244.549402 
L 189.160564 242.635234 
L 187.352045 241.838445 
L 183.867557 240.265608 
L 178.574507 238.209362 
L 173.281501 237.063682 
L 171.954105 236.558426 
L 167.988452 234.810612 
L 162.695445 233.711511 
L 157.402396 232.035472 
L 155.091526 231.278444 
L 152.109387 229.637008 
L 146.816343 226.686376 
L 144.685843 225.998423 
L 141.523313 224.541003 
L 136.5508 220.718422 
L 136.230284 220.535928 
L 130.937255 218.454864 
L 125.644226 215.859573 
L 124.846746 215.438426 
L 120.351197 212.64823 
L 115.058171 210.722727 
L 113.726466 210.158424 
L 109.765142 208.50669 
L 104.472115 206.61639 
L 99.179088 205.21942 
L 98.016965 204.878426 
L 93.886056 203.611406 
L 88.59303 201.999769 
L 83.3 200.652343 
L 83.3 204.878426 
L 83.3 210.158424 
L 83.3 215.438426 
L 83.3 220.718422 
L 83.3 225.998423 
L 83.3 229.881983 
L 88.59303 231.272656 
L 88.617271 231.278444 
L 93.886056 232.351441 
L 99.179088 233.715082 
L 104.472115 234.922498 
L 109.765142 235.959114 
L 111.697638 236.558426 
L 115.058171 237.198402 
L 120.351197 237.652308 
L 125.644226 238.573537 
L 130.937255 239.415739 
L 136.230284 240.780749 
L 141.523313 241.512189 
L 142.972083 241.838445 
L 146.816343 242.74822 
L 152.109387 244.088634 
L 157.402396 245.717789 
L 162.695445 246.930622 
L 163.272953 247.118424 
L 167.988452 248.520461 
L 173.281501 249.972914 
L 177.766739 252.398445 
L 178.574507 252.843161 
L 183.867557 254.685581 
L 188.928027 257.678423 
L 189.160564 257.810444 
L 194.453612 260.253187 
L 199.209798 262.958442 
L 199.746622 263.325745 
L 204.54817 268.238422 
L 205.039672 268.667276 
L 210.332701 272.57365 
L 211.207086 273.518441 
L 215.0382 278.798422 
L 215.625726 279.546178 
L 218.217596 284.078437 
L 220.799466 289.358439 
L 220.918757 289.619813 
L 222.742036 294.638439 
L 224.587117 299.91844 
L 225.625469 305.19844 
L 226.211783 308.39642 
L 226.56132 310.478441 
L 227.456595 315.758438 
L 227.958815 321.038439 
L 228.523658 326.318437 
L 228.655836 331.598435 
L 229.13053 336.878439 
L 229.396043 342.158436 
L 229.627004 347.438437 
z
" clip-path="url(#pd31b219752)" style="fill: #1e9d89"/>
    <path d="M 247.383897 347.438437 
L 252.676907 347.438437 
L 257.533193 347.438437 
L 257.680495 342.158436 
L 257.297627 336.878439 
L 257.293078 331.598435 
L 257.101324 326.318437 
L 256.843489 321.038439 
L 256.316611 315.758438 
L 256.287395 310.478441 
L 255.592945 305.19844 
L 254.677027 299.91844 
L 254.065232 294.638439 
L 252.835644 289.358439 
L 252.676907 288.415011 
L 251.944069 284.078437 
L 249.967136 278.798422 
L 247.812168 273.518441 
L 247.383897 272.705304 
L 245.211182 268.238422 
L 242.167945 262.958442 
L 242.090867 262.842442 
L 238.292577 257.678423 
L 236.797841 256.198844 
L 233.075821 252.398445 
L 231.504813 250.937539 
L 227.364458 247.118424 
L 226.211783 246.129223 
L 220.918757 242.53494 
L 220.074026 241.838445 
L 215.625726 239.210035 
L 210.332701 236.597492 
L 210.241529 236.558426 
L 205.039672 233.915619 
L 199.997096 231.278444 
L 199.746622 231.169233 
L 194.453612 229.162576 
L 189.160564 226.724699 
L 187.676541 225.998423 
L 183.867557 222.53096 
L 182.081047 220.718422 
L 178.574507 217.286997 
L 176.589151 215.438426 
L 173.281501 211.767858 
L 171.497439 210.158424 
L 167.988452 207.210833 
L 165.533025 204.878426 
L 162.695445 201.986777 
L 159.28252 199.598424 
L 157.402396 198.162489 
L 152.791298 194.318425 
L 152.109387 193.859682 
L 146.816343 190.790627 
L 144.398542 189.038427 
L 141.523313 187.322643 
L 136.230284 184.559003 
L 134.678948 183.758427 
L 130.937255 182.116063 
L 125.644226 179.269941 
L 123.893332 178.478445 
L 120.351197 176.994272 
L 115.058171 174.830136 
L 110.393329 173.198448 
L 109.765142 172.936618 
L 104.472115 171.215791 
L 99.179088 169.240054 
L 95.003502 167.918447 
L 93.886056 167.446743 
L 88.59303 165.399337 
L 83.3 164.701539 
L 83.3 167.918447 
L 83.3 173.198448 
L 83.3 178.478445 
L 83.3 183.758427 
L 83.3 189.038427 
L 83.3 194.318425 
L 83.3 199.598424 
L 83.3 200.652343 
L 88.59303 201.999769 
L 93.886056 203.611406 
L 98.016965 204.878426 
L 99.179088 205.21942 
L 104.472115 206.61639 
L 109.765142 208.50669 
L 113.726466 210.158424 
L 115.058171 210.722727 
L 120.351197 212.64823 
L 124.846746 215.438426 
L 125.644226 215.859573 
L 130.937255 218.454864 
L 136.230284 220.535928 
L 136.5508 220.718422 
L 141.523313 224.541003 
L 144.685843 225.998423 
L 146.816343 226.686376 
L 152.109387 229.637008 
L 155.091526 231.278444 
L 157.402396 232.035472 
L 162.695445 233.711511 
L 167.988452 234.810612 
L 171.954105 236.558426 
L 173.281501 237.063682 
L 178.574507 238.209362 
L 183.867557 240.265608 
L 187.352045 241.838445 
L 189.160564 242.635234 
L 194.453612 244.549402 
L 199.283396 247.118424 
L 199.746622 247.346576 
L 205.039672 250.182163 
L 208.790836 252.398445 
L 210.332701 253.384535 
L 215.625726 257.097816 
L 216.37069 257.678423 
L 220.918757 262.429658 
L 221.397075 262.958442 
L 226.211783 268.041939 
L 226.385947 268.238422 
L 229.909027 273.518441 
L 231.504813 276.292711 
L 232.794539 278.798422 
L 235.033314 284.078437 
L 236.797841 289.288181 
L 236.824123 289.358439 
L 238.512418 294.638439 
L 239.224954 299.91844 
L 240.302409 305.19844 
L 240.927901 310.478441 
L 241.578004 315.758438 
L 241.867383 321.038439 
L 242.090867 323.590087 
L 242.35409 326.318437 
L 243.114104 331.598435 
L 243.037129 336.878439 
L 243.134816 342.158436 
L 243.356483 347.438437 
z
" clip-path="url(#pd31b219752)" style="fill: #23a983"/>
    <path d="M 257.969932 347.438437 
L 263.262961 347.438437 
L 268.555992 347.438437 
L 273.092245 347.438437 
L 273.032278 342.158436 
L 272.760098 336.878439 
L 272.650037 331.598435 
L 272.477617 326.318437 
L 272.314471 321.038439 
L 272.091353 315.758438 
L 271.579876 310.478441 
L 271.372654 305.19844 
L 270.998997 299.91844 
L 270.286991 294.638439 
L 269.596945 289.358439 
L 268.654538 284.078437 
L 268.555992 283.710737 
L 267.237119 278.798422 
L 266.265544 273.518441 
L 263.749184 268.238422 
L 263.262961 266.846802 
L 262.006239 262.958442 
L 258.45909 257.678423 
L 257.969932 256.822221 
L 255.565481 252.398445 
L 252.676907 248.336157 
L 251.71637 247.118424 
L 247.383897 242.761348 
L 246.372748 241.838445 
L 242.090867 238.30503 
L 239.935989 236.558426 
L 236.797841 233.97717 
L 232.641962 231.278444 
L 231.504813 230.540471 
L 226.211783 226.888336 
L 224.1387 225.998423 
L 220.918757 224.427039 
L 215.625726 220.962293 
L 215.30684 220.718422 
L 212.302801 215.438426 
L 210.332701 211.677857 
L 209.447474 210.158424 
L 206.567544 204.878426 
L 205.039672 202.611016 
L 202.722021 199.598424 
L 199.746622 195.694221 
L 198.636006 194.318425 
L 195.037328 189.038427 
L 194.453612 188.233002 
L 191.040476 183.758427 
L 189.160564 181.260059 
L 187.181673 178.478445 
L 183.867557 175.208551 
L 181.399265 173.198448 
L 178.574507 170.527505 
L 176.014355 167.918447 
L 173.281501 164.693587 
L 170.571297 162.638446 
L 167.988452 160.583609 
L 164.457609 157.358448 
L 162.695445 155.785858 
L 157.402396 152.167477 
L 157.291796 152.078451 
L 152.109387 147.369186 
L 150.920739 146.798449 
L 146.816343 144.588318 
L 143.094188 141.51845 
L 141.523313 140.571793 
L 136.230284 138.779606 
L 130.937255 136.240428 
L 130.931883 136.238442 
L 125.644226 135.03048 
L 120.351197 134.058071 
L 115.058171 132.852735 
L 109.765142 132.148912 
L 104.472115 131.637012 
L 100.91735 130.958438 
L 99.179088 130.623984 
L 93.886056 129.607316 
L 88.59303 129.308082 
L 83.3 128.405734 
L 83.3 130.958438 
L 83.3 136.238442 
L 83.3 141.51845 
L 83.3 146.798449 
L 83.3 152.078451 
L 83.3 157.358448 
L 83.3 162.638446 
L 83.3 164.701539 
L 88.59303 165.399337 
L 93.886056 167.446743 
L 95.003502 167.918447 
L 99.179088 169.240054 
L 104.472115 171.215791 
L 109.765142 172.936618 
L 110.393329 173.198448 
L 115.058171 174.830136 
L 120.351197 176.994272 
L 123.893332 178.478445 
L 125.644226 179.269941 
L 130.937255 182.116063 
L 134.678948 183.758427 
L 136.230284 184.559003 
L 141.523313 187.322643 
L 144.398542 189.038427 
L 146.816343 190.790627 
L 152.109387 193.859682 
L 152.791298 194.318425 
L 157.402396 198.162489 
L 159.28252 199.598424 
L 162.695445 201.986777 
L 165.533025 204.878426 
L 167.988452 207.210833 
L 171.497439 210.158424 
L 173.281501 211.767858 
L 176.589151 215.438426 
L 178.574507 217.286997 
L 182.081047 220.718422 
L 183.867557 222.53096 
L 187.676541 225.998423 
L 189.160564 226.724699 
L 194.453612 229.162576 
L 199.746622 231.169233 
L 199.997096 231.278444 
L 205.039672 233.915619 
L 210.241529 236.558426 
L 210.332701 236.597492 
L 215.625726 239.210035 
L 220.074026 241.838445 
L 220.918757 242.53494 
L 226.211783 246.129223 
L 227.364458 247.118424 
L 231.504813 250.937539 
L 233.075821 252.398445 
L 236.797841 256.198844 
L 238.292577 257.678423 
L 242.090867 262.842442 
L 242.167945 262.958442 
L 245.211182 268.238422 
L 247.383897 272.705304 
L 247.812168 273.518441 
L 249.967136 278.798422 
L 251.944069 284.078437 
L 252.676907 288.415011 
L 252.835644 289.358439 
L 254.065232 294.638439 
L 254.677027 299.91844 
L 255.592945 305.19844 
L 256.287395 310.478441 
L 256.316611 315.758438 
L 256.843489 321.038439 
L 257.101324 326.318437 
L 257.293078 331.598435 
L 257.297627 336.878439 
L 257.680495 342.158436 
L 257.533193 347.438437 
z
" clip-path="url(#pd31b219752)" style="fill: #32b67a"/>
    <path d="M 273.849018 347.438437 
L 279.142044 347.438437 
L 284.435074 347.438437 
L 289.728102 347.438437 
L 289.794666 347.438437 
L 289.797753 342.158436 
L 289.837277 336.878439 
L 289.871383 331.598435 
L 289.728102 329.227739 
L 289.564162 326.318437 
L 289.414094 321.038439 
L 289.178997 315.758438 
L 288.922665 310.478441 
L 289.042063 305.19844 
L 288.45678 299.91844 
L 287.996164 294.638439 
L 287.649207 289.358439 
L 286.765796 284.078437 
L 286.391013 278.798422 
L 285.137269 273.518441 
L 284.435074 270.865829 
L 283.760601 268.238422 
L 281.953128 262.958442 
L 280.005543 257.678423 
L 279.142044 255.73075 
L 277.661324 252.398445 
L 274.949735 247.118424 
L 273.849018 245.320246 
L 271.523887 241.838445 
L 268.555992 238.426449 
L 266.722974 236.558426 
L 263.262961 232.521536 
L 262.142595 231.278444 
L 257.969932 227.41685 
L 256.276943 225.998423 
L 252.676907 223.138735 
L 249.856774 220.718422 
L 247.383897 218.723841 
L 243.326692 215.438426 
L 242.090867 213.533272 
L 240.143103 210.158424 
L 238.646049 204.878426 
L 236.797841 200.541556 
L 236.363744 199.598424 
L 234.65464 194.318425 
L 232.070964 189.038427 
L 231.504813 187.294062 
L 230.32076 183.758427 
L 227.653857 178.478445 
L 226.211783 175.528152 
L 225.041848 173.198448 
L 222.905353 167.918447 
L 220.918757 164.556845 
L 219.587309 162.638446 
L 217.062762 157.358448 
L 215.625726 154.182317 
L 214.335103 152.078451 
L 211.33662 146.798449 
L 210.332701 145.270903 
L 207.227797 141.51845 
L 205.039672 137.244531 
L 204.388801 136.238442 
L 199.746622 132.220303 
L 198.469461 130.958438 
L 194.453612 128.639369 
L 189.160564 126.434904 
L 187.408123 125.678439 
L 183.867557 124.129268 
L 178.574507 122.259904 
L 174.007076 120.398439 
L 173.281501 120.088897 
L 167.988452 118.312331 
L 162.695445 117.31995 
L 157.402396 115.76417 
L 155.316063 115.11844 
L 152.109387 114.078541 
L 146.816343 112.482966 
L 141.523313 111.165762 
L 136.230284 110.466602 
L 133.49569 109.83844 
L 130.937255 109.228333 
L 125.644226 108.133352 
L 120.351197 107.292404 
L 115.058171 106.575362 
L 109.765142 105.060411 
L 104.472115 104.671352 
L 103.512132 104.558439 
L 99.179088 104.079044 
L 93.886056 103.504295 
L 88.59303 102.872006 
L 83.3 102.512344 
L 83.3 104.558439 
L 83.3 109.83844 
L 83.3 115.11844 
L 83.3 120.398439 
L 83.3 125.678439 
L 83.3 128.405734 
L 88.59303 129.308082 
L 93.886056 129.607316 
L 99.179088 130.623984 
L 100.91735 130.958438 
L 104.472115 131.637012 
L 109.765142 132.148912 
L 115.058171 132.852735 
L 120.351197 134.058071 
L 125.644226 135.03048 
L 130.931883 136.238442 
L 130.937255 136.240428 
L 136.230284 138.779606 
L 141.523313 140.571793 
L 143.094188 141.51845 
L 146.816343 144.588318 
L 150.920739 146.798449 
L 152.109387 147.369186 
L 157.291796 152.078451 
L 157.402396 152.167477 
L 162.695445 155.785858 
L 164.457609 157.358448 
L 167.988452 160.583609 
L 170.571297 162.638446 
L 173.281501 164.693587 
L 176.014355 167.918447 
L 178.574507 170.527505 
L 181.399265 173.198448 
L 183.867557 175.208551 
L 187.181673 178.478445 
L 189.160564 181.260059 
L 191.040476 183.758427 
L 194.453612 188.233002 
L 195.037328 189.038427 
L 198.636006 194.318425 
L 199.746622 195.694221 
L 202.722021 199.598424 
L 205.039672 202.611016 
L 206.567544 204.878426 
L 209.447474 210.158424 
L 210.332701 211.677857 
L 212.302801 215.438426 
L 215.30684 220.718422 
L 215.625726 220.962293 
L 220.918757 224.427039 
L 224.1387 225.998423 
L 226.211783 226.888336 
L 231.504813 230.540471 
L 232.641962 231.278444 
L 236.797841 233.97717 
L 239.935989 236.558426 
L 242.090867 238.30503 
L 246.372748 241.838445 
L 247.383897 242.761348 
L 251.71637 247.118424 
L 252.676907 248.336157 
L 255.565481 252.398445 
L 257.969932 256.822221 
L 258.45909 257.678423 
L 262.006239 262.958442 
L 263.262961 266.846802 
L 263.749184 268.238422 
L 266.265544 273.518441 
L 267.237119 278.798422 
L 268.555992 283.710737 
L 268.654538 284.078437 
L 269.596945 289.358439 
L 270.286991 294.638439 
L 270.998997 299.91844 
L 271.372654 305.19844 
L 271.579876 310.478441 
L 272.091353 315.758438 
L 272.314471 321.038439 
L 272.477617 326.318437 
L 272.650037 331.598435 
L 272.760098 336.878439 
L 273.032278 342.158436 
L 273.092245 347.438437 
z
" clip-path="url(#pd31b219752)" style="fill: #48c16e"/>
    <path d="M 295.021139 347.438437 
L 300.314171 347.438437 
L 305.607198 347.438437 
L 309.839027 347.438437 
L 309.860789 342.158436 
L 309.833863 336.878439 
L 309.674012 331.598435 
L 309.647248 326.318437 
L 309.554924 321.038439 
L 309.426042 315.758438 
L 309.12888 310.478441 
L 309.088403 305.19844 
L 308.62855 299.91844 
L 308.556466 294.638439 
L 308.099699 289.358439 
L 307.667181 284.078437 
L 307.01048 278.798422 
L 306.222967 273.518441 
L 305.607198 270.392277 
L 305.228155 268.238422 
L 304.218762 262.958442 
L 303.1768 257.678423 
L 301.365901 252.398445 
L 300.314171 249.370515 
L 299.509682 247.118424 
L 296.814719 241.838445 
L 295.021139 238.507219 
L 293.929521 236.558426 
L 290.405666 231.278444 
L 289.728102 230.302552 
L 286.177269 225.998423 
L 284.435074 224.07227 
L 281.552852 220.718422 
L 279.142044 218.24309 
L 276.089305 215.438426 
L 273.849018 213.233787 
L 270.92971 210.158424 
L 268.555992 205.0382 
L 268.48499 204.878426 
L 267.573254 199.598424 
L 266.155814 194.318425 
L 265.40886 189.038427 
L 264.112465 183.758427 
L 263.262961 180.70158 
L 262.660103 178.478445 
L 261.294867 173.198448 
L 259.923948 167.918447 
L 258.334292 162.638446 
L 257.969932 161.174283 
L 256.983061 157.358448 
L 255.621593 152.078451 
L 253.415505 146.798449 
L 252.676907 144.126826 
L 252.043921 141.51845 
L 250.538855 136.238442 
L 248.859414 130.958438 
L 247.383897 128.243402 
L 245.765447 125.678439 
L 242.090867 122.349564 
L 239.542786 120.398439 
L 236.797841 118.214734 
L 231.504813 115.125786 
L 231.493804 115.11844 
L 226.211783 111.212821 
L 223.757483 109.83844 
L 220.918757 108.160006 
L 215.625726 105.383743 
L 214.313056 104.558439 
L 210.332701 102.097197 
L 205.039672 100.018089 
L 203.421054 99.27844 
L 199.746622 97.484904 
L 194.453612 94.839931 
L 191.963539 93.998441 
L 189.160564 93.013771 
L 183.867557 90.843205 
L 178.574507 89.118358 
L 177.394249 88.718441 
L 173.281501 87.300539 
L 167.988452 85.454543 
L 162.695445 84.298675 
L 160.07639 83.438445 
L 157.402396 82.465038 
L 152.109387 81.080598 
L 146.816343 79.783273 
L 141.523313 78.435474 
L 140.043152 78.158445 
L 136.230284 77.276168 
L 130.937255 76.040182 
L 125.644226 74.872649 
L 120.351197 73.695276 
L 115.058171 73.048164 
L 114.212236 72.878439 
L 109.765142 71.841755 
L 104.472115 71.205215 
L 99.179088 70.352109 
L 93.886056 69.308411 
L 88.59303 68.700269 
L 83.3 68.484803 
L 83.3 72.878439 
L 83.3 78.158445 
L 83.3 83.438445 
L 83.3 88.718441 
L 83.3 93.998441 
L 83.3 99.27844 
L 83.3 102.512344 
L 88.59303 102.872006 
L 93.886056 103.504295 
L 99.179088 104.079044 
L 103.512132 104.558439 
L 104.472115 104.671352 
L 109.765142 105.060411 
L 115.058171 106.575362 
L 120.351197 107.292404 
L 125.644226 108.133352 
L 130.937255 109.228333 
L 133.49569 109.83844 
L 136.230284 110.466602 
L 141.523313 111.165762 
L 146.816343 112.482966 
L 152.109387 114.078541 
L 155.316063 115.11844 
L 157.402396 115.76417 
L 162.695445 117.31995 
L 167.988452 118.312331 
L 173.281501 120.088897 
L 174.007076 120.398439 
L 178.574507 122.259904 
L 183.867557 124.129268 
L 187.408123 125.678439 
L 189.160564 126.434904 
L 194.453612 128.639369 
L 198.469461 130.958438 
L 199.746622 132.220303 
L 204.388801 136.238442 
L 205.039672 137.244531 
L 207.227797 141.51845 
L 210.332701 145.270903 
L 211.33662 146.798449 
L 214.335103 152.078451 
L 215.625726 154.182317 
L 217.062762 157.358448 
L 219.587309 162.638446 
L 220.918757 164.556845 
L 222.905353 167.918447 
L 225.041848 173.198448 
L 226.211783 175.528152 
L 227.653857 178.478445 
L 230.32076 183.758427 
L 231.504813 187.294062 
L 232.070964 189.038427 
L 234.65464 194.318425 
L 236.363744 199.598424 
L 236.797841 200.541556 
L 238.646049 204.878426 
L 240.143103 210.158424 
L 242.090867 213.533272 
L 243.326692 215.438426 
L 247.383897 218.723841 
L 249.856774 220.718422 
L 252.676907 223.138735 
L 256.276943 225.998423 
L 257.969932 227.41685 
L 262.142595 231.278444 
L 263.262961 232.521536 
L 266.722974 236.558426 
L 268.555992 238.426449 
L 271.523887 241.838445 
L 273.849018 245.320246 
L 274.949735 247.118424 
L 277.661324 252.398445 
L 279.142044 255.73075 
L 280.005543 257.678423 
L 281.953128 262.958442 
L 283.760601 268.238422 
L 284.435074 270.865829 
L 285.137269 273.518441 
L 286.391013 278.798422 
L 286.765796 284.078437 
L 287.649207 289.358439 
L 287.996164 294.638439 
L 288.45678 299.91844 
L 289.042063 305.19844 
L 288.922665 310.478441 
L 289.178997 315.758438 
L 289.414094 321.038439 
L 289.564162 326.318437 
L 289.728102 329.227739 
L 289.871383 331.598435 
L 289.837277 336.878439 
L 289.797753 342.158436 
L 289.794666 347.438437 
z
" clip-path="url(#pd31b219752)" style="fill: #65cb5e"/>
    <path d="M 310.900227 347.438437 
L 316.193255 347.438437 
L 321.486283 347.438437 
L 326.779312 347.438437 
L 332.07234 347.438437 
L 334.723944 347.438437 
L 334.734633 342.158436 
L 334.585514 336.878439 
L 334.592999 331.598435 
L 334.531172 326.318437 
L 334.560096 321.038439 
L 334.202561 315.758438 
L 334.001927 310.478441 
L 334.186061 305.19844 
L 334.113955 299.91844 
L 333.673123 294.638439 
L 333.770183 289.358439 
L 333.092534 284.078437 
L 332.557899 278.798422 
L 332.379414 273.518441 
L 332.07234 270.517051 
L 331.83778 268.238422 
L 330.987801 262.958442 
L 329.949246 257.678423 
L 328.99694 252.398445 
L 327.366745 247.118424 
L 326.779312 244.98757 
L 325.920755 241.838445 
L 323.838348 236.558426 
L 321.486283 231.905045 
L 321.130083 231.278444 
L 318.205544 225.998423 
L 316.193255 222.834869 
L 314.884879 220.718422 
L 310.900227 215.582954 
L 310.787838 215.438426 
L 306.857912 210.158424 
L 305.607198 208.628002 
L 302.642567 204.878426 
L 300.314171 200.740919 
L 299.747617 199.598424 
L 299.307526 194.318425 
L 298.560228 189.038427 
L 298.108028 183.758427 
L 297.756144 178.478445 
L 297.194674 173.198448 
L 296.485523 167.918447 
L 295.707613 162.638446 
L 295.021139 158.828077 
L 294.778324 157.358448 
L 294.22328 152.078451 
L 293.273888 146.798449 
L 292.828877 141.51845 
L 291.976266 136.238442 
L 291.076121 130.958438 
L 290.048081 125.678439 
L 289.728102 124.363389 
L 288.671897 120.398439 
L 284.868719 115.11844 
L 284.435074 114.615751 
L 280.403495 109.83844 
L 279.142044 108.561574 
L 275.041523 104.558439 
L 273.849018 103.273404 
L 270.037722 99.27844 
L 268.555992 97.798068 
L 264.154887 93.998441 
L 263.262961 93.232429 
L 257.969932 89.323694 
L 257.265911 88.718441 
L 252.676907 84.634899 
L 251.266439 83.438445 
L 247.383897 80.447781 
L 243.994568 78.158445 
L 242.090867 76.715375 
L 236.797841 72.937966 
L 236.706628 72.878439 
L 231.504813 69.307405 
L 228.856937 67.598438 
L 226.211783 65.814944 
L 220.918757 62.808759 
L 220.151233 62.318442 
L 215.625726 59.128106 
L 212.903051 57.038437 
L 211.032913 51.758443 
L 210.332701 47.945281 
L 210.016064 46.478442 
L 207.533596 41.198439 
L 206.564153 35.918436 
L 205.748376 30.638441 
L 205.039672 28.400238 
L 203.611432 25.358437 
L 202.441995 20.07844 
L 200.86107 14.798437 
L 199.746622 14.798437 
L 194.453612 14.798437 
L 189.160564 14.798437 
L 183.867557 14.798437 
L 178.574507 14.798437 
L 173.281501 14.798437 
L 167.988452 14.798437 
L 162.695445 14.798437 
L 157.402396 14.798437 
L 152.109387 14.798437 
L 146.816343 14.798437 
L 141.523313 14.798437 
L 136.230284 14.798437 
L 130.937255 14.798437 
L 125.644226 14.798437 
L 120.351197 14.798437 
L 115.058171 14.798437 
L 109.765142 14.798437 
L 104.472115 14.798437 
L 99.179088 14.798437 
L 93.886056 14.798437 
L 88.59303 14.798437 
L 83.3 14.798437 
L 83.3 20.07844 
L 83.3 25.358437 
L 83.3 30.638441 
L 83.3 35.918436 
L 83.3 41.198439 
L 83.3 46.478442 
L 83.3 51.758443 
L 83.3 57.038437 
L 83.3 62.318442 
L 83.3 67.598438 
L 83.3 68.484803 
L 88.59303 68.700269 
L 93.886056 69.308411 
L 99.179088 70.352109 
L 104.472115 71.205215 
L 109.765142 71.841755 
L 114.212236 72.878439 
L 115.058171 73.048164 
L 120.351197 73.695276 
L 125.644226 74.872649 
L 130.937255 76.040182 
L 136.230284 77.276168 
L 140.043152 78.158445 
L 141.523313 78.435474 
L 146.816343 79.783273 
L 152.109387 81.080598 
L 157.402396 82.465038 
L 160.07639 83.438445 
L 162.695445 84.298675 
L 167.988452 85.454543 
L 173.281501 87.300539 
L 177.394249 88.718441 
L 178.574507 89.118358 
L 183.867557 90.843205 
L 189.160564 93.013771 
L 191.963539 93.998441 
L 194.453612 94.839931 
L 199.746622 97.484904 
L 203.421054 99.27844 
L 205.039672 100.018089 
L 210.332701 102.097197 
L 214.313056 104.558439 
L 215.625726 105.383743 
L 220.918757 108.160006 
L 223.757483 109.83844 
L 226.211783 111.212821 
L 231.493804 115.11844 
L 231.504813 115.125786 
L 236.797841 118.214734 
L 239.542786 120.398439 
L 242.090867 122.349564 
L 245.765447 125.678439 
L 247.383897 128.243402 
L 248.859414 130.958438 
L 250.538855 136.238442 
L 252.043921 141.51845 
L 252.676907 144.126826 
L 253.415505 146.798449 
L 255.621593 152.078451 
L 256.983061 157.358448 
L 257.969932 161.174283 
L 258.334292 162.638446 
L 259.923948 167.918447 
L 261.294867 173.198448 
L 262.660103 178.478445 
L 263.262961 180.70158 
L 264.112465 183.758427 
L 265.40886 189.038427 
L 266.155814 194.318425 
L 267.573254 199.598424 
L 268.48499 204.878426 
L 268.555992 205.0382 
L 270.92971 210.158424 
L 273.849018 213.233787 
L 276.089305 215.438426 
L 279.142044 218.24309 
L 281.552852 220.718422 
L 284.435074 224.07227 
L 286.177269 225.998423 
L 289.728102 230.302552 
L 290.405666 231.278444 
L 293.929521 236.558426 
L 295.021139 238.507219 
L 296.814719 241.838445 
L 299.509682 247.118424 
L 300.314171 249.370515 
L 301.365901 252.398445 
L 303.1768 257.678423 
L 304.218762 262.958442 
L 305.228155 268.238422 
L 305.607198 270.392277 
L 306.222967 273.518441 
L 307.01048 278.798422 
L 307.667181 284.078437 
L 308.099699 289.358439 
L 308.556466 294.638439 
L 308.62855 299.91844 
L 309.088403 305.19844 
L 309.12888 310.478441 
L 309.426042 315.758438 
L 309.554924 321.038439 
L 309.647248 326.318437 
L 309.674012 331.598435 
L 309.833863 336.878439 
L 309.860789 342.158436 
L 309.839027 347.438437 
z
" clip-path="url(#pd31b219752)" style="fill: #84d44b"/>
    <path d="M 337.365368 347.438437 
L 342.658397 347.438437 
L 347.951421 347.438437 
L 353.244449 347.438437 
L 358.537484 347.438437 
L 363.830514 347.438437 
L 369.123539 347.438437 
L 369.735866 347.438437 
L 369.749161 342.158436 
L 369.6103 336.878439 
L 369.625108 331.598435 
L 369.665176 326.318437 
L 369.428524 321.038439 
L 369.690924 315.758438 
L 369.326514 310.478441 
L 369.123539 305.746157 
L 369.103444 305.19844 
L 369.123539 304.639806 
L 369.327959 299.91844 
L 369.123539 295.967372 
L 369.058832 294.638439 
L 368.898441 289.358439 
L 368.587097 284.078437 
L 368.433169 278.798422 
L 368.090494 273.518441 
L 367.558233 268.238422 
L 367.30161 262.958442 
L 366.574845 257.678423 
L 365.690954 252.398445 
L 364.788909 247.118424 
L 363.830514 242.956054 
L 363.573554 241.838445 
L 361.757879 236.558426 
L 360.469734 231.278444 
L 358.537484 226.6934 
L 358.247622 225.998423 
L 355.63901 220.718422 
L 353.244449 215.905213 
L 353.013378 215.438426 
L 349.958406 210.158424 
L 347.951421 207.149237 
L 346.475869 204.878426 
L 343.260174 199.598424 
L 342.658397 198.72962 
L 339.786522 194.318425 
L 339.113226 189.038427 
L 338.946716 183.758427 
L 338.812253 178.478445 
L 338.73127 173.198448 
L 338.854086 167.918447 
L 338.446686 162.638446 
L 338.15409 157.358448 
L 338.387743 152.078451 
L 337.818966 146.798449 
L 337.751234 141.51845 
L 337.541373 136.238442 
L 337.365368 134.894555 
L 336.863845 130.958438 
L 337.003936 125.678439 
L 336.600075 120.398439 
L 336.070348 115.11844 
L 334.117341 109.83844 
L 332.07234 106.426806 
L 330.918982 104.558439 
L 327.365763 99.27844 
L 326.779312 98.34099 
L 324.133767 93.998441 
L 321.486283 90.828482 
L 319.763524 88.718441 
L 316.193255 83.508505 
L 316.140706 83.438445 
L 312.117563 78.158445 
L 310.900227 76.575515 
L 308.352649 72.878439 
L 305.607198 69.665135 
L 303.98383 67.598438 
L 300.314171 62.64491 
L 300.033811 62.318442 
L 295.361285 57.038437 
L 295.021139 56.508426 
L 291.644169 51.758443 
L 290.891414 46.478442 
L 291.009094 41.198439 
L 290.643504 35.918436 
L 290.640095 30.638441 
L 290.623561 25.358437 
L 290.058884 20.07844 
L 290.315944 14.798437 
L 289.728102 14.798437 
L 284.435074 14.798437 
L 279.142044 14.798437 
L 273.849018 14.798437 
L 268.555992 14.798437 
L 263.262961 14.798437 
L 257.969932 14.798437 
L 252.676907 14.798437 
L 247.383897 14.798437 
L 242.090867 14.798437 
L 236.797841 14.798437 
L 231.504813 14.798437 
L 226.211783 14.798437 
L 220.918757 14.798437 
L 215.625726 14.798437 
L 210.332701 14.798437 
L 205.039672 14.798437 
L 200.86107 14.798437 
L 202.441995 20.07844 
L 203.611432 25.358437 
L 205.039672 28.400238 
L 205.748376 30.638441 
L 206.564153 35.918436 
L 207.533596 41.198439 
L 210.016064 46.478442 
L 210.332701 47.945281 
L 211.032913 51.758443 
L 212.903051 57.038437 
L 215.625726 59.128106 
L 220.151233 62.318442 
L 220.918757 62.808759 
L 226.211783 65.814944 
L 228.856937 67.598438 
L 231.504813 69.307405 
L 236.706628 72.878439 
L 236.797841 72.937966 
L 242.090867 76.715375 
L 243.994568 78.158445 
L 247.383897 80.447781 
L 251.266439 83.438445 
L 252.676907 84.634899 
L 257.265911 88.718441 
L 257.969932 89.323694 
L 263.262961 93.232429 
L 264.154887 93.998441 
L 268.555992 97.798068 
L 270.037722 99.27844 
L 273.849018 103.273404 
L 275.041523 104.558439 
L 279.142044 108.561574 
L 280.403495 109.83844 
L 284.435074 114.615751 
L 284.868719 115.11844 
L 288.671897 120.398439 
L 289.728102 124.363389 
L 290.048081 125.678439 
L 291.076121 130.958438 
L 291.976266 136.238442 
L 292.828877 141.51845 
L 293.273888 146.798449 
L 294.22328 152.078451 
L 294.778324 157.358448 
L 295.021139 158.828077 
L 295.707613 162.638446 
L 296.485523 167.918447 
L 297.194674 173.198448 
L 297.756144 178.478445 
L 298.108028 183.758427 
L 298.560228 189.038427 
L 299.307526 194.318425 
L 299.747617 199.598424 
L 300.314171 200.740919 
L 302.642567 204.878426 
L 305.607198 208.628002 
L 306.857912 210.158424 
L 310.787838 215.438426 
L 310.900227 215.582954 
L 314.884879 220.718422 
L 316.193255 222.834869 
L 318.205544 225.998423 
L 321.130083 231.278444 
L 321.486283 231.905045 
L 323.838348 236.558426 
L 325.920755 241.838445 
L 326.779312 244.98757 
L 327.366745 247.118424 
L 328.99694 252.398445 
L 329.949246 257.678423 
L 330.987801 262.958442 
L 331.83778 268.238422 
L 332.07234 270.517051 
L 332.379414 273.518441 
L 332.557899 278.798422 
L 333.092534 284.078437 
L 333.770183 289.358439 
L 333.673123 294.638439 
L 334.113955 299.91844 
L 334.186061 305.19844 
L 334.001927 310.478441 
L 334.202561 315.758438 
L 334.560096 321.038439 
L 334.531172 326.318437 
L 334.592999 331.598435 
L 334.585514 336.878439 
L 334.734633 342.158436 
L 334.723944 347.438437 
z
" clip-path="url(#pd31b219752)" style="fill: #a8db34"/>
    <path d="M 374.416572 347.438437 
L 379.709595 347.438437 
L 385.002624 347.438437 
L 390.295656 347.438437 
L 395.588687 347.438437 
L 400.881711 347.438437 
L 406.174744 347.438437 
L 411.467769 347.438437 
L 416.7608 347.438437 
L 416.7608 342.158436 
L 416.7608 336.878439 
L 416.7608 331.598435 
L 416.7608 326.318437 
L 416.7608 321.038439 
L 416.7608 315.758438 
L 416.7608 310.478441 
L 416.7608 305.19844 
L 416.7608 299.91844 
L 416.7608 294.638439 
L 416.7608 289.358439 
L 416.7608 284.078437 
L 416.7608 278.798422 
L 416.7608 273.518441 
L 416.7608 268.238422 
L 416.7608 262.958442 
L 416.7608 257.678423 
L 416.7608 252.398445 
L 416.7608 247.118424 
L 416.7608 241.838445 
L 416.7608 236.558426 
L 416.7608 231.278444 
L 416.7608 225.998423 
L 416.7608 220.718422 
L 416.7608 215.438426 
L 416.7608 210.158424 
L 416.7608 204.878426 
L 416.7608 204.717981 
L 413.873062 199.598424 
L 411.467769 195.663107 
L 410.606912 194.318425 
L 407.204563 189.038427 
L 406.174744 186.990567 
L 404.820406 183.758427 
L 404.789734 178.478445 
L 405.032314 173.198448 
L 405.349138 167.918447 
L 405.682629 162.638446 
L 405.966722 157.358448 
L 406.174744 154.566444 
L 406.398413 152.078451 
L 406.283377 146.798449 
L 406.73755 141.51845 
L 406.886786 136.238442 
L 406.990469 130.958438 
L 407.228996 125.678439 
L 407.584753 120.398439 
L 407.907417 115.11844 
L 407.481652 109.83844 
L 407.094508 104.558439 
L 406.174744 102.367108 
L 404.837217 99.27844 
L 401.883831 93.998441 
L 400.881711 92.148327 
L 399.144619 88.718441 
L 396.252767 83.438445 
L 395.588687 82.122491 
L 393.606016 78.158445 
L 390.65664 72.878439 
L 390.295656 72.187878 
L 387.793394 67.598438 
L 385.002624 62.693717 
L 384.809261 62.318442 
L 382.394701 57.038437 
L 379.709595 52.162439 
L 379.490504 51.758443 
L 376.887593 46.478442 
L 375.895197 41.198439 
L 376.065185 35.918436 
L 376.501874 30.638441 
L 377.068077 25.358437 
L 377.379024 20.07844 
L 377.684828 14.798437 
L 374.416572 14.798437 
L 369.123539 14.798437 
L 363.830514 14.798437 
L 358.537484 14.798437 
L 353.244449 14.798437 
L 347.951421 14.798437 
L 342.658397 14.798437 
L 337.365368 14.798437 
L 332.07234 14.798437 
L 326.779312 14.798437 
L 321.486283 14.798437 
L 316.193255 14.798437 
L 310.900227 14.798437 
L 305.607198 14.798437 
L 300.314171 14.798437 
L 295.021139 14.798437 
L 290.315944 14.798437 
L 290.058884 20.07844 
L 290.623561 25.358437 
L 290.640095 30.638441 
L 290.643504 35.918436 
L 291.009094 41.198439 
L 290.891414 46.478442 
L 291.644169 51.758443 
L 295.021139 56.508426 
L 295.361285 57.038437 
L 300.033811 62.318442 
L 300.314171 62.64491 
L 303.98383 67.598438 
L 305.607198 69.665135 
L 308.352649 72.878439 
L 310.900227 76.575515 
L 312.117563 78.158445 
L 316.140706 83.438445 
L 316.193255 83.508505 
L 319.763524 88.718441 
L 321.486283 90.828482 
L 324.133767 93.998441 
L 326.779312 98.34099 
L 327.365763 99.27844 
L 330.918982 104.558439 
L 332.07234 106.426806 
L 334.117341 109.83844 
L 336.070348 115.11844 
L 336.600075 120.398439 
L 337.003936 125.678439 
L 336.863845 130.958438 
L 337.365368 134.894555 
L 337.541373 136.238442 
L 337.751234 141.51845 
L 337.818966 146.798449 
L 338.387743 152.078451 
L 338.15409 157.358448 
L 338.446686 162.638446 
L 338.854086 167.918447 
L 338.73127 173.198448 
L 338.812253 178.478445 
L 338.946716 183.758427 
L 339.113226 189.038427 
L 339.786522 194.318425 
L 342.658397 198.72962 
L 343.260174 199.598424 
L 346.475869 204.878426 
L 347.951421 207.149237 
L 349.958406 210.158424 
L 353.013378 215.438426 
L 353.244449 215.905213 
L 355.63901 220.718422 
L 358.247622 225.998423 
L 358.537484 226.6934 
L 360.469734 231.278444 
L 361.757879 236.558426 
L 363.573554 241.838445 
L 363.830514 242.956054 
L 364.788909 247.118424 
L 365.690954 252.398445 
L 366.574845 257.678423 
L 367.30161 262.958442 
L 367.558233 268.238422 
L 368.090494 273.518441 
L 368.433169 278.798422 
L 368.587097 284.078437 
L 368.898441 289.358439 
L 369.058832 294.638439 
L 369.123539 295.967372 
L 369.327959 299.91844 
L 369.123539 304.639806 
L 369.103444 305.19844 
L 369.123539 305.746157 
L 369.326514 310.478441 
L 369.690924 315.758438 
L 369.428524 321.038439 
L 369.665176 326.318437 
L 369.625108 331.598435 
L 369.6103 336.878439 
L 369.749161 342.158436 
L 369.735866 347.438437 
z
" clip-path="url(#pd31b219752)" style="fill: #cae11f"/>
    <path d="M 416.7608 204.717981 
L 416.7608 199.598424 
L 416.7608 194.318425 
L 416.7608 189.038427 
L 416.7608 183.758427 
L 416.7608 178.478445 
L 416.7608 173.198448 
L 416.7608 167.918447 
L 416.7608 162.638446 
L 416.7608 157.358448 
L 416.7608 152.078451 
L 416.7608 146.798449 
L 416.7608 141.51845 
L 416.7608 136.238442 
L 416.7608 130.958438 
L 416.7608 125.678439 
L 416.7608 120.398439 
L 416.7608 115.11844 
L 416.7608 109.83844 
L 416.7608 104.558439 
L 416.7608 99.27844 
L 416.7608 93.998441 
L 416.7608 88.718441 
L 416.7608 83.438445 
L 416.7608 78.158445 
L 416.7608 72.878439 
L 416.7608 67.598438 
L 416.7608 62.318442 
L 416.7608 57.038437 
L 416.7608 51.758443 
L 416.7608 46.478442 
L 416.7608 41.198439 
L 416.7608 35.918436 
L 416.7608 30.638441 
L 416.7608 25.358437 
L 416.7608 20.07844 
L 416.7608 14.798437 
L 411.467769 14.798437 
L 406.174744 14.798437 
L 400.881711 14.798437 
L 395.588687 14.798437 
L 390.295656 14.798437 
L 385.002624 14.798437 
L 379.709595 14.798437 
L 377.684828 14.798437 
L 377.379024 20.07844 
L 377.068077 25.358437 
L 376.501874 30.638441 
L 376.065185 35.918436 
L 375.895197 41.198439 
L 376.887593 46.478442 
L 379.490504 51.758443 
L 379.709595 52.162439 
L 382.394701 57.038437 
L 384.809261 62.318442 
L 385.002624 62.693717 
L 387.793394 67.598438 
L 390.295656 72.187878 
L 390.65664 72.878439 
L 393.606016 78.158445 
L 395.588687 82.122491 
L 396.252767 83.438445 
L 399.144619 88.718441 
L 400.881711 92.148327 
L 401.883831 93.998441 
L 404.837217 99.27844 
L 406.174744 102.367108 
L 407.094508 104.558439 
L 407.481652 109.83844 
L 407.907417 115.11844 
L 407.584753 120.398439 
L 407.228996 125.678439 
L 406.990469 130.958438 
L 406.886786 136.238442 
L 406.73755 141.51845 
L 406.283377 146.798449 
L 406.398413 152.078451 
L 406.174744 154.566444 
L 405.966722 157.358448 
L 405.682629 162.638446 
L 405.349138 167.918447 
L 405.032314 173.198448 
L 404.789734 178.478445 
L 404.820406 183.758427 
L 406.174744 186.990567 
L 407.204563 189.038427 
L 410.606912 194.318425 
L 411.467769 195.663107 
L 413.873062 199.598424 
z
" clip-path="url(#pd31b219752)" style="fill: #efe51c"/>
   </g>
   <g id="matplotlib.axis_1">
    <g id="xtick_1">
     <g id="line2d_1">
      <defs>
       <path id="meff44c9fdd" d="M 0 0 
L 0 2 
" style="stroke: #000000; stroke-width: 1.5"/>
      </defs>
      <g>
       <use xlink:href="#meff44c9fdd" x="83.300002" y="347.438437" style="stroke: #000000; stroke-width: 1.5"/>
      </g>
     </g>
     <g id="text_1">
      <!-- $\mathdefault{10^{-2}}$ -->
      <g transform="translate(59.800002 368.135312) scale(0.2 -0.2)">
       <defs>
        <path id="DejaVuSans-31" d="M 794 531 
L 1825 531 
L 1825 4091 
L 703 3866 
L 703 4441 
L 1819 4666 
L 2450 4666 
L 2450 531 
L 3481 531 
L 3481 0 
L 794 0 
L 794 531 
z
" transform="scale(0.015625)"/>
        <path id="DejaVuSans-30" d="M 2034 4250 
Q 1547 4250 1301 3770 
Q 1056 3291 1056 2328 
Q 1056 1369 1301 889 
Q 1547 409 2034 409 
Q 2525 409 2770 889 
Q 3016 1369 3016 2328 
Q 3016 3291 2770 3770 
Q 2525 4250 2034 4250 
z
M 2034 4750 
Q 2819 4750 3233 4129 
Q 3647 3509 3647 2328 
Q 3647 1150 3233 529 
Q 2819 -91 2034 -91 
Q 1250 -91 836 529 
Q 422 1150 422 2328 
Q 422 3509 836 4129 
Q 1250 4750 2034 4750 
z
" transform="scale(0.015625)"/>
        <path id="DejaVuSans-2212" d="M 678 2272 
L 4684 2272 
L 4684 1741 
L 678 1741 
L 678 2272 
z
" transform="scale(0.015625)"/>
        <path id="DejaVuSans-32" d="M 1228 531 
L 3431 531 
L 3431 0 
L 469 0 
L 469 531 
Q 828 903 1448 1529 
Q 2069 2156 2228 2338 
Q 2531 2678 2651 2914 
Q 2772 3150 2772 3378 
Q 2772 3750 2511 3984 
Q 2250 4219 1831 4219 
Q 1534 4219 1204 4116 
Q 875 4013 500 3803 
L 500 4441 
Q 881 4594 1212 4672 
Q 1544 4750 1819 4750 
Q 2544 4750 2975 4387 
Q 3406 4025 3406 3419 
Q 3406 3131 3298 2873 
Q 3191 2616 2906 2266 
Q 2828 2175 2409 1742 
Q 1991 1309 1228 531 
z
" transform="scale(0.015625)"/>
       </defs>
       <use xlink:href="#DejaVuSans-31" transform="translate(0 0.765625)"/>
       <use xlink:href="#DejaVuSans-30" transform="translate(63.623047 0.765625)"/>
       <use xlink:href="#DejaVuSans-2212" transform="translate(128.203125 39.046875) scale(0.7)"/>
       <use xlink:href="#DejaVuSans-32" transform="translate(186.855469 39.046875) scale(0.7)"/>
      </g>
     </g>
    </g>
    <g id="xtick_2">
     <g id="line2d_2">
      <g>
       <use xlink:href="#meff44c9fdd" x="250.030401" y="347.438437" style="stroke: #000000; stroke-width: 1.5"/>
      </g>
     </g>
     <g id="text_2">
      <!-- $\mathdefault{10^{-1}}$ -->
      <g transform="translate(226.530401 368.135312) scale(0.2 -0.2)">
       <use xlink:href="#DejaVuSans-31" transform="translate(0 0.684375)"/>
       <use xlink:href="#DejaVuSans-30" transform="translate(63.623047 0.684375)"/>
       <use xlink:href="#DejaVuSans-2212" transform="translate(128.203125 38.965625) scale(0.7)"/>
       <use xlink:href="#DejaVuSans-31" transform="translate(186.855469 38.965625) scale(0.7)"/>
      </g>
     </g>
    </g>
    <g id="xtick_3">
     <g id="line2d_3">
      <g>
       <use xlink:href="#meff44c9fdd" x="416.7608" y="347.438437" style="stroke: #000000; stroke-width: 1.5"/>
      </g>
     </g>
     <g id="text_3">
      <!-- $\mathdefault{10^{0}}$ -->
      <g transform="translate(399.1608 368.135312) scale(0.2 -0.2)">
       <use xlink:href="#DejaVuSans-31" transform="translate(0 0.765625)"/>
       <use xlink:href="#DejaVuSans-30" transform="translate(63.623047 0.765625)"/>
       <use xlink:href="#DejaVuSans-30" transform="translate(128.203125 39.046875) scale(0.7)"/>
      </g>
     </g>
    </g>
    <g id="xtick_4">
     <g id="line2d_4">
      <defs>
       <path id="m02eccf7fb3" d="M 0 0 
L 0 2 
" style="stroke: #000000; stroke-width: 0.6"/>
      </defs>
      <g>
       <use xlink:href="#m02eccf7fb3" x="133.490853" y="347.438437" style="stroke: #000000; stroke-width: 0.6"/>
      </g>
     </g>
    </g>
    <g id="xtick_5">
     <g id="line2d_5">
      <g>
       <use xlink:href="#m02eccf7fb3" x="162.850619" y="347.438437" style="stroke: #000000; stroke-width: 0.6"/>
      </g>
     </g>
    </g>
    <g id="xtick_6">
     <g id="line2d_6">
      <g>
       <use xlink:href="#m02eccf7fb3" x="183.681704" y="347.438437" style="stroke: #000000; stroke-width: 0.6"/>
      </g>
     </g>
    </g>
    <g id="xtick_7">
     <g id="line2d_7">
      <g>
       <use xlink:href="#m02eccf7fb3" x="199.839549" y="347.438437" style="stroke: #000000; stroke-width: 0.6"/>
      </g>
     </g>
    </g>
    <g id="xtick_8">
     <g id="line2d_8">
      <g>
       <use xlink:href="#m02eccf7fb3" x="213.04147" y="347.438437" style="stroke: #000000; stroke-width: 0.6"/>
      </g>
     </g>
    </g>
    <g id="xtick_9">
     <g id="line2d_9">
      <g>
       <use xlink:href="#m02eccf7fb3" x="224.203535" y="347.438437" style="stroke: #000000; stroke-width: 0.6"/>
      </g>
     </g>
    </g>
    <g id="xtick_10">
     <g id="line2d_10">
      <g>
       <use xlink:href="#m02eccf7fb3" x="233.872556" y="347.438437" style="stroke: #000000; stroke-width: 0.6"/>
      </g>
     </g>
    </g>
    <g id="xtick_11">
     <g id="line2d_11">
      <g>
       <use xlink:href="#m02eccf7fb3" x="242.401236" y="347.438437" style="stroke: #000000; stroke-width: 0.6"/>
      </g>
     </g>
    </g>
    <g id="xtick_12">
     <g id="line2d_12">
      <g>
       <use xlink:href="#m02eccf7fb3" x="300.221252" y="347.438437" style="stroke: #000000; stroke-width: 0.6"/>
      </g>
     </g>
    </g>
    <g id="xtick_13">
     <g id="line2d_13">
      <g>
       <use xlink:href="#m02eccf7fb3" x="329.581018" y="347.438437" style="stroke: #000000; stroke-width: 0.6"/>
      </g>
     </g>
    </g>
    <g id="xtick_14">
     <g id="line2d_14">
      <g>
       <use xlink:href="#m02eccf7fb3" x="350.412104" y="347.438437" style="stroke: #000000; stroke-width: 0.6"/>
      </g>
     </g>
    </g>
    <g id="xtick_15">
     <g id="line2d_15">
      <g>
       <use xlink:href="#m02eccf7fb3" x="366.569949" y="347.438437" style="stroke: #000000; stroke-width: 0.6"/>
      </g>
     </g>
    </g>
    <g id="xtick_16">
     <g id="line2d_16">
      <g>
       <use xlink:href="#m02eccf7fb3" x="379.771869" y="347.438437" style="stroke: #000000; stroke-width: 0.6"/>
      </g>
     </g>
    </g>
    <g id="xtick_17">
     <g id="line2d_17">
      <g>
       <use xlink:href="#m02eccf7fb3" x="390.933934" y="347.438437" style="stroke: #000000; stroke-width: 0.6"/>
      </g>
     </g>
    </g>
    <g id="xtick_18">
     <g id="line2d_18">
      <g>
       <use xlink:href="#m02eccf7fb3" x="400.602955" y="347.438437" style="stroke: #000000; stroke-width: 0.6"/>
      </g>
     </g>
    </g>
    <g id="xtick_19">
     <g id="line2d_19">
      <g>
       <use xlink:href="#m02eccf7fb3" x="409.131635" y="347.438437" style="stroke: #000000; stroke-width: 0.6"/>
      </g>
     </g>
    </g>
    <g id="text_4">
     <!-- $\lambda$ -->
     <g transform="translate(244.0304 391.491562) scale(0.2 -0.2)">
      <defs>
       <path id="DejaVuSans-Oblique-3bb" d="M 2350 4316 
L 3125 0 
L 2516 0 
L 2038 2588 
L 328 0 
L -281 0 
L 1903 3356 
L 1794 3975 
Q 1725 4369 1391 4369 
L 1091 4369 
L 1184 4863 
L 1550 4856 
Q 2253 4847 2350 4316 
z
" transform="scale(0.015625)"/>
      </defs>
      <use xlink:href="#DejaVuSans-Oblique-3bb" transform="translate(0 0.015625)"/>
     </g>
    </g>
   </g>
   <g id="matplotlib.axis_2">
    <g id="ytick_1">
     <g id="line2d_20">
      <defs>
       <path id="mec2e2f835e" d="M 0 0 
L -2 0 
" style="stroke: #000000; stroke-width: 1.5"/>
      </defs>
      <g>
       <use xlink:href="#mec2e2f835e" x="83.3" y="347.438436" style="stroke: #000000; stroke-width: 1.5"/>
      </g>
     </g>
     <g id="text_5">
      <!-- $\mathdefault{10^{-2}}$ -->
      <g transform="translate(30.8 355.036873) scale(0.2 -0.2)">
       <use xlink:href="#DejaVuSans-31" transform="translate(0 0.765625)"/>
       <use xlink:href="#DejaVuSans-30" transform="translate(63.623047 0.765625)"/>
       <use xlink:href="#DejaVuSans-2212" transform="translate(128.203125 39.046875) scale(0.7)"/>
       <use xlink:href="#DejaVuSans-32" transform="translate(186.855469 39.046875) scale(0.7)"/>
      </g>
     </g>
    </g>
    <g id="ytick_2">
     <g id="line2d_21">
      <g>
       <use xlink:href="#mec2e2f835e" x="83.3" y="181.118437" style="stroke: #000000; stroke-width: 1.5"/>
      </g>
     </g>
     <g id="text_6">
      <!-- $\mathdefault{10^{-1}}$ -->
      <g transform="translate(30.8 188.716874) scale(0.2 -0.2)">
       <use xlink:href="#DejaVuSans-31" transform="translate(0 0.684375)"/>
       <use xlink:href="#DejaVuSans-30" transform="translate(63.623047 0.684375)"/>
       <use xlink:href="#DejaVuSans-2212" transform="translate(128.203125 38.965625) scale(0.7)"/>
       <use xlink:href="#DejaVuSans-31" transform="translate(186.855469 38.965625) scale(0.7)"/>
      </g>
     </g>
    </g>
    <g id="ytick_3">
     <g id="line2d_22">
      <g>
       <use xlink:href="#mec2e2f835e" x="83.3" y="14.798437" style="stroke: #000000; stroke-width: 1.5"/>
      </g>
     </g>
     <g id="text_7">
      <!-- $\mathdefault{10^{0}}$ -->
      <g transform="translate(42.6 22.396875) scale(0.2 -0.2)">
       <use xlink:href="#DejaVuSans-31" transform="translate(0 0.765625)"/>
       <use xlink:href="#DejaVuSans-30" transform="translate(63.623047 0.765625)"/>
       <use xlink:href="#DejaVuSans-30" transform="translate(128.203125 39.046875) scale(0.7)"/>
      </g>
     </g>
    </g>
    <g id="ytick_4">
     <g id="line2d_23">
      <defs>
       <path id="m4a5d5779e3" d="M 0 0 
L -2 0 
" style="stroke: #000000; stroke-width: 0.6"/>
      </defs>
      <g>
       <use xlink:href="#m4a5d5779e3" x="83.3" y="297.371127" style="stroke: #000000; stroke-width: 0.6"/>
      </g>
     </g>
    </g>
    <g id="ytick_5">
     <g id="line2d_24">
      <g>
       <use xlink:href="#m4a5d5779e3" x="83.3" y="268.083629" style="stroke: #000000; stroke-width: 0.6"/>
      </g>
     </g>
    </g>
    <g id="ytick_6">
     <g id="line2d_25">
      <g>
       <use xlink:href="#m4a5d5779e3" x="83.3" y="247.303819" style="stroke: #000000; stroke-width: 0.6"/>
      </g>
     </g>
    </g>
    <g id="ytick_7">
     <g id="line2d_26">
      <g>
       <use xlink:href="#m4a5d5779e3" x="83.3" y="231.185745" style="stroke: #000000; stroke-width: 0.6"/>
      </g>
     </g>
    </g>
    <g id="ytick_8">
     <g id="line2d_27">
      <g>
       <use xlink:href="#m4a5d5779e3" x="83.3" y="218.016321" style="stroke: #000000; stroke-width: 0.6"/>
      </g>
     </g>
    </g>
    <g id="ytick_9">
     <g id="line2d_28">
      <g>
       <use xlink:href="#m4a5d5779e3" x="83.3" y="206.881731" style="stroke: #000000; stroke-width: 0.6"/>
      </g>
     </g>
    </g>
    <g id="ytick_10">
     <g id="line2d_29">
      <g>
       <use xlink:href="#m4a5d5779e3" x="83.3" y="197.23651" style="stroke: #000000; stroke-width: 0.6"/>
      </g>
     </g>
    </g>
    <g id="ytick_11">
     <g id="line2d_30">
      <g>
       <use xlink:href="#m4a5d5779e3" x="83.3" y="188.728822" style="stroke: #000000; stroke-width: 0.6"/>
      </g>
     </g>
    </g>
    <g id="ytick_12">
     <g id="line2d_31">
      <g>
       <use xlink:href="#m4a5d5779e3" x="83.3" y="131.051128" style="stroke: #000000; stroke-width: 0.6"/>
      </g>
     </g>
    </g>
    <g id="ytick_13">
     <g id="line2d_32">
      <g>
       <use xlink:href="#m4a5d5779e3" x="83.3" y="101.76363" style="stroke: #000000; stroke-width: 0.6"/>
      </g>
     </g>
    </g>
    <g id="ytick_14">
     <g id="line2d_33">
      <g>
       <use xlink:href="#m4a5d5779e3" x="83.3" y="80.983819" style="stroke: #000000; stroke-width: 0.6"/>
      </g>
     </g>
    </g>
    <g id="ytick_15">
     <g id="line2d_34">
      <g>
       <use xlink:href="#m4a5d5779e3" x="83.3" y="64.865746" style="stroke: #000000; stroke-width: 0.6"/>
      </g>
     </g>
    </g>
    <g id="ytick_16">
     <g id="line2d_35">
      <g>
       <use xlink:href="#m4a5d5779e3" x="83.3" y="51.696321" style="stroke: #000000; stroke-width: 0.6"/>
      </g>
     </g>
    </g>
    <g id="ytick_17">
     <g id="line2d_36">
      <g>
       <use xlink:href="#m4a5d5779e3" x="83.3" y="40.561731" style="stroke: #000000; stroke-width: 0.6"/>
      </g>
     </g>
    </g>
    <g id="ytick_18">
     <g id="line2d_37">
      <g>
       <use xlink:href="#m4a5d5779e3" x="83.3" y="30.916511" style="stroke: #000000; stroke-width: 0.6"/>
      </g>
     </g>
    </g>
    <g id="ytick_19">
     <g id="line2d_38">
      <g>
       <use xlink:href="#m4a5d5779e3" x="83.3" y="22.408823" style="stroke: #000000; stroke-width: 0.6"/>
      </g>
     </g>
    </g>
    <g id="text_8">
     <!-- $\beta$ -->
     <g transform="translate(22.6 187.518437) rotate(-90) scale(0.2 -0.2)">
      <defs>
       <path id="DejaVuSans-Oblique-3b2" d="M 872 216 
L 572 -1331 
L -6 -1331 
L 928 3478 
Q 1206 4903 2538 4903 
Q 3888 4903 3659 3700 
Q 3503 2844 2894 2531 
Q 3713 2250 3553 1416 
Q 3272 -69 1759 -66 
Q 1097 -63 872 216 
z
M 1019 966 
Q 1259 422 1875 425 
Q 2775 425 2966 1406 
Q 3138 2288 1675 2219 
L 1778 2750 
Q 2909 2731 3106 3750 
Q 3241 4438 2509 4434 
Q 1691 4434 1503 3459 
L 1019 966 
z
" transform="scale(0.015625)"/>
      </defs>
      <use xlink:href="#DejaVuSans-Oblique-3b2" transform="translate(0 0.390625)"/>
     </g>
    </g>
   </g>
   <g id="patch_3">
    <path d="M 83.3 347.438437 
L 83.3 14.798437 
" style="fill: none; stroke: #000000; stroke-width: 0.8; stroke-linejoin: miter; stroke-linecap: square"/>
   </g>
   <g id="patch_4">
    <path d="M 416.7608 347.438437 
L 416.7608 14.798437 
" style="fill: none; stroke: #000000; stroke-width: 0.8; stroke-linejoin: miter; stroke-linecap: square"/>
   </g>
   <g id="patch_5">
    <path d="M 83.3 347.438437 
L 416.7608 347.438437 
" style="fill: none; stroke: #000000; stroke-width: 0.8; stroke-linejoin: miter; stroke-linecap: square"/>
   </g>
   <g id="patch_6">
    <path d="M 83.3 14.798437 
L 416.7608 14.798437 
" style="fill: none; stroke: #000000; stroke-width: 0.8; stroke-linejoin: miter; stroke-linecap: square"/>
   </g>
   <g id="text_9">
    <!-- $p^{A}$ -->
    <g transform="translate(366.569949 72.476132) scale(0.25 -0.25)">
     <defs>
      <path id="DejaVuSans-Oblique-70" d="M 3175 2156 
Q 3175 2616 2975 2859 
Q 2775 3103 2400 3103 
Q 2144 3103 1911 2972 
Q 1678 2841 1497 2591 
Q 1319 2344 1212 1994 
Q 1106 1644 1106 1300 
Q 1106 863 1306 627 
Q 1506 391 1875 391 
Q 2147 391 2380 519 
Q 2613 647 2778 891 
Q 2956 1147 3065 1494 
Q 3175 1841 3175 2156 
z
M 1394 2969 
Q 1625 3272 1939 3428 
Q 2253 3584 2638 3584 
Q 3175 3584 3472 3232 
Q 3769 2881 3769 2247 
Q 3769 1728 3584 1258 
Q 3400 788 3053 416 
Q 2822 169 2531 39 
Q 2241 -91 1919 -91 
Q 1547 -91 1294 64 
Q 1041 219 916 525 
L 556 -1331 
L -19 -1331 
L 922 3500 
L 1497 3500 
L 1394 2969 
z
" transform="scale(0.015625)"/>
      <path id="DejaVuSans-Oblique-41" d="M 2356 4666 
L 3072 4666 
L 3938 0 
L 3278 0 
L 3084 1197 
L 984 1197 
L 325 0 
L -341 0 
L 2356 4666 
z
M 2584 4044 
L 1275 1722 
L 2988 1722 
L 2584 4044 
z
" transform="scale(0.015625)"/>
     </defs>
     <use xlink:href="#DejaVuSans-Oblique-70" transform="translate(0 0.684375)"/>
     <use xlink:href="#DejaVuSans-Oblique-41" transform="translate(68.126458 38.965625) scale(0.7)"/>
    </g>
   </g>
   <g id="text_10">
    <!-- MMCA -->
    <g transform="translate(329.581018 40.561731) scale(0.25 -0.25)">
     <defs>
      <path id="DejaVuSans-4d" d="M 628 4666 
L 1569 4666 
L 2759 1491 
L 3956 4666 
L 4897 4666 
L 4897 0 
L 4281 0 
L 4281 4097 
L 3078 897 
L 2444 897 
L 1241 4097 
L 1241 0 
L 628 0 
L 628 4666 
z
" transform="scale(0.015625)"/>
      <path id="DejaVuSans-43" d="M 4122 4306 
L 4122 3641 
Q 3803 3938 3442 4084 
Q 3081 4231 2675 4231 
Q 1875 4231 1450 3742 
Q 1025 3253 1025 2328 
Q 1025 1406 1450 917 
Q 1875 428 2675 428 
Q 3081 428 3442 575 
Q 3803 722 4122 1019 
L 4122 359 
Q 3791 134 3420 21 
Q 3050 -91 2638 -91 
Q 1578 -91 968 557 
Q 359 1206 359 2328 
Q 359 3453 968 4101 
Q 1578 4750 2638 4750 
Q 3056 4750 3426 4639 
Q 3797 4528 4122 4306 
z
" transform="scale(0.015625)"/>
      <path id="DejaVuSans-41" d="M 2188 4044 
L 1331 1722 
L 3047 1722 
L 2188 4044 
z
M 1831 4666 
L 2547 4666 
L 4325 0 
L 3669 0 
L 3244 1197 
L 1141 1197 
L 716 0 
L 50 0 
L 1831 4666 
z
" transform="scale(0.015625)"/>
     </defs>
     <use xlink:href="#DejaVuSans-4d"/>
     <use xlink:href="#DejaVuSans-4d" transform="translate(86.279297 0)"/>
     <use xlink:href="#DejaVuSans-43" transform="translate(172.558594 0)"/>
     <use xlink:href="#DejaVuSans-41" transform="translate(242.382812 0)"/>
    </g>
   </g>
   <g id="patch_7">
    <path d="M 147.690544 278.262729 
Q 207.304374 218.795636 266.918203 159.328544 
L 262.327676 154.726689 
Q 272.93875 151.204105 283.549824 147.681521 
Q 280.001099 158.283881 276.452374 168.886241 
L 271.861847 164.284387 
Q 212.248018 223.751479 152.634189 283.218572 
L 147.690544 278.262729 
z
" style="fill: #add8e6; opacity: 0.8; stroke: #000000; stroke-linecap: round"/>
   </g>
   <g id="text_11">
    <!-- More aware -->
    <g transform="translate(233.872556 247.303819) scale(0.2 -0.2)">
     <defs>
      <path id="DejaVuSans-6f" d="M 1959 3097 
Q 1497 3097 1228 2736 
Q 959 2375 959 1747 
Q 959 1119 1226 758 
Q 1494 397 1959 397 
Q 2419 397 2687 759 
Q 2956 1122 2956 1747 
Q 2956 2369 2687 2733 
Q 2419 3097 1959 3097 
z
M 1959 3584 
Q 2709 3584 3137 3096 
Q 3566 2609 3566 1747 
Q 3566 888 3137 398 
Q 2709 -91 1959 -91 
Q 1206 -91 779 398 
Q 353 888 353 1747 
Q 353 2609 779 3096 
Q 1206 3584 1959 3584 
z
" transform="scale(0.015625)"/>
      <path id="DejaVuSans-72" d="M 2631 2963 
Q 2534 3019 2420 3045 
Q 2306 3072 2169 3072 
Q 1681 3072 1420 2755 
Q 1159 2438 1159 1844 
L 1159 0 
L 581 0 
L 581 3500 
L 1159 3500 
L 1159 2956 
Q 1341 3275 1631 3429 
Q 1922 3584 2338 3584 
Q 2397 3584 2469 3576 
Q 2541 3569 2628 3553 
L 2631 2963 
z
" transform="scale(0.015625)"/>
      <path id="DejaVuSans-65" d="M 3597 1894 
L 3597 1613 
L 953 1613 
Q 991 1019 1311 708 
Q 1631 397 2203 397 
Q 2534 397 2845 478 
Q 3156 559 3463 722 
L 3463 178 
Q 3153 47 2828 -22 
Q 2503 -91 2169 -91 
Q 1331 -91 842 396 
Q 353 884 353 1716 
Q 353 2575 817 3079 
Q 1281 3584 2069 3584 
Q 2775 3584 3186 3129 
Q 3597 2675 3597 1894 
z
M 3022 2063 
Q 3016 2534 2758 2815 
Q 2500 3097 2075 3097 
Q 1594 3097 1305 2825 
Q 1016 2553 972 2059 
L 3022 2063 
z
" transform="scale(0.015625)"/>
      <path id="DejaVuSans-20" transform="scale(0.015625)"/>
      <path id="DejaVuSans-61" d="M 2194 1759 
Q 1497 1759 1228 1600 
Q 959 1441 959 1056 
Q 959 750 1161 570 
Q 1363 391 1709 391 
Q 2188 391 2477 730 
Q 2766 1069 2766 1631 
L 2766 1759 
L 2194 1759 
z
M 3341 1997 
L 3341 0 
L 2766 0 
L 2766 531 
Q 2569 213 2275 61 
Q 1981 -91 1556 -91 
Q 1019 -91 701 211 
Q 384 513 384 1019 
Q 384 1609 779 1909 
Q 1175 2209 1959 2209 
L 2766 2209 
L 2766 2266 
Q 2766 2663 2505 2880 
Q 2244 3097 1772 3097 
Q 1472 3097 1187 3025 
Q 903 2953 641 2809 
L 641 3341 
Q 956 3463 1253 3523 
Q 1550 3584 1831 3584 
Q 2591 3584 2966 3190 
Q 3341 2797 3341 1997 
z
" transform="scale(0.015625)"/>
      <path id="DejaVuSans-77" d="M 269 3500 
L 844 3500 
L 1563 769 
L 2278 3500 
L 2956 3500 
L 3675 769 
L 4391 3500 
L 4966 3500 
L 4050 0 
L 3372 0 
L 2619 2869 
L 1863 0 
L 1184 0 
L 269 3500 
z
" transform="scale(0.015625)"/>
     </defs>
     <use xlink:href="#DejaVuSans-4d"/>
     <use xlink:href="#DejaVuSans-6f" transform="translate(86.279297 0)"/>
     <use xlink:href="#DejaVuSans-72" transform="translate(147.460938 0)"/>
     <use xlink:href="#DejaVuSans-65" transform="translate(186.324219 0)"/>
     <use xlink:href="#DejaVuSans-20" transform="translate(247.847656 0)"/>
     <use xlink:href="#DejaVuSans-61" transform="translate(279.634766 0)"/>
     <use xlink:href="#DejaVuSans-77" transform="translate(340.914062 0)"/>
     <use xlink:href="#DejaVuSans-61" transform="translate(422.701172 0)"/>
     <use xlink:href="#DejaVuSans-72" transform="translate(483.980469 0)"/>
     <use xlink:href="#DejaVuSans-65" transform="translate(522.84375 0)"/>
    </g>
   </g>
  </g>
  <g id="axes_2">
   <g id="patch_8">
    <path d="M 424.796 330.806438 
L 439.7648 330.806438 
L 439.7648 31.430438 
L 424.796 31.430438 
z
" style="fill: #ffffff"/>
   </g>
   <g id="QuadMesh_1">
    <path d="M 424.796 330.806438 
L 439.7648 330.806438 
L 439.7648 315.049806 
L 424.796 315.049806 
L 424.796 330.806438 
" clip-path="url(#pc303f7f013)" style="fill: #460a5d"/>
    <path d="M 424.796 315.049806 
L 439.7648 315.049806 
L 439.7648 299.293174 
L 424.796 299.293174 
L 424.796 315.049806 
" clip-path="url(#pc303f7f013)" style="fill: #481d6f"/>
    <path d="M 424.796 299.293174 
L 439.7648 299.293174 
L 439.7648 283.536543 
L 424.796 283.536543 
L 424.796 299.293174 
" clip-path="url(#pc303f7f013)" style="fill: #472e7c"/>
    <path d="M 424.796 283.536543 
L 439.7648 283.536543 
L 439.7648 267.779911 
L 424.796 267.779911 
L 424.796 283.536543 
" clip-path="url(#pc303f7f013)" style="fill: #423f85"/>
    <path d="M 424.796 267.779911 
L 439.7648 267.779911 
L 439.7648 252.02328 
L 424.796 252.02328 
L 424.796 267.779911 
" clip-path="url(#pc303f7f013)" style="fill: #3d4e8a"/>
    <path d="M 424.796 252.02328 
L 439.7648 252.02328 
L 439.7648 236.266648 
L 424.796 236.266648 
L 424.796 252.02328 
" clip-path="url(#pc303f7f013)" style="fill: #365d8d"/>
    <path d="M 424.796 236.266648 
L 439.7648 236.266648 
L 439.7648 220.510016 
L 424.796 220.510016 
L 424.796 236.266648 
" clip-path="url(#pc303f7f013)" style="fill: #306a8e"/>
    <path d="M 424.796 220.510016 
L 439.7648 220.510016 
L 439.7648 204.753385 
L 424.796 204.753385 
L 424.796 220.510016 
" clip-path="url(#pc303f7f013)" style="fill: #2a778e"/>
    <path d="M 424.796 204.753385 
L 439.7648 204.753385 
L 439.7648 188.996753 
L 424.796 188.996753 
L 424.796 204.753385 
" clip-path="url(#pc303f7f013)" style="fill: #25838e"/>
    <path d="M 424.796 188.996753 
L 439.7648 188.996753 
L 439.7648 173.240122 
L 424.796 173.240122 
L 424.796 188.996753 
" clip-path="url(#pc303f7f013)" style="fill: #21918c"/>
    <path d="M 424.796 173.240122 
L 439.7648 173.240122 
L 439.7648 157.48349 
L 424.796 157.48349 
L 424.796 173.240122 
" clip-path="url(#pc303f7f013)" style="fill: #1e9d89"/>
    <path d="M 424.796 157.48349 
L 439.7648 157.48349 
L 439.7648 141.726859 
L 424.796 141.726859 
L 424.796 157.48349 
" clip-path="url(#pc303f7f013)" style="fill: #23a983"/>
    <path d="M 424.796 141.726859 
L 439.7648 141.726859 
L 439.7648 125.970227 
L 424.796 125.970227 
L 424.796 141.726859 
" clip-path="url(#pc303f7f013)" style="fill: #32b67a"/>
    <path d="M 424.796 125.970227 
L 439.7648 125.970227 
L 439.7648 110.213595 
L 424.796 110.213595 
L 424.796 125.970227 
" clip-path="url(#pc303f7f013)" style="fill: #48c16e"/>
    <path d="M 424.796 110.213595 
L 439.7648 110.213595 
L 439.7648 94.456964 
L 424.796 94.456964 
L 424.796 110.213595 
" clip-path="url(#pc303f7f013)" style="fill: #65cb5e"/>
    <path d="M 424.796 94.456964 
L 439.7648 94.456964 
L 439.7648 78.700332 
L 424.796 78.700332 
L 424.796 94.456964 
" clip-path="url(#pc303f7f013)" style="fill: #84d44b"/>
    <path d="M 424.796 78.700332 
L 439.7648 78.700332 
L 439.7648 62.943701 
L 424.796 62.943701 
L 424.796 78.700332 
" clip-path="url(#pc303f7f013)" style="fill: #a8db34"/>
    <path d="M 424.796 62.943701 
L 439.7648 62.943701 
L 439.7648 47.187069 
L 424.796 47.187069 
L 424.796 62.943701 
" clip-path="url(#pc303f7f013)" style="fill: #cae11f"/>
    <path d="M 424.796 47.187069 
L 439.7648 47.187069 
L 439.7648 31.430438 
L 424.796 31.430438 
L 424.796 47.187069 
" clip-path="url(#pc303f7f013)" style="fill: #efe51c"/>
   </g>
   <g id="matplotlib.axis_3"/>
   <g id="matplotlib.axis_4">
    <g id="ytick_20">
     <g id="line2d_39">
      <defs>
       <path id="m4573a3c834" d="M 0 0 
L 6 0 
" style="stroke: #000000; stroke-width: 1.5"/>
      </defs>
      <g>
       <use xlink:href="#m4573a3c834" x="439.7648" y="330.806438" style="stroke: #000000; stroke-width: 1.5"/>
      </g>
     </g>
     <g id="text_12">
      <!-- 0.00 -->
      <g transform="translate(449.2648 338.404875) scale(0.2 -0.2)">
       <defs>
        <path id="DejaVuSans-2e" d="M 684 794 
L 1344 794 
L 1344 0 
L 684 0 
L 684 794 
z
" transform="scale(0.015625)"/>
       </defs>
       <use xlink:href="#DejaVuSans-30"/>
       <use xlink:href="#DejaVuSans-2e" transform="translate(63.623047 0)"/>
       <use xlink:href="#DejaVuSans-30" transform="translate(95.410156 0)"/>
       <use xlink:href="#DejaVuSans-30" transform="translate(159.033203 0)"/>
      </g>
     </g>
    </g>
    <g id="ytick_21">
     <g id="line2d_40">
      <g>
       <use xlink:href="#m4573a3c834" x="439.7648" y="255.962438" style="stroke: #000000; stroke-width: 1.5"/>
      </g>
     </g>
     <g id="text_13">
      <!-- 0.25 -->
      <g transform="translate(449.2648 263.560875) scale(0.2 -0.2)">
       <defs>
        <path id="DejaVuSans-35" d="M 691 4666 
L 3169 4666 
L 3169 4134 
L 1269 4134 
L 1269 2991 
Q 1406 3038 1543 3061 
Q 1681 3084 1819 3084 
Q 2600 3084 3056 2656 
Q 3513 2228 3513 1497 
Q 3513 744 3044 326 
Q 2575 -91 1722 -91 
Q 1428 -91 1123 -41 
Q 819 9 494 109 
L 494 744 
Q 775 591 1075 516 
Q 1375 441 1709 441 
Q 2250 441 2565 725 
Q 2881 1009 2881 1497 
Q 2881 1984 2565 2268 
Q 2250 2553 1709 2553 
Q 1456 2553 1204 2497 
Q 953 2441 691 2322 
L 691 4666 
z
" transform="scale(0.015625)"/>
       </defs>
       <use xlink:href="#DejaVuSans-30"/>
       <use xlink:href="#DejaVuSans-2e" transform="translate(63.623047 0)"/>
       <use xlink:href="#DejaVuSans-32" transform="translate(95.410156 0)"/>
       <use xlink:href="#DejaVuSans-35" transform="translate(159.033203 0)"/>
      </g>
     </g>
    </g>
    <g id="ytick_22">
     <g id="line2d_41">
      <g>
       <use xlink:href="#m4573a3c834" x="439.7648" y="181.118438" style="stroke: #000000; stroke-width: 1.5"/>
      </g>
     </g>
     <g id="text_14">
      <!-- 0.50 -->
      <g transform="translate(449.2648 188.716875) scale(0.2 -0.2)">
       <use xlink:href="#DejaVuSans-30"/>
       <use xlink:href="#DejaVuSans-2e" transform="translate(63.623047 0)"/>
       <use xlink:href="#DejaVuSans-35" transform="translate(95.410156 0)"/>
       <use xlink:href="#DejaVuSans-30" transform="translate(159.033203 0)"/>
      </g>
     </g>
    </g>
    <g id="ytick_23">
     <g id="line2d_42">
      <g>
       <use xlink:href="#m4573a3c834" x="439.7648" y="106.274438" style="stroke: #000000; stroke-width: 1.5"/>
      </g>
     </g>
     <g id="text_15">
      <!-- 0.75 -->
      <g transform="translate(449.2648 113.872875) scale(0.2 -0.2)">
       <defs>
        <path id="DejaVuSans-37" d="M 525 4666 
L 3525 4666 
L 3525 4397 
L 1831 0 
L 1172 0 
L 2766 4134 
L 525 4134 
L 525 4666 
z
" transform="scale(0.015625)"/>
       </defs>
       <use xlink:href="#DejaVuSans-30"/>
       <use xlink:href="#DejaVuSans-2e" transform="translate(63.623047 0)"/>
       <use xlink:href="#DejaVuSans-37" transform="translate(95.410156 0)"/>
       <use xlink:href="#DejaVuSans-35" transform="translate(159.033203 0)"/>
      </g>
     </g>
    </g>
    <g id="ytick_24">
     <g id="line2d_43">
      <g>
       <use xlink:href="#m4573a3c834" x="439.7648" y="31.430438" style="stroke: #000000; stroke-width: 1.5"/>
      </g>
     </g>
     <g id="text_16">
      <!-- 1.00 -->
      <g transform="translate(449.2648 39.028875) scale(0.2 -0.2)">
       <use xlink:href="#DejaVuSans-31"/>
       <use xlink:href="#DejaVuSans-2e" transform="translate(63.623047 0)"/>
       <use xlink:href="#DejaVuSans-30" transform="translate(95.410156 0)"/>
       <use xlink:href="#DejaVuSans-30" transform="translate(159.033203 0)"/>
      </g>
     </g>
    </g>
    <g id="text_17">
     <!-- Epidemic size $p^{EI}$ -->
     <g transform="translate(515.79605 266.418437) rotate(-90) scale(0.2 -0.2)">
      <defs>
       <path id="DejaVuSans-45" d="M 628 4666 
L 3578 4666 
L 3578 4134 
L 1259 4134 
L 1259 2753 
L 3481 2753 
L 3481 2222 
L 1259 2222 
L 1259 531 
L 3634 531 
L 3634 0 
L 628 0 
L 628 4666 
z
" transform="scale(0.015625)"/>
       <path id="DejaVuSans-70" d="M 1159 525 
L 1159 -1331 
L 581 -1331 
L 581 3500 
L 1159 3500 
L 1159 2969 
Q 1341 3281 1617 3432 
Q 1894 3584 2278 3584 
Q 2916 3584 3314 3078 
Q 3713 2572 3713 1747 
Q 3713 922 3314 415 
Q 2916 -91 2278 -91 
Q 1894 -91 1617 61 
Q 1341 213 1159 525 
z
M 3116 1747 
Q 3116 2381 2855 2742 
Q 2594 3103 2138 3103 
Q 1681 3103 1420 2742 
Q 1159 2381 1159 1747 
Q 1159 1113 1420 752 
Q 1681 391 2138 391 
Q 2594 391 2855 752 
Q 3116 1113 3116 1747 
z
" transform="scale(0.015625)"/>
       <path id="DejaVuSans-69" d="M 603 3500 
L 1178 3500 
L 1178 0 
L 603 0 
L 603 3500 
z
M 603 4863 
L 1178 4863 
L 1178 4134 
L 603 4134 
L 603 4863 
z
" transform="scale(0.015625)"/>
       <path id="DejaVuSans-64" d="M 2906 2969 
L 2906 4863 
L 3481 4863 
L 3481 0 
L 2906 0 
L 2906 525 
Q 2725 213 2448 61 
Q 2172 -91 1784 -91 
Q 1150 -91 751 415 
Q 353 922 353 1747 
Q 353 2572 751 3078 
Q 1150 3584 1784 3584 
Q 2172 3584 2448 3432 
Q 2725 3281 2906 2969 
z
M 947 1747 
Q 947 1113 1208 752 
Q 1469 391 1925 391 
Q 2381 391 2643 752 
Q 2906 1113 2906 1747 
Q 2906 2381 2643 2742 
Q 2381 3103 1925 3103 
Q 1469 3103 1208 2742 
Q 947 2381 947 1747 
z
" transform="scale(0.015625)"/>
       <path id="DejaVuSans-6d" d="M 3328 2828 
Q 3544 3216 3844 3400 
Q 4144 3584 4550 3584 
Q 5097 3584 5394 3201 
Q 5691 2819 5691 2113 
L 5691 0 
L 5113 0 
L 5113 2094 
Q 5113 2597 4934 2840 
Q 4756 3084 4391 3084 
Q 3944 3084 3684 2787 
Q 3425 2491 3425 1978 
L 3425 0 
L 2847 0 
L 2847 2094 
Q 2847 2600 2669 2842 
Q 2491 3084 2119 3084 
Q 1678 3084 1418 2786 
Q 1159 2488 1159 1978 
L 1159 0 
L 581 0 
L 581 3500 
L 1159 3500 
L 1159 2956 
Q 1356 3278 1631 3431 
Q 1906 3584 2284 3584 
Q 2666 3584 2933 3390 
Q 3200 3197 3328 2828 
z
" transform="scale(0.015625)"/>
       <path id="DejaVuSans-63" d="M 3122 3366 
L 3122 2828 
Q 2878 2963 2633 3030 
Q 2388 3097 2138 3097 
Q 1578 3097 1268 2742 
Q 959 2388 959 1747 
Q 959 1106 1268 751 
Q 1578 397 2138 397 
Q 2388 397 2633 464 
Q 2878 531 3122 666 
L 3122 134 
Q 2881 22 2623 -34 
Q 2366 -91 2075 -91 
Q 1284 -91 818 406 
Q 353 903 353 1747 
Q 353 2603 823 3093 
Q 1294 3584 2113 3584 
Q 2378 3584 2631 3529 
Q 2884 3475 3122 3366 
z
" transform="scale(0.015625)"/>
       <path id="DejaVuSans-73" d="M 2834 3397 
L 2834 2853 
Q 2591 2978 2328 3040 
Q 2066 3103 1784 3103 
Q 1356 3103 1142 2972 
Q 928 2841 928 2578 
Q 928 2378 1081 2264 
Q 1234 2150 1697 2047 
L 1894 2003 
Q 2506 1872 2764 1633 
Q 3022 1394 3022 966 
Q 3022 478 2636 193 
Q 2250 -91 1575 -91 
Q 1294 -91 989 -36 
Q 684 19 347 128 
L 347 722 
Q 666 556 975 473 
Q 1284 391 1588 391 
Q 1994 391 2212 530 
Q 2431 669 2431 922 
Q 2431 1156 2273 1281 
Q 2116 1406 1581 1522 
L 1381 1569 
Q 847 1681 609 1914 
Q 372 2147 372 2553 
Q 372 3047 722 3315 
Q 1072 3584 1716 3584 
Q 2034 3584 2315 3537 
Q 2597 3491 2834 3397 
z
" transform="scale(0.015625)"/>
       <path id="DejaVuSans-7a" d="M 353 3500 
L 3084 3500 
L 3084 2975 
L 922 459 
L 3084 459 
L 3084 0 
L 275 0 
L 275 525 
L 2438 3041 
L 353 3041 
L 353 3500 
z
" transform="scale(0.015625)"/>
       <path id="DejaVuSans-Oblique-45" d="M 1081 4666 
L 4031 4666 
L 3928 4134 
L 1606 4134 
L 1338 2753 
L 3566 2753 
L 3463 2222 
L 1234 2222 
L 909 531 
L 3284 531 
L 3181 0 
L 172 0 
L 1081 4666 
z
" transform="scale(0.015625)"/>
       <path id="DejaVuSans-Oblique-49" d="M 1081 4666 
L 1716 4666 
L 806 0 
L 172 0 
L 1081 4666 
z
" transform="scale(0.015625)"/>
      </defs>
      <use xlink:href="#DejaVuSans-45" transform="translate(0 0.684375)"/>
      <use xlink:href="#DejaVuSans-70" transform="translate(63.183594 0.684375)"/>
      <use xlink:href="#DejaVuSans-69" transform="translate(126.660156 0.684375)"/>
      <use xlink:href="#DejaVuSans-64" transform="translate(154.443359 0.684375)"/>
      <use xlink:href="#DejaVuSans-65" transform="translate(217.919922 0.684375)"/>
      <use xlink:href="#DejaVuSans-6d" transform="translate(279.443359 0.684375)"/>
      <use xlink:href="#DejaVuSans-69" transform="translate(376.855469 0.684375)"/>
      <use xlink:href="#DejaVuSans-63" transform="translate(404.638672 0.684375)"/>
      <use xlink:href="#DejaVuSans-20" transform="translate(459.619141 0.684375)"/>
      <use xlink:href="#DejaVuSans-73" transform="translate(491.40625 0.684375)"/>
      <use xlink:href="#DejaVuSans-69" transform="translate(543.505859 0.684375)"/>
      <use xlink:href="#DejaVuSans-7a" transform="translate(571.289062 0.684375)"/>
      <use xlink:href="#DejaVuSans-65" transform="translate(623.779297 0.684375)"/>
      <use xlink:href="#DejaVuSans-20" transform="translate(685.302734 0.684375)"/>
      <use xlink:href="#DejaVuSans-Oblique-70" transform="translate(717.089844 0.684375)"/>
      <use xlink:href="#DejaVuSans-Oblique-45" transform="translate(785.216302 38.965625) scale(0.7)"/>
      <use xlink:href="#DejaVuSans-Oblique-49" transform="translate(829.444818 38.965625) scale(0.7)"/>
     </g>
    </g>
   </g>
   <g id="LineCollection_1"/>
   <g id="patch_9">
    <path d="M 424.796 330.806438 
L 432.2804 330.806438 
L 439.7648 330.806438 
L 439.7648 31.430438 
L 432.2804 31.430438 
L 424.796 31.430438 
L 424.796 330.806438 
z
" style="fill: none; stroke: #000000; stroke-width: 0.8; stroke-linejoin: miter; stroke-linecap: square"/>
   </g>
  </g>
 </g>
 <defs>
  <clipPath id="pd31b219752">
   <rect x="83.3" y="14.798437" width="333.4608" height="332.64"/>
  </clipPath>
  <clipPath id="pc303f7f013">
   <rect x="424.796" y="31.430438" width="14.9688" height="299.376"/>
  </clipPath>
 </defs>
</svg>
