<?xml version="1.0" encoding="utf-8" standalone="no"?>
<!DOCTYPE svg PUBLIC "-//W3C//DTD SVG 1.1//EN"
  "http://www.w3.org/Graphics/SVG/1.1/DTD/svg11.dtd">
<svg xmlns:xlink="http://www.w3.org/1999/xlink" width="492.058394pt" height="407.744687pt" viewBox="0 0 492.058394 407.744687" xmlns="http://www.w3.org/2000/svg" version="1.1">
 <metadata>
  <rdf:RDF xmlns:dc="http://purl.org/dc/elements/1.1/" xmlns:cc="http://creativecommons.org/ns#" xmlns:rdf="http://www.w3.org/1999/02/22-rdf-syntax-ns#">
   <cc:Work>
    <dc:type rdf:resource="http://purl.org/dc/dcmitype/StillImage"/>
    <dc:date>2025-05-19T14:20:04.011852</dc:date>
    <dc:format>image/svg+xml</dc:format>
    <dc:creator>
     <cc:Agent>
      <dc:title>Matplotlib v3.10.1, https://matplotlib.org/</dc:title>
     </cc:Agent>
    </dc:creator>
   </cc:Work>
  </rdf:RDF>
 </metadata>
 <defs>
  <style type="text/css">*{stroke-linejoin: round; stroke-linecap: butt}</style>
 </defs>
 <g id="figure_1">
  <g id="patch_1">
   <path d="M 0 407.744687 
L 492.058394 407.744687 
L 492.058394 0 
L 0 0 
z
" style="fill: #ffffff"/>
  </g>
  <g id="axes_1">
   <g id="patch_2">
    <path d="M 72.75625 347.438437 
L 406.21705 347.438437 
L 406.21705 14.798437 
L 72.75625 14.798437 
z
" style="fill: #ffffff"/>
   </g>
   <g id="QuadContourSet_1">
    <path d="M 90.306831 347.438437 
L 107.857412 347.438437 
L 125.407913 347.438437 
L 142.958494 347.438437 
L 160.509075 347.438437 
L 178.059656 347.438437 
L 195.610237 347.438437 
L 213.160818 347.438437 
L 230.711399 347.438437 
L 248.261901 347.438437 
L 265.812482 347.438437 
L 283.363063 347.438437 
L 300.913644 347.438437 
L 318.464225 347.438437 
L 336.014806 347.438437 
L 353.565387 347.438437 
L 371.115888 347.438437 
L 388.666469 347.438437 
L 406.21705 347.438437 
L 406.21705 329.931057 
L 406.21705 312.423676 
L 406.21705 307.002324 
L 388.666469 308.342786 
L 371.115888 308.825978 
L 353.565387 311.498187 
L 336.348142 312.423676 
L 336.014806 312.438343 
L 318.464225 312.871323 
L 300.913644 315.414263 
L 283.363063 317.011587 
L 265.812482 318.042049 
L 248.261901 321.267833 
L 230.711399 322.27119 
L 213.160818 325.226485 
L 195.610237 326.7868 
L 178.059656 327.579193 
L 160.509075 329.486656 
L 156.713067 329.931057 
L 142.958494 331.703556 
L 125.407913 332.910552 
L 107.857412 335.946388 
L 90.306831 336.420207 
L 72.75625 340.942186 
L 72.75625 347.438437 
z
" clip-path="url(#p14b990f423)" style="fill: #481668"/>
    <path d="M 90.306831 336.420207 
L 107.857412 335.946388 
L 125.407913 332.910552 
L 142.958494 331.703556 
L 156.713067 329.931057 
L 160.509075 329.486656 
L 178.059656 327.579193 
L 195.610237 326.7868 
L 213.160818 325.226485 
L 230.711399 322.27119 
L 248.261901 321.267833 
L 265.812482 318.042049 
L 283.363063 317.011587 
L 300.913644 315.414263 
L 318.464225 312.871323 
L 336.014806 312.438343 
L 336.348142 312.423676 
L 353.565387 311.498187 
L 371.115888 308.825978 
L 388.666469 308.342786 
L 406.21705 307.002324 
L 406.21705 294.916374 
L 406.21705 277.408993 
L 406.21705 267.245584 
L 388.666469 266.419814 
L 371.115888 269.644288 
L 353.565387 269.535535 
L 336.014806 270.261186 
L 318.464225 272.393405 
L 300.913644 273.705713 
L 283.363063 275.073278 
L 265.812482 276.642268 
L 261.291665 277.408993 
L 248.261901 280.116683 
L 230.711399 278.86731 
L 213.160818 283.262596 
L 195.610237 285.740125 
L 178.059656 288.308801 
L 160.509075 289.502547 
L 142.958494 291.59723 
L 125.407913 292.422513 
L 107.857412 294.354147 
L 105.2311 294.916374 
L 90.306831 297.690398 
L 72.75625 299.917077 
L 72.75625 312.423676 
L 72.75625 329.931057 
L 72.75625 340.942186 
z
" clip-path="url(#p14b990f423)" style="fill: #443983"/>
    <path d="M 90.306831 297.690398 
L 105.2311 294.916374 
L 107.857412 294.354147 
L 125.407913 292.422513 
L 142.958494 291.59723 
L 160.509075 289.502547 
L 178.059656 288.308801 
L 195.610237 285.740125 
L 213.160818 283.262596 
L 230.711399 278.86731 
L 248.261901 280.116683 
L 261.291665 277.408993 
L 265.812482 276.642268 
L 283.363063 275.073278 
L 300.913644 273.705713 
L 318.464225 272.393405 
L 336.014806 270.261186 
L 353.565387 269.535535 
L 371.115888 269.644288 
L 388.666469 266.419814 
L 406.21705 267.245584 
L 406.21705 259.901612 
L 406.21705 242.394231 
L 406.21705 226.739716 
L 388.666469 230.042018 
L 371.115888 231.423454 
L 353.565387 231.169877 
L 336.014806 233.526463 
L 318.464225 232.830411 
L 300.913644 236.526669 
L 283.363063 235.574889 
L 265.812482 239.172406 
L 248.261901 239.595309 
L 230.711399 241.585418 
L 225.211744 242.394231 
L 213.160818 244.394582 
L 195.610237 244.679984 
L 178.059656 246.207662 
L 160.509075 249.223504 
L 142.958494 249.458037 
L 125.407913 252.511062 
L 107.857412 255.156305 
L 90.428889 259.901612 
L 90.306831 259.932033 
L 72.75625 261.865395 
L 72.75625 277.408993 
L 72.75625 294.916374 
L 72.75625 299.917077 
z
" clip-path="url(#p14b990f423)" style="fill: #375a8c"/>
    <path d="M 90.306831 259.932033 
L 90.428889 259.901612 
L 107.857412 255.156305 
L 125.407913 252.511062 
L 142.958494 249.458037 
L 160.509075 249.223504 
L 178.059656 246.207662 
L 195.610237 244.679984 
L 213.160818 244.394582 
L 225.211744 242.394231 
L 230.711399 241.585418 
L 248.261901 239.595309 
L 265.812482 239.172406 
L 283.363063 235.574889 
L 300.913644 236.526669 
L 318.464225 232.830411 
L 336.014806 233.526463 
L 353.565387 231.169877 
L 371.115888 231.423454 
L 388.666469 230.042018 
L 406.21705 226.739716 
L 406.21705 224.88685 
L 406.21705 207.379469 
L 406.21705 189.872088 
L 406.21705 186.745948 
L 390.424118 189.872088 
L 388.666469 190.247314 
L 371.115888 192.573345 
L 353.565387 191.475884 
L 336.014806 194.743623 
L 318.464225 196.692786 
L 300.913644 197.577735 
L 283.363063 199.516485 
L 265.812482 200.857401 
L 248.261901 202.008063 
L 230.711399 204.616253 
L 213.160818 203.881455 
L 195.610237 205.759161 
L 184.79535 207.379469 
L 178.059656 208.50127 
L 160.509075 211.276323 
L 142.958494 211.982036 
L 125.407913 213.652338 
L 107.857412 216.306479 
L 90.306831 218.138163 
L 72.75625 221.390471 
L 72.75625 224.88685 
L 72.75625 242.394231 
L 72.75625 259.901612 
L 72.75625 261.865395 
z
" clip-path="url(#p14b990f423)" style="fill: #2b758e"/>
    <path d="M 90.306831 218.138163 
L 107.857412 216.306479 
L 125.407913 213.652338 
L 142.958494 211.982036 
L 160.509075 211.276323 
L 178.059656 208.50127 
L 184.79535 207.379469 
L 195.610237 205.759161 
L 213.160818 203.881455 
L 230.711399 204.616253 
L 248.261901 202.008063 
L 265.812482 200.857401 
L 283.363063 199.516485 
L 300.913644 197.577735 
L 318.464225 196.692786 
L 336.014806 194.743623 
L 353.565387 191.475884 
L 371.115888 192.573345 
L 388.666469 190.247314 
L 390.424118 189.872088 
L 406.21705 186.745948 
L 406.21705 172.364787 
L 406.21705 154.857406 
L 406.21705 148.281881 
L 388.666469 149.689077 
L 371.115888 150.005519 
L 353.565387 152.559947 
L 336.014806 152.311284 
L 319.143877 154.857406 
L 318.464225 154.95972 
L 300.913644 158.492039 
L 283.363063 157.305422 
L 265.812482 160.72949 
L 248.261901 163.098647 
L 230.711399 162.457877 
L 213.160818 166.101185 
L 195.610237 165.442946 
L 178.059656 171.186674 
L 160.509075 170.700451 
L 148.017502 172.364787 
L 142.958494 173.06705 
L 125.407913 174.802981 
L 107.857412 179.366013 
L 90.306831 178.912 
L 72.75625 182.365915 
L 72.75625 189.872088 
L 72.75625 207.379469 
L 72.75625 221.390471 
z
" clip-path="url(#p14b990f423)" style="fill: #21918c"/>
    <path d="M 90.306831 178.912 
L 107.857412 179.366013 
L 125.407913 174.802981 
L 142.958494 173.06705 
L 148.017502 172.364787 
L 160.509075 170.700451 
L 178.059656 171.186674 
L 195.610237 165.442946 
L 213.160818 166.101185 
L 230.711399 162.457877 
L 248.261901 163.098647 
L 265.812482 160.72949 
L 283.363063 157.305422 
L 300.913644 158.492039 
L 318.464225 154.95972 
L 319.143877 154.857406 
L 336.014806 152.311284 
L 353.565387 152.559947 
L 371.115888 150.005519 
L 388.666469 149.689077 
L 406.21705 148.281881 
L 406.21705 137.350025 
L 406.21705 119.842644 
L 406.21705 108.088891 
L 388.666469 109.224399 
L 371.115888 110.048515 
L 353.565387 111.965324 
L 336.014806 111.594334 
L 318.464225 114.168449 
L 300.913644 117.156372 
L 283.363063 118.947345 
L 279.843209 119.842644 
L 265.812482 123.021837 
L 248.261901 120.210926 
L 230.711399 121.865849 
L 213.160818 126.842036 
L 195.610237 122.423735 
L 178.059656 130.195062 
L 160.509075 130.613619 
L 142.958494 132.380324 
L 125.407913 134.15554 
L 107.857412 137.248736 
L 107.546559 137.350025 
L 90.306831 141.634546 
L 72.75625 144.152424 
L 72.75625 154.857406 
L 72.75625 172.364787 
L 72.75625 182.365915 
z
" clip-path="url(#p14b990f423)" style="fill: #25ab82"/>
    <path d="M 90.306831 141.634546 
L 107.546559 137.350025 
L 107.857412 137.248736 
L 125.407913 134.15554 
L 142.958494 132.380324 
L 160.509075 130.613619 
L 178.059656 130.195062 
L 195.610237 122.423735 
L 213.160818 126.842036 
L 230.711399 121.865849 
L 248.261901 120.210926 
L 265.812482 123.021837 
L 279.843209 119.842644 
L 283.363063 118.947345 
L 300.913644 117.156372 
L 318.464225 114.168449 
L 336.014806 111.594334 
L 353.565387 111.965324 
L 371.115888 110.048515 
L 388.666469 109.224399 
L 406.21705 108.088891 
L 406.21705 102.335263 
L 406.21705 84.827882 
L 406.21705 68.304329 
L 399.221061 67.320501 
L 388.666469 65.575045 
L 371.115888 66.293625 
L 363.194754 67.320501 
L 353.565387 68.696371 
L 336.014806 71.680955 
L 318.464225 73.287625 
L 300.913644 75.468059 
L 283.363063 77.157244 
L 265.812482 79.25123 
L 248.261901 79.28751 
L 230.711399 82.913747 
L 213.160818 84.248301 
L 207.872052 84.827882 
L 195.610237 86.101304 
L 178.059656 88.496488 
L 160.509075 89.213909 
L 142.958494 90.683545 
L 125.407913 93.895458 
L 107.857412 96.210525 
L 90.306831 96.965788 
L 72.75625 100.549954 
L 72.75625 102.335263 
L 72.75625 119.842644 
L 72.75625 137.350025 
L 72.75625 144.152424 
z
" clip-path="url(#p14b990f423)" style="fill: #4ec36b"/>
    <path d="M 90.306831 96.965788 
L 107.857412 96.210525 
L 125.407913 93.895458 
L 142.958494 90.683545 
L 160.509075 89.213909 
L 178.059656 88.496488 
L 195.610237 86.101304 
L 207.872052 84.827882 
L 213.160818 84.248301 
L 230.711399 82.913747 
L 248.261901 79.28751 
L 265.812482 79.25123 
L 283.363063 77.157244 
L 300.913644 75.468059 
L 318.464225 73.287625 
L 336.014806 71.680955 
L 353.565387 68.696371 
L 363.194754 67.320501 
L 371.115888 66.293625 
L 388.666469 65.575045 
L 399.221061 67.320501 
L 406.21705 68.304329 
L 406.21705 67.320501 
L 406.21705 49.813199 
L 406.21705 32.305818 
L 406.21705 20.723695 
L 388.666469 22.346897 
L 371.115888 27.865596 
L 353.565387 23.719626 
L 336.014806 24.168776 
L 318.464225 29.394018 
L 300.913644 27.253018 
L 283.363063 32.009651 
L 278.558071 32.305818 
L 265.812482 32.927878 
L 248.261901 32.910624 
L 230.711399 38.987112 
L 213.160818 38.941995 
L 195.610237 42.048936 
L 178.059656 44.575484 
L 160.509075 44.86701 
L 143.713198 49.813199 
L 142.958494 50.030152 
L 125.407913 52.005897 
L 107.857412 53.636057 
L 90.306831 56.519038 
L 72.75625 59.882779 
L 72.75625 67.320501 
L 72.75625 84.827882 
L 72.75625 100.549954 
z
" clip-path="url(#p14b990f423)" style="fill: #90d743"/>
    <path d="M 90.306831 56.519038 
L 107.857412 53.636057 
L 125.407913 52.005897 
L 142.958494 50.030152 
L 143.713198 49.813199 
L 160.509075 44.86701 
L 178.059656 44.575484 
L 195.610237 42.048936 
L 213.160818 38.941995 
L 230.711399 38.987112 
L 248.261901 32.910624 
L 265.812482 32.927878 
L 278.558071 32.305818 
L 283.363063 32.009651 
L 300.913644 27.253018 
L 318.464225 29.394018 
L 336.014806 24.168776 
L 353.565387 23.719626 
L 371.115888 27.865596 
L 388.666469 22.346897 
L 406.21705 20.723695 
L 406.21705 14.798437 
L 388.666469 14.798437 
L 371.115888 14.798437 
L 353.565387 14.798437 
L 336.014806 14.798437 
L 318.464225 14.798437 
L 300.913644 14.798437 
L 283.363063 14.798437 
L 265.812482 14.798437 
L 248.261901 14.798437 
L 230.711399 14.798437 
L 213.160818 14.798437 
L 195.610237 14.798437 
L 178.059656 14.798437 
L 160.509075 14.798437 
L 142.958494 14.798437 
L 125.407913 14.798437 
L 107.857412 14.798437 
L 90.306831 14.798437 
L 72.75625 14.798437 
L 72.75625 32.305818 
L 72.75625 49.813199 
L 72.75625 59.882779 
z
" clip-path="url(#p14b990f423)" style="fill: #dae319"/>
   </g>
   <g id="matplotlib.axis_1">
    <g id="xtick_1">
     <g id="line2d_1">
      <defs>
       <path id="m705b4072b8" d="M 0 0 
L 0 2 
" style="stroke: #000000; stroke-width: 1.5"/>
      </defs>
      <g>
       <use xlink:href="#m705b4072b8" x="72.75625" y="347.438437" style="stroke: #000000; stroke-width: 1.5"/>
      </g>
     </g>
     <g id="text_1">
      <!-- 2.0 -->
      <g transform="translate(56.853125 368.135312) scale(0.2 -0.2)">
       <defs>
        <path id="DejaVuSans-32" d="M 1228 531 
L 3431 531 
L 3431 0 
L 469 0 
L 469 531 
Q 828 903 1448 1529 
Q 2069 2156 2228 2338 
Q 2531 2678 2651 2914 
Q 2772 3150 2772 3378 
Q 2772 3750 2511 3984 
Q 2250 4219 1831 4219 
Q 1534 4219 1204 4116 
Q 875 4013 500 3803 
L 500 4441 
Q 881 4594 1212 4672 
Q 1544 4750 1819 4750 
Q 2544 4750 2975 4387 
Q 3406 4025 3406 3419 
Q 3406 3131 3298 2873 
Q 3191 2616 2906 2266 
Q 2828 2175 2409 1742 
Q 1991 1309 1228 531 
z
" transform="scale(0.015625)"/>
        <path id="DejaVuSans-2e" d="M 684 794 
L 1344 794 
L 1344 0 
L 684 0 
L 684 794 
z
" transform="scale(0.015625)"/>
        <path id="DejaVuSans-30" d="M 2034 4250 
Q 1547 4250 1301 3770 
Q 1056 3291 1056 2328 
Q 1056 1369 1301 889 
Q 1547 409 2034 409 
Q 2525 409 2770 889 
Q 3016 1369 3016 2328 
Q 3016 3291 2770 3770 
Q 2525 4250 2034 4250 
z
M 2034 4750 
Q 2819 4750 3233 4129 
Q 3647 3509 3647 2328 
Q 3647 1150 3233 529 
Q 2819 -91 2034 -91 
Q 1250 -91 836 529 
Q 422 1150 422 2328 
Q 422 3509 836 4129 
Q 1250 4750 2034 4750 
z
" transform="scale(0.015625)"/>
       </defs>
       <use xlink:href="#DejaVuSans-32"/>
       <use xlink:href="#DejaVuSans-2e" transform="translate(63.623047 0)"/>
       <use xlink:href="#DejaVuSans-30" transform="translate(95.410156 0)"/>
      </g>
     </g>
    </g>
    <g id="xtick_2">
     <g id="line2d_2">
      <g>
       <use xlink:href="#m705b4072b8" x="139.44841" y="347.438437" style="stroke: #000000; stroke-width: 1.5"/>
      </g>
     </g>
     <g id="text_2">
      <!-- 2.2 -->
      <g transform="translate(123.545285 368.135312) scale(0.2 -0.2)">
       <use xlink:href="#DejaVuSans-32"/>
       <use xlink:href="#DejaVuSans-2e" transform="translate(63.623047 0)"/>
       <use xlink:href="#DejaVuSans-32" transform="translate(95.410156 0)"/>
      </g>
     </g>
    </g>
    <g id="xtick_3">
     <g id="line2d_3">
      <g>
       <use xlink:href="#m705b4072b8" x="206.14057" y="347.438437" style="stroke: #000000; stroke-width: 1.5"/>
      </g>
     </g>
     <g id="text_3">
      <!-- 2.4 -->
      <g transform="translate(190.237445 368.135312) scale(0.2 -0.2)">
       <defs>
        <path id="DejaVuSans-34" d="M 2419 4116 
L 825 1625 
L 2419 1625 
L 2419 4116 
z
M 2253 4666 
L 3047 4666 
L 3047 1625 
L 3713 1625 
L 3713 1100 
L 3047 1100 
L 3047 0 
L 2419 0 
L 2419 1100 
L 313 1100 
L 313 1709 
L 2253 4666 
z
" transform="scale(0.015625)"/>
       </defs>
       <use xlink:href="#DejaVuSans-32"/>
       <use xlink:href="#DejaVuSans-2e" transform="translate(63.623047 0)"/>
       <use xlink:href="#DejaVuSans-34" transform="translate(95.410156 0)"/>
      </g>
     </g>
    </g>
    <g id="xtick_4">
     <g id="line2d_4">
      <g>
       <use xlink:href="#m705b4072b8" x="272.83273" y="347.438437" style="stroke: #000000; stroke-width: 1.5"/>
      </g>
     </g>
     <g id="text_4">
      <!-- 2.6 -->
      <g transform="translate(256.929605 368.135312) scale(0.2 -0.2)">
       <defs>
        <path id="DejaVuSans-36" d="M 2113 2584 
Q 1688 2584 1439 2293 
Q 1191 2003 1191 1497 
Q 1191 994 1439 701 
Q 1688 409 2113 409 
Q 2538 409 2786 701 
Q 3034 994 3034 1497 
Q 3034 2003 2786 2293 
Q 2538 2584 2113 2584 
z
M 3366 4563 
L 3366 3988 
Q 3128 4100 2886 4159 
Q 2644 4219 2406 4219 
Q 1781 4219 1451 3797 
Q 1122 3375 1075 2522 
Q 1259 2794 1537 2939 
Q 1816 3084 2150 3084 
Q 2853 3084 3261 2657 
Q 3669 2231 3669 1497 
Q 3669 778 3244 343 
Q 2819 -91 2113 -91 
Q 1303 -91 875 529 
Q 447 1150 447 2328 
Q 447 3434 972 4092 
Q 1497 4750 2381 4750 
Q 2619 4750 2861 4703 
Q 3103 4656 3366 4563 
z
" transform="scale(0.015625)"/>
       </defs>
       <use xlink:href="#DejaVuSans-32"/>
       <use xlink:href="#DejaVuSans-2e" transform="translate(63.623047 0)"/>
       <use xlink:href="#DejaVuSans-36" transform="translate(95.410156 0)"/>
      </g>
     </g>
    </g>
    <g id="xtick_5">
     <g id="line2d_5">
      <g>
       <use xlink:href="#m705b4072b8" x="339.52489" y="347.438437" style="stroke: #000000; stroke-width: 1.5"/>
      </g>
     </g>
     <g id="text_5">
      <!-- 2.8 -->
      <g transform="translate(323.621765 368.135312) scale(0.2 -0.2)">
       <defs>
        <path id="DejaVuSans-38" d="M 2034 2216 
Q 1584 2216 1326 1975 
Q 1069 1734 1069 1313 
Q 1069 891 1326 650 
Q 1584 409 2034 409 
Q 2484 409 2743 651 
Q 3003 894 3003 1313 
Q 3003 1734 2745 1975 
Q 2488 2216 2034 2216 
z
M 1403 2484 
Q 997 2584 770 2862 
Q 544 3141 544 3541 
Q 544 4100 942 4425 
Q 1341 4750 2034 4750 
Q 2731 4750 3128 4425 
Q 3525 4100 3525 3541 
Q 3525 3141 3298 2862 
Q 3072 2584 2669 2484 
Q 3125 2378 3379 2068 
Q 3634 1759 3634 1313 
Q 3634 634 3220 271 
Q 2806 -91 2034 -91 
Q 1263 -91 848 271 
Q 434 634 434 1313 
Q 434 1759 690 2068 
Q 947 2378 1403 2484 
z
M 1172 3481 
Q 1172 3119 1398 2916 
Q 1625 2713 2034 2713 
Q 2441 2713 2670 2916 
Q 2900 3119 2900 3481 
Q 2900 3844 2670 4047 
Q 2441 4250 2034 4250 
Q 1625 4250 1398 4047 
Q 1172 3844 1172 3481 
z
" transform="scale(0.015625)"/>
       </defs>
       <use xlink:href="#DejaVuSans-32"/>
       <use xlink:href="#DejaVuSans-2e" transform="translate(63.623047 0)"/>
       <use xlink:href="#DejaVuSans-38" transform="translate(95.410156 0)"/>
      </g>
     </g>
    </g>
    <g id="xtick_6">
     <g id="line2d_6">
      <g>
       <use xlink:href="#m705b4072b8" x="406.21705" y="347.438437" style="stroke: #000000; stroke-width: 1.5"/>
      </g>
     </g>
     <g id="text_6">
      <!-- 3.0 -->
      <g transform="translate(390.313925 368.135312) scale(0.2 -0.2)">
       <defs>
        <path id="DejaVuSans-33" d="M 2597 2516 
Q 3050 2419 3304 2112 
Q 3559 1806 3559 1356 
Q 3559 666 3084 287 
Q 2609 -91 1734 -91 
Q 1441 -91 1130 -33 
Q 819 25 488 141 
L 488 750 
Q 750 597 1062 519 
Q 1375 441 1716 441 
Q 2309 441 2620 675 
Q 2931 909 2931 1356 
Q 2931 1769 2642 2001 
Q 2353 2234 1838 2234 
L 1294 2234 
L 1294 2753 
L 1863 2753 
Q 2328 2753 2575 2939 
Q 2822 3125 2822 3475 
Q 2822 3834 2567 4026 
Q 2313 4219 1838 4219 
Q 1578 4219 1281 4162 
Q 984 4106 628 3988 
L 628 4550 
Q 988 4650 1302 4700 
Q 1616 4750 1894 4750 
Q 2613 4750 3031 4423 
Q 3450 4097 3450 3541 
Q 3450 3153 3228 2886 
Q 3006 2619 2597 2516 
z
" transform="scale(0.015625)"/>
       </defs>
       <use xlink:href="#DejaVuSans-33"/>
       <use xlink:href="#DejaVuSans-2e" transform="translate(63.623047 0)"/>
       <use xlink:href="#DejaVuSans-30" transform="translate(95.410156 0)"/>
      </g>
     </g>
    </g>
    <g id="text_7">
     <!-- Power-law exponent $\gamma_I$ -->
     <g transform="translate(97.98665 395.294687) scale(0.25 -0.25)">
      <defs>
       <path id="DejaVuSans-50" d="M 1259 4147 
L 1259 2394 
L 2053 2394 
Q 2494 2394 2734 2622 
Q 2975 2850 2975 3272 
Q 2975 3691 2734 3919 
Q 2494 4147 2053 4147 
L 1259 4147 
z
M 628 4666 
L 2053 4666 
Q 2838 4666 3239 4311 
Q 3641 3956 3641 3272 
Q 3641 2581 3239 2228 
Q 2838 1875 2053 1875 
L 1259 1875 
L 1259 0 
L 628 0 
L 628 4666 
z
" transform="scale(0.015625)"/>
       <path id="DejaVuSans-6f" d="M 1959 3097 
Q 1497 3097 1228 2736 
Q 959 2375 959 1747 
Q 959 1119 1226 758 
Q 1494 397 1959 397 
Q 2419 397 2687 759 
Q 2956 1122 2956 1747 
Q 2956 2369 2687 2733 
Q 2419 3097 1959 3097 
z
M 1959 3584 
Q 2709 3584 3137 3096 
Q 3566 2609 3566 1747 
Q 3566 888 3137 398 
Q 2709 -91 1959 -91 
Q 1206 -91 779 398 
Q 353 888 353 1747 
Q 353 2609 779 3096 
Q 1206 3584 1959 3584 
z
" transform="scale(0.015625)"/>
       <path id="DejaVuSans-77" d="M 269 3500 
L 844 3500 
L 1563 769 
L 2278 3500 
L 2956 3500 
L 3675 769 
L 4391 3500 
L 4966 3500 
L 4050 0 
L 3372 0 
L 2619 2869 
L 1863 0 
L 1184 0 
L 269 3500 
z
" transform="scale(0.015625)"/>
       <path id="DejaVuSans-65" d="M 3597 1894 
L 3597 1613 
L 953 1613 
Q 991 1019 1311 708 
Q 1631 397 2203 397 
Q 2534 397 2845 478 
Q 3156 559 3463 722 
L 3463 178 
Q 3153 47 2828 -22 
Q 2503 -91 2169 -91 
Q 1331 -91 842 396 
Q 353 884 353 1716 
Q 353 2575 817 3079 
Q 1281 3584 2069 3584 
Q 2775 3584 3186 3129 
Q 3597 2675 3597 1894 
z
M 3022 2063 
Q 3016 2534 2758 2815 
Q 2500 3097 2075 3097 
Q 1594 3097 1305 2825 
Q 1016 2553 972 2059 
L 3022 2063 
z
" transform="scale(0.015625)"/>
       <path id="DejaVuSans-72" d="M 2631 2963 
Q 2534 3019 2420 3045 
Q 2306 3072 2169 3072 
Q 1681 3072 1420 2755 
Q 1159 2438 1159 1844 
L 1159 0 
L 581 0 
L 581 3500 
L 1159 3500 
L 1159 2956 
Q 1341 3275 1631 3429 
Q 1922 3584 2338 3584 
Q 2397 3584 2469 3576 
Q 2541 3569 2628 3553 
L 2631 2963 
z
" transform="scale(0.015625)"/>
       <path id="DejaVuSans-2d" d="M 313 2009 
L 1997 2009 
L 1997 1497 
L 313 1497 
L 313 2009 
z
" transform="scale(0.015625)"/>
       <path id="DejaVuSans-6c" d="M 603 4863 
L 1178 4863 
L 1178 0 
L 603 0 
L 603 4863 
z
" transform="scale(0.015625)"/>
       <path id="DejaVuSans-61" d="M 2194 1759 
Q 1497 1759 1228 1600 
Q 959 1441 959 1056 
Q 959 750 1161 570 
Q 1363 391 1709 391 
Q 2188 391 2477 730 
Q 2766 1069 2766 1631 
L 2766 1759 
L 2194 1759 
z
M 3341 1997 
L 3341 0 
L 2766 0 
L 2766 531 
Q 2569 213 2275 61 
Q 1981 -91 1556 -91 
Q 1019 -91 701 211 
Q 384 513 384 1019 
Q 384 1609 779 1909 
Q 1175 2209 1959 2209 
L 2766 2209 
L 2766 2266 
Q 2766 2663 2505 2880 
Q 2244 3097 1772 3097 
Q 1472 3097 1187 3025 
Q 903 2953 641 2809 
L 641 3341 
Q 956 3463 1253 3523 
Q 1550 3584 1831 3584 
Q 2591 3584 2966 3190 
Q 3341 2797 3341 1997 
z
" transform="scale(0.015625)"/>
       <path id="DejaVuSans-20" transform="scale(0.015625)"/>
       <path id="DejaVuSans-78" d="M 3513 3500 
L 2247 1797 
L 3578 0 
L 2900 0 
L 1881 1375 
L 863 0 
L 184 0 
L 1544 1831 
L 300 3500 
L 978 3500 
L 1906 2253 
L 2834 3500 
L 3513 3500 
z
" transform="scale(0.015625)"/>
       <path id="DejaVuSans-70" d="M 1159 525 
L 1159 -1331 
L 581 -1331 
L 581 3500 
L 1159 3500 
L 1159 2969 
Q 1341 3281 1617 3432 
Q 1894 3584 2278 3584 
Q 2916 3584 3314 3078 
Q 3713 2572 3713 1747 
Q 3713 922 3314 415 
Q 2916 -91 2278 -91 
Q 1894 -91 1617 61 
Q 1341 213 1159 525 
z
M 3116 1747 
Q 3116 2381 2855 2742 
Q 2594 3103 2138 3103 
Q 1681 3103 1420 2742 
Q 1159 2381 1159 1747 
Q 1159 1113 1420 752 
Q 1681 391 2138 391 
Q 2594 391 2855 752 
Q 3116 1113 3116 1747 
z
" transform="scale(0.015625)"/>
       <path id="DejaVuSans-6e" d="M 3513 2113 
L 3513 0 
L 2938 0 
L 2938 2094 
Q 2938 2591 2744 2837 
Q 2550 3084 2163 3084 
Q 1697 3084 1428 2787 
Q 1159 2491 1159 1978 
L 1159 0 
L 581 0 
L 581 3500 
L 1159 3500 
L 1159 2956 
Q 1366 3272 1645 3428 
Q 1925 3584 2291 3584 
Q 2894 3584 3203 3211 
Q 3513 2838 3513 2113 
z
" transform="scale(0.015625)"/>
       <path id="DejaVuSans-74" d="M 1172 4494 
L 1172 3500 
L 2356 3500 
L 2356 3053 
L 1172 3053 
L 1172 1153 
Q 1172 725 1289 603 
Q 1406 481 1766 481 
L 2356 481 
L 2356 0 
L 1766 0 
Q 1100 0 847 248 
Q 594 497 594 1153 
L 594 3053 
L 172 3053 
L 172 3500 
L 594 3500 
L 594 4494 
L 1172 4494 
z
" transform="scale(0.015625)"/>
       <path id="DejaVuSans-Oblique-3b3" d="M 1491 2950 
L 1838 788 
L 3456 3500 
L 4066 3500 
L 1972 0 
L 1713 -1331 
L 1138 -1331 
L 1397 0 
L 988 2613 
Q 925 3006 628 3006 
L 475 3006 
L 569 3500 
L 788 3500 
Q 1403 3500 1491 2950 
z
" transform="scale(0.015625)"/>
       <path id="DejaVuSans-Oblique-49" d="M 1081 4666 
L 1716 4666 
L 806 0 
L 172 0 
L 1081 4666 
z
" transform="scale(0.015625)"/>
      </defs>
      <use xlink:href="#DejaVuSans-50" transform="translate(0 0.015625)"/>
      <use xlink:href="#DejaVuSans-6f" transform="translate(60.302734 0.015625)"/>
      <use xlink:href="#DejaVuSans-77" transform="translate(121.484375 0.015625)"/>
      <use xlink:href="#DejaVuSans-65" transform="translate(203.271484 0.015625)"/>
      <use xlink:href="#DejaVuSans-72" transform="translate(264.794922 0.015625)"/>
      <use xlink:href="#DejaVuSans-2d" transform="translate(305.908203 0.015625)"/>
      <use xlink:href="#DejaVuSans-6c" transform="translate(341.992188 0.015625)"/>
      <use xlink:href="#DejaVuSans-61" transform="translate(369.775391 0.015625)"/>
      <use xlink:href="#DejaVuSans-77" transform="translate(431.054688 0.015625)"/>
      <use xlink:href="#DejaVuSans-20" transform="translate(512.841797 0.015625)"/>
      <use xlink:href="#DejaVuSans-65" transform="translate(544.628906 0.015625)"/>
      <use xlink:href="#DejaVuSans-78" transform="translate(606.152344 0.015625)"/>
      <use xlink:href="#DejaVuSans-70" transform="translate(665.332031 0.015625)"/>
      <use xlink:href="#DejaVuSans-6f" transform="translate(728.808594 0.015625)"/>
      <use xlink:href="#DejaVuSans-6e" transform="translate(789.990234 0.015625)"/>
      <use xlink:href="#DejaVuSans-65" transform="translate(853.369141 0.015625)"/>
      <use xlink:href="#DejaVuSans-6e" transform="translate(914.892578 0.015625)"/>
      <use xlink:href="#DejaVuSans-74" transform="translate(978.271484 0.015625)"/>
      <use xlink:href="#DejaVuSans-20" transform="translate(1017.480469 0.015625)"/>
      <use xlink:href="#DejaVuSans-Oblique-3b3" transform="translate(1049.267578 0.015625)"/>
      <use xlink:href="#DejaVuSans-Oblique-49" transform="translate(1108.447266 -16.390625) scale(0.7)"/>
     </g>
    </g>
   </g>
   <g id="matplotlib.axis_2">
    <g id="ytick_1">
     <g id="line2d_7">
      <defs>
       <path id="mad5bbc167a" d="M 0 0 
L -2 0 
" style="stroke: #000000; stroke-width: 1.5"/>
      </defs>
      <g>
       <use xlink:href="#mad5bbc167a" x="72.75625" y="347.438437" style="stroke: #000000; stroke-width: 1.5"/>
      </g>
     </g>
     <g id="text_8">
      <!-- 2.0 -->
      <g transform="translate(35.45 355.036875) scale(0.2 -0.2)">
       <use xlink:href="#DejaVuSans-32"/>
       <use xlink:href="#DejaVuSans-2e" transform="translate(63.623047 0)"/>
       <use xlink:href="#DejaVuSans-30" transform="translate(95.410156 0)"/>
      </g>
     </g>
    </g>
    <g id="ytick_2">
     <g id="line2d_8">
      <g>
       <use xlink:href="#mad5bbc167a" x="72.75625" y="280.910437" style="stroke: #000000; stroke-width: 1.5"/>
      </g>
     </g>
     <g id="text_9">
      <!-- 2.2 -->
      <g transform="translate(35.45 288.508875) scale(0.2 -0.2)">
       <use xlink:href="#DejaVuSans-32"/>
       <use xlink:href="#DejaVuSans-2e" transform="translate(63.623047 0)"/>
       <use xlink:href="#DejaVuSans-32" transform="translate(95.410156 0)"/>
      </g>
     </g>
    </g>
    <g id="ytick_3">
     <g id="line2d_9">
      <g>
       <use xlink:href="#mad5bbc167a" x="72.75625" y="214.382437" style="stroke: #000000; stroke-width: 1.5"/>
      </g>
     </g>
     <g id="text_10">
      <!-- 2.4 -->
      <g transform="translate(35.45 221.980875) scale(0.2 -0.2)">
       <use xlink:href="#DejaVuSans-32"/>
       <use xlink:href="#DejaVuSans-2e" transform="translate(63.623047 0)"/>
       <use xlink:href="#DejaVuSans-34" transform="translate(95.410156 0)"/>
      </g>
     </g>
    </g>
    <g id="ytick_4">
     <g id="line2d_10">
      <g>
       <use xlink:href="#mad5bbc167a" x="72.75625" y="147.854437" style="stroke: #000000; stroke-width: 1.5"/>
      </g>
     </g>
     <g id="text_11">
      <!-- 2.6 -->
      <g transform="translate(35.45 155.452875) scale(0.2 -0.2)">
       <use xlink:href="#DejaVuSans-32"/>
       <use xlink:href="#DejaVuSans-2e" transform="translate(63.623047 0)"/>
       <use xlink:href="#DejaVuSans-36" transform="translate(95.410156 0)"/>
      </g>
     </g>
    </g>
    <g id="ytick_5">
     <g id="line2d_11">
      <g>
       <use xlink:href="#mad5bbc167a" x="72.75625" y="81.326437" style="stroke: #000000; stroke-width: 1.5"/>
      </g>
     </g>
     <g id="text_12">
      <!-- 2.8 -->
      <g transform="translate(35.45 88.924875) scale(0.2 -0.2)">
       <use xlink:href="#DejaVuSans-32"/>
       <use xlink:href="#DejaVuSans-2e" transform="translate(63.623047 0)"/>
       <use xlink:href="#DejaVuSans-38" transform="translate(95.410156 0)"/>
      </g>
     </g>
    </g>
    <g id="ytick_6">
     <g id="line2d_12">
      <g>
       <use xlink:href="#mad5bbc167a" x="72.75625" y="14.798437" style="stroke: #000000; stroke-width: 1.5"/>
      </g>
     </g>
     <g id="text_13">
      <!-- 3.0 -->
      <g transform="translate(35.45 22.396875) scale(0.2 -0.2)">
       <use xlink:href="#DejaVuSans-33"/>
       <use xlink:href="#DejaVuSans-2e" transform="translate(63.623047 0)"/>
       <use xlink:href="#DejaVuSans-30" transform="translate(95.410156 0)"/>
      </g>
     </g>
    </g>
    <g id="text_14">
     <!-- Power-law exponent $\gamma_P$ -->
     <g transform="translate(26.2 325.368437) rotate(-90) scale(0.25 -0.25)">
      <defs>
       <path id="DejaVuSans-Oblique-50" d="M 1081 4666 
L 2541 4666 
Q 3178 4666 3512 4369 
Q 3847 4072 3847 3500 
Q 3847 2731 3353 2303 
Q 2859 1875 1966 1875 
L 1172 1875 
L 806 0 
L 172 0 
L 1081 4666 
z
M 1613 4147 
L 1275 2394 
L 2069 2394 
Q 2606 2394 2893 2669 
Q 3181 2944 3181 3456 
Q 3181 3784 2986 3965 
Q 2791 4147 2438 4147 
L 1613 4147 
z
" transform="scale(0.015625)"/>
      </defs>
      <use xlink:href="#DejaVuSans-50" transform="translate(0 0.015625)"/>
      <use xlink:href="#DejaVuSans-6f" transform="translate(60.302734 0.015625)"/>
      <use xlink:href="#DejaVuSans-77" transform="translate(121.484375 0.015625)"/>
      <use xlink:href="#DejaVuSans-65" transform="translate(203.271484 0.015625)"/>
      <use xlink:href="#DejaVuSans-72" transform="translate(264.794922 0.015625)"/>
      <use xlink:href="#DejaVuSans-2d" transform="translate(305.908203 0.015625)"/>
      <use xlink:href="#DejaVuSans-6c" transform="translate(341.992188 0.015625)"/>
      <use xlink:href="#DejaVuSans-61" transform="translate(369.775391 0.015625)"/>
      <use xlink:href="#DejaVuSans-77" transform="translate(431.054688 0.015625)"/>
      <use xlink:href="#DejaVuSans-20" transform="translate(512.841797 0.015625)"/>
      <use xlink:href="#DejaVuSans-65" transform="translate(544.628906 0.015625)"/>
      <use xlink:href="#DejaVuSans-78" transform="translate(606.152344 0.015625)"/>
      <use xlink:href="#DejaVuSans-70" transform="translate(665.332031 0.015625)"/>
      <use xlink:href="#DejaVuSans-6f" transform="translate(728.808594 0.015625)"/>
      <use xlink:href="#DejaVuSans-6e" transform="translate(789.990234 0.015625)"/>
      <use xlink:href="#DejaVuSans-65" transform="translate(853.369141 0.015625)"/>
      <use xlink:href="#DejaVuSans-6e" transform="translate(914.892578 0.015625)"/>
      <use xlink:href="#DejaVuSans-74" transform="translate(978.271484 0.015625)"/>
      <use xlink:href="#DejaVuSans-20" transform="translate(1017.480469 0.015625)"/>
      <use xlink:href="#DejaVuSans-Oblique-3b3" transform="translate(1049.267578 0.015625)"/>
      <use xlink:href="#DejaVuSans-Oblique-50" transform="translate(1108.447266 -16.390625) scale(0.7)"/>
     </g>
    </g>
   </g>
   <g id="patch_3">
    <path d="M 72.75625 347.438437 
L 72.75625 14.798437 
" style="fill: none; stroke: #000000; stroke-width: 0.8; stroke-linejoin: miter; stroke-linecap: square"/>
   </g>
   <g id="patch_4">
    <path d="M 406.21705 347.438437 
L 406.21705 14.798437 
" style="fill: none; stroke: #000000; stroke-width: 0.8; stroke-linejoin: miter; stroke-linecap: square"/>
   </g>
   <g id="patch_5">
    <path d="M 72.75625 347.438437 
L 406.21705 347.438437 
" style="fill: none; stroke: #000000; stroke-width: 0.8; stroke-linejoin: miter; stroke-linecap: square"/>
   </g>
   <g id="patch_6">
    <path d="M 72.75625 14.798437 
L 406.21705 14.798437 
" style="fill: none; stroke: #000000; stroke-width: 0.8; stroke-linejoin: miter; stroke-linecap: square"/>
   </g>
   <g id="patch_7">
    <path d="M 262.844553 262.063119 
Q 239.336072 191.711271 215.827591 121.359424 
L 209.662672 123.419467 
Q 211.235907 112.351188 212.809141 101.282909 
Q 220.720397 109.18189 228.631653 117.080872 
L 222.466734 119.140915 
Q 245.975215 189.492763 269.483696 259.844611 
L 262.844553 262.063119 
z
" style="fill: #add8e6; opacity: 0.8; stroke: #000000; stroke-linecap: round"/>
   </g>
   <g id="text_15">
    <!-- $\log_{10} \beta_{c}$ -->
    <g transform="translate(306.17881 48.062437) scale(0.25 -0.25)">
     <defs>
      <path id="DejaVuSans-67" d="M 2906 1791 
Q 2906 2416 2648 2759 
Q 2391 3103 1925 3103 
Q 1463 3103 1205 2759 
Q 947 2416 947 1791 
Q 947 1169 1205 825 
Q 1463 481 1925 481 
Q 2391 481 2648 825 
Q 2906 1169 2906 1791 
z
M 3481 434 
Q 3481 -459 3084 -895 
Q 2688 -1331 1869 -1331 
Q 1566 -1331 1297 -1286 
Q 1028 -1241 775 -1147 
L 775 -588 
Q 1028 -725 1275 -790 
Q 1522 -856 1778 -856 
Q 2344 -856 2625 -561 
Q 2906 -266 2906 331 
L 2906 616 
Q 2728 306 2450 153 
Q 2172 0 1784 0 
Q 1141 0 747 490 
Q 353 981 353 1791 
Q 353 2603 747 3093 
Q 1141 3584 1784 3584 
Q 2172 3584 2450 3431 
Q 2728 3278 2906 2969 
L 2906 3500 
L 3481 3500 
L 3481 434 
z
" transform="scale(0.015625)"/>
      <path id="DejaVuSans-31" d="M 794 531 
L 1825 531 
L 1825 4091 
L 703 3866 
L 703 4441 
L 1819 4666 
L 2450 4666 
L 2450 531 
L 3481 531 
L 3481 0 
L 794 0 
L 794 531 
z
" transform="scale(0.015625)"/>
      <path id="DejaVuSans-Oblique-3b2" d="M 872 216 
L 572 -1331 
L -6 -1331 
L 928 3478 
Q 1206 4903 2538 4903 
Q 3888 4903 3659 3700 
Q 3503 2844 2894 2531 
Q 3713 2250 3553 1416 
Q 3272 -69 1759 -66 
Q 1097 -63 872 216 
z
M 1019 966 
Q 1259 422 1875 425 
Q 2775 425 2966 1406 
Q 3138 2288 1675 2219 
L 1778 2750 
Q 2909 2731 3106 3750 
Q 3241 4438 2509 4434 
Q 1691 4434 1503 3459 
L 1019 966 
z
" transform="scale(0.015625)"/>
      <path id="DejaVuSans-Oblique-63" d="M 3431 3366 
L 3316 2797 
Q 3109 2947 2876 3022 
Q 2644 3097 2394 3097 
Q 2119 3097 1870 3000 
Q 1622 2903 1453 2725 
Q 1184 2453 1037 2087 
Q 891 1722 891 1331 
Q 891 859 1127 628 
Q 1363 397 1844 397 
Q 2081 397 2348 469 
Q 2616 541 2906 684 
L 2797 116 
Q 2547 13 2283 -39 
Q 2019 -91 1741 -91 
Q 1044 -91 669 257 
Q 294 606 294 1253 
Q 294 1797 489 2255 
Q 684 2713 1069 3078 
Q 1331 3328 1684 3456 
Q 2038 3584 2456 3584 
Q 2700 3584 2940 3529 
Q 3181 3475 3431 3366 
z
" transform="scale(0.015625)"/>
     </defs>
     <use xlink:href="#DejaVuSans-6c" transform="translate(0 0.390625)"/>
     <use xlink:href="#DejaVuSans-6f" transform="translate(27.783203 0.390625)"/>
     <use xlink:href="#DejaVuSans-67" transform="translate(88.964844 0.390625)"/>
     <use xlink:href="#DejaVuSans-31" transform="translate(153.398438 -16.015625) scale(0.7)"/>
     <use xlink:href="#DejaVuSans-30" transform="translate(197.93457 -16.015625) scale(0.7)"/>
     <use xlink:href="#DejaVuSans-Oblique-3b2" transform="translate(261.440754 0.390625)"/>
     <use xlink:href="#DejaVuSans-Oblique-63" transform="translate(325.259114 -16.015625) scale(0.7)"/>
    </g>
   </g>
  </g>
  <g id="axes_2">
   <g id="patch_8">
    <path d="M 414.25225 330.806437 
L 429.22105 330.806437 
L 429.22105 31.430437 
L 414.25225 31.430437 
z
" style="fill: #ffffff"/>
   </g>
   <g id="QuadMesh_1">
    <path d="M 414.25225 330.806437 
L 429.22105 330.806437 
L 429.22105 297.542437 
L 414.25225 297.542437 
L 414.25225 330.806437 
" clip-path="url(#pf0ff0bf215)" style="fill: #481668"/>
    <path d="M 414.25225 297.542437 
L 429.22105 297.542437 
L 429.22105 264.278437 
L 414.25225 264.278437 
L 414.25225 297.542437 
" clip-path="url(#pf0ff0bf215)" style="fill: #443983"/>
    <path d="M 414.25225 264.278437 
L 429.22105 264.278437 
L 429.22105 231.014437 
L 414.25225 231.014437 
L 414.25225 264.278437 
" clip-path="url(#pf0ff0bf215)" style="fill: #375a8c"/>
    <path d="M 414.25225 231.014437 
L 429.22105 231.014437 
L 429.22105 197.750437 
L 414.25225 197.750437 
L 414.25225 231.014437 
" clip-path="url(#pf0ff0bf215)" style="fill: #2b758e"/>
    <path d="M 414.25225 197.750437 
L 429.22105 197.750437 
L 429.22105 164.486437 
L 414.25225 164.486437 
L 414.25225 197.750437 
" clip-path="url(#pf0ff0bf215)" style="fill: #21918c"/>
    <path d="M 414.25225 164.486437 
L 429.22105 164.486437 
L 429.22105 131.222437 
L 414.25225 131.222437 
L 414.25225 164.486437 
" clip-path="url(#pf0ff0bf215)" style="fill: #25ab82"/>
    <path d="M 414.25225 131.222437 
L 429.22105 131.222437 
L 429.22105 97.958437 
L 414.25225 97.958437 
L 414.25225 131.222437 
" clip-path="url(#pf0ff0bf215)" style="fill: #4ec36b"/>
    <path d="M 414.25225 97.958437 
L 429.22105 97.958437 
L 429.22105 64.694437 
L 414.25225 64.694437 
L 414.25225 97.958437 
" clip-path="url(#pf0ff0bf215)" style="fill: #90d743"/>
    <path d="M 414.25225 64.694437 
L 429.22105 64.694437 
L 429.22105 31.430437 
L 414.25225 31.430437 
L 414.25225 64.694437 
" clip-path="url(#pf0ff0bf215)" style="fill: #dae319"/>
   </g>
   <g id="matplotlib.axis_3"/>
   <g id="matplotlib.axis_4">
    <g id="ytick_7">
     <g id="line2d_13">
      <defs>
       <path id="m9889dbf851" d="M 0 0 
L 6 0 
" style="stroke: #000000; stroke-width: 1.5"/>
      </defs>
      <g>
       <use xlink:href="#m9889dbf851" x="429.22105" y="309.316853" style="stroke: #000000; stroke-width: 1.5"/>
      </g>
     </g>
     <g id="text_16">
      <!-- −2.0 -->
      <g transform="translate(438.72105 316.535369) scale(0.19 -0.19)">
       <defs>
        <path id="DejaVuSans-2212" d="M 678 2272 
L 4684 2272 
L 4684 1741 
L 678 1741 
L 678 2272 
z
" transform="scale(0.015625)"/>
       </defs>
       <use xlink:href="#DejaVuSans-2212"/>
       <use xlink:href="#DejaVuSans-32" transform="translate(83.789062 0)"/>
       <use xlink:href="#DejaVuSans-2e" transform="translate(147.412109 0)"/>
       <use xlink:href="#DejaVuSans-30" transform="translate(179.199219 0)"/>
      </g>
     </g>
    </g>
    <g id="ytick_8">
     <g id="line2d_14">
      <g>
       <use xlink:href="#m9889dbf851" x="429.22105" y="233.546106" style="stroke: #000000; stroke-width: 1.5"/>
      </g>
     </g>
     <g id="text_17">
      <!-- −1.9 -->
      <g transform="translate(438.72105 240.764622) scale(0.19 -0.19)">
       <defs>
        <path id="DejaVuSans-39" d="M 703 97 
L 703 672 
Q 941 559 1184 500 
Q 1428 441 1663 441 
Q 2288 441 2617 861 
Q 2947 1281 2994 2138 
Q 2813 1869 2534 1725 
Q 2256 1581 1919 1581 
Q 1219 1581 811 2004 
Q 403 2428 403 3163 
Q 403 3881 828 4315 
Q 1253 4750 1959 4750 
Q 2769 4750 3195 4129 
Q 3622 3509 3622 2328 
Q 3622 1225 3098 567 
Q 2575 -91 1691 -91 
Q 1453 -91 1209 -44 
Q 966 3 703 97 
z
M 1959 2075 
Q 2384 2075 2632 2365 
Q 2881 2656 2881 3163 
Q 2881 3666 2632 3958 
Q 2384 4250 1959 4250 
Q 1534 4250 1286 3958 
Q 1038 3666 1038 3163 
Q 1038 2656 1286 2365 
Q 1534 2075 1959 2075 
z
" transform="scale(0.015625)"/>
       </defs>
       <use xlink:href="#DejaVuSans-2212"/>
       <use xlink:href="#DejaVuSans-31" transform="translate(83.789062 0)"/>
       <use xlink:href="#DejaVuSans-2e" transform="translate(147.412109 0)"/>
       <use xlink:href="#DejaVuSans-39" transform="translate(179.199219 0)"/>
      </g>
     </g>
    </g>
    <g id="ytick_9">
     <g id="line2d_15">
      <g>
       <use xlink:href="#m9889dbf851" x="429.22105" y="157.775269" style="stroke: #000000; stroke-width: 1.5"/>
      </g>
     </g>
     <g id="text_18">
      <!-- −1.8 -->
      <g transform="translate(438.72105 164.993785) scale(0.19 -0.19)">
       <use xlink:href="#DejaVuSans-2212"/>
       <use xlink:href="#DejaVuSans-31" transform="translate(83.789062 0)"/>
       <use xlink:href="#DejaVuSans-2e" transform="translate(147.412109 0)"/>
       <use xlink:href="#DejaVuSans-38" transform="translate(179.199219 0)"/>
      </g>
     </g>
    </g>
    <g id="ytick_10">
     <g id="line2d_16">
      <g>
       <use xlink:href="#m9889dbf851" x="429.22105" y="82.004522" style="stroke: #000000; stroke-width: 1.5"/>
      </g>
     </g>
     <g id="text_19">
      <!-- −1.7 -->
      <g transform="translate(438.72105 89.223038) scale(0.19 -0.19)">
       <defs>
        <path id="DejaVuSans-37" d="M 525 4666 
L 3525 4666 
L 3525 4397 
L 1831 0 
L 1172 0 
L 2766 4134 
L 525 4134 
L 525 4666 
z
" transform="scale(0.015625)"/>
       </defs>
       <use xlink:href="#DejaVuSans-2212"/>
       <use xlink:href="#DejaVuSans-31" transform="translate(83.789062 0)"/>
       <use xlink:href="#DejaVuSans-2e" transform="translate(147.412109 0)"/>
       <use xlink:href="#DejaVuSans-37" transform="translate(179.199219 0)"/>
      </g>
     </g>
    </g>
   </g>
   <g id="LineCollection_1"/>
   <g id="patch_9">
    <path d="M 414.25225 330.806437 
L 421.73665 330.806437 
L 429.22105 330.806437 
L 429.22105 31.430437 
L 421.73665 31.430437 
L 414.25225 31.430437 
L 414.25225 330.806437 
z
" style="fill: none; stroke: #000000; stroke-width: 0.8; stroke-linejoin: miter; stroke-linecap: square"/>
   </g>
  </g>
 </g>
 <defs>
  <clipPath id="p14b990f423">
   <rect x="72.75625" y="14.798437" width="333.4608" height="332.64"/>
  </clipPath>
  <clipPath id="pf0ff0bf215">
   <rect x="414.25225" y="31.430437" width="14.9688" height="299.376"/>
  </clipPath>
 </defs>
</svg>
