<?xml version="1.0" encoding="utf-8" standalone="no"?>
<!DOCTYPE svg PUBLIC "-//W3C//DTD SVG 1.1//EN"
  "http://www.w3.org/Graphics/SVG/1.1/DTD/svg11.dtd">
<svg xmlns:xlink="http://www.w3.org/1999/xlink" width="686.25625pt" height="348.654687pt" viewBox="0 0 686.25625 348.654687" xmlns="http://www.w3.org/2000/svg" version="1.1">
 <metadata>
  <rdf:RDF xmlns:dc="http://purl.org/dc/elements/1.1/" xmlns:cc="http://creativecommons.org/ns#" xmlns:rdf="http://www.w3.org/1999/02/22-rdf-syntax-ns#">
   <cc:Work>
    <dc:type rdf:resource="http://purl.org/dc/dcmitype/StillImage"/>
    <dc:date>2025-05-19T13:59:35.471194</dc:date>
    <dc:format>image/svg+xml</dc:format>
    <dc:creator>
     <cc:Agent>
      <dc:title>Matplotlib v3.10.1, https://matplotlib.org/</dc:title>
     </cc:Agent>
    </dc:creator>
   </cc:Work>
  </rdf:RDF>
 </metadata>
 <defs>
  <style type="text/css">*{stroke-linejoin: round; stroke-linecap: butt}</style>
 </defs>
 <g id="figure_1">
  <g id="patch_1">
   <path d="M 0 348.654687 
L 686.25625 348.654687 
L 686.25625 0 
L 0 0 
z
" style="fill: #ffffff"/>
  </g>
  <g id="axes_1">
   <g id="patch_2">
    <path d="M 65.90625 291.998437 
L 623.90625 291.998437 
L 623.90625 14.798437 
L 65.90625 14.798437 
z
" style="fill: #ffffff"/>
   </g>
   <g id="matplotlib.axis_1">
    <g id="xtick_1">
     <g id="line2d_1">
      <defs>
       <path id="m6b0ef935b0" d="M 0 0 
L 0 3 
" style="stroke: #000000; stroke-width: 1.5"/>
      </defs>
      <g>
       <use xlink:href="#m6b0ef935b0" x="91.269886" y="291.998437" style="stroke: #000000; stroke-width: 1.5"/>
      </g>
     </g>
     <g id="text_1">
      <!-- $\mathdefault{10^{-3}}$ -->
      <g transform="translate(67.769886 313.695312) scale(0.2 -0.2)">
       <defs>
        <path id="DejaVuSans-31" d="M 794 531 
L 1825 531 
L 1825 4091 
L 703 3866 
L 703 4441 
L 1819 4666 
L 2450 4666 
L 2450 531 
L 3481 531 
L 3481 0 
L 794 0 
L 794 531 
z
" transform="scale(0.015625)"/>
        <path id="DejaVuSans-30" d="M 2034 4250 
Q 1547 4250 1301 3770 
Q 1056 3291 1056 2328 
Q 1056 1369 1301 889 
Q 1547 409 2034 409 
Q 2525 409 2770 889 
Q 3016 1369 3016 2328 
Q 3016 3291 2770 3770 
Q 2525 4250 2034 4250 
z
M 2034 4750 
Q 2819 4750 3233 4129 
Q 3647 3509 3647 2328 
Q 3647 1150 3233 529 
Q 2819 -91 2034 -91 
Q 1250 -91 836 529 
Q 422 1150 422 2328 
Q 422 3509 836 4129 
Q 1250 4750 2034 4750 
z
" transform="scale(0.015625)"/>
        <path id="DejaVuSans-2212" d="M 678 2272 
L 4684 2272 
L 4684 1741 
L 678 1741 
L 678 2272 
z
" transform="scale(0.015625)"/>
        <path id="DejaVuSans-33" d="M 2597 2516 
Q 3050 2419 3304 2112 
Q 3559 1806 3559 1356 
Q 3559 666 3084 287 
Q 2609 -91 1734 -91 
Q 1441 -91 1130 -33 
Q 819 25 488 141 
L 488 750 
Q 750 597 1062 519 
Q 1375 441 1716 441 
Q 2309 441 2620 675 
Q 2931 909 2931 1356 
Q 2931 1769 2642 2001 
Q 2353 2234 1838 2234 
L 1294 2234 
L 1294 2753 
L 1863 2753 
Q 2328 2753 2575 2939 
Q 2822 3125 2822 3475 
Q 2822 3834 2567 4026 
Q 2313 4219 1838 4219 
Q 1578 4219 1281 4162 
Q 984 4106 628 3988 
L 628 4550 
Q 988 4650 1302 4700 
Q 1616 4750 1894 4750 
Q 2613 4750 3031 4423 
Q 3450 4097 3450 3541 
Q 3450 3153 3228 2886 
Q 3006 2619 2597 2516 
z
" transform="scale(0.015625)"/>
       </defs>
       <use xlink:href="#DejaVuSans-31" transform="translate(0 0.765625)"/>
       <use xlink:href="#DejaVuSans-30" transform="translate(63.623047 0.765625)"/>
       <use xlink:href="#DejaVuSans-2212" transform="translate(128.203125 39.046875) scale(0.7)"/>
       <use xlink:href="#DejaVuSans-33" transform="translate(186.855469 39.046875) scale(0.7)"/>
      </g>
     </g>
    </g>
    <g id="xtick_2">
     <g id="line2d_2">
      <g>
       <use xlink:href="#m6b0ef935b0" x="344.90625" y="291.998437" style="stroke: #000000; stroke-width: 1.5"/>
      </g>
     </g>
     <g id="text_2">
      <!-- $\mathdefault{10^{-2}}$ -->
      <g transform="translate(321.40625 313.695312) scale(0.2 -0.2)">
       <defs>
        <path id="DejaVuSans-32" d="M 1228 531 
L 3431 531 
L 3431 0 
L 469 0 
L 469 531 
Q 828 903 1448 1529 
Q 2069 2156 2228 2338 
Q 2531 2678 2651 2914 
Q 2772 3150 2772 3378 
Q 2772 3750 2511 3984 
Q 2250 4219 1831 4219 
Q 1534 4219 1204 4116 
Q 875 4013 500 3803 
L 500 4441 
Q 881 4594 1212 4672 
Q 1544 4750 1819 4750 
Q 2544 4750 2975 4387 
Q 3406 4025 3406 3419 
Q 3406 3131 3298 2873 
Q 3191 2616 2906 2266 
Q 2828 2175 2409 1742 
Q 1991 1309 1228 531 
z
" transform="scale(0.015625)"/>
       </defs>
       <use xlink:href="#DejaVuSans-31" transform="translate(0 0.765625)"/>
       <use xlink:href="#DejaVuSans-30" transform="translate(63.623047 0.765625)"/>
       <use xlink:href="#DejaVuSans-2212" transform="translate(128.203125 39.046875) scale(0.7)"/>
       <use xlink:href="#DejaVuSans-32" transform="translate(186.855469 39.046875) scale(0.7)"/>
      </g>
     </g>
    </g>
    <g id="xtick_3">
     <g id="line2d_3">
      <g>
       <use xlink:href="#m6b0ef935b0" x="598.542614" y="291.998437" style="stroke: #000000; stroke-width: 1.5"/>
      </g>
     </g>
     <g id="text_3">
      <!-- $\mathdefault{10^{-1}}$ -->
      <g transform="translate(575.042614 313.695312) scale(0.2 -0.2)">
       <use xlink:href="#DejaVuSans-31" transform="translate(0 0.684375)"/>
       <use xlink:href="#DejaVuSans-30" transform="translate(63.623047 0.684375)"/>
       <use xlink:href="#DejaVuSans-2212" transform="translate(128.203125 38.965625) scale(0.7)"/>
       <use xlink:href="#DejaVuSans-31" transform="translate(186.855469 38.965625) scale(0.7)"/>
      </g>
     </g>
    </g>
    <g id="xtick_4">
     <g id="line2d_4">
      <defs>
       <path id="mdade0cf68d" d="M 0 0 
L 0 2 
" style="stroke: #000000; stroke-width: 0.6"/>
      </defs>
      <g>
       <use xlink:href="#mdade0cf68d" x="66.689983" y="291.998437" style="stroke: #000000; stroke-width: 0.6"/>
      </g>
     </g>
    </g>
    <g id="xtick_5">
     <g id="line2d_5">
      <g>
       <use xlink:href="#mdade0cf68d" x="79.664123" y="291.998437" style="stroke: #000000; stroke-width: 0.6"/>
      </g>
     </g>
    </g>
    <g id="xtick_6">
     <g id="line2d_6">
      <g>
       <use xlink:href="#mdade0cf68d" x="167.62204" y="291.998437" style="stroke: #000000; stroke-width: 0.6"/>
      </g>
     </g>
    </g>
    <g id="xtick_7">
     <g id="line2d_7">
      <g>
       <use xlink:href="#mdade0cf68d" x="212.285186" y="291.998437" style="stroke: #000000; stroke-width: 0.6"/>
      </g>
     </g>
    </g>
    <g id="xtick_8">
     <g id="line2d_8">
      <g>
       <use xlink:href="#mdade0cf68d" x="243.974193" y="291.998437" style="stroke: #000000; stroke-width: 0.6"/>
      </g>
     </g>
    </g>
    <g id="xtick_9">
     <g id="line2d_9">
      <g>
       <use xlink:href="#mdade0cf68d" x="268.554097" y="291.998437" style="stroke: #000000; stroke-width: 0.6"/>
      </g>
     </g>
    </g>
    <g id="xtick_10">
     <g id="line2d_10">
      <g>
       <use xlink:href="#mdade0cf68d" x="288.63734" y="291.998437" style="stroke: #000000; stroke-width: 0.6"/>
      </g>
     </g>
    </g>
    <g id="xtick_11">
     <g id="line2d_11">
      <g>
       <use xlink:href="#mdade0cf68d" x="305.61748" y="291.998437" style="stroke: #000000; stroke-width: 0.6"/>
      </g>
     </g>
    </g>
    <g id="xtick_12">
     <g id="line2d_12">
      <g>
       <use xlink:href="#mdade0cf68d" x="320.326347" y="291.998437" style="stroke: #000000; stroke-width: 0.6"/>
      </g>
     </g>
    </g>
    <g id="xtick_13">
     <g id="line2d_13">
      <g>
       <use xlink:href="#mdade0cf68d" x="333.300486" y="291.998437" style="stroke: #000000; stroke-width: 0.6"/>
      </g>
     </g>
    </g>
    <g id="xtick_14">
     <g id="line2d_14">
      <g>
       <use xlink:href="#mdade0cf68d" x="421.258403" y="291.998437" style="stroke: #000000; stroke-width: 0.6"/>
      </g>
     </g>
    </g>
    <g id="xtick_15">
     <g id="line2d_15">
      <g>
       <use xlink:href="#mdade0cf68d" x="465.92155" y="291.998437" style="stroke: #000000; stroke-width: 0.6"/>
      </g>
     </g>
    </g>
    <g id="xtick_16">
     <g id="line2d_16">
      <g>
       <use xlink:href="#mdade0cf68d" x="497.610557" y="291.998437" style="stroke: #000000; stroke-width: 0.6"/>
      </g>
     </g>
    </g>
    <g id="xtick_17">
     <g id="line2d_17">
      <g>
       <use xlink:href="#mdade0cf68d" x="522.19046" y="291.998437" style="stroke: #000000; stroke-width: 0.6"/>
      </g>
     </g>
    </g>
    <g id="xtick_18">
     <g id="line2d_18">
      <g>
       <use xlink:href="#mdade0cf68d" x="542.273704" y="291.998437" style="stroke: #000000; stroke-width: 0.6"/>
      </g>
     </g>
    </g>
    <g id="xtick_19">
     <g id="line2d_19">
      <g>
       <use xlink:href="#mdade0cf68d" x="559.253844" y="291.998437" style="stroke: #000000; stroke-width: 0.6"/>
      </g>
     </g>
    </g>
    <g id="xtick_20">
     <g id="line2d_20">
      <g>
       <use xlink:href="#mdade0cf68d" x="573.96271" y="291.998437" style="stroke: #000000; stroke-width: 0.6"/>
      </g>
     </g>
    </g>
    <g id="xtick_21">
     <g id="line2d_21">
      <g>
       <use xlink:href="#mdade0cf68d" x="586.93685" y="291.998437" style="stroke: #000000; stroke-width: 0.6"/>
      </g>
     </g>
    </g>
    <g id="text_4">
     <!-- Infection probability $\beta$ -->
     <g transform="translate(234.90625 337.254687) scale(0.2 -0.2)">
      <defs>
       <path id="DejaVuSans-49" d="M 628 4666 
L 1259 4666 
L 1259 0 
L 628 0 
L 628 4666 
z
" transform="scale(0.015625)"/>
       <path id="DejaVuSans-6e" d="M 3513 2113 
L 3513 0 
L 2938 0 
L 2938 2094 
Q 2938 2591 2744 2837 
Q 2550 3084 2163 3084 
Q 1697 3084 1428 2787 
Q 1159 2491 1159 1978 
L 1159 0 
L 581 0 
L 581 3500 
L 1159 3500 
L 1159 2956 
Q 1366 3272 1645 3428 
Q 1925 3584 2291 3584 
Q 2894 3584 3203 3211 
Q 3513 2838 3513 2113 
z
" transform="scale(0.015625)"/>
       <path id="DejaVuSans-66" d="M 2375 4863 
L 2375 4384 
L 1825 4384 
Q 1516 4384 1395 4259 
Q 1275 4134 1275 3809 
L 1275 3500 
L 2222 3500 
L 2222 3053 
L 1275 3053 
L 1275 0 
L 697 0 
L 697 3053 
L 147 3053 
L 147 3500 
L 697 3500 
L 697 3744 
Q 697 4328 969 4595 
Q 1241 4863 1831 4863 
L 2375 4863 
z
" transform="scale(0.015625)"/>
       <path id="DejaVuSans-65" d="M 3597 1894 
L 3597 1613 
L 953 1613 
Q 991 1019 1311 708 
Q 1631 397 2203 397 
Q 2534 397 2845 478 
Q 3156 559 3463 722 
L 3463 178 
Q 3153 47 2828 -22 
Q 2503 -91 2169 -91 
Q 1331 -91 842 396 
Q 353 884 353 1716 
Q 353 2575 817 3079 
Q 1281 3584 2069 3584 
Q 2775 3584 3186 3129 
Q 3597 2675 3597 1894 
z
M 3022 2063 
Q 3016 2534 2758 2815 
Q 2500 3097 2075 3097 
Q 1594 3097 1305 2825 
Q 1016 2553 972 2059 
L 3022 2063 
z
" transform="scale(0.015625)"/>
       <path id="DejaVuSans-63" d="M 3122 3366 
L 3122 2828 
Q 2878 2963 2633 3030 
Q 2388 3097 2138 3097 
Q 1578 3097 1268 2742 
Q 959 2388 959 1747 
Q 959 1106 1268 751 
Q 1578 397 2138 397 
Q 2388 397 2633 464 
Q 2878 531 3122 666 
L 3122 134 
Q 2881 22 2623 -34 
Q 2366 -91 2075 -91 
Q 1284 -91 818 406 
Q 353 903 353 1747 
Q 353 2603 823 3093 
Q 1294 3584 2113 3584 
Q 2378 3584 2631 3529 
Q 2884 3475 3122 3366 
z
" transform="scale(0.015625)"/>
       <path id="DejaVuSans-74" d="M 1172 4494 
L 1172 3500 
L 2356 3500 
L 2356 3053 
L 1172 3053 
L 1172 1153 
Q 1172 725 1289 603 
Q 1406 481 1766 481 
L 2356 481 
L 2356 0 
L 1766 0 
Q 1100 0 847 248 
Q 594 497 594 1153 
L 594 3053 
L 172 3053 
L 172 3500 
L 594 3500 
L 594 4494 
L 1172 4494 
z
" transform="scale(0.015625)"/>
       <path id="DejaVuSans-69" d="M 603 3500 
L 1178 3500 
L 1178 0 
L 603 0 
L 603 3500 
z
M 603 4863 
L 1178 4863 
L 1178 4134 
L 603 4134 
L 603 4863 
z
" transform="scale(0.015625)"/>
       <path id="DejaVuSans-6f" d="M 1959 3097 
Q 1497 3097 1228 2736 
Q 959 2375 959 1747 
Q 959 1119 1226 758 
Q 1494 397 1959 397 
Q 2419 397 2687 759 
Q 2956 1122 2956 1747 
Q 2956 2369 2687 2733 
Q 2419 3097 1959 3097 
z
M 1959 3584 
Q 2709 3584 3137 3096 
Q 3566 2609 3566 1747 
Q 3566 888 3137 398 
Q 2709 -91 1959 -91 
Q 1206 -91 779 398 
Q 353 888 353 1747 
Q 353 2609 779 3096 
Q 1206 3584 1959 3584 
z
" transform="scale(0.015625)"/>
       <path id="DejaVuSans-20" transform="scale(0.015625)"/>
       <path id="DejaVuSans-70" d="M 1159 525 
L 1159 -1331 
L 581 -1331 
L 581 3500 
L 1159 3500 
L 1159 2969 
Q 1341 3281 1617 3432 
Q 1894 3584 2278 3584 
Q 2916 3584 3314 3078 
Q 3713 2572 3713 1747 
Q 3713 922 3314 415 
Q 2916 -91 2278 -91 
Q 1894 -91 1617 61 
Q 1341 213 1159 525 
z
M 3116 1747 
Q 3116 2381 2855 2742 
Q 2594 3103 2138 3103 
Q 1681 3103 1420 2742 
Q 1159 2381 1159 1747 
Q 1159 1113 1420 752 
Q 1681 391 2138 391 
Q 2594 391 2855 752 
Q 3116 1113 3116 1747 
z
" transform="scale(0.015625)"/>
       <path id="DejaVuSans-72" d="M 2631 2963 
Q 2534 3019 2420 3045 
Q 2306 3072 2169 3072 
Q 1681 3072 1420 2755 
Q 1159 2438 1159 1844 
L 1159 0 
L 581 0 
L 581 3500 
L 1159 3500 
L 1159 2956 
Q 1341 3275 1631 3429 
Q 1922 3584 2338 3584 
Q 2397 3584 2469 3576 
Q 2541 3569 2628 3553 
L 2631 2963 
z
" transform="scale(0.015625)"/>
       <path id="DejaVuSans-62" d="M 3116 1747 
Q 3116 2381 2855 2742 
Q 2594 3103 2138 3103 
Q 1681 3103 1420 2742 
Q 1159 2381 1159 1747 
Q 1159 1113 1420 752 
Q 1681 391 2138 391 
Q 2594 391 2855 752 
Q 3116 1113 3116 1747 
z
M 1159 2969 
Q 1341 3281 1617 3432 
Q 1894 3584 2278 3584 
Q 2916 3584 3314 3078 
Q 3713 2572 3713 1747 
Q 3713 922 3314 415 
Q 2916 -91 2278 -91 
Q 1894 -91 1617 61 
Q 1341 213 1159 525 
L 1159 0 
L 581 0 
L 581 4863 
L 1159 4863 
L 1159 2969 
z
" transform="scale(0.015625)"/>
       <path id="DejaVuSans-61" d="M 2194 1759 
Q 1497 1759 1228 1600 
Q 959 1441 959 1056 
Q 959 750 1161 570 
Q 1363 391 1709 391 
Q 2188 391 2477 730 
Q 2766 1069 2766 1631 
L 2766 1759 
L 2194 1759 
z
M 3341 1997 
L 3341 0 
L 2766 0 
L 2766 531 
Q 2569 213 2275 61 
Q 1981 -91 1556 -91 
Q 1019 -91 701 211 
Q 384 513 384 1019 
Q 384 1609 779 1909 
Q 1175 2209 1959 2209 
L 2766 2209 
L 2766 2266 
Q 2766 2663 2505 2880 
Q 2244 3097 1772 3097 
Q 1472 3097 1187 3025 
Q 903 2953 641 2809 
L 641 3341 
Q 956 3463 1253 3523 
Q 1550 3584 1831 3584 
Q 2591 3584 2966 3190 
Q 3341 2797 3341 1997 
z
" transform="scale(0.015625)"/>
       <path id="DejaVuSans-6c" d="M 603 4863 
L 1178 4863 
L 1178 0 
L 603 0 
L 603 4863 
z
" transform="scale(0.015625)"/>
       <path id="DejaVuSans-79" d="M 2059 -325 
Q 1816 -950 1584 -1140 
Q 1353 -1331 966 -1331 
L 506 -1331 
L 506 -850 
L 844 -850 
Q 1081 -850 1212 -737 
Q 1344 -625 1503 -206 
L 1606 56 
L 191 3500 
L 800 3500 
L 1894 763 
L 2988 3500 
L 3597 3500 
L 2059 -325 
z
" transform="scale(0.015625)"/>
       <path id="DejaVuSans-Oblique-3b2" d="M 872 216 
L 572 -1331 
L -6 -1331 
L 928 3478 
Q 1206 4903 2538 4903 
Q 3888 4903 3659 3700 
Q 3503 2844 2894 2531 
Q 3713 2250 3553 1416 
Q 3272 -69 1759 -66 
Q 1097 -63 872 216 
z
M 1019 966 
Q 1259 422 1875 425 
Q 2775 425 2966 1406 
Q 3138 2288 1675 2219 
L 1778 2750 
Q 2909 2731 3106 3750 
Q 3241 4438 2509 4434 
Q 1691 4434 1503 3459 
L 1019 966 
z
" transform="scale(0.015625)"/>
      </defs>
      <use xlink:href="#DejaVuSans-49" transform="translate(0 0.390625)"/>
      <use xlink:href="#DejaVuSans-6e" transform="translate(29.492188 0.390625)"/>
      <use xlink:href="#DejaVuSans-66" transform="translate(92.871094 0.390625)"/>
      <use xlink:href="#DejaVuSans-65" transform="translate(128.076172 0.390625)"/>
      <use xlink:href="#DejaVuSans-63" transform="translate(189.599609 0.390625)"/>
      <use xlink:href="#DejaVuSans-74" transform="translate(244.580078 0.390625)"/>
      <use xlink:href="#DejaVuSans-69" transform="translate(283.789062 0.390625)"/>
      <use xlink:href="#DejaVuSans-6f" transform="translate(311.572266 0.390625)"/>
      <use xlink:href="#DejaVuSans-6e" transform="translate(372.753906 0.390625)"/>
      <use xlink:href="#DejaVuSans-20" transform="translate(436.132812 0.390625)"/>
      <use xlink:href="#DejaVuSans-70" transform="translate(467.919922 0.390625)"/>
      <use xlink:href="#DejaVuSans-72" transform="translate(531.396484 0.390625)"/>
      <use xlink:href="#DejaVuSans-6f" transform="translate(572.509766 0.390625)"/>
      <use xlink:href="#DejaVuSans-62" transform="translate(633.691406 0.390625)"/>
      <use xlink:href="#DejaVuSans-61" transform="translate(697.167969 0.390625)"/>
      <use xlink:href="#DejaVuSans-62" transform="translate(758.447266 0.390625)"/>
      <use xlink:href="#DejaVuSans-69" transform="translate(821.923828 0.390625)"/>
      <use xlink:href="#DejaVuSans-6c" transform="translate(849.707031 0.390625)"/>
      <use xlink:href="#DejaVuSans-69" transform="translate(877.490234 0.390625)"/>
      <use xlink:href="#DejaVuSans-74" transform="translate(905.273438 0.390625)"/>
      <use xlink:href="#DejaVuSans-79" transform="translate(944.482422 0.390625)"/>
      <use xlink:href="#DejaVuSans-20" transform="translate(1003.662109 0.390625)"/>
      <use xlink:href="#DejaVuSans-Oblique-3b2" transform="translate(1035.449219 0.390625)"/>
     </g>
    </g>
   </g>
   <g id="matplotlib.axis_2">
    <g id="ytick_1">
     <g id="line2d_22">
      <defs>
       <path id="m99673b7a92" d="M 0 0 
L 3 0 
" style="stroke: #000000; stroke-width: 1.5"/>
      </defs>
      <g>
       <use xlink:href="#m99673b7a92" x="65.90625" y="285.237462" style="stroke: #000000; stroke-width: 1.5"/>
      </g>
     </g>
     <g id="text_5">
      <!-- 0.0 -->
      <g transform="translate(30.6 292.835899) scale(0.2 -0.2)">
       <defs>
        <path id="DejaVuSans-2e" d="M 684 794 
L 1344 794 
L 1344 0 
L 684 0 
L 684 794 
z
" transform="scale(0.015625)"/>
       </defs>
       <use xlink:href="#DejaVuSans-30"/>
       <use xlink:href="#DejaVuSans-2e" transform="translate(63.623047 0)"/>
       <use xlink:href="#DejaVuSans-30" transform="translate(95.410156 0)"/>
      </g>
     </g>
    </g>
    <g id="ytick_2">
     <g id="line2d_23">
      <g>
       <use xlink:href="#m99673b7a92" x="65.90625" y="217.627706" style="stroke: #000000; stroke-width: 1.5"/>
      </g>
     </g>
     <g id="text_6">
      <!-- 0.1 -->
      <g transform="translate(30.6 225.226143) scale(0.2 -0.2)">
       <use xlink:href="#DejaVuSans-30"/>
       <use xlink:href="#DejaVuSans-2e" transform="translate(63.623047 0)"/>
       <use xlink:href="#DejaVuSans-31" transform="translate(95.410156 0)"/>
      </g>
     </g>
    </g>
    <g id="ytick_3">
     <g id="line2d_24">
      <g>
       <use xlink:href="#m99673b7a92" x="65.90625" y="150.01795" style="stroke: #000000; stroke-width: 1.5"/>
      </g>
     </g>
     <g id="text_7">
      <!-- 0.2 -->
      <g transform="translate(30.6 157.616387) scale(0.2 -0.2)">
       <use xlink:href="#DejaVuSans-30"/>
       <use xlink:href="#DejaVuSans-2e" transform="translate(63.623047 0)"/>
       <use xlink:href="#DejaVuSans-32" transform="translate(95.410156 0)"/>
      </g>
     </g>
    </g>
    <g id="ytick_4">
     <g id="line2d_25">
      <g>
       <use xlink:href="#m99673b7a92" x="65.90625" y="82.408194" style="stroke: #000000; stroke-width: 1.5"/>
      </g>
     </g>
     <g id="text_8">
      <!-- 0.3 -->
      <g transform="translate(30.6 90.006631) scale(0.2 -0.2)">
       <use xlink:href="#DejaVuSans-30"/>
       <use xlink:href="#DejaVuSans-2e" transform="translate(63.623047 0)"/>
       <use xlink:href="#DejaVuSans-33" transform="translate(95.410156 0)"/>
      </g>
     </g>
    </g>
    <g id="ytick_5">
     <g id="line2d_26">
      <g>
       <use xlink:href="#m99673b7a92" x="65.90625" y="14.798437" style="stroke: #000000; stroke-width: 1.5"/>
      </g>
     </g>
     <g id="text_9">
      <!-- 0.4 -->
      <g transform="translate(30.6 22.396875) scale(0.2 -0.2)">
       <defs>
        <path id="DejaVuSans-34" d="M 2419 4116 
L 825 1625 
L 2419 1625 
L 2419 4116 
z
M 2253 4666 
L 3047 4666 
L 3047 1625 
L 3713 1625 
L 3713 1100 
L 3047 1100 
L 3047 0 
L 2419 0 
L 2419 1100 
L 313 1100 
L 313 1709 
L 2253 4666 
z
" transform="scale(0.015625)"/>
       </defs>
       <use xlink:href="#DejaVuSans-30"/>
       <use xlink:href="#DejaVuSans-2e" transform="translate(63.623047 0)"/>
       <use xlink:href="#DejaVuSans-34" transform="translate(95.410156 0)"/>
      </g>
     </g>
    </g>
    <g id="text_10">
     <!-- Dynamical susceptibility $[\chi]$ -->
     <g transform="translate(22.4 292.498437) rotate(-90) scale(0.2 -0.2)">
      <defs>
       <path id="DejaVuSans-44" d="M 1259 4147 
L 1259 519 
L 2022 519 
Q 2988 519 3436 956 
Q 3884 1394 3884 2338 
Q 3884 3275 3436 3711 
Q 2988 4147 2022 4147 
L 1259 4147 
z
M 628 4666 
L 1925 4666 
Q 3281 4666 3915 4102 
Q 4550 3538 4550 2338 
Q 4550 1131 3912 565 
Q 3275 0 1925 0 
L 628 0 
L 628 4666 
z
" transform="scale(0.015625)"/>
       <path id="DejaVuSans-6d" d="M 3328 2828 
Q 3544 3216 3844 3400 
Q 4144 3584 4550 3584 
Q 5097 3584 5394 3201 
Q 5691 2819 5691 2113 
L 5691 0 
L 5113 0 
L 5113 2094 
Q 5113 2597 4934 2840 
Q 4756 3084 4391 3084 
Q 3944 3084 3684 2787 
Q 3425 2491 3425 1978 
L 3425 0 
L 2847 0 
L 2847 2094 
Q 2847 2600 2669 2842 
Q 2491 3084 2119 3084 
Q 1678 3084 1418 2786 
Q 1159 2488 1159 1978 
L 1159 0 
L 581 0 
L 581 3500 
L 1159 3500 
L 1159 2956 
Q 1356 3278 1631 3431 
Q 1906 3584 2284 3584 
Q 2666 3584 2933 3390 
Q 3200 3197 3328 2828 
z
" transform="scale(0.015625)"/>
       <path id="DejaVuSans-73" d="M 2834 3397 
L 2834 2853 
Q 2591 2978 2328 3040 
Q 2066 3103 1784 3103 
Q 1356 3103 1142 2972 
Q 928 2841 928 2578 
Q 928 2378 1081 2264 
Q 1234 2150 1697 2047 
L 1894 2003 
Q 2506 1872 2764 1633 
Q 3022 1394 3022 966 
Q 3022 478 2636 193 
Q 2250 -91 1575 -91 
Q 1294 -91 989 -36 
Q 684 19 347 128 
L 347 722 
Q 666 556 975 473 
Q 1284 391 1588 391 
Q 1994 391 2212 530 
Q 2431 669 2431 922 
Q 2431 1156 2273 1281 
Q 2116 1406 1581 1522 
L 1381 1569 
Q 847 1681 609 1914 
Q 372 2147 372 2553 
Q 372 3047 722 3315 
Q 1072 3584 1716 3584 
Q 2034 3584 2315 3537 
Q 2597 3491 2834 3397 
z
" transform="scale(0.015625)"/>
       <path id="DejaVuSans-75" d="M 544 1381 
L 544 3500 
L 1119 3500 
L 1119 1403 
Q 1119 906 1312 657 
Q 1506 409 1894 409 
Q 2359 409 2629 706 
Q 2900 1003 2900 1516 
L 2900 3500 
L 3475 3500 
L 3475 0 
L 2900 0 
L 2900 538 
Q 2691 219 2414 64 
Q 2138 -91 1772 -91 
Q 1169 -91 856 284 
Q 544 659 544 1381 
z
M 1991 3584 
L 1991 3584 
z
" transform="scale(0.015625)"/>
       <path id="DejaVuSans-5b" d="M 550 4863 
L 1875 4863 
L 1875 4416 
L 1125 4416 
L 1125 -397 
L 1875 -397 
L 1875 -844 
L 550 -844 
L 550 4863 
z
" transform="scale(0.015625)"/>
       <path id="DejaVuSans-Oblique-3c7" d="M 1922 -781 
L 1691 416 
L 394 -1334 
L -284 -1334 
L 1553 1141 
L 1269 2613 
Q 1194 3006 713 3006 
L 559 3006 
L 653 3500 
L 872 3494 
Q 1675 3472 1775 2950 
L 2006 1753 
L 3303 3503 
L 3981 3503 
L 2144 1028 
L 2428 -444 
Q 2503 -838 2984 -838 
L 3138 -838 
L 3044 -1331 
L 2825 -1325 
Q 2022 -1303 1922 -781 
z
" transform="scale(0.015625)"/>
       <path id="DejaVuSans-5d" d="M 1947 4863 
L 1947 -844 
L 622 -844 
L 622 -397 
L 1369 -397 
L 1369 4416 
L 622 4416 
L 622 4863 
L 1947 4863 
z
" transform="scale(0.015625)"/>
      </defs>
      <use xlink:href="#DejaVuSans-44" transform="translate(0 0.015625)"/>
      <use xlink:href="#DejaVuSans-79" transform="translate(77.001953 0.015625)"/>
      <use xlink:href="#DejaVuSans-6e" transform="translate(136.181641 0.015625)"/>
      <use xlink:href="#DejaVuSans-61" transform="translate(199.560547 0.015625)"/>
      <use xlink:href="#DejaVuSans-6d" transform="translate(260.839844 0.015625)"/>
      <use xlink:href="#DejaVuSans-69" transform="translate(358.251953 0.015625)"/>
      <use xlink:href="#DejaVuSans-63" transform="translate(386.035156 0.015625)"/>
      <use xlink:href="#DejaVuSans-61" transform="translate(441.015625 0.015625)"/>
      <use xlink:href="#DejaVuSans-6c" transform="translate(502.294922 0.015625)"/>
      <use xlink:href="#DejaVuSans-20" transform="translate(530.078125 0.015625)"/>
      <use xlink:href="#DejaVuSans-73" transform="translate(561.865234 0.015625)"/>
      <use xlink:href="#DejaVuSans-75" transform="translate(613.964844 0.015625)"/>
      <use xlink:href="#DejaVuSans-73" transform="translate(677.34375 0.015625)"/>
      <use xlink:href="#DejaVuSans-63" transform="translate(729.443359 0.015625)"/>
      <use xlink:href="#DejaVuSans-65" transform="translate(784.423828 0.015625)"/>
      <use xlink:href="#DejaVuSans-70" transform="translate(845.947266 0.015625)"/>
      <use xlink:href="#DejaVuSans-74" transform="translate(909.423828 0.015625)"/>
      <use xlink:href="#DejaVuSans-69" transform="translate(948.632812 0.015625)"/>
      <use xlink:href="#DejaVuSans-62" transform="translate(976.416016 0.015625)"/>
      <use xlink:href="#DejaVuSans-69" transform="translate(1039.892578 0.015625)"/>
      <use xlink:href="#DejaVuSans-6c" transform="translate(1067.675781 0.015625)"/>
      <use xlink:href="#DejaVuSans-69" transform="translate(1095.458984 0.015625)"/>
      <use xlink:href="#DejaVuSans-74" transform="translate(1123.242188 0.015625)"/>
      <use xlink:href="#DejaVuSans-79" transform="translate(1162.451172 0.015625)"/>
      <use xlink:href="#DejaVuSans-20" transform="translate(1221.630859 0.015625)"/>
      <use xlink:href="#DejaVuSans-5b" transform="translate(1253.417969 0.015625)"/>
      <use xlink:href="#DejaVuSans-Oblique-3c7" transform="translate(1292.431641 0.015625)"/>
      <use xlink:href="#DejaVuSans-5d" transform="translate(1351.611328 0.015625)"/>
     </g>
    </g>
   </g>
   <g id="line2d_27">
    <path d="M 91.269892 283.544488 
L 95.26416 283.517582 
L 99.258428 283.68805 
L 111.241247 283.210633 
L 119.22979 283.302822 
L 123.224057 283.343942 
L 127.218329 283.265997 
L 131.2126 283.358397 
L 139.201146 282.976993 
L 147.189689 283.240273 
L 163.166772 283.053231 
L 167.161104 282.678892 
L 171.155379 283.023156 
L 175.149652 283.020392 
L 179.143916 282.715672 
L 187.132462 282.749929 
L 191.126739 282.860441 
L 195.121009 282.25924 
L 199.115278 282.377552 
L 203.109553 282.143907 
L 211.098096 282.323117 
L 215.092369 282.012546 
L 219.086639 282.328157 
L 223.08091 281.847253 
L 227.075176 282.023105 
L 231.069453 281.686436 
L 235.06372 281.63546 
L 239.057992 281.065322 
L 243.052267 281.447539 
L 247.046532 281.698863 
L 251.040804 280.763779 
L 255.035084 280.777637 
L 263.023628 280.566014 
L 267.017951 280.463803 
L 271.012227 279.628915 
L 275.006497 279.978329 
L 279.000771 279.863095 
L 282.99504 279.216488 
L 286.98931 278.743906 
L 290.983587 278.389829 
L 298.972124 278.21654 
L 302.966401 277.68788 
L 306.960673 276.541512 
L 314.949215 276.398269 
L 326.932023 273.689478 
L 330.926295 273.904312 
L 342.909117 271.367984 
L 346.903382 269.929014 
L 350.897655 267.507642 
L 354.891927 267.710901 
L 358.886201 266.378848 
L 362.88047 264.080607 
L 366.874743 262.523683 
L 370.869014 260.203901 
L 378.857559 254.837552 
L 382.851831 247.665117 
L 386.846105 249.166457 
L 390.840401 246.904222 
L 394.834672 241.030939 
L 398.828944 228.460687 
L 402.823221 223.652515 
L 406.817487 216.140255 
L 410.811765 208.939518 
L 414.806028 187.09819 
L 418.800307 167.880574 
L 422.794572 138.772424 
L 426.788875 113.798342 
L 430.783149 81.023366 
L 434.777421 52.97128 
L 438.771688 66.653425 
L 442.765962 111.307649 
L 446.760233 165.414283 
L 450.754503 197.475219 
L 454.748778 214.399584 
L 458.743052 226.192745 
L 462.737323 235.309995 
L 466.731591 242.252897 
L 470.725865 247.078181 
L 474.720133 251.261916 
L 478.714407 254.858875 
L 482.70868 257.367299 
L 490.697224 261.680115 
L 494.691498 263.092726 
L 498.685766 264.701027 
L 506.674305 267.167148 
L 518.657151 270.015437 
L 526.645699 271.461125 
L 534.634235 272.700675 
L 538.628513 273.152064 
L 542.62278 273.46134 
L 546.617055 263.451479 
L 550.611325 240.932908 
L 554.6056 231.394104 
L 558.59987 227.881173 
L 562.594166 226.654833 
L 570.582709 225.873776 
L 574.576981 225.90266 
L 578.571254 225.760341 
L 582.565526 225.768683 
L 590.554067 225.326613 
L 594.548343 225.653162 
L 598.542615 225.124425 
L 598.542615 225.124425 
" clip-path="url(#p3fd4f7a180)" style="fill: none; stroke: #0000ff; stroke-width: 2; stroke-linecap: square"/>
    <defs>
     <path id="m8f86276e9a" d="M 0 -3.5 
L -3.5 3.5 
L 3.5 3.5 
z
" style="stroke: #0000ff; stroke-linejoin: miter"/>
    </defs>
    <g clip-path="url(#p3fd4f7a180)">
     <use xlink:href="#m8f86276e9a" x="91.269892" y="283.544488" style="fill: #0000ff; stroke: #0000ff; stroke-linejoin: miter"/>
     <use xlink:href="#m8f86276e9a" x="95.26416" y="283.517582" style="fill: #0000ff; stroke: #0000ff; stroke-linejoin: miter"/>
     <use xlink:href="#m8f86276e9a" x="99.258428" y="283.68805" style="fill: #0000ff; stroke: #0000ff; stroke-linejoin: miter"/>
     <use xlink:href="#m8f86276e9a" x="103.252702" y="283.50206" style="fill: #0000ff; stroke: #0000ff; stroke-linejoin: miter"/>
     <use xlink:href="#m8f86276e9a" x="107.246975" y="283.303723" style="fill: #0000ff; stroke: #0000ff; stroke-linejoin: miter"/>
     <use xlink:href="#m8f86276e9a" x="111.241247" y="283.210633" style="fill: #0000ff; stroke: #0000ff; stroke-linejoin: miter"/>
     <use xlink:href="#m8f86276e9a" x="115.235515" y="283.297745" style="fill: #0000ff; stroke: #0000ff; stroke-linejoin: miter"/>
     <use xlink:href="#m8f86276e9a" x="119.22979" y="283.302822" style="fill: #0000ff; stroke: #0000ff; stroke-linejoin: miter"/>
     <use xlink:href="#m8f86276e9a" x="123.224057" y="283.343942" style="fill: #0000ff; stroke: #0000ff; stroke-linejoin: miter"/>
     <use xlink:href="#m8f86276e9a" x="127.218329" y="283.265997" style="fill: #0000ff; stroke: #0000ff; stroke-linejoin: miter"/>
     <use xlink:href="#m8f86276e9a" x="131.2126" y="283.358397" style="fill: #0000ff; stroke: #0000ff; stroke-linejoin: miter"/>
     <use xlink:href="#m8f86276e9a" x="135.206871" y="283.15045" style="fill: #0000ff; stroke: #0000ff; stroke-linejoin: miter"/>
     <use xlink:href="#m8f86276e9a" x="139.201146" y="282.976993" style="fill: #0000ff; stroke: #0000ff; stroke-linejoin: miter"/>
     <use xlink:href="#m8f86276e9a" x="143.19542" y="283.14754" style="fill: #0000ff; stroke: #0000ff; stroke-linejoin: miter"/>
     <use xlink:href="#m8f86276e9a" x="147.189689" y="283.240273" style="fill: #0000ff; stroke: #0000ff; stroke-linejoin: miter"/>
     <use xlink:href="#m8f86276e9a" x="151.183959" y="283.180934" style="fill: #0000ff; stroke: #0000ff; stroke-linejoin: miter"/>
     <use xlink:href="#m8f86276e9a" x="155.178229" y="283.027422" style="fill: #0000ff; stroke: #0000ff; stroke-linejoin: miter"/>
     <use xlink:href="#m8f86276e9a" x="159.172503" y="282.992859" style="fill: #0000ff; stroke: #0000ff; stroke-linejoin: miter"/>
     <use xlink:href="#m8f86276e9a" x="163.166772" y="283.053231" style="fill: #0000ff; stroke: #0000ff; stroke-linejoin: miter"/>
     <use xlink:href="#m8f86276e9a" x="167.161104" y="282.678892" style="fill: #0000ff; stroke: #0000ff; stroke-linejoin: miter"/>
     <use xlink:href="#m8f86276e9a" x="171.155379" y="283.023156" style="fill: #0000ff; stroke: #0000ff; stroke-linejoin: miter"/>
     <use xlink:href="#m8f86276e9a" x="175.149652" y="283.020392" style="fill: #0000ff; stroke: #0000ff; stroke-linejoin: miter"/>
     <use xlink:href="#m8f86276e9a" x="179.143916" y="282.715672" style="fill: #0000ff; stroke: #0000ff; stroke-linejoin: miter"/>
     <use xlink:href="#m8f86276e9a" x="183.138187" y="282.722049" style="fill: #0000ff; stroke: #0000ff; stroke-linejoin: miter"/>
     <use xlink:href="#m8f86276e9a" x="187.132462" y="282.749929" style="fill: #0000ff; stroke: #0000ff; stroke-linejoin: miter"/>
     <use xlink:href="#m8f86276e9a" x="191.126739" y="282.860441" style="fill: #0000ff; stroke: #0000ff; stroke-linejoin: miter"/>
     <use xlink:href="#m8f86276e9a" x="195.121009" y="282.25924" style="fill: #0000ff; stroke: #0000ff; stroke-linejoin: miter"/>
     <use xlink:href="#m8f86276e9a" x="199.115278" y="282.377552" style="fill: #0000ff; stroke: #0000ff; stroke-linejoin: miter"/>
     <use xlink:href="#m8f86276e9a" x="203.109553" y="282.143907" style="fill: #0000ff; stroke: #0000ff; stroke-linejoin: miter"/>
     <use xlink:href="#m8f86276e9a" x="207.103821" y="282.202099" style="fill: #0000ff; stroke: #0000ff; stroke-linejoin: miter"/>
     <use xlink:href="#m8f86276e9a" x="211.098096" y="282.323117" style="fill: #0000ff; stroke: #0000ff; stroke-linejoin: miter"/>
     <use xlink:href="#m8f86276e9a" x="215.092369" y="282.012546" style="fill: #0000ff; stroke: #0000ff; stroke-linejoin: miter"/>
     <use xlink:href="#m8f86276e9a" x="219.086639" y="282.328157" style="fill: #0000ff; stroke: #0000ff; stroke-linejoin: miter"/>
     <use xlink:href="#m8f86276e9a" x="223.08091" y="281.847253" style="fill: #0000ff; stroke: #0000ff; stroke-linejoin: miter"/>
     <use xlink:href="#m8f86276e9a" x="227.075176" y="282.023105" style="fill: #0000ff; stroke: #0000ff; stroke-linejoin: miter"/>
     <use xlink:href="#m8f86276e9a" x="231.069453" y="281.686436" style="fill: #0000ff; stroke: #0000ff; stroke-linejoin: miter"/>
     <use xlink:href="#m8f86276e9a" x="235.06372" y="281.63546" style="fill: #0000ff; stroke: #0000ff; stroke-linejoin: miter"/>
     <use xlink:href="#m8f86276e9a" x="239.057992" y="281.065322" style="fill: #0000ff; stroke: #0000ff; stroke-linejoin: miter"/>
     <use xlink:href="#m8f86276e9a" x="243.052267" y="281.447539" style="fill: #0000ff; stroke: #0000ff; stroke-linejoin: miter"/>
     <use xlink:href="#m8f86276e9a" x="247.046532" y="281.698863" style="fill: #0000ff; stroke: #0000ff; stroke-linejoin: miter"/>
     <use xlink:href="#m8f86276e9a" x="251.040804" y="280.763779" style="fill: #0000ff; stroke: #0000ff; stroke-linejoin: miter"/>
     <use xlink:href="#m8f86276e9a" x="255.035084" y="280.777637" style="fill: #0000ff; stroke: #0000ff; stroke-linejoin: miter"/>
     <use xlink:href="#m8f86276e9a" x="259.029352" y="280.627301" style="fill: #0000ff; stroke: #0000ff; stroke-linejoin: miter"/>
     <use xlink:href="#m8f86276e9a" x="263.023628" y="280.566014" style="fill: #0000ff; stroke: #0000ff; stroke-linejoin: miter"/>
     <use xlink:href="#m8f86276e9a" x="267.017951" y="280.463803" style="fill: #0000ff; stroke: #0000ff; stroke-linejoin: miter"/>
     <use xlink:href="#m8f86276e9a" x="271.012227" y="279.628915" style="fill: #0000ff; stroke: #0000ff; stroke-linejoin: miter"/>
     <use xlink:href="#m8f86276e9a" x="275.006497" y="279.978329" style="fill: #0000ff; stroke: #0000ff; stroke-linejoin: miter"/>
     <use xlink:href="#m8f86276e9a" x="279.000771" y="279.863095" style="fill: #0000ff; stroke: #0000ff; stroke-linejoin: miter"/>
     <use xlink:href="#m8f86276e9a" x="282.99504" y="279.216488" style="fill: #0000ff; stroke: #0000ff; stroke-linejoin: miter"/>
     <use xlink:href="#m8f86276e9a" x="286.98931" y="278.743906" style="fill: #0000ff; stroke: #0000ff; stroke-linejoin: miter"/>
     <use xlink:href="#m8f86276e9a" x="290.983587" y="278.389829" style="fill: #0000ff; stroke: #0000ff; stroke-linejoin: miter"/>
     <use xlink:href="#m8f86276e9a" x="294.977859" y="278.298137" style="fill: #0000ff; stroke: #0000ff; stroke-linejoin: miter"/>
     <use xlink:href="#m8f86276e9a" x="298.972124" y="278.21654" style="fill: #0000ff; stroke: #0000ff; stroke-linejoin: miter"/>
     <use xlink:href="#m8f86276e9a" x="302.966401" y="277.68788" style="fill: #0000ff; stroke: #0000ff; stroke-linejoin: miter"/>
     <use xlink:href="#m8f86276e9a" x="306.960673" y="276.541512" style="fill: #0000ff; stroke: #0000ff; stroke-linejoin: miter"/>
     <use xlink:href="#m8f86276e9a" x="310.954941" y="276.486602" style="fill: #0000ff; stroke: #0000ff; stroke-linejoin: miter"/>
     <use xlink:href="#m8f86276e9a" x="314.949215" y="276.398269" style="fill: #0000ff; stroke: #0000ff; stroke-linejoin: miter"/>
     <use xlink:href="#m8f86276e9a" x="318.943479" y="275.504989" style="fill: #0000ff; stroke: #0000ff; stroke-linejoin: miter"/>
     <use xlink:href="#m8f86276e9a" x="322.937751" y="274.688073" style="fill: #0000ff; stroke: #0000ff; stroke-linejoin: miter"/>
     <use xlink:href="#m8f86276e9a" x="326.932023" y="273.689478" style="fill: #0000ff; stroke: #0000ff; stroke-linejoin: miter"/>
     <use xlink:href="#m8f86276e9a" x="330.926295" y="273.904312" style="fill: #0000ff; stroke: #0000ff; stroke-linejoin: miter"/>
     <use xlink:href="#m8f86276e9a" x="334.920568" y="273.037807" style="fill: #0000ff; stroke: #0000ff; stroke-linejoin: miter"/>
     <use xlink:href="#m8f86276e9a" x="338.914839" y="272.100969" style="fill: #0000ff; stroke: #0000ff; stroke-linejoin: miter"/>
     <use xlink:href="#m8f86276e9a" x="342.909117" y="271.367984" style="fill: #0000ff; stroke: #0000ff; stroke-linejoin: miter"/>
     <use xlink:href="#m8f86276e9a" x="346.903382" y="269.929014" style="fill: #0000ff; stroke: #0000ff; stroke-linejoin: miter"/>
     <use xlink:href="#m8f86276e9a" x="350.897655" y="267.507642" style="fill: #0000ff; stroke: #0000ff; stroke-linejoin: miter"/>
     <use xlink:href="#m8f86276e9a" x="354.891927" y="267.710901" style="fill: #0000ff; stroke: #0000ff; stroke-linejoin: miter"/>
     <use xlink:href="#m8f86276e9a" x="358.886201" y="266.378848" style="fill: #0000ff; stroke: #0000ff; stroke-linejoin: miter"/>
     <use xlink:href="#m8f86276e9a" x="362.88047" y="264.080607" style="fill: #0000ff; stroke: #0000ff; stroke-linejoin: miter"/>
     <use xlink:href="#m8f86276e9a" x="366.874743" y="262.523683" style="fill: #0000ff; stroke: #0000ff; stroke-linejoin: miter"/>
     <use xlink:href="#m8f86276e9a" x="370.869014" y="260.203901" style="fill: #0000ff; stroke: #0000ff; stroke-linejoin: miter"/>
     <use xlink:href="#m8f86276e9a" x="374.863286" y="257.538693" style="fill: #0000ff; stroke: #0000ff; stroke-linejoin: miter"/>
     <use xlink:href="#m8f86276e9a" x="378.857559" y="254.837552" style="fill: #0000ff; stroke: #0000ff; stroke-linejoin: miter"/>
     <use xlink:href="#m8f86276e9a" x="382.851831" y="247.665117" style="fill: #0000ff; stroke: #0000ff; stroke-linejoin: miter"/>
     <use xlink:href="#m8f86276e9a" x="386.846105" y="249.166457" style="fill: #0000ff; stroke: #0000ff; stroke-linejoin: miter"/>
     <use xlink:href="#m8f86276e9a" x="390.840401" y="246.904222" style="fill: #0000ff; stroke: #0000ff; stroke-linejoin: miter"/>
     <use xlink:href="#m8f86276e9a" x="394.834672" y="241.030939" style="fill: #0000ff; stroke: #0000ff; stroke-linejoin: miter"/>
     <use xlink:href="#m8f86276e9a" x="398.828944" y="228.460687" style="fill: #0000ff; stroke: #0000ff; stroke-linejoin: miter"/>
     <use xlink:href="#m8f86276e9a" x="402.823221" y="223.652515" style="fill: #0000ff; stroke: #0000ff; stroke-linejoin: miter"/>
     <use xlink:href="#m8f86276e9a" x="406.817487" y="216.140255" style="fill: #0000ff; stroke: #0000ff; stroke-linejoin: miter"/>
     <use xlink:href="#m8f86276e9a" x="410.811765" y="208.939518" style="fill: #0000ff; stroke: #0000ff; stroke-linejoin: miter"/>
     <use xlink:href="#m8f86276e9a" x="414.806028" y="187.09819" style="fill: #0000ff; stroke: #0000ff; stroke-linejoin: miter"/>
     <use xlink:href="#m8f86276e9a" x="418.800307" y="167.880574" style="fill: #0000ff; stroke: #0000ff; stroke-linejoin: miter"/>
     <use xlink:href="#m8f86276e9a" x="422.794572" y="138.772424" style="fill: #0000ff; stroke: #0000ff; stroke-linejoin: miter"/>
     <use xlink:href="#m8f86276e9a" x="426.788875" y="113.798342" style="fill: #0000ff; stroke: #0000ff; stroke-linejoin: miter"/>
     <use xlink:href="#m8f86276e9a" x="430.783149" y="81.023366" style="fill: #0000ff; stroke: #0000ff; stroke-linejoin: miter"/>
     <use xlink:href="#m8f86276e9a" x="434.777421" y="52.97128" style="fill: #0000ff; stroke: #0000ff; stroke-linejoin: miter"/>
     <use xlink:href="#m8f86276e9a" x="438.771688" y="66.653425" style="fill: #0000ff; stroke: #0000ff; stroke-linejoin: miter"/>
     <use xlink:href="#m8f86276e9a" x="442.765962" y="111.307649" style="fill: #0000ff; stroke: #0000ff; stroke-linejoin: miter"/>
     <use xlink:href="#m8f86276e9a" x="446.760233" y="165.414283" style="fill: #0000ff; stroke: #0000ff; stroke-linejoin: miter"/>
     <use xlink:href="#m8f86276e9a" x="450.754503" y="197.475219" style="fill: #0000ff; stroke: #0000ff; stroke-linejoin: miter"/>
     <use xlink:href="#m8f86276e9a" x="454.748778" y="214.399584" style="fill: #0000ff; stroke: #0000ff; stroke-linejoin: miter"/>
     <use xlink:href="#m8f86276e9a" x="458.743052" y="226.192745" style="fill: #0000ff; stroke: #0000ff; stroke-linejoin: miter"/>
     <use xlink:href="#m8f86276e9a" x="462.737323" y="235.309995" style="fill: #0000ff; stroke: #0000ff; stroke-linejoin: miter"/>
     <use xlink:href="#m8f86276e9a" x="466.731591" y="242.252897" style="fill: #0000ff; stroke: #0000ff; stroke-linejoin: miter"/>
     <use xlink:href="#m8f86276e9a" x="470.725865" y="247.078181" style="fill: #0000ff; stroke: #0000ff; stroke-linejoin: miter"/>
     <use xlink:href="#m8f86276e9a" x="474.720133" y="251.261916" style="fill: #0000ff; stroke: #0000ff; stroke-linejoin: miter"/>
     <use xlink:href="#m8f86276e9a" x="478.714407" y="254.858875" style="fill: #0000ff; stroke: #0000ff; stroke-linejoin: miter"/>
     <use xlink:href="#m8f86276e9a" x="482.70868" y="257.367299" style="fill: #0000ff; stroke: #0000ff; stroke-linejoin: miter"/>
     <use xlink:href="#m8f86276e9a" x="486.70295" y="259.496266" style="fill: #0000ff; stroke: #0000ff; stroke-linejoin: miter"/>
     <use xlink:href="#m8f86276e9a" x="490.697224" y="261.680115" style="fill: #0000ff; stroke: #0000ff; stroke-linejoin: miter"/>
     <use xlink:href="#m8f86276e9a" x="494.691498" y="263.092726" style="fill: #0000ff; stroke: #0000ff; stroke-linejoin: miter"/>
     <use xlink:href="#m8f86276e9a" x="498.685766" y="264.701027" style="fill: #0000ff; stroke: #0000ff; stroke-linejoin: miter"/>
     <use xlink:href="#m8f86276e9a" x="502.68004" y="265.950563" style="fill: #0000ff; stroke: #0000ff; stroke-linejoin: miter"/>
     <use xlink:href="#m8f86276e9a" x="506.674305" y="267.167148" style="fill: #0000ff; stroke: #0000ff; stroke-linejoin: miter"/>
     <use xlink:href="#m8f86276e9a" x="510.668581" y="268.134201" style="fill: #0000ff; stroke: #0000ff; stroke-linejoin: miter"/>
     <use xlink:href="#m8f86276e9a" x="514.662884" y="269.192214" style="fill: #0000ff; stroke: #0000ff; stroke-linejoin: miter"/>
     <use xlink:href="#m8f86276e9a" x="518.657151" y="270.015437" style="fill: #0000ff; stroke: #0000ff; stroke-linejoin: miter"/>
     <use xlink:href="#m8f86276e9a" x="522.65142" y="270.751015" style="fill: #0000ff; stroke: #0000ff; stroke-linejoin: miter"/>
     <use xlink:href="#m8f86276e9a" x="526.645699" y="271.461125" style="fill: #0000ff; stroke: #0000ff; stroke-linejoin: miter"/>
     <use xlink:href="#m8f86276e9a" x="530.639967" y="272.103636" style="fill: #0000ff; stroke: #0000ff; stroke-linejoin: miter"/>
     <use xlink:href="#m8f86276e9a" x="534.634235" y="272.700675" style="fill: #0000ff; stroke: #0000ff; stroke-linejoin: miter"/>
     <use xlink:href="#m8f86276e9a" x="538.628513" y="273.152064" style="fill: #0000ff; stroke: #0000ff; stroke-linejoin: miter"/>
     <use xlink:href="#m8f86276e9a" x="542.62278" y="273.46134" style="fill: #0000ff; stroke: #0000ff; stroke-linejoin: miter"/>
     <use xlink:href="#m8f86276e9a" x="546.617055" y="263.451479" style="fill: #0000ff; stroke: #0000ff; stroke-linejoin: miter"/>
     <use xlink:href="#m8f86276e9a" x="550.611325" y="240.932908" style="fill: #0000ff; stroke: #0000ff; stroke-linejoin: miter"/>
     <use xlink:href="#m8f86276e9a" x="554.6056" y="231.394104" style="fill: #0000ff; stroke: #0000ff; stroke-linejoin: miter"/>
     <use xlink:href="#m8f86276e9a" x="558.59987" y="227.881173" style="fill: #0000ff; stroke: #0000ff; stroke-linejoin: miter"/>
     <use xlink:href="#m8f86276e9a" x="562.594166" y="226.654833" style="fill: #0000ff; stroke: #0000ff; stroke-linejoin: miter"/>
     <use xlink:href="#m8f86276e9a" x="566.588446" y="226.240317" style="fill: #0000ff; stroke: #0000ff; stroke-linejoin: miter"/>
     <use xlink:href="#m8f86276e9a" x="570.582709" y="225.873776" style="fill: #0000ff; stroke: #0000ff; stroke-linejoin: miter"/>
     <use xlink:href="#m8f86276e9a" x="574.576981" y="225.90266" style="fill: #0000ff; stroke: #0000ff; stroke-linejoin: miter"/>
     <use xlink:href="#m8f86276e9a" x="578.571254" y="225.760341" style="fill: #0000ff; stroke: #0000ff; stroke-linejoin: miter"/>
     <use xlink:href="#m8f86276e9a" x="582.565526" y="225.768683" style="fill: #0000ff; stroke: #0000ff; stroke-linejoin: miter"/>
     <use xlink:href="#m8f86276e9a" x="586.559799" y="225.563664" style="fill: #0000ff; stroke: #0000ff; stroke-linejoin: miter"/>
     <use xlink:href="#m8f86276e9a" x="590.554067" y="225.326613" style="fill: #0000ff; stroke: #0000ff; stroke-linejoin: miter"/>
     <use xlink:href="#m8f86276e9a" x="594.548343" y="225.653162" style="fill: #0000ff; stroke: #0000ff; stroke-linejoin: miter"/>
     <use xlink:href="#m8f86276e9a" x="598.542615" y="225.124425" style="fill: #0000ff; stroke: #0000ff; stroke-linejoin: miter"/>
    </g>
   </g>
   <g id="patch_3">
    <path d="M 65.90625 291.998437 
L 65.90625 14.798437 
" style="fill: none; stroke: #000000; stroke-width: 0.8; stroke-linejoin: miter; stroke-linecap: square"/>
   </g>
   <g id="patch_4">
    <path d="M 623.90625 291.998437 
L 623.90625 14.798437 
" style="fill: none; stroke: #000000; stroke-width: 0.8; stroke-linejoin: miter; stroke-linecap: square"/>
   </g>
   <g id="patch_5">
    <path d="M 65.90625 291.998437 
L 623.90625 291.998437 
" style="fill: none; stroke: #000000; stroke-width: 0.8; stroke-linejoin: miter; stroke-linecap: square"/>
   </g>
   <g id="patch_6">
    <path d="M 65.90625 14.798437 
L 623.90625 14.798437 
" style="fill: none; stroke: #000000; stroke-width: 0.8; stroke-linejoin: miter; stroke-linecap: square"/>
   </g>
   <g id="legend_1">
    <g id="patch_7">
     <path d="M 79.90625 112.598437 
L 172.30625 112.598437 
Q 176.30625 112.598437 176.30625 108.598437 
L 176.30625 28.798437 
Q 176.30625 24.798437 172.30625 24.798437 
L 79.90625 24.798437 
Q 75.90625 24.798437 75.90625 28.798437 
L 75.90625 108.598437 
Q 75.90625 112.598437 79.90625 112.598437 
z
" style="fill: #ffffff; opacity: 0.8; stroke: #cccccc; stroke-linejoin: miter"/>
    </g>
    <g id="line2d_28">
     <path d="M 83.90625 43.698437 
L 103.90625 43.698437 
L 123.90625 43.698437 
" style="fill: none; stroke: #0000ff; stroke-width: 2; stroke-linecap: square"/>
     <g>
      <use xlink:href="#m8f86276e9a" x="103.90625" y="43.698437" style="fill: #0000ff; stroke: #0000ff; stroke-linejoin: miter"/>
     </g>
    </g>
    <g id="text_11">
     <!-- $[\chi]$ -->
     <g transform="translate(139.90625 54.598437) scale(0.2 -0.2)">
      <use xlink:href="#DejaVuSans-5b" transform="translate(0 0.015625)"/>
      <use xlink:href="#DejaVuSans-Oblique-3c7" transform="translate(39.013672 0.015625)"/>
      <use xlink:href="#DejaVuSans-5d" transform="translate(98.193359 0.015625)"/>
     </g>
    </g>
    <g id="line2d_29">
     <path d="M 83.90625 84.598437 
L 103.90625 84.598437 
L 123.90625 84.598437 
" style="fill: none; stroke: #ff0000; stroke-width: 2; stroke-linecap: square"/>
     <defs>
      <path id="m10a350bfae" d="M 0 3.5 
C 0.928211 3.5 1.81853 3.131218 2.474874 2.474874 
C 3.131218 1.81853 3.5 0.928211 3.5 0 
C 3.5 -0.928211 3.131218 -1.81853 2.474874 -2.474874 
C 1.81853 -3.131218 0.928211 -3.5 0 -3.5 
C -0.928211 -3.5 -1.81853 -3.131218 -2.474874 -2.474874 
C -3.131218 -1.81853 -3.5 -0.928211 -3.5 0 
C -3.5 0.928211 -3.131218 1.81853 -2.474874 2.474874 
C -1.81853 3.131218 -0.928211 3.5 0 3.5 
z
" style="stroke: #ff0000"/>
     </defs>
     <g>
      <use xlink:href="#m10a350bfae" x="103.90625" y="84.598437" style="fill: #ff0000; stroke: #ff0000"/>
     </g>
    </g>
    <g id="text_12">
     <!-- $[\rho]$ -->
     <g transform="translate(139.90625 95.498437) scale(0.2 -0.2)">
      <defs>
       <path id="DejaVuSans-Oblique-3c1" d="M 1203 2875 
Q 1453 3194 1981 3475 
Q 2188 3584 2756 3584 
Q 3394 3584 3694 3078 
Q 3994 2572 3834 1747 
Q 3672 922 3175 415 
Q 2678 -91 2041 -91 
Q 1656 -91 1409 63 
Q 1163 213 1044 525 
L 681 -1331 
L 103 -1331 
L 697 1716 
Q 838 2438 1203 2875 
z
M 3238 1747 
Q 3359 2381 3169 2744 
Q 2978 3103 2522 3103 
Q 2066 3103 1734 2744 
Q 1403 2381 1281 1747 
Q 1156 1113 1347 750 
Q 1538 391 1994 391 
Q 2450 391 2781 750 
Q 3113 1113 3238 1747 
z
" transform="scale(0.015625)"/>
      </defs>
      <use xlink:href="#DejaVuSans-5b" transform="translate(0 0.015625)"/>
      <use xlink:href="#DejaVuSans-Oblique-3c1" transform="translate(39.013672 0.015625)"/>
      <use xlink:href="#DejaVuSans-5d" transform="translate(102.490234 0.015625)"/>
     </g>
    </g>
   </g>
  </g>
  <g id="axes_2">
   <g id="patch_8">
    <path d="M 286.17837 186.486097 
Q 347.360702 224.62223 408.543033 262.758364 
L 410.658925 259.363809 
Q 414.162612 265.082799 417.6663 270.801788 
Q 410.988775 270.174631 404.31125 269.547473 
L 406.427141 266.152919 
Q 345.24481 228.016785 284.062478 189.880652 
L 286.17837 186.486097 
z
" style="fill: #008000; opacity: 0.8"/>
   </g>
   <g id="matplotlib.axis_3">
    <g id="ytick_6">
     <g id="line2d_30">
      <defs>
       <path id="me10dfd8ce4" d="M 0 0 
L -3 0 
" style="stroke: #000000; stroke-width: 1.5"/>
      </defs>
      <g>
       <use xlink:href="#me10dfd8ce4" x="623.90625" y="286.563143" style="stroke: #000000; stroke-width: 1.5"/>
      </g>
     </g>
     <g id="text_13">
      <!-- 0 -->
      <g transform="translate(627.40625 294.161581) scale(0.2 -0.2)">
       <use xlink:href="#DejaVuSans-30"/>
      </g>
     </g>
    </g>
    <g id="ytick_7">
     <g id="line2d_31">
      <g>
       <use xlink:href="#me10dfd8ce4" x="623.90625" y="232.210202" style="stroke: #000000; stroke-width: 1.5"/>
      </g>
     </g>
     <g id="text_14">
      <!-- 5 -->
      <g transform="translate(627.40625 239.80864) scale(0.2 -0.2)">
       <defs>
        <path id="DejaVuSans-35" d="M 691 4666 
L 3169 4666 
L 3169 4134 
L 1269 4134 
L 1269 2991 
Q 1406 3038 1543 3061 
Q 1681 3084 1819 3084 
Q 2600 3084 3056 2656 
Q 3513 2228 3513 1497 
Q 3513 744 3044 326 
Q 2575 -91 1722 -91 
Q 1428 -91 1123 -41 
Q 819 9 494 109 
L 494 744 
Q 775 591 1075 516 
Q 1375 441 1709 441 
Q 2250 441 2565 725 
Q 2881 1009 2881 1497 
Q 2881 1984 2565 2268 
Q 2250 2553 1709 2553 
Q 1456 2553 1204 2497 
Q 953 2441 691 2322 
L 691 4666 
z
" transform="scale(0.015625)"/>
       </defs>
       <use xlink:href="#DejaVuSans-35"/>
      </g>
     </g>
    </g>
    <g id="ytick_8">
     <g id="line2d_32">
      <g>
       <use xlink:href="#me10dfd8ce4" x="623.90625" y="177.857261" style="stroke: #000000; stroke-width: 1.5"/>
      </g>
     </g>
     <g id="text_15">
      <!-- 10 -->
      <g transform="translate(627.40625 185.455699) scale(0.2 -0.2)">
       <use xlink:href="#DejaVuSans-31"/>
       <use xlink:href="#DejaVuSans-30" transform="translate(63.623047 0)"/>
      </g>
     </g>
    </g>
    <g id="ytick_9">
     <g id="line2d_33">
      <g>
       <use xlink:href="#me10dfd8ce4" x="623.90625" y="123.50432" style="stroke: #000000; stroke-width: 1.5"/>
      </g>
     </g>
     <g id="text_16">
      <!-- 15 -->
      <g transform="translate(627.40625 131.102757) scale(0.2 -0.2)">
       <use xlink:href="#DejaVuSans-31"/>
       <use xlink:href="#DejaVuSans-35" transform="translate(63.623047 0)"/>
      </g>
     </g>
    </g>
    <g id="ytick_10">
     <g id="line2d_34">
      <g>
       <use xlink:href="#me10dfd8ce4" x="623.90625" y="69.151379" style="stroke: #000000; stroke-width: 1.5"/>
      </g>
     </g>
     <g id="text_17">
      <!-- 20 -->
      <g transform="translate(627.40625 76.749816) scale(0.2 -0.2)">
       <use xlink:href="#DejaVuSans-32"/>
       <use xlink:href="#DejaVuSans-30" transform="translate(63.623047 0)"/>
      </g>
     </g>
    </g>
    <g id="ytick_11">
     <g id="line2d_35">
      <g>
       <use xlink:href="#me10dfd8ce4" x="623.90625" y="14.798437" style="stroke: #000000; stroke-width: 1.5"/>
      </g>
     </g>
     <g id="text_18">
      <!-- 25 -->
      <g transform="translate(627.40625 22.396875) scale(0.2 -0.2)">
       <use xlink:href="#DejaVuSans-32"/>
       <use xlink:href="#DejaVuSans-35" transform="translate(63.623047 0)"/>
      </g>
     </g>
    </g>
    <g id="text_19">
     <!-- Epidemic size $p^{EI}$ -->
     <g transform="translate(674.85625 238.698437) rotate(-90) scale(0.2 -0.2)">
      <defs>
       <path id="DejaVuSans-45" d="M 628 4666 
L 3578 4666 
L 3578 4134 
L 1259 4134 
L 1259 2753 
L 3481 2753 
L 3481 2222 
L 1259 2222 
L 1259 531 
L 3634 531 
L 3634 0 
L 628 0 
L 628 4666 
z
" transform="scale(0.015625)"/>
       <path id="DejaVuSans-64" d="M 2906 2969 
L 2906 4863 
L 3481 4863 
L 3481 0 
L 2906 0 
L 2906 525 
Q 2725 213 2448 61 
Q 2172 -91 1784 -91 
Q 1150 -91 751 415 
Q 353 922 353 1747 
Q 353 2572 751 3078 
Q 1150 3584 1784 3584 
Q 2172 3584 2448 3432 
Q 2725 3281 2906 2969 
z
M 947 1747 
Q 947 1113 1208 752 
Q 1469 391 1925 391 
Q 2381 391 2643 752 
Q 2906 1113 2906 1747 
Q 2906 2381 2643 2742 
Q 2381 3103 1925 3103 
Q 1469 3103 1208 2742 
Q 947 2381 947 1747 
z
" transform="scale(0.015625)"/>
       <path id="DejaVuSans-7a" d="M 353 3500 
L 3084 3500 
L 3084 2975 
L 922 459 
L 3084 459 
L 3084 0 
L 275 0 
L 275 525 
L 2438 3041 
L 353 3041 
L 353 3500 
z
" transform="scale(0.015625)"/>
       <path id="DejaVuSans-Oblique-70" d="M 3175 2156 
Q 3175 2616 2975 2859 
Q 2775 3103 2400 3103 
Q 2144 3103 1911 2972 
Q 1678 2841 1497 2591 
Q 1319 2344 1212 1994 
Q 1106 1644 1106 1300 
Q 1106 863 1306 627 
Q 1506 391 1875 391 
Q 2147 391 2380 519 
Q 2613 647 2778 891 
Q 2956 1147 3065 1494 
Q 3175 1841 3175 2156 
z
M 1394 2969 
Q 1625 3272 1939 3428 
Q 2253 3584 2638 3584 
Q 3175 3584 3472 3232 
Q 3769 2881 3769 2247 
Q 3769 1728 3584 1258 
Q 3400 788 3053 416 
Q 2822 169 2531 39 
Q 2241 -91 1919 -91 
Q 1547 -91 1294 64 
Q 1041 219 916 525 
L 556 -1331 
L -19 -1331 
L 922 3500 
L 1497 3500 
L 1394 2969 
z
" transform="scale(0.015625)"/>
       <path id="DejaVuSans-Oblique-45" d="M 1081 4666 
L 4031 4666 
L 3928 4134 
L 1606 4134 
L 1338 2753 
L 3566 2753 
L 3463 2222 
L 1234 2222 
L 909 531 
L 3284 531 
L 3181 0 
L 172 0 
L 1081 4666 
z
" transform="scale(0.015625)"/>
       <path id="DejaVuSans-Oblique-49" d="M 1081 4666 
L 1716 4666 
L 806 0 
L 172 0 
L 1081 4666 
z
" transform="scale(0.015625)"/>
      </defs>
      <use xlink:href="#DejaVuSans-45" transform="translate(0 0.684375)"/>
      <use xlink:href="#DejaVuSans-70" transform="translate(63.183594 0.684375)"/>
      <use xlink:href="#DejaVuSans-69" transform="translate(126.660156 0.684375)"/>
      <use xlink:href="#DejaVuSans-64" transform="translate(154.443359 0.684375)"/>
      <use xlink:href="#DejaVuSans-65" transform="translate(217.919922 0.684375)"/>
      <use xlink:href="#DejaVuSans-6d" transform="translate(279.443359 0.684375)"/>
      <use xlink:href="#DejaVuSans-69" transform="translate(376.855469 0.684375)"/>
      <use xlink:href="#DejaVuSans-63" transform="translate(404.638672 0.684375)"/>
      <use xlink:href="#DejaVuSans-20" transform="translate(459.619141 0.684375)"/>
      <use xlink:href="#DejaVuSans-73" transform="translate(491.40625 0.684375)"/>
      <use xlink:href="#DejaVuSans-69" transform="translate(543.505859 0.684375)"/>
      <use xlink:href="#DejaVuSans-7a" transform="translate(571.289062 0.684375)"/>
      <use xlink:href="#DejaVuSans-65" transform="translate(623.779297 0.684375)"/>
      <use xlink:href="#DejaVuSans-20" transform="translate(685.302734 0.684375)"/>
      <use xlink:href="#DejaVuSans-Oblique-70" transform="translate(717.089844 0.684375)"/>
      <use xlink:href="#DejaVuSans-Oblique-45" transform="translate(785.216302 38.965625) scale(0.7)"/>
      <use xlink:href="#DejaVuSans-Oblique-49" transform="translate(829.444818 38.965625) scale(0.7)"/>
     </g>
    </g>
   </g>
   <g id="line2d_36">
    <path d="M 91.269892 286.426696 
L 330.926295 286.303876 
L 370.869014 286.14958 
L 394.834672 285.890741 
L 410.811765 285.345015 
L 418.800307 284.659455 
L 422.794572 284.097537 
L 426.788875 283.16551 
L 430.783149 281.601701 
L 434.777421 279.215345 
L 438.771688 274.846538 
L 442.765962 269.075459 
L 450.754503 255.27002 
L 458.743052 241.522205 
L 466.731591 226.999323 
L 474.720133 211.636905 
L 482.70868 195.374216 
L 486.70295 186.99599 
L 494.691498 169.524307 
L 502.68004 151.319678 
L 510.668581 132.459822 
L 518.657151 112.974049 
L 526.645699 92.968962 
L 538.628513 62.257261 
L 542.62278 51.99534 
L 546.617055 45.646112 
L 550.611325 46.756169 
L 554.6056 48.229486 
L 558.59987 48.740081 
L 562.594166 48.638339 
L 566.588446 48.068507 
L 570.582709 47.368776 
L 578.571254 45.297739 
L 582.565526 44.131306 
L 586.559799 42.835328 
L 594.548343 40.539307 
L 598.542615 38.554005 
L 598.542615 38.554005 
" clip-path="url(#p3fd4f7a180)" style="fill: none; stroke: #ff0000; stroke-width: 2; stroke-linecap: square"/>
    <g clip-path="url(#p3fd4f7a180)">
     <use xlink:href="#m10a350bfae" x="91.269892" y="286.426696" style="fill: #ff0000; stroke: #ff0000"/>
     <use xlink:href="#m10a350bfae" x="95.26416" y="286.42645" style="fill: #ff0000; stroke: #ff0000"/>
     <use xlink:href="#m10a350bfae" x="99.258428" y="286.429073" style="fill: #ff0000; stroke: #ff0000"/>
     <use xlink:href="#m10a350bfae" x="103.252702" y="286.426296" style="fill: #ff0000; stroke: #ff0000"/>
     <use xlink:href="#m10a350bfae" x="107.246975" y="286.422924" style="fill: #ff0000; stroke: #ff0000"/>
     <use xlink:href="#m10a350bfae" x="111.241247" y="286.42183" style="fill: #ff0000; stroke: #ff0000"/>
     <use xlink:href="#m10a350bfae" x="115.235515" y="286.423154" style="fill: #ff0000; stroke: #ff0000"/>
     <use xlink:href="#m10a350bfae" x="119.22979" y="286.423536" style="fill: #ff0000; stroke: #ff0000"/>
     <use xlink:href="#m10a350bfae" x="123.224057" y="286.423704" style="fill: #ff0000; stroke: #ff0000"/>
     <use xlink:href="#m10a350bfae" x="127.218329" y="286.422508" style="fill: #ff0000; stroke: #ff0000"/>
     <use xlink:href="#m10a350bfae" x="131.2126" y="286.42425" style="fill: #ff0000; stroke: #ff0000"/>
     <use xlink:href="#m10a350bfae" x="135.206871" y="286.421381" style="fill: #ff0000; stroke: #ff0000"/>
     <use xlink:href="#m10a350bfae" x="139.201146" y="286.419638" style="fill: #ff0000; stroke: #ff0000"/>
     <use xlink:href="#m10a350bfae" x="143.19542" y="286.421562" style="fill: #ff0000; stroke: #ff0000"/>
     <use xlink:href="#m10a350bfae" x="147.189689" y="286.422561" style="fill: #ff0000; stroke: #ff0000"/>
     <use xlink:href="#m10a350bfae" x="151.183959" y="286.421839" style="fill: #ff0000; stroke: #ff0000"/>
     <use xlink:href="#m10a350bfae" x="155.178229" y="286.419224" style="fill: #ff0000; stroke: #ff0000"/>
     <use xlink:href="#m10a350bfae" x="159.172503" y="286.419445" style="fill: #ff0000; stroke: #ff0000"/>
     <use xlink:href="#m10a350bfae" x="163.166772" y="286.420569" style="fill: #ff0000; stroke: #ff0000"/>
     <use xlink:href="#m10a350bfae" x="167.161104" y="286.415998" style="fill: #ff0000; stroke: #ff0000"/>
     <use xlink:href="#m10a350bfae" x="171.155379" y="286.418643" style="fill: #ff0000; stroke: #ff0000"/>
     <use xlink:href="#m10a350bfae" x="175.149652" y="286.419882" style="fill: #ff0000; stroke: #ff0000"/>
     <use xlink:href="#m10a350bfae" x="179.143916" y="286.415208" style="fill: #ff0000; stroke: #ff0000"/>
     <use xlink:href="#m10a350bfae" x="183.138187" y="286.415086" style="fill: #ff0000; stroke: #ff0000"/>
     <use xlink:href="#m10a350bfae" x="187.132462" y="286.415122" style="fill: #ff0000; stroke: #ff0000"/>
     <use xlink:href="#m10a350bfae" x="191.126739" y="286.417049" style="fill: #ff0000; stroke: #ff0000"/>
     <use xlink:href="#m10a350bfae" x="195.121009" y="286.409344" style="fill: #ff0000; stroke: #ff0000"/>
     <use xlink:href="#m10a350bfae" x="199.115278" y="286.410807" style="fill: #ff0000; stroke: #ff0000"/>
     <use xlink:href="#m10a350bfae" x="203.109553" y="286.407618" style="fill: #ff0000; stroke: #ff0000"/>
     <use xlink:href="#m10a350bfae" x="207.103821" y="286.408437" style="fill: #ff0000; stroke: #ff0000"/>
     <use xlink:href="#m10a350bfae" x="211.098096" y="286.411492" style="fill: #ff0000; stroke: #ff0000"/>
     <use xlink:href="#m10a350bfae" x="215.092369" y="286.406303" style="fill: #ff0000; stroke: #ff0000"/>
     <use xlink:href="#m10a350bfae" x="219.086639" y="286.410387" style="fill: #ff0000; stroke: #ff0000"/>
     <use xlink:href="#m10a350bfae" x="223.08091" y="286.403278" style="fill: #ff0000; stroke: #ff0000"/>
     <use xlink:href="#m10a350bfae" x="227.075176" y="286.405436" style="fill: #ff0000; stroke: #ff0000"/>
     <use xlink:href="#m10a350bfae" x="231.069453" y="286.401125" style="fill: #ff0000; stroke: #ff0000"/>
     <use xlink:href="#m10a350bfae" x="235.06372" y="286.402311" style="fill: #ff0000; stroke: #ff0000"/>
     <use xlink:href="#m10a350bfae" x="239.057992" y="286.394064" style="fill: #ff0000; stroke: #ff0000"/>
     <use xlink:href="#m10a350bfae" x="243.052267" y="286.399022" style="fill: #ff0000; stroke: #ff0000"/>
     <use xlink:href="#m10a350bfae" x="247.046532" y="286.402771" style="fill: #ff0000; stroke: #ff0000"/>
     <use xlink:href="#m10a350bfae" x="251.040804" y="286.39045" style="fill: #ff0000; stroke: #ff0000"/>
     <use xlink:href="#m10a350bfae" x="255.035084" y="286.38874" style="fill: #ff0000; stroke: #ff0000"/>
     <use xlink:href="#m10a350bfae" x="259.029352" y="286.388992" style="fill: #ff0000; stroke: #ff0000"/>
     <use xlink:href="#m10a350bfae" x="263.023628" y="286.387656" style="fill: #ff0000; stroke: #ff0000"/>
     <use xlink:href="#m10a350bfae" x="267.017951" y="286.386429" style="fill: #ff0000; stroke: #ff0000"/>
     <use xlink:href="#m10a350bfae" x="271.012227" y="286.373868" style="fill: #ff0000; stroke: #ff0000"/>
     <use xlink:href="#m10a350bfae" x="275.006497" y="286.381655" style="fill: #ff0000; stroke: #ff0000"/>
     <use xlink:href="#m10a350bfae" x="279.000771" y="286.378762" style="fill: #ff0000; stroke: #ff0000"/>
     <use xlink:href="#m10a350bfae" x="282.99504" y="286.369881" style="fill: #ff0000; stroke: #ff0000"/>
     <use xlink:href="#m10a350bfae" x="286.98931" y="286.369634" style="fill: #ff0000; stroke: #ff0000"/>
     <use xlink:href="#m10a350bfae" x="290.983587" y="286.361032" style="fill: #ff0000; stroke: #ff0000"/>
     <use xlink:href="#m10a350bfae" x="294.977859" y="286.359453" style="fill: #ff0000; stroke: #ff0000"/>
     <use xlink:href="#m10a350bfae" x="298.972124" y="286.362642" style="fill: #ff0000; stroke: #ff0000"/>
     <use xlink:href="#m10a350bfae" x="302.966401" y="286.353826" style="fill: #ff0000; stroke: #ff0000"/>
     <use xlink:href="#m10a350bfae" x="306.960673" y="286.34243" style="fill: #ff0000; stroke: #ff0000"/>
     <use xlink:href="#m10a350bfae" x="310.954941" y="286.340228" style="fill: #ff0000; stroke: #ff0000"/>
     <use xlink:href="#m10a350bfae" x="314.949215" y="286.335854" style="fill: #ff0000; stroke: #ff0000"/>
     <use xlink:href="#m10a350bfae" x="318.943479" y="286.326079" style="fill: #ff0000; stroke: #ff0000"/>
     <use xlink:href="#m10a350bfae" x="322.937751" y="286.312771" style="fill: #ff0000; stroke: #ff0000"/>
     <use xlink:href="#m10a350bfae" x="326.932023" y="286.31005" style="fill: #ff0000; stroke: #ff0000"/>
     <use xlink:href="#m10a350bfae" x="330.926295" y="286.303876" style="fill: #ff0000; stroke: #ff0000"/>
     <use xlink:href="#m10a350bfae" x="334.920568" y="286.298295" style="fill: #ff0000; stroke: #ff0000"/>
     <use xlink:href="#m10a350bfae" x="338.914839" y="286.286946" style="fill: #ff0000; stroke: #ff0000"/>
     <use xlink:href="#m10a350bfae" x="342.909117" y="286.282364" style="fill: #ff0000; stroke: #ff0000"/>
     <use xlink:href="#m10a350bfae" x="346.903382" y="286.261084" style="fill: #ff0000; stroke: #ff0000"/>
     <use xlink:href="#m10a350bfae" x="350.897655" y="286.230129" style="fill: #ff0000; stroke: #ff0000"/>
     <use xlink:href="#m10a350bfae" x="354.891927" y="286.229987" style="fill: #ff0000; stroke: #ff0000"/>
     <use xlink:href="#m10a350bfae" x="358.886201" y="286.224899" style="fill: #ff0000; stroke: #ff0000"/>
     <use xlink:href="#m10a350bfae" x="362.88047" y="286.193822" style="fill: #ff0000; stroke: #ff0000"/>
     <use xlink:href="#m10a350bfae" x="366.874743" y="286.162907" style="fill: #ff0000; stroke: #ff0000"/>
     <use xlink:href="#m10a350bfae" x="370.869014" y="286.14958" style="fill: #ff0000; stroke: #ff0000"/>
     <use xlink:href="#m10a350bfae" x="374.863286" y="286.112929" style="fill: #ff0000; stroke: #ff0000"/>
     <use xlink:href="#m10a350bfae" x="378.857559" y="286.092309" style="fill: #ff0000; stroke: #ff0000"/>
     <use xlink:href="#m10a350bfae" x="382.851831" y="286.012196" style="fill: #ff0000; stroke: #ff0000"/>
     <use xlink:href="#m10a350bfae" x="386.846105" y="285.987181" style="fill: #ff0000; stroke: #ff0000"/>
     <use xlink:href="#m10a350bfae" x="390.840401" y="285.961916" style="fill: #ff0000; stroke: #ff0000"/>
     <use xlink:href="#m10a350bfae" x="394.834672" y="285.890741" style="fill: #ff0000; stroke: #ff0000"/>
     <use xlink:href="#m10a350bfae" x="398.828944" y="285.768657" style="fill: #ff0000; stroke: #ff0000"/>
     <use xlink:href="#m10a350bfae" x="402.823221" y="285.621467" style="fill: #ff0000; stroke: #ff0000"/>
     <use xlink:href="#m10a350bfae" x="406.817487" y="285.514732" style="fill: #ff0000; stroke: #ff0000"/>
     <use xlink:href="#m10a350bfae" x="410.811765" y="285.345015" style="fill: #ff0000; stroke: #ff0000"/>
     <use xlink:href="#m10a350bfae" x="414.806028" y="284.967839" style="fill: #ff0000; stroke: #ff0000"/>
     <use xlink:href="#m10a350bfae" x="418.800307" y="284.659455" style="fill: #ff0000; stroke: #ff0000"/>
     <use xlink:href="#m10a350bfae" x="422.794572" y="284.097537" style="fill: #ff0000; stroke: #ff0000"/>
     <use xlink:href="#m10a350bfae" x="426.788875" y="283.16551" style="fill: #ff0000; stroke: #ff0000"/>
     <use xlink:href="#m10a350bfae" x="430.783149" y="281.601701" style="fill: #ff0000; stroke: #ff0000"/>
     <use xlink:href="#m10a350bfae" x="434.777421" y="279.215345" style="fill: #ff0000; stroke: #ff0000"/>
     <use xlink:href="#m10a350bfae" x="438.771688" y="274.846538" style="fill: #ff0000; stroke: #ff0000"/>
     <use xlink:href="#m10a350bfae" x="442.765962" y="269.075459" style="fill: #ff0000; stroke: #ff0000"/>
     <use xlink:href="#m10a350bfae" x="446.760233" y="262.066589" style="fill: #ff0000; stroke: #ff0000"/>
     <use xlink:href="#m10a350bfae" x="450.754503" y="255.27002" style="fill: #ff0000; stroke: #ff0000"/>
     <use xlink:href="#m10a350bfae" x="454.748778" y="248.457695" style="fill: #ff0000; stroke: #ff0000"/>
     <use xlink:href="#m10a350bfae" x="458.743052" y="241.522205" style="fill: #ff0000; stroke: #ff0000"/>
     <use xlink:href="#m10a350bfae" x="462.737323" y="234.31573" style="fill: #ff0000; stroke: #ff0000"/>
     <use xlink:href="#m10a350bfae" x="466.731591" y="226.999323" style="fill: #ff0000; stroke: #ff0000"/>
     <use xlink:href="#m10a350bfae" x="470.725865" y="219.420319" style="fill: #ff0000; stroke: #ff0000"/>
     <use xlink:href="#m10a350bfae" x="474.720133" y="211.636905" style="fill: #ff0000; stroke: #ff0000"/>
     <use xlink:href="#m10a350bfae" x="478.714407" y="203.576447" style="fill: #ff0000; stroke: #ff0000"/>
     <use xlink:href="#m10a350bfae" x="482.70868" y="195.374216" style="fill: #ff0000; stroke: #ff0000"/>
     <use xlink:href="#m10a350bfae" x="486.70295" y="186.99599" style="fill: #ff0000; stroke: #ff0000"/>
     <use xlink:href="#m10a350bfae" x="490.697224" y="178.3527" style="fill: #ff0000; stroke: #ff0000"/>
     <use xlink:href="#m10a350bfae" x="494.691498" y="169.524307" style="fill: #ff0000; stroke: #ff0000"/>
     <use xlink:href="#m10a350bfae" x="498.685766" y="160.508448" style="fill: #ff0000; stroke: #ff0000"/>
     <use xlink:href="#m10a350bfae" x="502.68004" y="151.319678" style="fill: #ff0000; stroke: #ff0000"/>
     <use xlink:href="#m10a350bfae" x="506.674305" y="141.979559" style="fill: #ff0000; stroke: #ff0000"/>
     <use xlink:href="#m10a350bfae" x="510.668581" y="132.459822" style="fill: #ff0000; stroke: #ff0000"/>
     <use xlink:href="#m10a350bfae" x="514.662884" y="122.784663" style="fill: #ff0000; stroke: #ff0000"/>
     <use xlink:href="#m10a350bfae" x="518.657151" y="112.974049" style="fill: #ff0000; stroke: #ff0000"/>
     <use xlink:href="#m10a350bfae" x="522.65142" y="103.02572" style="fill: #ff0000; stroke: #ff0000"/>
     <use xlink:href="#m10a350bfae" x="526.645699" y="92.968962" style="fill: #ff0000; stroke: #ff0000"/>
     <use xlink:href="#m10a350bfae" x="530.639967" y="82.810317" style="fill: #ff0000; stroke: #ff0000"/>
     <use xlink:href="#m10a350bfae" x="534.634235" y="72.582877" style="fill: #ff0000; stroke: #ff0000"/>
     <use xlink:href="#m10a350bfae" x="538.628513" y="62.257261" style="fill: #ff0000; stroke: #ff0000"/>
     <use xlink:href="#m10a350bfae" x="542.62278" y="51.99534" style="fill: #ff0000; stroke: #ff0000"/>
     <use xlink:href="#m10a350bfae" x="546.617055" y="45.646112" style="fill: #ff0000; stroke: #ff0000"/>
     <use xlink:href="#m10a350bfae" x="550.611325" y="46.756169" style="fill: #ff0000; stroke: #ff0000"/>
     <use xlink:href="#m10a350bfae" x="554.6056" y="48.229486" style="fill: #ff0000; stroke: #ff0000"/>
     <use xlink:href="#m10a350bfae" x="558.59987" y="48.740081" style="fill: #ff0000; stroke: #ff0000"/>
     <use xlink:href="#m10a350bfae" x="562.594166" y="48.638339" style="fill: #ff0000; stroke: #ff0000"/>
     <use xlink:href="#m10a350bfae" x="566.588446" y="48.068507" style="fill: #ff0000; stroke: #ff0000"/>
     <use xlink:href="#m10a350bfae" x="570.582709" y="47.368776" style="fill: #ff0000; stroke: #ff0000"/>
     <use xlink:href="#m10a350bfae" x="574.576981" y="46.38022" style="fill: #ff0000; stroke: #ff0000"/>
     <use xlink:href="#m10a350bfae" x="578.571254" y="45.297739" style="fill: #ff0000; stroke: #ff0000"/>
     <use xlink:href="#m10a350bfae" x="582.565526" y="44.131306" style="fill: #ff0000; stroke: #ff0000"/>
     <use xlink:href="#m10a350bfae" x="586.559799" y="42.835328" style="fill: #ff0000; stroke: #ff0000"/>
     <use xlink:href="#m10a350bfae" x="590.554067" y="41.724918" style="fill: #ff0000; stroke: #ff0000"/>
     <use xlink:href="#m10a350bfae" x="594.548343" y="40.539307" style="fill: #ff0000; stroke: #ff0000"/>
     <use xlink:href="#m10a350bfae" x="598.542615" y="38.554005" style="fill: #ff0000; stroke: #ff0000"/>
    </g>
   </g>
   <g id="line2d_37">
    <defs>
     <path id="m5af89aee35" d="M 0 -12.5 
L -2.806425 -3.862712 
L -11.888206 -3.862712 
L -4.540891 1.475425 
L -7.347316 10.112712 
L -0 4.774575 
L 7.347316 10.112712 
L 4.540891 1.475425 
L 11.888206 -3.862712 
L 2.806425 -3.862712 
z
" style="stroke: #008000; stroke-linejoin: bevel"/>
    </defs>
    <g clip-path="url(#p3fd4f7a180)">
     <use xlink:href="#m5af89aee35" x="434.232543" y="281.127849" style="fill: #008000; stroke: #008000; stroke-linejoin: bevel"/>
    </g>
   </g>
   <g id="line2d_38">
    <path d="M 434.777421 278.138437 
L 434.777421 28.658437 
" clip-path="url(#p3fd4f7a180)" style="fill: none; stroke-dasharray: 5.55,2.4; stroke-dashoffset: 0; stroke: #008000; stroke-width: 1.5"/>
   </g>
   <g id="patch_9">
    <path d="M 65.90625 291.998437 
L 65.90625 14.798437 
" style="fill: none; stroke: #000000; stroke-width: 0.8; stroke-linejoin: miter; stroke-linecap: square"/>
   </g>
   <g id="patch_10">
    <path d="M 623.90625 291.998437 
L 623.90625 14.798437 
" style="fill: none; stroke: #000000; stroke-width: 0.8; stroke-linejoin: miter; stroke-linecap: square"/>
   </g>
   <g id="patch_11">
    <path d="M 65.90625 291.998437 
L 623.90625 291.998437 
" style="fill: none; stroke: #000000; stroke-width: 0.8; stroke-linejoin: miter; stroke-linecap: square"/>
   </g>
   <g id="patch_12">
    <path d="M 65.90625 14.798437 
L 623.90625 14.798437 
" style="fill: none; stroke: #000000; stroke-width: 0.8; stroke-linejoin: miter; stroke-linecap: square"/>
   </g>
   <g id="text_20">
    <g id="patch_13">
     <path d="M 167.62204 184.736673 
L 312.12204 184.736673 
Q 324.62204 184.736673 324.62204 172.236673 
L 324.62204 147.736673 
Q 324.62204 135.236673 312.12204 135.236673 
L 167.62204 135.236673 
Q 155.12204 135.236673 155.12204 147.736673 
L 155.12204 172.236673 
Q 155.12204 184.736673 167.62204 184.736673 
z
" style="fill: #008000; opacity: 0.2; stroke: #000000; stroke-linejoin: miter"/>
    </g>
    <!-- Threshold $\beta_c$ -->
    <g transform="translate(167.62204 166.986673) scale(0.25 -0.25)">
     <defs>
      <path id="ArialMT-54" d="M 1659 0 
L 1659 4041 
L 150 4041 
L 150 4581 
L 3781 4581 
L 3781 4041 
L 2266 4041 
L 2266 0 
L 1659 0 
z
" transform="scale(0.015625)"/>
      <path id="ArialMT-68" d="M 422 0 
L 422 4581 
L 984 4581 
L 984 2938 
Q 1378 3394 1978 3394 
Q 2347 3394 2619 3248 
Q 2891 3103 3008 2847 
Q 3125 2591 3125 2103 
L 3125 0 
L 2563 0 
L 2563 2103 
Q 2563 2525 2380 2717 
Q 2197 2909 1863 2909 
Q 1613 2909 1392 2779 
Q 1172 2650 1078 2428 
Q 984 2206 984 1816 
L 984 0 
L 422 0 
z
" transform="scale(0.015625)"/>
      <path id="ArialMT-72" d="M 416 0 
L 416 3319 
L 922 3319 
L 922 2816 
Q 1116 3169 1280 3281 
Q 1444 3394 1641 3394 
Q 1925 3394 2219 3213 
L 2025 2691 
Q 1819 2813 1613 2813 
Q 1428 2813 1281 2702 
Q 1134 2591 1072 2394 
Q 978 2094 978 1738 
L 978 0 
L 416 0 
z
" transform="scale(0.015625)"/>
      <path id="ArialMT-65" d="M 2694 1069 
L 3275 997 
Q 3138 488 2766 206 
Q 2394 -75 1816 -75 
Q 1088 -75 661 373 
Q 234 822 234 1631 
Q 234 2469 665 2931 
Q 1097 3394 1784 3394 
Q 2450 3394 2872 2941 
Q 3294 2488 3294 1666 
Q 3294 1616 3291 1516 
L 816 1516 
Q 847 969 1125 678 
Q 1403 388 1819 388 
Q 2128 388 2347 550 
Q 2566 713 2694 1069 
z
M 847 1978 
L 2700 1978 
Q 2663 2397 2488 2606 
Q 2219 2931 1791 2931 
Q 1403 2931 1139 2672 
Q 875 2413 847 1978 
z
" transform="scale(0.015625)"/>
      <path id="ArialMT-73" d="M 197 991 
L 753 1078 
Q 800 744 1014 566 
Q 1228 388 1613 388 
Q 2000 388 2187 545 
Q 2375 703 2375 916 
Q 2375 1106 2209 1216 
Q 2094 1291 1634 1406 
Q 1016 1563 777 1677 
Q 538 1791 414 1992 
Q 291 2194 291 2438 
Q 291 2659 392 2848 
Q 494 3038 669 3163 
Q 800 3259 1026 3326 
Q 1253 3394 1513 3394 
Q 1903 3394 2198 3281 
Q 2494 3169 2634 2976 
Q 2775 2784 2828 2463 
L 2278 2388 
Q 2241 2644 2061 2787 
Q 1881 2931 1553 2931 
Q 1166 2931 1000 2803 
Q 834 2675 834 2503 
Q 834 2394 903 2306 
Q 972 2216 1119 2156 
Q 1203 2125 1616 2013 
Q 2213 1853 2448 1751 
Q 2684 1650 2818 1456 
Q 2953 1263 2953 975 
Q 2953 694 2789 445 
Q 2625 197 2315 61 
Q 2006 -75 1616 -75 
Q 969 -75 630 194 
Q 291 463 197 991 
z
" transform="scale(0.015625)"/>
      <path id="ArialMT-6f" d="M 213 1659 
Q 213 2581 725 3025 
Q 1153 3394 1769 3394 
Q 2453 3394 2887 2945 
Q 3322 2497 3322 1706 
Q 3322 1066 3130 698 
Q 2938 331 2570 128 
Q 2203 -75 1769 -75 
Q 1072 -75 642 372 
Q 213 819 213 1659 
z
M 791 1659 
Q 791 1022 1069 705 
Q 1347 388 1769 388 
Q 2188 388 2466 706 
Q 2744 1025 2744 1678 
Q 2744 2294 2464 2611 
Q 2184 2928 1769 2928 
Q 1347 2928 1069 2612 
Q 791 2297 791 1659 
z
" transform="scale(0.015625)"/>
      <path id="ArialMT-6c" d="M 409 0 
L 409 4581 
L 972 4581 
L 972 0 
L 409 0 
z
" transform="scale(0.015625)"/>
      <path id="ArialMT-64" d="M 2575 0 
L 2575 419 
Q 2259 -75 1647 -75 
Q 1250 -75 917 144 
Q 584 363 401 755 
Q 219 1147 219 1656 
Q 219 2153 384 2558 
Q 550 2963 881 3178 
Q 1213 3394 1622 3394 
Q 1922 3394 2156 3267 
Q 2391 3141 2538 2938 
L 2538 4581 
L 3097 4581 
L 3097 0 
L 2575 0 
z
M 797 1656 
Q 797 1019 1065 703 
Q 1334 388 1700 388 
Q 2069 388 2326 689 
Q 2584 991 2584 1609 
Q 2584 2291 2321 2609 
Q 2059 2928 1675 2928 
Q 1300 2928 1048 2622 
Q 797 2316 797 1656 
z
" transform="scale(0.015625)"/>
      <path id="ArialMT-20" transform="scale(0.015625)"/>
      <path id="DejaVuSans-Oblique-63" d="M 3431 3366 
L 3316 2797 
Q 3109 2947 2876 3022 
Q 2644 3097 2394 3097 
Q 2119 3097 1870 3000 
Q 1622 2903 1453 2725 
Q 1184 2453 1037 2087 
Q 891 1722 891 1331 
Q 891 859 1127 628 
Q 1363 397 1844 397 
Q 2081 397 2348 469 
Q 2616 541 2906 684 
L 2797 116 
Q 2547 13 2283 -39 
Q 2019 -91 1741 -91 
Q 1044 -91 669 257 
Q 294 606 294 1253 
Q 294 1797 489 2255 
Q 684 2713 1069 3078 
Q 1331 3328 1684 3456 
Q 2038 3584 2456 3584 
Q 2700 3584 2940 3529 
Q 3181 3475 3431 3366 
z
" transform="scale(0.015625)"/>
     </defs>
     <use xlink:href="#ArialMT-54" transform="translate(0 0.390625)"/>
     <use xlink:href="#ArialMT-68" transform="translate(61.083984 0.390625)"/>
     <use xlink:href="#ArialMT-72" transform="translate(116.699219 0.390625)"/>
     <use xlink:href="#ArialMT-65" transform="translate(150 0.390625)"/>
     <use xlink:href="#ArialMT-73" transform="translate(205.615234 0.390625)"/>
     <use xlink:href="#ArialMT-68" transform="translate(255.615234 0.390625)"/>
     <use xlink:href="#ArialMT-6f" transform="translate(311.230469 0.390625)"/>
     <use xlink:href="#ArialMT-6c" transform="translate(366.845703 0.390625)"/>
     <use xlink:href="#ArialMT-64" transform="translate(389.0625 0.390625)"/>
     <use xlink:href="#ArialMT-20" transform="translate(444.677734 0.390625)"/>
     <use xlink:href="#DejaVuSans-Oblique-3b2" transform="translate(472.460938 0.390625)"/>
     <use xlink:href="#DejaVuSans-Oblique-63" transform="translate(536.279297 -16.015625) scale(0.7)"/>
    </g>
   </g>
  </g>
 </g>
 <defs>
  <clipPath id="p3fd4f7a180">
   <rect x="65.90625" y="14.798437" width="558" height="277.2"/>
  </clipPath>
 </defs>
</svg>
